<?xml version="1.0" encoding="UTF-8"?>
<!DOCTYPE svg PUBLIC "-//W3C//DTD SVG 1.1//EN" "http://www.w3.org/Graphics/SVG/1.1/DTD/svg11.dtd">
<!-- Creator: CorelDRAW -->
<svg xmlns="http://www.w3.org/2000/svg" xml:space="preserve" width="22px" height="22px" style="shape-rendering:geometricPrecision; text-rendering:geometricPrecision; image-rendering:optimizeQuality; fill-rule:evenodd; clip-rule:evenodd"
viewBox="0 0 0.811868 0.811868"
 xmlns:xlink="http://www.w3.org/1999/xlink">
 <defs>
  <style type="text/css">
   <![CDATA[
    .str2 {stroke:white;stroke-width:0.0318408}
    .str1 {stroke:#231F20;stroke-width:0.0318408}
    .str0 {stroke:#686868;stroke-width:0.0318408}
    .fil8 {fill:none}
    .fil2 {fill:none;fill-rule:nonzero}
    .fil0 {fill:#686868;fill-rule:nonzero}
    .fil6 {fill:lightgrey;fill-rule:nonzero}
    .fil1 {fill:#F9F9F9;fill-rule:nonzero}
    .fil3 {fill:#FF7676;fill-rule:nonzero}
    .fil5 {fill:#FFD550;fill-rule:nonzero}
    .fil4 {fill:white;fill-rule:nonzero}
    .fil7 {fill:url(#id2)}
   ]]>
  </style>
  <clipPath id="id0" style="clip-rule:nonzero">
   <rect x="-8.83461" y="-9.31805" width="6.33193" height="5.24377"/>
  </clipPath>
  <pattern id="id1" patternUnits="userSpaceOnUse" patternTransform="matrix(1 0 0 1 -65.4285 48.5599)" x="0" y="0" width="1.86577" height="1.86574" viewBox="-11 21.3309 1.83393 1.8339">
   <polygon id="1" class="fil4" points="-15.5848,16.7461 -4.58128,16.7461 -4.58128,27.7496 -15.5848,27.7496 "/>
   <path id="12" class="fil4" d="M-9.1661 23.2106c0.0252163,0 0.0458478,-0.0205774 0.0458478,-0.0458478 0,-0.0253427 -0.0206315,-0.0457937 -0.0458478,-0.0457937 -0.0253427,0 -0.0458478,0.020451 -0.0458478,0.0457937 0,0.0252705 0.0205052,0.0458478 0.0458478,0.0458478z"/>
   <path id="123" class="fil2 str2" d="M-9.1661 23.2106c0.0252163,0 0.0458478,-0.0205774 0.0458478,-0.0458478 0,-0.0253427 -0.0206315,-0.0457937 -0.0458478,-0.0457937 -0.0253427,0 -0.0458478,0.020451 -0.0458478,0.0457937 0,0.0252705 0.0205052,0.0458478 0.0458478,0.0458478z"/>
   <path id="1234" class="fil4" d="M-10.0831 23.2106c0.0252705,0 0.0458478,-0.0205774 0.0458478,-0.0458478 0,-0.0253427 -0.0205774,-0.0457937 -0.0458478,-0.0457937 -0.0252885,0 -0.0458478,0.020451 -0.0458478,0.0457937 0,0.0252705 0.0205593,0.0458478 0.0458478,0.0458478z"/>
   <path id="12345" class="fil2 str2" d="M-10.0831 23.2106c0.0252705,0 0.0458478,-0.0205774 0.0458478,-0.0458478 0,-0.0253427 -0.0205774,-0.0457937 -0.0458478,-0.0457937 -0.0252885,0 -0.0458478,0.020451 -0.0458478,0.0457937 0,0.0252705 0.0205593,0.0458478 0.0458478,0.0458478z"/>
   <path id="123456" class="fil4" d="M-9.1661 22.2937c0.0252163,0 0.0458478,-0.0205774 0.0458478,-0.0459201 0,-0.0253427 -0.0206315,-0.0457756 -0.0458478,-0.0457756 -0.0253427,0 -0.0458478,0.020433 -0.0458478,0.0457756 0,0.0253427 0.0205052,0.0459201 0.0458478,0.0459201z"/>
   <path id="1234567" class="fil2 str2" d="M-9.1661 22.2937c0.0252163,0 0.0458478,-0.0205774 0.0458478,-0.0459201 0,-0.0253427 -0.0206315,-0.0457756 -0.0458478,-0.0457756 -0.0253427,0 -0.0458478,0.020433 -0.0458478,0.0457756 0,0.0253427 0.0205052,0.0459201 0.0458478,0.0459201z"/>
   <path id="12345678" class="fil4" d="M-10.0831 22.2937c0.0252705,0 0.0458478,-0.0205774 0.0458478,-0.0459201 0,-0.0253427 -0.0205774,-0.0457756 -0.0458478,-0.0457756 -0.0252885,0 -0.0458478,0.020433 -0.0458478,0.0457756 0,0.0253427 0.0205593,0.0459201 0.0458478,0.0459201z"/>
   <path id="123456789" class="fil2 str2" d="M-10.0831 22.2937c0.0252705,0 0.0458478,-0.0205774 0.0458478,-0.0459201 0,-0.0253427 -0.0205774,-0.0457756 -0.0458478,-0.0457756 -0.0252885,0 -0.0458478,0.020433 -0.0458478,0.0457756 0,0.0253427 0.0205593,0.0459201 0.0458478,0.0459201z"/>
   <path id="12345678910" class="fil4" d="M-10.5415 22.7521c0.0252705,0 0.0458478,-0.0205052 0.0458478,-0.0458478 0,-0.0253427 -0.0205774,-0.0457937 -0.0458478,-0.0457937 -0.0253427,0 -0.0458478,0.020451 -0.0458478,0.0457937 0,0.0253427 0.0205052,0.0458478 0.0458478,0.0458478z"/>
   <path id="1234567891011" class="fil2 str2" d="M-10.5415 22.7521c0.0252705,0 0.0458478,-0.0205052 0.0458478,-0.0458478 0,-0.0253427 -0.0205774,-0.0457937 -0.0458478,-0.0457937 -0.0253427,0 -0.0458478,0.020451 -0.0458478,0.0457937 0,0.0253427 0.0205052,0.0458478 0.0458478,0.0458478z"/>
   <path id="123456789101112" class="fil4" d="M-9.62458 22.7521c0.0252705,0 0.0458478,-0.0205052 0.0458478,-0.0458478 0,-0.0253427 -0.0205774,-0.0457937 -0.0458478,-0.0457937 -0.0253427,0 -0.0458478,0.020451 -0.0458478,0.0457937 0,0.0253427 0.0205052,0.0458478 0.0458478,0.0458478z"/>
   <path id="12345678910111213" class="fil2 str2" d="M-9.62458 22.7521c0.0252705,0 0.0458478,-0.0205052 0.0458478,-0.0458478 0,-0.0253427 -0.0205774,-0.0457937 -0.0458478,-0.0457937 -0.0253427,0 -0.0458478,0.020451 -0.0458478,0.0457937 0,0.0253427 0.0205052,0.0458478 0.0458478,0.0458478z"/>
   <path id="1234567891011121314" class="fil4" d="M-10.5415 21.8351c0.0252705,0 0.0458478,-0.0204871 0.0458478,-0.0457756 0,-0.0253427 -0.0205774,-0.0458478 -0.0458478,-0.0458478 -0.0253427,0 -0.0458478,0.0205052 -0.0458478,0.0458478 0,0.0252885 0.0205052,0.0457756 0.0458478,0.0457756z"/>
   <path id="123456789101112131415" class="fil2 str2" d="M-10.5415 21.8351c0.0252705,0 0.0458478,-0.0204871 0.0458478,-0.0457756 0,-0.0253427 -0.0205774,-0.0458478 -0.0458478,-0.0458478 -0.0253427,0 -0.0458478,0.0205052 -0.0458478,0.0458478 0,0.0252885 0.0205052,0.0457756 0.0458478,0.0457756z"/>
   <path id="12345678910111213141516" class="fil4" d="M-9.62458 21.8351c0.0252705,0 0.0458478,-0.0204871 0.0458478,-0.0457756 0,-0.0253427 -0.0205774,-0.0458478 -0.0458478,-0.0458478 -0.0253427,0 -0.0458478,0.0205052 -0.0458478,0.0458478 0,0.0252885 0.0205052,0.0457756 0.0458478,0.0457756z"/>
   <path id="1234567891011121314151617" class="fil2 str2" d="M-9.62458 21.8351c0.0252705,0 0.0458478,-0.0204871 0.0458478,-0.0457756 0,-0.0253427 -0.0205774,-0.0458478 -0.0458478,-0.0458478 -0.0253427,0 -0.0458478,0.0205052 -0.0458478,0.0458478 0,0.0252885 0.0205052,0.0457756 0.0458478,0.0457756z"/>
   <path id="123456789101112131415161718" class="fil4" d="M-11 23.2106c0.0252163,0 0.0458478,-0.0205774 0.0458478,-0.0458478 0,-0.0253427 -0.0206315,-0.0457937 -0.0458478,-0.0457937 -0.0253427,0 -0.0458478,0.020451 -0.0458478,0.0457937 0,0.0252705 0.0205052,0.0458478 0.0458478,0.0458478z"/>
   <path id="12345678910111213141516171819" class="fil2 str2" d="M-11 23.2106c0.0252163,0 0.0458478,-0.0205774 0.0458478,-0.0458478 0,-0.0253427 -0.0206315,-0.0457937 -0.0458478,-0.0457937 -0.0253427,0 -0.0458478,0.020451 -0.0458478,0.0457937 0,0.0252705 0.0205052,0.0458478 0.0458478,0.0458478z"/>
   <path id="1234567891011121314151617181920" class="fil4" d="M-11 22.2937c0.0252163,0 0.0458478,-0.0205774 0.0458478,-0.0459201 0,-0.0253427 -0.0206315,-0.0457756 -0.0458478,-0.0457756 -0.0253427,0 -0.0458478,0.020433 -0.0458478,0.0457756 0,0.0253427 0.0205052,0.0459201 0.0458478,0.0459201z"/>
   <path id="123456789101112131415161718192021" class="fil2 str2" d="M-11 22.2937c0.0252163,0 0.0458478,-0.0205774 0.0458478,-0.0459201 0,-0.0253427 -0.0206315,-0.0457756 -0.0458478,-0.0457756 -0.0253427,0 -0.0458478,0.020433 -0.0458478,0.0457756 0,0.0253427 0.0205052,0.0459201 0.0458478,0.0459201z"/>
   <path id="12345678910111213141516171819202122" class="fil4" d="M-9.1661 21.3767c0.0252163,0 0.0458478,-0.0205593 0.0458478,-0.0458478 0,-0.0253427 -0.0206315,-0.0457756 -0.0458478,-0.0457756 -0.0253427,0 -0.0458478,0.020433 -0.0458478,0.0457756 0,0.0252885 0.0205052,0.0458478 0.0458478,0.0458478z"/>
   <path id="1234567891011121314151617181920212223" class="fil2 str2" d="M-9.1661 21.3767c0.0252163,0 0.0458478,-0.0205593 0.0458478,-0.0458478 0,-0.0253427 -0.0206315,-0.0457756 -0.0458478,-0.0457756 -0.0253427,0 -0.0458478,0.020433 -0.0458478,0.0457756 0,0.0252885 0.0205052,0.0458478 0.0458478,0.0458478z"/>
   <path id="123456789101112131415161718192021222324" class="fil4" d="M-10.0831 21.3767c0.0252705,0 0.0458478,-0.0205593 0.0458478,-0.0458478 0,-0.0253427 -0.0205774,-0.0457756 -0.0458478,-0.0457756 -0.0252885,0 -0.0458478,0.020433 -0.0458478,0.0457756 0,0.0252885 0.0205593,0.0458478 0.0458478,0.0458478z"/>
   <path id="12345678910111213141516171819202122232425" class="fil2 str2" d="M-10.0831 21.3767c0.0252705,0 0.0458478,-0.0205593 0.0458478,-0.0458478 0,-0.0253427 -0.0205774,-0.0457756 -0.0458478,-0.0457756 -0.0252885,0 -0.0458478,0.020433 -0.0458478,0.0457756 0,0.0252885 0.0205593,0.0458478 0.0458478,0.0458478z"/>
   <path id="1234567891011121314151617181920212223242526" class="fil4" d="M-11 21.3767c0.0252163,0 0.0458478,-0.0205593 0.0458478,-0.0458478 0,-0.0253427 -0.0206315,-0.0457756 -0.0458478,-0.0457756 -0.0253427,0 -0.0458478,0.020433 -0.0458478,0.0457756 0,0.0252885 0.0205052,0.0458478 0.0458478,0.0458478z"/>
   <path id="123456789101112131415161718192021222324252627" class="fil2 str2" d="M-11 21.3767c0.0252163,0 0.0458478,-0.0205593 0.0458478,-0.0458478 0,-0.0253427 -0.0206315,-0.0457756 -0.0458478,-0.0457756 -0.0253427,0 -0.0458478,0.020433 -0.0458478,0.0457756 0,0.0252885 0.0205052,0.0458478 0.0458478,0.0458478z"/>
  </pattern>
  <linearGradient id="id2" gradientUnits="userSpaceOnUse" x1="20.8483" y1="23.1455" x2="20.8483" y2="-15.0411">
   <stop offset="0" style="stop-color:#EF5053"/>
   <stop offset="0.0117647" style="stop-color:#EF5053"/>
   <stop offset="1" style="stop-color:#F8D322"/>
  </linearGradient>
 </defs>
<symbol id="Fm7-53743-0" viewBox="23.164 -9.24403 8.24633 1.08984">
 <path class="fil0" d="M24.8672 -8.80483c0,-0.0605408 0.0162092,-0.107905 0.0487359,-0.142128 0.0325087,-0.0342234 0.0744576,-0.0513713 0.125919,-0.0513713 0.0336097,0 0.0640065,0.0080685 0.0910098,0.0241152 0.0270033,0.016137 0.0476348,0.0385555 0.0618043,0.0673277 0.0141876,0.0287 0.0212272,0.0613892 0.0212272,0.0978148 0,0.0370212 -0.00738259,0.0701255 -0.0223283,0.0992407 -0.0149457,0.0292054 -0.0360826,0.051281 -0.0634289,0.0663169 -0.0274185,0.0150179 -0.0568766,0.0224907 -0.0885549,0.0224907 -0.0343859,0 -0.0650354,-0.00823095 -0.0920206,-0.0248734 -0.0270936,-0.0165522 -0.0475446,-0.0392234 -0.0614794,-0.0679234 -0.0139168,-0.0286098 -0.0208842,-0.0590065 -0.0208842,-0.0910098zm0.0497467 0.000758114c0,0.0439887 0.0118049,0.078537 0.0354148,0.103844 0.023682,0.0253066 0.0533207,0.0379418 0.0889701,0.0379418 0.0363353,0 0.0662267,-0.0127255 0.089656,-0.0382848 0.0234474,-0.0255593 0.0352343,-0.0618043 0.0352343,-0.108753 0,-0.0296386 -0.00509019,-0.0555409 -0.0151081,-0.0776886 -0.0100179,-0.0221658 -0.0247109,-0.0393136 -0.0439706,-0.0515337 -0.019368,-0.0121479 -0.0410104,-0.0182669 -0.0650354,-0.0182669 -0.0342234,0 -0.0635913,0.0117147 -0.088212,0.0352343 -0.0246387,0.0234474 -0.036949,0.0626708 -0.036949,0.117508zm0.425627 0.176857l0 -0.364653 0.161659 0c0.0325087,0 0.0572196,0.00330321 0.0741147,0.00983743 0.0168951,0.00655227 0.0303968,0.0180864 0.0405952,0.0346386 0.0100901,0.0166424 0.0151081,0.0349815 0.0151081,0.0550174 0,0.0259022 -0.0083212,0.0476348 -0.0251261,0.0653783 -0.0167327,0.0177435 -0.0426349,0.029043 -0.0776164,0.0338805 0.0128338,0.00611906 0.0225088,0.0121479 0.0291332,0.0181767 0.0140973,0.012906 0.0274185,0.0291152 0.0400717,0.0484651l0.0634289 0.0992588 -0.0607213 0 -0.0482124 -0.0759017c-0.0140973,-0.0218229 -0.0257398,-0.0386277 -0.0349093,-0.0501799 -0.00907932,-0.0116244 -0.01722,-0.0197832 -0.0244402,-0.024368 -0.00722013,-0.00467504 -0.0145125,-0.007888 -0.0219853,-0.00976523 -0.0055234,-0.00110107 -0.0144403,-0.00169673 -0.026913,-0.00169673l-0.055956 0 0 0.161911 -0.0482305 0zm0.0482305 -0.20368l0.103753 0c0.0219853,0 0.0392956,-0.00229239 0.0516962,-0.00687718 0.0124908,-0.00458478 0.0219131,-0.0118952 0.0283571,-0.0219131 0.00646202,-0.0100179 0.00967498,-0.0208842 0.00967498,-0.0326892 0,-0.01722 -0.00619126,-0.0314076 -0.0187543,-0.0425266 -0.0124728,-0.011119 -0.0322559,-0.0166424 -0.0593495,-0.0166424l-0.115378 0 0 0.120648zm0.553225 0.060613l0 -0.0427071 0.154439 -0.000252705 0 0.135251c-0.023682,0.0189348 -0.0481402,0.0331224 -0.0733566,0.0427071 -0.0252163,0.00951253 -0.0511005,0.0142598 -0.0775984,0.0142598 -0.0358299,0 -0.0684288,-0.00763529 -0.0976343,-0.0229961 -0.0292957,-0.0152886 -0.0513713,-0.0375266 -0.0663169,-0.0664794 -0.0149457,-0.029043 -0.0224185,-0.0614794 -0.0224185,-0.0973094 0,-0.035487 0.00747284,-0.0685913 0.0223463,-0.099331 0.0147652,-0.0308119 0.0361548,-0.0536636 0.0640065,-0.0686093 0.0278517,-0.0148554 0.0599452,-0.0223283 0.0962805,-0.0223283 0.0263174,0 0.0501799,0.00425988 0.0714974,0.0128338 0.0212994,0.00848366 0.0380321,0.0203788 0.0500897,0.0356494 0.0121298,0.0152886 0.0212994,0.035144 0.0276712,0.0596925l-0.0435555 0.0119674c-0.0055234,-0.0185918 -0.0123103,-0.0331946 -0.0203788,-0.0438082 -0.0081407,-0.0106136 -0.0197832,-0.0190973 -0.0348913,-0.025469 -0.0150359,-0.00637177 -0.0318408,-0.00960278 -0.0501799,-0.00960278 -0.0220756,0 -0.0411728,0.00341151 -0.0572196,0.0101082 -0.016137,0.00671472 -0.029043,0.0155413 -0.0389707,0.0264979 -0.00985548,0.0109385 -0.0174908,0.0229239 -0.0230142,0.0360826 -0.00924177,0.0224907 -0.0139168,0.0469489 -0.0139168,0.0733566 0,0.0325087 0.0055956,0.0596744 0.0168049,0.0815875 0.0112093,0.0218951 0.0275087,0.0381223 0.0488984,0.0487359 0.0214077,0.0106136 0.0440789,0.0159565 0.0681039,0.0159565 0.0209745,0 0.0413353,-0.00407938 0.0612087,-0.0121479 0.0199637,-0.00797825 0.0349815,-0.0165522 0.0452522,-0.0257217l0 -0.0679234 -0.107147 0zm0.249203 0.143067l0.140089 -0.364653 0.0519489 0 0.149258 0.364653 -0.0550174 0 -0.0425266 -0.11045 -0.152489 0 -0.0399815 0.11045 -0.051281 0zm0.105197 -0.149764l0.123699 0 -0.0381223 -0.100956c-0.0115522,-0.0306495 -0.0202164,-0.0558658 -0.025812,-0.075649 -0.00467504,0.0234293 -0.0112093,0.046606 -0.0196929,0.0697104l-0.0400717 0.106894zm0.33783 0.149764l0 -0.364653 0.049494 0 0.191532 0.286296 0 -0.286296 0.0462811 0 0 0.364653 -0.049494 0 -0.19155 -0.286549 0 0.286549 -0.046263 0zm0.440302 0l0 -0.364653 0.0482305 0 0 0.364653 -0.0482305 0zm0.16785 0l0 -0.0447468 0.186803 -0.233571c0.0133211,-0.0166424 0.0258842,-0.0310646 0.0378516,-0.0432847l-0.203499 0 0 -0.04305 0.261152 0 0 0.04305 -0.204691 0.252921 -0.0221658 0.0256315 0.232885 0 0 0.04305 -0.288336 0zm0.404995 0l0 -0.364653 0.263625 0 0 0.04305 -0.215395 0 0 0.111641 0.201731 0 0 0.0427793 -0.201731 0 0 0.124132 0.223878 0 0 0.04305 -0.272109 0zm0.591275 -0.117165l0.0455049 -0.00398912c0.00212994,0.0182489 0.00712988,0.0331946 0.0150359,0.0449092 0.007888,0.0117147 0.0201081,0.0211369 0.0366783,0.0283571 0.0165522,0.00722013 0.0352343,0.010776 0.055938,0.010776 0.0184294,0 0.0346566,-0.00270755 0.0487359,-0.0081407 0.0140973,-0.0055234 0.0246207,-0.0129962 0.0314978,-0.0225088 0.00687718,-0.00958473 0.0103609,-0.0199456 0.0103609,-0.0312271 0,-0.011462 -0.00330321,-0.0214077 -0.0100179,-0.0299816 -0.00662447,-0.00857391 -0.017563,-0.0157038 -0.0327614,-0.0214799 -0.00985548,-0.00382667 -0.0314256,-0.00976523 -0.0649632,-0.0178337 -0.0334473,-0.0080685 -0.0569669,-0.0156135 -0.0703783,-0.0227434 -0.0174005,-0.00909737 -0.0303968,-0.0204691 -0.0389707,-0.0339707 -0.00848366,-0.0135016 -0.0127435,-0.0286098 -0.0127435,-0.0454146 0,-0.0183391 0.00518045,-0.0355772 0.0156316,-0.0515337 0.0104331,-0.0160467 0.0257217,-0.0281946 0.0457576,-0.0365158 0.0201261,-0.00823095 0.0423641,-0.0124006 0.0669126,-0.0124006 0.0270755,0 0.0508478,0.00433208 0.0715696,0.0130865 0.0206315,0.00866416 0.0364978,0.0214799 0.0476348,0.038375 0.0110288,0.0168951 0.0170576,0.0360826 0.0179059,0.0574723l-0.046263 0.00348371c-0.00256315,-0.0230142 -0.0109566,-0.0405049 -0.0253066,-0.0522196 -0.01435,-0.0118049 -0.035487,-0.0176532 -0.0635011,-0.0176532 -0.0292235,0 -0.0504326,0.0053429 -0.0638621,0.0160467 -0.0133211,0.0107038 -0.0200359,0.0236098 -0.0200359,0.0386277 0,0.0131587 0.00476529,0.0239528 0.0141876,0.0323462 0.00933202,0.00850171 0.0335375,0.0171478 0.0727609,0.0259925 0.0392234,0.00889881 0.0661364,0.0166244 0.0807391,0.0232488 0.0212272,0.00985548 0.036931,0.0222561 0.0470392,0.0372017 0.0101082,0.0150179 0.0151081,0.0323462 0.0151081,0.0518586 0,0.0194583 -0.0055234,0.0377071 -0.0166424,0.054855 -0.011119,0.0171478 -0.0270755,0.030487 -0.0478875,0.0400717 -0.020794,0.00951253 -0.0442233,0.0142598 -0.0702158,0.0142598 -0.0330141,0 -0.0607033,-0.00474724 -0.0829413,-0.0144222 -0.0223283,-0.00960278 -0.039819,-0.024025 -0.0525626,-0.043393 -0.0126352,-0.0192778 -0.01935,-0.0411728 -0.0199456,-0.0655408zm0.679992 -0.0107038l0.0483027 0.0122381c-0.0101082,0.0395663 -0.0283571,0.0697826 -0.0545842,0.0906668 -0.0263174,0.020812 -0.0584109,0.0311549 -0.096461,0.0311549 -0.0392956,0 -0.0712266,-0.00797825 -0.0958473,-0.0239347 -0.0246207,-0.0160467 -0.043393,-0.0392234 -0.0562087,-0.0695299 -0.0128157,-0.0303968 -0.0192778,-0.0629957 -0.0192778,-0.0978148 0,-0.0379599 0.00722013,-0.0710642 0.0217507,-0.099331 0.0145125,-0.0282849 0.035144,-0.0497648 0.0619668,-0.0644397 0.0267506,-0.014693 0.0562087,-0.0220034 0.0883925,-0.0220034 0.0364978,0 0.0671472,0.00925982 0.0920387,0.0278517 0.0248734,0.0185918 0.0421836,0.0446565 0.0519489,0.0783746l-0.0474543 0.0112093c-0.00850171,-0.0265881 -0.0207218,-0.0458478 -0.0368588,-0.0579957 -0.0160467,-0.0121479 -0.0362451,-0.0181767 -0.0607033,-0.0181767 -0.0280141,0 -0.0513532,0.00671472 -0.0702158,0.0201261 -0.0188445,0.0135016 -0.0320935,0.0314978 -0.0396385,0.0541691 -0.00765334,0.022581 -0.011462,0.0459381 -0.011462,0.0699631 0,0.0310646 0.00449453,0.0580679 0.0135016,0.0812446 0.00907932,0.0231044 0.0230864,0.0404147 0.0421836,0.0518767 0.0191153,0.011462 0.0397468,0.0171478 0.0619848,0.0171478 0.0270033,0 0.049837,-0.00779774 0.0686093,-0.0233391 0.0187543,-0.0156316 0.0314076,-0.0388082 0.0380321,-0.0694577zm0.172868 0.127869l0 -0.364653 0.0483027 0 0 0.149764 0.18951 0 0 -0.149764 0.0483027 0 0 0.364653 -0.0483027 0 0 -0.171839 -0.18951 0 0 0.171839 -0.0483027 0zm0.431132 0l0 -0.364653 0.263625 0 0 0.04305 -0.215395 0 0 0.111641 0.201731 0 0 0.0427793 -0.201731 0 0 0.124132 0.223878 0 0 0.04305 -0.272109 0zm0.40245 0l0 -0.364653 0.125576 0c0.0283571,0 0.0499994,0.00178698 0.0649451,0.00525265 0.0208842,0.00476529 0.038718,0.0135016 0.0534831,0.0260647 0.0191875,0.0163175 0.0336278,0.0370212 0.0431403,0.0623278 0.00958473,0.0253066 0.01435,0.0541691 0.01435,0.0866777 0,0.0276892 -0.00323101,0.0522196 -0.00976523,0.0736093 -0.00646202,0.0214077 -0.014693,0.0391512 -0.0248914,0.0531582 -0.0100901,0.0140071 -0.0211369,0.0250358 -0.0331946,0.0330321 -0.0119674,0.00805045 -0.0264798,0.0141695 -0.0434652,0.0183391 -0.0170576,0.00415158 -0.036588,0.00619126 -0.0585914,0.00619126l-0.131587 0zm0.0482124 -0.04305l0.0778691 0c0.024025,0 0.0429598,-0.00220214 0.0566239,-0.00669667 0.0136641,-0.00451258 0.0245304,-0.0107941 0.0326892,-0.0189348 0.011462,-0.0113898 0.0203788,-0.0268408 0.0267506,-0.0461006 0.00635372,-0.019368 0.00958473,-0.0427071 0.00958473,-0.0703061 0,-0.0381223 -0.00628152,-0.067418 -0.0187543,-0.087869 -0.012563,-0.0205593 -0.0277614,-0.0342234 -0.0456854,-0.0411909 -0.012906,-0.00499994 -0.0337902,-0.00745479 -0.0624,-0.00745479l-0.0766778 0 0 0.278553zm0.62261 -0.321603l0.0483027 0 0 0.21072c0,0.0366061 -0.00415158,0.0657213 -0.0124728,0.0872914 -0.0083212,0.0215521 -0.0232669,0.0390429 -0.0449273,0.0525445 -0.0216424,0.0135919 -0.0499994,0.0202886 -0.0851434,0.0202886 -0.0341332,0 -0.0621473,-0.00584831 -0.0838077,-0.0176532 -0.0217326,-0.0117147 -0.0372739,-0.0287903 -0.0465157,-0.0511185 -0.00935007,-0.0223283 -0.0139349,-0.052725 -0.0139349,-0.0913527l0 -0.21072 0.0482305 0 0 0.210467c0,0.0316783 0.00296025,0.0550174 0.00882661,0.0699631 0.00586636,0.0150359 0.0160467,0.0265701 0.0303065,0.0347288 0.01435,0.0081407 0.031931,0.0122201 0.0526348,0.0122201 0.035505,0 0.0607935,-0.0080685 0.0759197,-0.0241874 0.0150179,-0.0160467 0.022581,-0.046967 0.022581,-0.0927246l0 -0.210467zm0.190269 0.364653l0 -0.364653 0.0483027 0 0 0.321603 0.179583 0 0 0.04305 -0.227885 0zm0.35005 0l0 -0.364653 0.263625 0 0 0.04305 -0.215395 0 0 0.111641 0.201731 0 0 0.0427793 -0.201731 0 0 0.124132 0.223878 0 0 0.04305 -0.272109 0z"/>
 <polygon class="fil1 str0" points="23.9811,-8.3207 23.18,-8.3207 23.18,-9.12183 23.9811,-9.12183 "/>
 <line class="fil2 str0" x1="23.3355" y1="-9.01257" x2="23.3355" y2= "-9.24403" />
 <line class="fil2 str0" x1="23.8302" y1="-9.01257" x2="23.8302" y2= "-9.24403" />
 <polygon class="fil1 str0" points="24.1317,-8.1701 23.3305,-8.1701 23.3305,-8.97123 24.1317,-8.97123 "/>
</symbol>
<symbol id="Fm18-53723-0" viewBox="7.01304 6.44372 5.60255 1.29462">
 <polygon class="fil3" points="7.06088,6.49148 12.5678,6.49148 12.5678,7.69065 7.06088,7.69065 "/>
 <path class="fil4" d="M12.6156 6.44372l-5.60255 0 0 1.29462 5.60255 0 0 -1.29462zm-0.0955224 1.1991l-5.41151 0 0 -1.10358 5.41151 0 0 1.10358z"/>
</symbol>
<symbol id="Fm14-53719-0" viewBox="-10.9878 13.7224 10.8419 0.0318408">
 <line class="fil2 str1" x1="-0.145883" y1="13.7383" x2="-10.9878" y2= "13.7383" />
</symbol>
<symbol id="Fm0-54062-0" viewBox="-8.34398 -9.24686 4.8928 4.89272">
 <path class="fil1" d="M-3.45119 -6.8005c0,1.35112 -1.09531,2.44636 -2.44636,2.44636 -1.35118,0 -2.44643,-1.09524 -2.44643,-2.44636 0,-1.3511 1.09526,-2.44636 2.44643,-2.44636 1.35105,0 2.44636,1.09526 2.44636,2.44636z"/>
</symbol>
<symbol id="Fm31-53738-0" viewBox="29.4157 1.27291 5.60253 1.29462">
 <polygon class="fil5" points="29.4635,1.32067 34.9705,1.32067 34.9705,2.51984 29.4635,2.51984 "/>
 <path class="fil4" d="M35.0182 1.27291l-5.60253 0 0 1.29462 5.60253 0 0 -1.29462zm-0.0955043 1.19917l-5.41151 0 0 -1.1036 5.41151 0 0 1.1036z"/>
</symbol>
<symbol id="Fm0-53714-0" viewBox="-11 -15.0877 63.6966 38.2332">
 <polygon class="fil6" points="-11,-15.0877 52.6966,-15.0877 52.6966,23.1455 -11,23.1455 "/>
</symbol>
<symbol id="Fm28-53734-0" viewBox="29.3967 6.44372 5.60253 1.29462">
 <polygon class="fil3" points="29.4445,6.49148 34.9515,6.49148 34.9515,7.69065 29.4445,7.69065 "/>
 <path class="fil4" d="M34.9993 6.44372l-5.60253 0 0 1.29462 5.60253 0 0 -1.29462zm-0.0955224 1.1991l-5.41151 0 0 -1.10358 5.41151 0 0 1.10358z"/>
</symbol>
<symbol id="Fm10-49378-0" viewBox="-8.83461 -9.31805 6.33193 5.24377">
 <g style="clip-path:url(#id0)">
  <image transform="matrix(1 0 0 1 2.16539 -27.2391)" x="-11" y="17.9196" width="6.3337" height="5.24525" xlink:href="box-view_Images\box-view_ImgID1.png"/>
 </g>
</symbol>
<symbol id="Fm5-53741-0" viewBox="-11.0163 -12.9779 10.8741 36.1587">
 <polygon class="fil2 str1" points="-0.158121,23.1648 -11.0004,23.1648 -11.0004,-12.962 -0.158121,-12.962 "/>
</symbol>
<symbol id="Fm23-53729-0" viewBox="18.2147 3.8544 5.60253 1.29462">
 <polygon class="fil3" points="18.2625,3.90216 23.7694,3.90216 23.7694,5.10133 18.2625,5.10133 "/>
 <path class="fil4" d="M23.8172 3.8544l-5.60253 0 0 1.29462 5.60253 0 0 -1.29462zm-0.0955043 1.19917l-5.41153 0 0 -1.1036 5.41153 0 0 1.1036z"/>
</symbol>
<symbol id="Fm12-53717-0" viewBox="-11.0159 0.739667 10.8578 10.4962">
 <polyline class="fil2 str1" points="-0.158157,11.2199 -11,11.2199 -11,0.755587 -0.158157,0.755587 "/>
 <line class="fil2 str1" x1="-11" y1="8.60384" x2="-0.158121" y2= "8.60384" />
 <line class="fil2 str1" x1="-11" y1="5.98777" x2="-0.158121" y2= "5.98777" />
 <line class="fil2 str1" x1="-11" y1="3.37168" x2="-0.158121" y2= "3.37168" />
</symbol>
<symbol id="Fm30-53737-0" viewBox="18.2147 1.27291 5.60253 1.29462">
 <polygon class="fil5" points="18.2625,1.32067 23.7694,1.32067 23.7694,2.51984 18.2625,2.51984 "/>
 <path class="fil4" d="M23.8172 1.27291l-5.60253 0 0 1.29462 5.60253 0 0 -1.29462zm-0.0955043 1.19917l-5.41153 0 0 -1.1036 5.41153 0 0 1.1036z"/>
</symbol>
<symbol id="Fm9-53745-0" viewBox="18.3732 -10.1135 31.0636 2.67824">
 <line class="fil2 str1" x1="49.4369" y1="-7.45118" x2="18.3892" y2= "-7.45118" />
 <line class="fil2 str1" x1="33.913" y1="-10.1135" x2="33.913" y2= "-7.45114" />
 <line class="fil2 str1" x1="18.3892" y1="-10.1135" x2="18.3892" y2= "-7.45114" />
</symbol>
<symbol id="Fm27-53733-0" viewBox="29.3967 3.8544 5.60253 1.29462">
 <polygon class="fil3" points="29.4445,3.90216 34.9515,3.90216 34.9515,5.10126 29.4445,5.10126 "/>
 <path class="fil4" d="M34.9993 3.8544l-5.60253 0 0 1.29462 5.60253 0 0 -1.29462zm-0.0955224 1.19917l-5.41151 0 0 -1.1036 5.41151 0 0 1.1036z"/>
</symbol>
<symbol id="Fm22-53728-0" viewBox="18.2147 6.44372 5.60253 1.29462">
 <polygon class="fil3" points="18.2625,6.49148 23.7694,6.49148 23.7694,7.69065 18.2625,7.69065 "/>
 <path class="fil4" d="M23.8172 6.44372l-5.60253 0 0 1.29462 5.60253 0 0 -1.29462zm-0.0955043 1.1991l-5.41153 0 0 -1.10358 5.41153 0 0 1.10358z"/>
</symbol>
<symbol id="Fm17-53722-0" viewBox="12.6072 10.3228 5.60255 1.29462">
 <polygon class="fil0" points="18.2097,11.6174 12.6072,11.6174 12.6072,10.3228 18.2097,10.3228 "/>
</symbol>
<symbol id="Fm13-53718-0" viewBox="-11.0191 16.2972 10.8419 0.0318408">
 <line class="fil2 str1" x1="-0.177182" y1="16.3131" x2="-11.0191" y2= "16.3131" />
</symbol>
<symbol id="Fm26-53732-0" viewBox="35.0235 3.8544 5.60255 1.29462">
 <polygon class="fil3" points="35.0713,3.90216 40.5783,3.90216 40.5783,5.10133 35.0713,5.10133 "/>
 <path class="fil4" d="M40.6261 3.8544l-5.60255 0 0 1.29462 5.60255 0 0 -1.29462zm-0.0955224 1.19917l-5.41151 0 0 -1.1036 5.41151 0 0 1.1036z"/>
</symbol>
<symbol id="Fm15-53720-0" viewBox="19.1478 -5.19949 0.720714 0.752536">
 <line class="fil2 str0" x1="19.1478" y1="-4.46287" x2="19.8685" y2= "-4.46287" />
 <line class="fil2 str0" x1="19.1478" y1="-4.71076" x2="19.8685" y2= "-4.71076" />
 <line class="fil2 str0" x1="19.1478" y1="-4.95863" x2="19.8685" y2= "-4.95863" />
 <line class="fil2 str0" x1="19.1478" y1="-5.18357" x2="19.8685" y2= "-5.18357" />
</symbol>
<symbol id="Fm8-53744-0" viewBox="38.617 -9.24148 7.26347 0.918329">
 <path class="fil0" d="M40.3333 -8.62721l0 -0.364653 0.0726706 0 0.0862625 0.258192c0.0079963,0.024025 0.0138446,0.0420212 0.0174186,0.0539885 0.00415158,-0.0132489 0.0106136,-0.0327614 0.0194402,-0.0585011l0.0872734 -0.253679 0.0649451 0 0 0.364653 -0.0465157 0 0 -0.305231 -0.105955 0.305231 -0.0435555 0 -0.10545 -0.310412 0 0.310412 -0.0465338 0zm0.449489 0l0.140089 -0.364653 0.0519489 0 0.149258 0.364653 -0.0550174 0 -0.0425266 -0.11045 -0.152489 0 -0.0399815 0.11045 -0.051281 0zm0.105197 -0.149764l0.123699 0 -0.0381223 -0.100956c-0.0115522,-0.0306495 -0.0202164,-0.0558658 -0.025812,-0.075649 -0.00467504,0.0234293 -0.0112093,0.046606 -0.0196929,0.0697104l-0.0400717 0.106894zm0.33783 0.149764l0 -0.364653 0.049494 0 0.191532 0.286296 0 -0.286296 0.0462811 0 0 0.364653 -0.049494 0 -0.19155 -0.286549 0 0.286549 -0.046263 0zm0.391999 0l0.140089 -0.364653 0.0519489 0 0.149258 0.364653 -0.0550174 0 -0.0425266 -0.11045 -0.152489 0 -0.0399815 0.11045 -0.051281 0zm0.105197 -0.149764l0.123699 0 -0.0381223 -0.100956c-0.0115522,-0.0306495 -0.0202164,-0.0558658 -0.025812,-0.075649 -0.00467504,0.0234293 -0.0112093,0.046606 -0.0196929,0.0697104l-0.0400717 0.106894zm0.508983 0.00669667l0 -0.0427071 0.154439 -0.000252705 0 0.135251c-0.023682,0.0189348 -0.0481402,0.0331224 -0.0733566,0.0427071 -0.0252163,0.00951253 -0.0511005,0.0142598 -0.0775984,0.0142598 -0.0358299,0 -0.0684288,-0.00763529 -0.0976343,-0.0229961 -0.0292957,-0.0152886 -0.0513713,-0.0375266 -0.0663169,-0.0664794 -0.0149457,-0.029043 -0.0224185,-0.0614794 -0.0224185,-0.0973094 0,-0.035487 0.00747284,-0.0685913 0.0223463,-0.099331 0.0147652,-0.0308119 0.0361548,-0.0536636 0.0640065,-0.0686093 0.0278517,-0.0148554 0.0599452,-0.0223283 0.0962805,-0.0223283 0.0263174,0 0.0501799,0.00425988 0.0714974,0.0128338 0.0212994,0.00848366 0.0380321,0.0203788 0.0500897,0.0356494 0.0121298,0.0152886 0.0212994,0.035144 0.0276712,0.0596925l-0.0435555 0.0119674c-0.0055234,-0.0185918 -0.0123103,-0.0331946 -0.0203788,-0.0438082 -0.0081407,-0.0106136 -0.0197832,-0.0190973 -0.0348913,-0.025469 -0.0150359,-0.00637177 -0.0318408,-0.00960278 -0.0501799,-0.00960278 -0.0220756,0 -0.0411728,0.00341151 -0.0572196,0.0101082 -0.016137,0.00671472 -0.029043,0.0155413 -0.0389707,0.0264979 -0.00985548,0.0109385 -0.0174908,0.0229239 -0.0230142,0.0360826 -0.00924177,0.0224907 -0.0139168,0.0469489 -0.0139168,0.0733566 0,0.0325087 0.0055956,0.0596744 0.0168049,0.0815875 0.0112093,0.0218951 0.0275087,0.0381223 0.0488984,0.0487359 0.0214077,0.0106136 0.0440789,0.0159565 0.0681039,0.0159565 0.0209745,0 0.0413353,-0.00407938 0.0612087,-0.0121479 0.0199637,-0.00797825 0.0349815,-0.0165522 0.0452522,-0.0257217l0 -0.0679234 -0.107147 0zm0.290285 0.143067l0 -0.364653 0.263625 0 0 0.04305 -0.215395 0 0 0.111641 0.201731 0 0 0.0427793 -0.201731 0 0 0.124132 0.223878 0 0 0.04305 -0.272109 0zm0.608423 0l0 -0.364653 0.161659 0c0.0325087,0 0.0572196,0.00330321 0.0741147,0.00983743 0.0168951,0.00655227 0.0303968,0.0180864 0.0405952,0.0346386 0.0100901,0.0166424 0.0151081,0.0349815 0.0151081,0.0550174 0,0.0259022 -0.0083212,0.0476348 -0.0251261,0.0653783 -0.0167327,0.0177435 -0.0426349,0.029043 -0.0776164,0.0338805 0.0128338,0.00611906 0.0225088,0.0121479 0.0291332,0.0181767 0.0140973,0.012906 0.0274185,0.0291152 0.0400717,0.0484651l0.0634289 0.0992588 -0.0607213 0 -0.0482124 -0.0759017c-0.0140973,-0.0218229 -0.0257398,-0.0386277 -0.0349093,-0.0501799 -0.00907932,-0.0116244 -0.01722,-0.0197832 -0.0244402,-0.024368 -0.00722013,-0.00467504 -0.0145125,-0.007888 -0.0219853,-0.00976523 -0.0055234,-0.00110107 -0.0144403,-0.00169673 -0.026913,-0.00169673l-0.055956 0 0 0.161911 -0.0482305 0zm0.0482305 -0.20368l0.103753 0c0.0219853,0 0.0392956,-0.00229239 0.0516962,-0.00687718 0.0124908,-0.00458478 0.0219131,-0.0118952 0.0283571,-0.0219131 0.00646202,-0.0100179 0.00967498,-0.0208842 0.00967498,-0.0326892 0,-0.01722 -0.00619126,-0.0314076 -0.0187543,-0.0425266 -0.0124728,-0.011119 -0.0322559,-0.0166424 -0.0593495,-0.0166424l-0.115378 0 0 0.120648zm0.383588 0.20368l0 -0.364653 0.263625 0 0 0.04305 -0.215395 0 0 0.111641 0.201731 0 0 0.0427793 -0.201731 0 0 0.124132 0.223878 0 0 0.04305 -0.272109 0zm0.40245 0l0 -0.364653 0.137544 0c0.0241874,0 0.0427071,0.00119132 0.0554326,0.00348371 0.017924,0.00296025 0.0329419,0.00864611 0.0450897,0.0170576 0.0120576,0.0083212 0.0218229,0.0201261 0.0292054,0.035144 0.00738259,0.0151262 0.0110288,0.0316783 0.0110288,0.0497648 0,0.0309924 -0.00983743,0.0573098 -0.0295303,0.0787897 -0.0197832,0.0213896 -0.0554506,0.0321657 -0.106984,0.0321657l-0.0935729 0 0 0.148247 -0.0482124 0zm0.0482124 -0.191279l0.094331 0c0.0311549,0 0.0533207,-0.00577611 0.0664072,-0.0174186 0.0130684,-0.0116244 0.0196027,-0.0279239 0.0196027,-0.0489886 0,-0.0152706 -0.00382667,-0.0283571 -0.0115522,-0.0392234 -0.00772554,-0.0108663 -0.0178157,-0.0179962 -0.030469,-0.0214799 -0.00815875,-0.00211189 -0.0231044,-0.00321296 -0.0449995,-0.00321296l-0.0933202 0 0 0.130323zm0.340556 0.0136641c0,-0.0605408 0.0162092,-0.107905 0.0487359,-0.142128 0.0325087,-0.0342234 0.0744576,-0.0513713 0.125919,-0.0513713 0.0336097,0 0.0640065,0.0080685 0.0910098,0.0241152 0.0270033,0.016137 0.0476348,0.0385555 0.0618043,0.0673277 0.0141876,0.0287 0.0212272,0.0613892 0.0212272,0.0978148 0,0.0370212 -0.00738259,0.0701255 -0.0223283,0.0992407 -0.0149457,0.0292054 -0.0360826,0.051281 -0.0634289,0.0663169 -0.0274185,0.0150179 -0.0568766,0.0224907 -0.0885549,0.0224907 -0.0343859,0 -0.0650354,-0.00823095 -0.0920206,-0.0248734 -0.0270936,-0.0165522 -0.0475446,-0.0392234 -0.0614794,-0.0679234 -0.0139168,-0.0286098 -0.0208842,-0.0590065 -0.0208842,-0.0910098zm0.0497467 0.000758114c0,0.0439887 0.0118049,0.078537 0.0354148,0.103844 0.023682,0.0253066 0.0533207,0.0379418 0.0889701,0.0379418 0.0363353,0 0.0662267,-0.0127255 0.089656,-0.0382848 0.0234474,-0.0255593 0.0352343,-0.0618043 0.0352343,-0.108753 0,-0.0296386 -0.00509019,-0.0555409 -0.0151081,-0.0776886 -0.0100179,-0.0221658 -0.0247109,-0.0393136 -0.0439706,-0.0515337 -0.019368,-0.0121479 -0.0410104,-0.0182669 -0.0650354,-0.0182669 -0.0342234,0 -0.0635913,0.0117147 -0.088212,0.0352343 -0.0246387,0.0234474 -0.036949,0.0626708 -0.036949,0.117508zm0.408479 0.0596925l0.0455049 -0.00398912c0.00212994,0.0182489 0.00712988,0.0331946 0.0150359,0.0449092 0.007888,0.0117147 0.0201081,0.0211369 0.0366783,0.0283571 0.0165522,0.00722013 0.0352343,0.010776 0.055938,0.010776 0.0184294,0 0.0346566,-0.00270755 0.0487359,-0.0081407 0.0140973,-0.0055234 0.0246207,-0.0129962 0.0314978,-0.0225088 0.00687718,-0.00958473 0.0103609,-0.0199456 0.0103609,-0.0312271 0,-0.011462 -0.00330321,-0.0214077 -0.0100179,-0.0299816 -0.00662447,-0.00857391 -0.017563,-0.0157038 -0.0327614,-0.0214799 -0.00985548,-0.00382667 -0.0314256,-0.00976523 -0.0649632,-0.0178337 -0.0334473,-0.0080685 -0.0569669,-0.0156135 -0.0703783,-0.0227434 -0.0174005,-0.00909737 -0.0303968,-0.0204691 -0.0389707,-0.0339707 -0.00848366,-0.0135016 -0.0127435,-0.0286098 -0.0127435,-0.0454146 0,-0.0183391 0.00518045,-0.0355772 0.0156316,-0.0515337 0.0104331,-0.0160467 0.0257217,-0.0281946 0.0457576,-0.0365158 0.0201261,-0.00823095 0.0423641,-0.0124006 0.0669126,-0.0124006 0.0270755,0 0.0508478,0.00433208 0.0715696,0.0130865 0.0206315,0.00866416 0.0364978,0.0214799 0.0476348,0.038375 0.0110288,0.0168951 0.0170576,0.0360826 0.0179059,0.0574723l-0.046263 0.00348371c-0.00256315,-0.0230142 -0.0109566,-0.0405049 -0.0253066,-0.0522196 -0.01435,-0.0118049 -0.035487,-0.0176532 -0.0635011,-0.0176532 -0.0292235,0 -0.0504326,0.0053429 -0.0638621,0.0160467 -0.0133211,0.0107038 -0.0200359,0.0236098 -0.0200359,0.0386277 0,0.0131587 0.00476529,0.0239528 0.0141876,0.0323462 0.00933202,0.00850171 0.0335375,0.0171478 0.0727609,0.0259925 0.0392234,0.00889881 0.0661364,0.0166244 0.0807391,0.0232488 0.0212272,0.00985548 0.036931,0.0222561 0.0470392,0.0372017 0.0101082,0.0150179 0.0151081,0.0323462 0.0151081,0.0518586 0,0.0194583 -0.0055234,0.0377071 -0.0166424,0.054855 -0.011119,0.0171478 -0.0270755,0.030487 -0.0478875,0.0400717 -0.020794,0.00951253 -0.0442233,0.0142598 -0.0702158,0.0142598 -0.0330141,0 -0.0607033,-0.00474724 -0.0829413,-0.0144222 -0.0223283,-0.00960278 -0.039819,-0.024025 -0.0525626,-0.043393 -0.0126352,-0.0192778 -0.01935,-0.0411728 -0.0199456,-0.0655408zm0.512648 0.117165l0 -0.321603 -0.120143 0 0 -0.04305 0.289004 0 0 0.04305 -0.12063 0 0 0.321603 -0.0482305 0zm0.265665 -0.117165l0.0455049 -0.00398912c0.00212994,0.0182489 0.00712988,0.0331946 0.0150359,0.0449092 0.007888,0.0117147 0.0201081,0.0211369 0.0366783,0.0283571 0.0165522,0.00722013 0.0352343,0.010776 0.055938,0.010776 0.0184294,0 0.0346566,-0.00270755 0.0487359,-0.0081407 0.0140973,-0.0055234 0.0246207,-0.0129962 0.0314978,-0.0225088 0.00687718,-0.00958473 0.0103609,-0.0199456 0.0103609,-0.0312271 0,-0.011462 -0.00330321,-0.0214077 -0.0100179,-0.0299816 -0.00662447,-0.00857391 -0.017563,-0.0157038 -0.0327614,-0.0214799 -0.00985548,-0.00382667 -0.0314256,-0.00976523 -0.0649632,-0.0178337 -0.0334473,-0.0080685 -0.0569669,-0.0156135 -0.0703783,-0.0227434 -0.0174005,-0.00909737 -0.0303968,-0.0204691 -0.0389707,-0.0339707 -0.00848366,-0.0135016 -0.0127435,-0.0286098 -0.0127435,-0.0454146 0,-0.0183391 0.00518045,-0.0355772 0.0156316,-0.0515337 0.0104331,-0.0160467 0.0257217,-0.0281946 0.0457576,-0.0365158 0.0201261,-0.00823095 0.0423641,-0.0124006 0.0669126,-0.0124006 0.0270755,0 0.0508478,0.00433208 0.0715696,0.0130865 0.0206315,0.00866416 0.0364978,0.0214799 0.0476348,0.038375 0.0110288,0.0168951 0.0170576,0.0360826 0.0179059,0.0574723l-0.046263 0.00348371c-0.00256315,-0.0230142 -0.0109566,-0.0405049 -0.0253066,-0.0522196 -0.01435,-0.0118049 -0.035487,-0.0176532 -0.0635011,-0.0176532 -0.0292235,0 -0.0504326,0.0053429 -0.0638621,0.0160467 -0.0133211,0.0107038 -0.0200359,0.0236098 -0.0200359,0.0386277 0,0.0131587 0.00476529,0.0239528 0.0141876,0.0323462 0.00933202,0.00850171 0.0335375,0.0171478 0.0727609,0.0259925 0.0392234,0.00889881 0.0661364,0.0166244 0.0807391,0.0232488 0.0212272,0.00985548 0.036931,0.0222561 0.0470392,0.0372017 0.0101082,0.0150179 0.0151081,0.0323462 0.0151081,0.0518586 0,0.0194583 -0.0055234,0.0377071 -0.0166424,0.054855 -0.011119,0.0171478 -0.0270755,0.030487 -0.0478875,0.0400717 -0.020794,0.00951253 -0.0442233,0.0142598 -0.0702158,0.0142598 -0.0330141,0 -0.0607033,-0.00474724 -0.0829413,-0.0144222 -0.0223283,-0.00960278 -0.039819,-0.024025 -0.0525626,-0.043393 -0.0126352,-0.0192778 -0.01935,-0.0411728 -0.0199456,-0.0655408z"/>
 <path class="fil2 str0" d="M39.0764 -8.97733c-0.108122,0.000379057 -0.194926,0.0878149 -0.194673,0.196063 0.000270755,0.106659 0.0885188,0.194348 0.194998,0.19377 0.108681,-0.000577611 0.195034,-0.0879412 0.194709,-0.197019 -0.000306856,-0.105775 -0.0887535,-0.193193 -0.195034,-0.192814zm0.360862 -0.0555228c-0.000198554,0.011462 -0.00440428,0.0201081 -0.0106316,0.0279419 -0.0101262,0.0127977 -0.0201983,0.0257217 -0.0305051,0.0383931 -0.00211189,0.0026173 -0.00216604,0.00440428 -0.000577611,0.00727428 0.0131767,0.0241874 0.0239528,0.0493496 0.03083,0.076028 0.00120937,0.00483749 0.00451258,0.00433208 0.00768944,0.00471114 0.0163717,0.00196749 0.0327433,0.00407938 0.0491691,0.00572196 0.0237542,0.00236459 0.03731,0.0243319 0.0367324,0.0427973 -0.000884466,0.0303787 -0.000252705,0.0608116 -0.000180503,0.0911903 0,0.0237542 -0.0152164,0.0403605 -0.0389165,0.0427793 -0.0170576,0.00178698 -0.0341332,0.00382667 -0.0511185,0.00599271 -0.00140793,0.000198554 -0.00337541,0.00191334 -0.00377252,0.00324906 -0.00776164,0.0276351 -0.0190251,0.053808 -0.0331765,0.0787717 -0.00146208,0.0026173 -0.000685913,0.00400717 0.000830315,0.00597466 0.0105053,0.0131226 0.0208842,0.0263715 0.0313354,0.0396205 0.00128157,0.00164258 0.00267145,0.00330321 0.00388082,0.00501799 0.0127435,0.0177074 0.0113356,0.0378877 -0.00438623,0.0538802 -0.0224185,0.0228517 -0.0450897,0.0454688 -0.0678873,0.0680137 -0.0136822,0.0135016 -0.0372559,0.0143139 -0.0526528,0.00229239 -0.0149096,-0.0117147 -0.029747,-0.0235015 -0.0445121,-0.0353426 -0.00241874,-0.00191334 -0.00415158,-0.00223824 -0.00687718,-0.000703963 -0.0247109,0.0135558 -0.050559,0.0243319 -0.077815,0.0315159 -0.00370032,0.000956668 -0.0051624,0.00249095 -0.00554145,0.00649812 -0.00196749,0.0196749 -0.00433208,0.0392956 -0.00675082,0.0588982 -0.00178698,0.0145847 -0.017202,0.030126 -0.0317686,0.0321657 -0.00453063,0.000631762 -0.00911542,0.000956668 -0.013628,0.00101082 -0.0289888,7.22013e-005 -0.0578874,0.000198554 -0.0868041,-0.000126352 -0.00642592,-5.4151e-005 -0.0132489,-0.000956668 -0.0190431,-0.00337541 -0.0155233,-0.00649812 -0.0234835,-0.0188445 -0.0252163,-0.0355953 -0.00189529,-0.0188445 -0.00438623,-0.0376349 -0.00642592,-0.0564795 -0.000306856,-0.00274365 -0.00120937,-0.00420573 -0.00400717,-0.00509019 -0.0258481,-0.0082129 -0.0513171,-0.0173825 -0.0748186,-0.0313354 -0.00108302,-0.000631762 -0.00370032,7.22013e-005 -0.00490969,0.00102887 -0.0152164,0.011841 -0.0303065,0.0237362 -0.0453966,0.0357758 -0.0174547,0.0138807 -0.0401259,0.012545 -0.0559199,-0.00324906 -0.0213174,-0.0213896 -0.0427251,-0.0427793 -0.0641148,-0.064187 -0.0183391,-0.0183391 -0.0195485,-0.0388985 -0.00350176,-0.0590968 0.0115161,-0.0144403 0.0229239,-0.0290249 0.03444,-0.0433569 0.00203969,-0.0025451 0.0024368,-0.00438623 0.000776164,-0.00732844 -0.0122381,-0.02222 -0.0222922,-0.0453966 -0.0293679,-0.0697826 -0.000884466,-0.00305051 -0.0024729,-0.00400717 -0.00539705,-0.00433208 -0.0182128,-0.00203969 -0.0362992,-0.00445843 -0.054512,-0.00624542 -0.0242596,-0.00241874 -0.0396024,-0.0189709 -0.0396024,-0.0432306 0,-0.029422 0.000812265,-0.0588982 -0.000270755,-0.0882661 -0.000758114,-0.0215882 0.0126172,-0.0443677 0.0427432,-0.0462269 0.0162273,-0.00101082 0.0324003,-0.00362812 0.0486457,-0.0053429 0.0027978,-0.000324906 0.00420573,-0.00108302 0.00496384,-0.00413353 0.00675082,-0.0268769 0.0170576,-0.052346 0.0302524,-0.076732 0.00176893,-0.00332126 0.00146208,-0.00528875 -0.000830315,-0.00808655 -0.0110107,-0.0135739 -0.0217868,-0.0273282 -0.0325989,-0.0410826 -0.0150901,-0.0192958 -0.0138807,-0.0398551 0.00342956,-0.0573098 0.0219673,-0.0221478 0.0440609,-0.0442594 0.0661545,-0.0662808 0.0140793,-0.0140071 0.0377071,-0.0153428 0.0533748,-0.00299636 0.0137544,0.010758 0.0275087,0.0216424 0.0410645,0.0325989 0.00241874,0.00191334 0.00407938,0.00229239 0.00687718,0.000631762 0.0260466,-0.0152164 0.0535553,-0.0269852 0.0827247,-0.0349454 0.00305051,-0.000830315 0.00438623,-0.00211189 0.00476529,-0.0054873 0.00160648,-0.0161009 0.00382667,-0.0320935 0.0054151,-0.0481944 0.00171478,-0.0175088 0.0108844,-0.0294942 0.0267506,-0.0361007 0.00451258,-0.00185918 0.00992768,-0.00229239 0.0148915,-0.00229239 0.031209,-0.000198554 0.0624722,0 0.0936812,-0.000144403 0.0241333,-0.000126352 0.0381945,0.017581 0.0409382,0.032617 0.00209384,0.0115161 0.0027978,0.023303 0.00413353,0.0349454 0.000776164,0.00669667 0.00133572,0.0133753 0.00241874,0.0199998 0.000270755,0.00158843 0.00203969,0.00375447 0.00350176,0.00420573 0.0289888,0.00808655 0.0563712,0.0197471 0.082472,0.0345122 0.00126352,0.000703963 0.00407938,7.22013e-005 0.0053429,-0.000884466 0.012924,-0.00999989 0.0257217,-0.0201983 0.0384653,-0.0303787 0.0174547,-0.0138807 0.0403064,-0.0126172 0.0559741,0.00305051 0.0215882,0.0216604 0.0432306,0.0431764 0.0647646,0.064891 0.00846561,0.00846561 0.0137544,0.0185918 0.0140071,0.029747z"/>
</symbol>
<symbol id="Fm21-53727-0" viewBox="12.6156 5.14909 5.60253 1.29462">
 <polygon class="fil3" points="12.6634,5.19684 18.1703,5.19684 18.1703,6.39603 12.6634,6.39603 "/>
 <path class="fil4" d="M18.2181 5.14909l-5.60253 0 0 1.29462 5.60253 0 0 -1.29462zm-0.0955043 1.1991l-5.41153 0 0 -1.1036 5.41153 0 0 1.1036z"/>
</symbol>
<symbol id="Fm2-53725-0" viewBox="-11 -15.0417 63.6776 38.2065">
 <polygon id="123456789101112131415161718192021222324252627" style="fill:url(#id1);fill-rule:nonzero" points="52.6776,23.1648 -11,23.1648 -11,-15.0417 52.6776,-15.0417 "/>
</symbol>
<symbol id="Fm1-53715-0" viewBox="-11 -15.0411 63.6966 38.1866">
 <polygon class="fil7" points="-11,23.1455 52.6966,23.1455 52.6966,-15.0411 -11,-15.0411 "/>
</symbol>
<symbol id="Fm4-53740-0" viewBox="-11.0002 -12.962 10.8421 36.1268">
 <polygon class="fil4" points="-0.158121,-12.962 -11.0002,-12.962 -11.0002,23.1648 -0.158121,23.1648 "/>
</symbol>
<symbol id="Fm11-53716-0" viewBox="49.4753 -13.8864 1.66437 0.370591">
 <path class="fil0" d="M49.4753 -13.5217l0.140089 -0.364653 0.0519489 0 0.149258 0.364653 -0.0550174 0 -0.0425266 -0.11045 -0.152489 0 -0.0399815 0.11045 -0.051281 0zm0.105197 -0.149764l0.123699 0 -0.0381223 -0.100956c-0.0115522,-0.0306495 -0.0202164,-0.0558658 -0.025812,-0.075649 -0.00467504,0.0234293 -0.0112093,0.046606 -0.0196929,0.0697104l-0.0400717 0.106894zm0.503983 0.149764l0 -0.0333751c-0.0167327,0.0262452 -0.0413533,0.0393136 -0.07388,0.0393136 -0.0210467,0 -0.0403966,-0.00577611 -0.0580679,-0.0174005 -0.0176532,-0.0115522 -0.0313173,-0.0277614 -0.0410826,-0.0486457 -0.00969303,-0.020812 -0.0145305,-0.0446565 -0.0145305,-0.0717501 0,-0.0263174 0.00442233,-0.0502521 0.0131587,-0.071732 0.00884466,-0.0214799 0.0220034,-0.0379599 0.0395663,-0.0493316 0.017581,-0.011462 0.0372739,-0.0172381 0.0590065,-0.0172381 0.0158843,0 0.0300538,0.00339346 0.0424544,0.0101082 0.0124908,0.00669667 0.022581,0.0154511 0.0303968,0.0262271l0 -0.130829 0.0444941 0 0 0.364653 -0.0415158 0zm-0.141533 -0.131858c0,0.0338805 0.00712988,0.059187 0.0213896,0.0759017 0.0142598,0.0167327 0.0310827,0.0251441 0.0505229,0.0251441 0.0195124,0 0.0361548,-0.0080685 0.049837,-0.024043 0.0136641,-0.0159565 0.0205413,-0.0404147 0.0205413,-0.0732663 0,-0.0361729 -0.00696743,-0.0626527 -0.0208842,-0.0795478 -0.0139349,-0.0169854 -0.0310827,-0.0253968 -0.0515337,-0.0253968 -0.0198734,0 -0.0365158,0.00815875 -0.049837,0.024368 -0.0133392,0.0162273 -0.0200359,0.0418587 -0.0200359,0.0768403zm0.317199 0.131858l0 -0.264131 0.0399815 0 0 0.0370212c0.0083212,-0.012906 0.019368,-0.0233571 0.0331224,-0.0311729 0.0137544,-0.007888 0.0294581,-0.0118771 0.0470211,-0.0118771 0.0195305,0 0.0355772,0.00407938 0.048068,0.0122201 0.012563,0.00815875 0.0213896,0.0194402 0.0264798,0.0340429 0.0209745,-0.0308119 0.0481402,-0.046263 0.0815875,-0.046263 0.0262452,0 0.0463713,0.00729234 0.0604506,0.0218229 0.0140973,0.0145125 0.021155,0.0368407 0.021155,0.0669848l0 0.181352 -0.0444941 0 0 -0.166406c0,-0.017924 -0.00144403,-0.03083 -0.00433208,-0.038718 -0.00297831,-0.00781579 -0.00823095,-0.0141876 -0.015794,-0.0190251 -0.00763529,-0.00474724 -0.0166424,-0.00720208 -0.026913,-0.00720208 -0.0185918,0 -0.0339527,0.00619126 -0.046263,0.0185918 -0.0122381,0.0123103 -0.0184294,0.0320935 -0.0184294,0.0592592l0 0.1535 -0.0447468 0 0 -0.171586c0,-0.0199456 -0.00364617,-0.0348913 -0.0109566,-0.044837 -0.00729234,-0.00992768 -0.0191875,-0.0149276 -0.0358299,-0.0149276 -0.012563,0 -0.0241874,0.00330321 -0.0348913,0.0100179 -0.0107038,0.00660642 -0.0185016,0.0162995 -0.0232669,0.0290249 -0.00483749,0.0128157 -0.00722013,0.0312451 -0.00722013,0.0552701l0 0.137038 -0.0447287 0zm0.488189 -0.313119l0 -0.0515337 0.044837 0 0 0.0515337 -0.044837 0zm0 0.313119l0 -0.264131 0.044837 0 0 0.264131 -0.044837 0zm0.176695 0l0 -0.264131 0.0402342 0 0 0.0375266c0.0194402,-0.029043 0.0474724,-0.0435555 0.0840604,-0.0435555 0.0159565,0 0.0305592,0.00288805 0.0438984,0.00857391 0.0134114,0.00577611 0.0233391,0.0132489 0.0299636,0.022581 0.00671472,0.00925982 0.0112995,0.0202886 0.0140071,0.0330321 0.00160648,0.0083212 0.0024729,0.0228337 0.0024729,0.0435555l0 0.162417 -0.044837 0 0 -0.16072c0,-0.0181767 -0.00169673,-0.0318408 -0.00518045,-0.0409201 -0.00348371,-0.00900712 -0.00967498,-0.0162273 -0.0185016,-0.0215701 -0.00891687,-0.00543315 -0.0192778,-0.0081407 -0.0312451,-0.0081407 -0.0191153,0 -0.035487,0.00610101 -0.0494218,0.0181586 -0.0138446,0.0121479 -0.0207218,0.0350718 -0.0207218,0.0689342l0 0.144258 -0.0447287 0z"/>
</symbol>
<symbol id="Fm6-53742-0" viewBox="5.82367 0.63826 0.597213 23.5675">
 <path class="fil0" d="M6.17913 1.05022l-0.0503424 0 0 -0.320935c-0.0121298,0.0115522 -0.027978,0.0231225 -0.0476529,0.0346747 -0.0197832,0.0115522 -0.0374544,0.0202525 -0.0531221,0.0259744l0 -0.0486095c0.0281946,-0.013285 0.0528333,-0.0293318 0.0739342,-0.0481402 0.0210106,-0.0189168 0.0360104,-0.0371656 0.0448009,-0.0549272l0.0323823 0 0 0.411963z"/>
 <path class="fil0" d="M6.25421 2.28783l0 0.048429 -0.27117 0c-0.000379057,-0.0121298 0.00153428,-0.0237903 0.00583026,-0.0349635 0.00687718,-0.0185196 0.0179601,-0.0366783 0.0331404,-0.0546384 0.0152886,-0.0178518 0.0372559,-0.0385736 0.0659018,-0.0620751 0.0446204,-0.036588 0.0748006,-0.0655227 0.0904683,-0.0869304 0.0156496,-0.0212994 0.0234835,-0.0415338 0.0234835,-0.0605589 0,-0.0199456 -0.00716598,-0.0367685 -0.0213896,-0.0505229 -0.014332,-0.0136641 -0.0329599,-0.0205413 -0.0558838,-0.0205413 -0.0242596,0 -0.0436457,0.00727428 -0.0581582,0.021877 -0.0146208,0.0145305 -0.0219673,0.0346747 -0.0221658,0.0603784l-0.0517684 -0.00525265c0.00353787,-0.0386999 0.0169132,-0.0681039 0.0400176,-0.0883564 0.0231225,-0.0202525 0.0542593,-0.0303787 0.09323,-0.0303787 0.0393497,0 0.0704866,0.0109927 0.0934105,0.0327614 0.0230142,0.021877 0.0344761,0.0488984 0.0344761,0.0811904 0,0.0164258 -0.00333931,0.0325628 -0.0101262,0.048429 -0.00667862,0.0158482 -0.0178518,0.0325628 -0.0334292,0.0500536 -0.0155594,0.017563 -0.0414436,0.0416421 -0.0776525,0.0722013 -0.0301802,0.0254149 -0.0495662,0.0425988 -0.0581582,0.0516781 -0.00861001,0.00897102 -0.0156677,0.0180503 -0.0212994,0.0272199l0.201243 0z"/>
 <path class="fil0" d="M5.98973 3.51397l0.0503243 -0.00667862c0.00583026,0.0285556 0.0156677,0.0490969 0.0295123,0.061696 0.0139529,0.0126172 0.0308661,0.0189168 0.0508297,0.0189168 0.023682,0 0.043736,-0.0082129 0.0600715,-0.0246387 0.0162453,-0.0164258 0.0244582,-0.0367866 0.0244582,-0.0610462 0,-0.0231044 -0.00754504,-0.0422197 -0.0226351,-0.0572015 -0.0151984,-0.0149998 -0.0343859,-0.0225449 -0.0577069,-0.0225449 -0.00954863,0 -0.0213896,0.00191334 -0.0355231,0.0056317l0.0056317 -0.0442233c0.00333931,0.000379057 0.00601076,0.000577611 0.00812265,0.000577611 0.0213896,0 0.0406855,-0.0056317 0.0578874,-0.0168229 0.0171839,-0.0111732 0.0257759,-0.0284654 0.0257759,-0.0517684 0,-0.0184294 -0.00629957,-0.0338083 -0.0188084,-0.0458478 -0.0125089,-0.0121298 -0.0286639,-0.0182308 -0.048429,-0.0182308 -0.0195846,0 -0.0359202,0.00620931 -0.0488984,0.0184294 -0.0130865,0.0123284 -0.0214979,0.030848 -0.0252163,0.0554867l-0.0503424 -0.00897102c0.00611906,-0.0338083 0.0201622,-0.0599813 0.0419309,-0.078519 0.021877,-0.0185196 0.0490067,-0.0278878 0.0814792,-0.0278878 0.0223463,0 0.0429778,0.00487359 0.0618043,0.0144222 0.0188084,0.00965693 0.0332307,0.0227254 0.0432667,0.0393497 0.00992768,0.0166244 0.0149818,0.0342054 0.0149818,0.0529236 0,0.0176713 -0.00476529,0.0338083 -0.0143139,0.048429 -0.00954863,0.0145125 -0.0235918,0.0260647 -0.0422197,0.0346747 0.0242596,0.0055234 0.0430681,0.0171839 0.0565336,0.0348552 0.0133753,0.017581 0.020072,0.0396385 0.020072,0.0661003 0,0.0358119 -0.0129962,0.0661906 -0.0391692,0.0911181 -0.0260827,0.0249275 -0.0591148,0.0373461 -0.0990422,0.0373461 -0.0360104,0 -0.0659198,-0.0107038 -0.0896921,-0.0321837 -0.0237903,-0.0213896 -0.0373461,-0.0491872 -0.0406855,-0.0833925z"/>
 <path class="fil0" d="M6.15087 4.90832l0 -0.0981938 -0.177958 0 0 -0.0462269 0.187218 -0.265827 0.0411728 0 0 0.265827 0.0553965 0 0 0.0462269 -0.0553965 0 0 0.0981938 -0.0504326 0zm0 -0.144421l0 -0.184926 -0.128374 0.184926 0.128374 0z"/>
 <path class="fil0" d="M5.98944 6.0869l0.0529055 -0.00449453c0.00391692,0.0257939 0.0129962,0.0450897 0.0272199,0.0580679 0.014332,0.0129962 0.0315339,0.0194944 0.0516781,0.0194944 0.0242596,0 0.0448009,-0.00916957 0.0615155,-0.0274185 0.0168049,-0.0183391 0.0252163,-0.0425988 0.0252163,-0.0727789 0,-0.0287542 -0.0080324,-0.0513893 -0.0241694,-0.0680137 -0.016137,-0.0166063 -0.0372559,-0.0249275 -0.0634108,-0.0249275 -0.0162453,0 -0.0308661,0.00373642 -0.0439526,0.0110829 -0.0130865,0.00736454 -0.023303,0.0169132 -0.0307578,0.0286639l-0.0472738 -0.00611906 0.0397288 -0.21072 0.204023 0 0 0.0481402 -0.163717 0 -0.0221478 0.110233c0.0246387,-0.0171839 0.0505229,-0.0257939 0.0775623,-0.0257939 0.0358119,0 0.065992,0.0124186 0.0906307,0.0372559 0.0246568,0.0248373 0.0369671,0.0567322 0.0369671,0.0957029 0,0.0371656 -0.0108844,0.0692591 -0.0324726,0.0962805 -0.0263535,0.0331585 -0.0622737,0.0497648 -0.107742,0.0497648 -0.0373461,0 -0.0678151,-0.010415 -0.0914069,-0.0313173 -0.0235918,-0.0209203 -0.0370573,-0.0486276 -0.0403966,-0.0831037z"/>
 <path class="fil0" d="M6.25078 7.17062l-0.0500536 0.00391692c-0.00449453,-0.0197651 -0.0107941,-0.0341873 -0.019007,-0.0430681 -0.0136641,-0.0144403 -0.030469,-0.0215882 -0.0504326,-0.0215882 -0.0160467,0 -0.0300899,0.00447648 -0.0422197,0.0134655 -0.0158662,0.0115522 -0.0283751,0.0284654 -0.0375447,0.0506131 -0.00906127,0.0221658 -0.0138446,0.05379 -0.0142237,0.0948545 0.0121298,-0.0184294 0.0269311,-0.0321837 0.0445121,-0.0411728 0.0174727,-0.00888076 0.0359021,-0.0133753 0.0551077,-0.0133753 0.0336278,0 0.0621834,0.0123284 0.0857752,0.0370754 0.0235918,0.024729 0.0354328,0.0566419 0.0354328,0.0957931 0,0.0257939 -0.0056317,0.0496745 -0.0167146,0.0718223 -0.0110829,0.0220756 -0.0263535,0.039079 -0.0457576,0.0508297 -0.0193861,0.0117508 -0.0413533,0.017563 -0.065992,0.017563 -0.0420392,0 -0.0762266,-0.0153789 -0.102688,-0.0463172 -0.026552,-0.030848 -0.0397288,-0.081768 -0.0397288,-0.152634 0,-0.0792771 0.0146208,-0.136876 0.0439345,-0.172886 0.0255051,-0.0313354 0.059891,-0.0470933 0.103248,-0.0470933 0.0322018,0 0.0586455,0.00907932 0.0792771,0.0272199 0.0206315,0.0180503 0.0329599,0.0430861 0.0370754,0.0749811zm-0.205647 0.176803c0,0.0173825 0.00371837,0.0340068 0.0110829,0.049855 0.00734649,0.0158662 0.0176532,0.0278878 0.030848,0.036209 0.013267,0.00830315 0.0272199,0.0125089 0.0417324,0.0125089 0.0212994,0 0.0395483,-0.00859196 0.0548369,-0.0257939 0.0152706,-0.0171839 0.0229239,-0.0404869 0.0229239,-0.0699089 0,-0.0283751 -0.00754504,-0.0507214 -0.0226532,-0.067057 -0.0150901,-0.0163356 -0.0340971,-0.0244582 -0.057021,-0.0244582 -0.0228156,0 -0.0421114,0.00812265 -0.0579777,0.0244582 -0.0158482,0.0163356 -0.0237723,0.0377252 -0.0237723,0.064187z"/>
 <path class="fil0" d="M5.99278 8.40994l0 -0.048411 0.265538 0 0 0.0391512c-0.0260827,0.0277975 -0.0519669,0.0647646 -0.0776525,0.110811 -0.0256134,0.0460284 -0.0454688,0.0935007 -0.0594217,0.142128 -0.0101262,0.0343859 -0.0165161,0.0719125 -0.0192958,0.112797l-0.0517684 0c0.000577611,-0.032292 0.00687718,-0.0712627 0.019007,-0.117002 0.0121298,-0.0456673 0.0295123,-0.0897824 0.0521474,-0.132201 0.0227434,-0.0424002 0.0468045,-0.0782301 0.0724179,-0.107273l-0.200972 0z"/>
 <path class="fil0" d="M6.06699 9.83c-0.0209023,-0.00765334 -0.0363895,-0.0185377 -0.0465157,-0.0327614 -0.0100179,-0.0141515 -0.0150901,-0.0311368 -0.0150901,-0.05092 0,-0.0298914 0.0107038,-0.0549272 0.0322018,-0.0752699 0.0214799,-0.0203427 0.0499453,-0.0305592 0.0855766,-0.0305592 0.0358119,0 0.0646563,0.010415 0.0865333,0.0312271 0.0217868,0.0208301 0.0326711,0.0461367 0.0326711,0.0760461 0,0.019007 -0.00496384,0.0355231 -0.0149096,0.0496565 -0.0100179,0.0140432 -0.025108,0.0249275 -0.0454507,0.0325809 0.025108,0.0082129 0.0443136,0.0213896 0.0574903,0.0397288 0.0130865,0.0182489 0.0196749,0.0401259 0.0196749,0.0654325 0,0.035144 -0.0124186,0.064566 -0.0371476,0.0884466 -0.0248373,0.0238806 -0.0575084,0.0358119 -0.0979953,0.0358119 -0.0405049,0 -0.0730858,-0.0119313 -0.097905,-0.0359021 -0.0248373,-0.0239889 -0.0372559,-0.0538802 -0.0372559,-0.0896921 0,-0.0266603 0.00678693,-0.0490067 0.0203427,-0.067057 0.0134655,-0.0179601 0.0327614,-0.0302704 0.0577791,-0.0367685zm-0.0101082 -0.0853961c0,0.0193861 0.00629957,0.0352523 0.0187182,0.0475626 0.0125089,0.0123284 0.0287542,0.0185377 0.0486998,0.0185377 0.0194041,0 0.0353426,-0.00611906 0.0477612,-0.0183391 0.0124186,-0.0122381 0.0185377,-0.0272199 0.0185377,-0.0448912 0,-0.0185377 -0.00629957,-0.0340068 -0.0190973,-0.046624 -0.0128157,-0.0125991 -0.0286639,-0.0188987 -0.0477612,-0.0188987 -0.0192056,0 -0.0351621,0.00620931 -0.0478514,0.0184294 -0.0127074,0.0123284 -0.019007,0.0271297 -0.019007,0.0442233zm-0.0162453 0.18951c0,0.0143139 0.00342956,0.0282668 0.0102165,0.0416421 0.00678693,0.0134655 0.0169132,0.0238806 0.0303787,0.0312271 0.0134655,0.00736454 0.0278878,0.0110829 0.0433569,0.0110829 0.0240791,0 0.0439526,-0.00774359 0.0596022,-0.023303 0.0156677,-0.0154691 0.0235015,-0.0351621 0.0235015,-0.0590246 0,-0.0242777 -0.00801435,-0.0443316 -0.0241694,-0.0601798 -0.016137,-0.0158662 -0.0363895,-0.0237903 -0.0606491,-0.0237903 -0.023682,0 -0.0432667,0.00783385 -0.0588441,0.0235015 -0.0155594,0.0157579 -0.0233932,0.0353426 -0.0233932,0.0588441z"/>
 <path class="fil0" d="M5.99699 11.2436l0.048429 -0.00447648c0.00409743,0.0227254 0.0119313,0.0392595 0.0234835,0.0495662 0.0115703,0.0102165 0.0263715,0.0153789 0.0445121,0.0153789 0.0154691,0 0.029043,-0.00353787 0.0406855,-0.0107038 0.0116605,-0.00705768 0.0212091,-0.0165161 0.0286639,-0.0283571 0.00754504,-0.011841 0.0137544,-0.0278878 0.0188084,-0.0479597 0.00498189,-0.0201442 0.00754504,-0.0406855 0.00754504,-0.0616058 0,-0.00220214 -9.02517e-005,-0.0056317 -0.000270755,-0.0100179 -0.0101262,0.0159384 -0.0238806,0.0290249 -0.0412631,0.0389707 -0.0174908,0.0100179 -0.0364075,0.0149818 -0.0566419,0.0149818 -0.0340068,0 -0.062761,-0.0123103 -0.0862625,-0.0369671 -0.0234835,-0.0246387 -0.0352343,-0.057021 -0.0352343,-0.0973274 0,-0.0416421 0.0122201,-0.0750713 0.0367685,-0.100486 0.0245485,-0.0253968 0.0553062,-0.0381043 0.0922733,-0.0381043 0.0266423,0 0.0509922,0.00725623 0.073158,0.0215882 0.0220575,0.014332 0.0388804,0.0348552 0.0503424,0.0614072 0.011462,0.0265701 0.0171839,0.0650534 0.0171839,0.115486 0,0.052346 -0.0056317,0.0940783 -0.0170034,0.125215 -0.011462,0.0310466 -0.0283571,0.0546384 -0.0508117,0.0708837 -0.0225449,0.0162273 -0.0488081,0.0243499 -0.0790785,0.0243499 -0.0320935,0 -0.0582665,-0.00888076 -0.0786092,-0.0267325 -0.0203427,-0.0177796 -0.0325809,-0.0427973 -0.0366783,-0.0750894zm0.206207 -0.181099c0,-0.0288444 -0.00763529,-0.0518586 -0.0230142,-0.0687718 -0.0154691,-0.0170034 -0.0338985,-0.0255051 -0.055595,-0.0255051 -0.0223463,0 -0.0418226,0.00916957 -0.058447,0.0274185 -0.0166244,0.0183391 -0.0249275,0.0420392 -0.0249275,0.0710642 0,0.026173 0.0079241,0.0473821 0.023682,0.0637177 0.0157579,0.0163356 0.035144,0.0244402 0.0582665,0.0244402 0.0233932,0 0.0425085,-0.0081046 0.0575084,-0.0244402 0.0150901,-0.0163356 0.0225268,-0.0389707 0.0225268,-0.0679234z"/>
 <path class="fil0" d="M6.01982 12.6245l-0.0503424 0 0 -0.320935c-0.0121298,0.0115522 -0.027978,0.0231225 -0.0476529,0.0346747 -0.0197832,0.0115522 -0.0374544,0.0202525 -0.0531221,0.0259744l0 -0.0486095c0.0281946,-0.013285 0.0528333,-0.0293318 0.0739342,-0.0481402 0.0210106,-0.0189168 0.0360104,-0.0371656 0.0448009,-0.0549272l0.0323823 0 0 0.411963zm0.129042 -0.202308c0,-0.0485193 0.00496384,-0.0875802 0.0149818,-0.117093 0.00994573,-0.0296206 0.0248373,-0.0524362 0.0445121,-0.068483 0.0196749,-0.0160467 0.0444219,-0.0240791 0.074223,-0.0240791 0.0220575,0 0.0413533,0.00449453 0.0579777,0.0133753 0.0166244,0.00879051 0.0302704,0.0215882 0.0411728,0.0383028 0.0107941,0.0167146 0.0192958,0.0370573 0.0253968,0.0610282 0.00620931,0.0239708 0.00927787,0.0562629 0.00927787,0.0969483 0,0.0481402 -0.00498189,0.0869304 -0.0148193,0.116533 -0.00992768,0.0296025 -0.024729,0.0524362 -0.0444038,0.0685732 -0.0196749,0.016155 -0.0445121,0.0241694 -0.074602,0.0241694 -0.0395483,0 -0.0705949,-0.0141334 -0.0931217,-0.0425085 -0.0270394,-0.0340971 -0.0405952,-0.0897824 -0.0405952,-0.166767zm0.0517684 0c0,0.0673458 0.0079241,0.112147 0.023682,0.134493 0.0157579,0.0222561 0.035144,0.0334292 0.0582665,0.0334292 0.0232127,0 0.0425988,-0.0112634 0.0583567,-0.0336278 0.0157579,-0.0223463 0.0237001,-0.0671472 0.0237001,-0.134294 0,-0.0675263 -0.00794215,-0.112417 -0.0237001,-0.134583 -0.0157579,-0.0222561 -0.0353426,-0.033339 -0.058826,-0.033339 -0.0232127,0 -0.0416602,0.00985548 -0.0555048,0.029422 -0.0172922,0.0249275 -0.0259744,0.0711725 -0.0259744,0.1385z"/>
 <path class="fil0" d="M6.01982 13.9105l-0.0503424 0 0 -0.320935c-0.0121298,0.0115522 -0.027978,0.0231225 -0.0476529,0.0346747 -0.0197832,0.0115522 -0.0374544,0.0202525 -0.0531221,0.0259744l0 -0.0486095c0.0281946,-0.013285 0.0528333,-0.0293318 0.0739342,-0.0481402 0.0210106,-0.0189168 0.0360104,-0.0371656 0.0448009,-0.0549272l0.0323823 0 0 0.411963zm0.318733 0l-0.0503424 0 0 -0.320935c-0.0121298,0.0115522 -0.027978,0.0231225 -0.0476529,0.0346747 -0.0197832,0.0115522 -0.0374544,0.0202525 -0.0531221,0.0259744l0 -0.0486095c0.0281946,-0.013285 0.0528333,-0.0293318 0.0739342,-0.0481402 0.0210106,-0.0189168 0.0360104,-0.0371656 0.0448009,-0.0549272l0.0323823 0 0 0.411963z"/>
 <path class="fil0" d="M6.01982 15.1966l-0.0503424 0 0 -0.320935c-0.0121298,0.0115522 -0.027978,0.0231225 -0.0476529,0.0346747 -0.0197832,0.0115522 -0.0374544,0.0202525 -0.0531221,0.0259744l0 -0.0486095c0.0281946,-0.013285 0.0528333,-0.0293318 0.0739342,-0.0481402 0.0210106,-0.0189168 0.0360104,-0.0371656 0.0448009,-0.0549272l0.0323823 0 0 0.411963zm0.129331 -0.10832l0.0503243 -0.00667862c0.00583026,0.0285556 0.0156677,0.0490969 0.0295123,0.061696 0.0139529,0.0126172 0.0308661,0.0189168 0.0508297,0.0189168 0.023682,0 0.043736,-0.0082129 0.0600715,-0.0246387 0.0162453,-0.0164258 0.0244582,-0.0367866 0.0244582,-0.0610462 0,-0.0231044 -0.00754504,-0.0422197 -0.0226351,-0.0572015 -0.0151984,-0.0149998 -0.0343859,-0.0225449 -0.0577069,-0.0225449 -0.00954863,0 -0.0213896,0.00191334 -0.0355231,0.0056317l0.0056317 -0.0442233c0.00333931,0.000379057 0.00601076,0.000577611 0.00812265,0.000577611 0.0213896,0 0.0406855,-0.0056317 0.0578874,-0.0168229 0.0171839,-0.0111732 0.0257759,-0.0284654 0.0257759,-0.0517684 0,-0.0184294 -0.00629957,-0.0338083 -0.0188084,-0.0458478 -0.0125089,-0.0121298 -0.0286639,-0.0182308 -0.048429,-0.0182308 -0.0195846,0 -0.0359202,0.00620931 -0.0488984,0.0184294 -0.0130865,0.0123284 -0.0214979,0.030848 -0.0252163,0.0554867l-0.0503424 -0.00897102c0.00611906,-0.0338083 0.0201622,-0.0599813 0.0419309,-0.078519 0.021877,-0.0185196 0.0490067,-0.0278878 0.0814792,-0.0278878 0.0223463,0 0.0429778,0.00487359 0.0618043,0.0144222 0.0188084,0.00965693 0.0332307,0.0227254 0.0432667,0.0393497 0.00992768,0.0166244 0.0149818,0.0342054 0.0149818,0.0529236 0,0.0176713 -0.00476529,0.0338083 -0.0143139,0.048429 -0.00954863,0.0145125 -0.0235918,0.0260647 -0.0422197,0.0346747 0.0242596,0.0055234 0.0430681,0.0171839 0.0565336,0.0348552 0.0133753,0.017581 0.020072,0.0396385 0.020072,0.0661003 0,0.0358119 -0.0129962,0.0661906 -0.0391692,0.0911181 -0.0260827,0.0249275 -0.0591148,0.0373461 -0.0990422,0.0373461 -0.0360104,0 -0.0659198,-0.0107038 -0.0896921,-0.0321837 -0.0237903,-0.0213896 -0.0373461,-0.0491872 -0.0406855,-0.0833925z"/>
 <path class="fil0" d="M6.01982 16.4826l-0.0503424 0 0 -0.320935c-0.0121298,0.0115522 -0.027978,0.0231225 -0.0476529,0.0346747 -0.0197832,0.0115522 -0.0374544,0.0202525 -0.0531221,0.0259744l0 -0.0486095c0.0281946,-0.013285 0.0528333,-0.0293318 0.0739342,-0.0481402 0.0210106,-0.0189168 0.0360104,-0.0371656 0.0448009,-0.0549272l0.0323823 0 0 0.411963zm0.290466 0l0 -0.0981938 -0.177958 0 0 -0.0462269 0.187218 -0.265827 0.0411728 0 0 0.265827 0.0553965 0 0 0.0462269 -0.0553965 0 0 0.0981938 -0.0504326 0zm0 -0.144421l0 -0.184926 -0.128374 0.184926 0.128374 0z"/>
 <path class="fil0" d="M6.01982 17.7686l-0.0503424 0 0 -0.320935c-0.0121298,0.0115522 -0.027978,0.0231225 -0.0476529,0.0346747 -0.0197832,0.0115522 -0.0374544,0.0202525 -0.0531221,0.0259744l0 -0.0486095c0.0281946,-0.013285 0.0528333,-0.0293318 0.0739342,-0.0481402 0.0210106,-0.0189168 0.0360104,-0.0371656 0.0448009,-0.0549272l0.0323823 0 0 0.411963zm0.129042 -0.107454l0.0529055 -0.00449453c0.00391692,0.0257939 0.0129962,0.0450897 0.0272199,0.0580679 0.014332,0.0129962 0.0315339,0.0194944 0.0516781,0.0194944 0.0242596,0 0.0448009,-0.00916957 0.0615155,-0.0274185 0.0168049,-0.0183391 0.0252163,-0.0425988 0.0252163,-0.0727789 0,-0.0287542 -0.0080324,-0.0513893 -0.0241694,-0.0680137 -0.016137,-0.0166063 -0.0372559,-0.0249275 -0.0634108,-0.0249275 -0.0162453,0 -0.0308661,0.00373642 -0.0439526,0.0110829 -0.0130865,0.00736454 -0.023303,0.0169132 -0.0307578,0.0286639l-0.0472738 -0.00611906 0.0397288 -0.21072 0.204023 0 0 0.0481402 -0.163717 0 -0.0221478 0.110233c0.0246387,-0.0171839 0.0505229,-0.0257939 0.0775623,-0.0257939 0.0358119,0 0.065992,0.0124186 0.0906307,0.0372559 0.0246568,0.0248373 0.0369671,0.0567322 0.0369671,0.0957029 0,0.0371656 -0.0108844,0.0692591 -0.0324726,0.0962805 -0.0263535,0.0331585 -0.0622737,0.0497648 -0.107742,0.0497648 -0.0373461,0 -0.0678151,-0.010415 -0.0914069,-0.0313173 -0.0235918,-0.0209203 -0.0370573,-0.0486276 -0.0403966,-0.0831037z"/>
 <path class="fil0" d="M6.01982 19.0547l-0.0503424 0 0 -0.320935c-0.0121298,0.0115522 -0.027978,0.0231225 -0.0476529,0.0346747 -0.0197832,0.0115522 -0.0374544,0.0202525 -0.0531221,0.0259744l0 -0.0486095c0.0281946,-0.013285 0.0528333,-0.0293318 0.0739342,-0.0481402 0.0210106,-0.0189168 0.0360104,-0.0371656 0.0448009,-0.0549272l0.0323823 0 0 0.411963zm0.390375 -0.309762l-0.0500536 0.00391692c-0.00449453,-0.0197651 -0.0107941,-0.0341873 -0.019007,-0.0430681 -0.0136641,-0.0144403 -0.030469,-0.0215882 -0.0504326,-0.0215882 -0.0160467,0 -0.0300899,0.00447648 -0.0422197,0.0134655 -0.0158662,0.0115522 -0.0283751,0.0284654 -0.0375447,0.0506131 -0.00906127,0.0221658 -0.0138446,0.05379 -0.0142237,0.0948545 0.0121298,-0.0184294 0.0269311,-0.0321837 0.0445121,-0.0411728 0.0174727,-0.00888076 0.0359021,-0.0133753 0.0551077,-0.0133753 0.0336278,0 0.0621834,0.0123284 0.0857752,0.0370754 0.0235918,0.024729 0.0354328,0.0566419 0.0354328,0.0957931 0,0.0257939 -0.0056317,0.0496745 -0.0167146,0.0718223 -0.0110829,0.0220756 -0.0263535,0.039079 -0.0457576,0.0508297 -0.0193861,0.0117508 -0.0413533,0.017563 -0.065992,0.017563 -0.0420392,0 -0.0762266,-0.0153789 -0.102688,-0.0463172 -0.026552,-0.030848 -0.0397288,-0.081768 -0.0397288,-0.152634 0,-0.0792771 0.0146208,-0.136876 0.0439345,-0.172886 0.0255051,-0.0313354 0.059891,-0.0470933 0.103248,-0.0470933 0.0322018,0 0.0586455,0.00907932 0.0792771,0.0272199 0.0206315,0.0180503 0.0329599,0.0430861 0.0370754,0.0749811zm-0.205647 0.176803c0,0.0173825 0.00371837,0.0340068 0.0110829,0.049855 0.00734649,0.0158662 0.0176532,0.0278878 0.030848,0.036209 0.013267,0.00830315 0.0272199,0.0125089 0.0417324,0.0125089 0.0212994,0 0.0395483,-0.00859196 0.0548369,-0.0257939 0.0152706,-0.0171839 0.0229239,-0.0404869 0.0229239,-0.0699089 0,-0.0283751 -0.00754504,-0.0507214 -0.0226532,-0.067057 -0.0150901,-0.0163356 -0.0340971,-0.0244582 -0.057021,-0.0244582 -0.0228156,0 -0.0421114,0.00812265 -0.0579777,0.0244582 -0.0158482,0.0163356 -0.0237723,0.0377252 -0.0237723,0.064187z"/>
 <path class="fil0" d="M6.01982 20.3407l-0.0503424 0 0 -0.320935c-0.0121298,0.0115522 -0.027978,0.0231225 -0.0476529,0.0346747 -0.0197832,0.0115522 -0.0374544,0.0202525 -0.0531221,0.0259744l0 -0.0486095c0.0281946,-0.013285 0.0528333,-0.0293318 0.0739342,-0.0481402 0.0210106,-0.0189168 0.0360104,-0.0371656 0.0448009,-0.0549272l0.0323823 0 0 0.411963zm0.132381 -0.356476l0 -0.048411 0.265538 0 0 0.0391512c-0.0260827,0.0277975 -0.0519669,0.0647646 -0.0776525,0.110811 -0.0256134,0.0460284 -0.0454688,0.0935007 -0.0594217,0.142128 -0.0101262,0.0343859 -0.0165161,0.0719125 -0.0192958,0.112797l-0.0517684 0c0.000577611,-0.032292 0.00687718,-0.0712627 0.019007,-0.117002 0.0121298,-0.0456673 0.0295123,-0.0897824 0.0521474,-0.132201 0.0227434,-0.0424002 0.0468045,-0.0782301 0.0724179,-0.107273l-0.200972 0z"/>
 <path class="fil0" d="M6.01982 21.6267l-0.0503424 0 0 -0.320935c-0.0121298,0.0115522 -0.027978,0.0231225 -0.0476529,0.0346747 -0.0197832,0.0115522 -0.0374544,0.0202525 -0.0531221,0.0259744l0 -0.0486095c0.0281946,-0.013285 0.0528333,-0.0293318 0.0739342,-0.0481402 0.0210106,-0.0189168 0.0360104,-0.0371656 0.0448009,-0.0549272l0.0323823 0 0 0.411963zm0.206586 -0.222452c-0.0209023,-0.00765334 -0.0363895,-0.0185377 -0.0465157,-0.0327614 -0.0100179,-0.0141515 -0.0150901,-0.0311368 -0.0150901,-0.05092 0,-0.0298914 0.0107038,-0.0549272 0.0322018,-0.0752699 0.0214799,-0.0203427 0.0499453,-0.0305592 0.0855766,-0.0305592 0.0358119,0 0.0646563,0.010415 0.0865333,0.0312271 0.0217868,0.0208301 0.0326711,0.0461367 0.0326711,0.0760461 0,0.019007 -0.00496384,0.0355231 -0.0149096,0.0496565 -0.0100179,0.0140432 -0.025108,0.0249275 -0.0454507,0.0325809 0.025108,0.0082129 0.0443136,0.0213896 0.0574903,0.0397288 0.0130865,0.0182489 0.0196749,0.0401259 0.0196749,0.0654325 0,0.035144 -0.0124186,0.064566 -0.0371476,0.0884466 -0.0248373,0.0238806 -0.0575084,0.0358119 -0.0979953,0.0358119 -0.0405049,0 -0.0730858,-0.0119313 -0.097905,-0.0359021 -0.0248373,-0.0239889 -0.0372559,-0.0538802 -0.0372559,-0.0896921 0,-0.0266603 0.00678693,-0.0490067 0.0203427,-0.067057 0.0134655,-0.0179601 0.0327614,-0.0302704 0.0577791,-0.0367685zm-0.0101082 -0.0853961c0,0.0193861 0.00629957,0.0352523 0.0187182,0.0475626 0.0125089,0.0123284 0.0287542,0.0185377 0.0486998,0.0185377 0.0194041,0 0.0353426,-0.00611906 0.0477612,-0.0183391 0.0124186,-0.0122381 0.0185377,-0.0272199 0.0185377,-0.0448912 0,-0.0185377 -0.00629957,-0.0340068 -0.0190973,-0.046624 -0.0128157,-0.0125991 -0.0286639,-0.0188987 -0.0477612,-0.0188987 -0.0192056,0 -0.0351621,0.00620931 -0.0478514,0.0184294 -0.0127074,0.0123284 -0.019007,0.0271297 -0.019007,0.0442233zm-0.0162453 0.18951c0,0.0143139 0.00342956,0.0282668 0.0102165,0.0416421 0.00678693,0.0134655 0.0169132,0.0238806 0.0303787,0.0312271 0.0134655,0.00736454 0.0278878,0.0110829 0.0433569,0.0110829 0.0240791,0 0.0439526,-0.00774359 0.0596022,-0.023303 0.0156677,-0.0154691 0.0235015,-0.0351621 0.0235015,-0.0590246 0,-0.0242777 -0.00801435,-0.0443316 -0.0241694,-0.0601798 -0.016137,-0.0158662 -0.0363895,-0.0237903 -0.0606491,-0.0237903 -0.023682,0 -0.0432667,0.00783385 -0.0588441,0.0235015 -0.0155594,0.0157579 -0.0233932,0.0353426 -0.0233932,0.0588441z"/>
 <path class="fil0" d="M6.01982 22.9128l-0.0503424 0 0 -0.320935c-0.0121298,0.0115522 -0.027978,0.0231225 -0.0476529,0.0346747 -0.0197832,0.0115522 -0.0374544,0.0202525 -0.0531221,0.0259744l0 -0.0486095c0.0281946,-0.013285 0.0528333,-0.0293318 0.0739342,-0.0481402 0.0210106,-0.0189168 0.0360104,-0.0371656 0.0448009,-0.0549272l0.0323823 0 0 0.411963zm0.136587 -0.0948545l0.048429 -0.00447648c0.00409743,0.0227254 0.0119313,0.0392595 0.0234835,0.0495662 0.0115703,0.0102165 0.0263715,0.0153789 0.0445121,0.0153789 0.0154691,0 0.029043,-0.00353787 0.0406855,-0.0107038 0.0116605,-0.00705768 0.0212091,-0.0165161 0.0286639,-0.0283571 0.00754504,-0.011841 0.0137544,-0.0278878 0.0188084,-0.0479597 0.00498189,-0.0201442 0.00754504,-0.0406855 0.00754504,-0.0616058 0,-0.00220214 -9.02517e-005,-0.0056317 -0.000270755,-0.0100179 -0.0101262,0.0159384 -0.0238806,0.0290249 -0.0412631,0.0389707 -0.0174908,0.0100179 -0.0364075,0.0149818 -0.0566419,0.0149818 -0.0340068,0 -0.062761,-0.0123103 -0.0862625,-0.0369671 -0.0234835,-0.0246387 -0.0352343,-0.057021 -0.0352343,-0.0973274 0,-0.0416421 0.0122201,-0.0750713 0.0367685,-0.100486 0.0245485,-0.0253968 0.0553062,-0.0381043 0.0922733,-0.0381043 0.0266423,0 0.0509922,0.00725623 0.073158,0.0215882 0.0220575,0.014332 0.0388804,0.0348552 0.0503424,0.0614072 0.011462,0.0265701 0.0171839,0.0650534 0.0171839,0.115486 0,0.052346 -0.0056317,0.0940783 -0.0170034,0.125215 -0.011462,0.0310466 -0.0283571,0.0546384 -0.0508117,0.0708837 -0.0225449,0.0162273 -0.0488081,0.0243499 -0.0790785,0.0243499 -0.0320935,0 -0.0582665,-0.00888076 -0.0786092,-0.0267325 -0.0203427,-0.0177796 -0.0325809,-0.0427973 -0.0366783,-0.0750894zm0.206207 -0.181099c0,-0.0288444 -0.00763529,-0.0518586 -0.0230142,-0.0687718 -0.0154691,-0.0170034 -0.0338985,-0.0255051 -0.055595,-0.0255051 -0.0223463,0 -0.0418226,0.00916957 -0.058447,0.0274185 -0.0166244,0.0183391 -0.0249275,0.0420392 -0.0249275,0.0710642 0,0.026173 0.0079241,0.0473821 0.023682,0.0637177 0.0157579,0.0163356 0.035144,0.0244402 0.0582665,0.0244402 0.0233932,0 0.0425085,-0.0081046 0.0575084,-0.0244402 0.0150901,-0.0163356 0.0225268,-0.0389707 0.0225268,-0.0679234z"/>
 <path class="fil0" d="M6.09489 24.1504l0 0.048429 -0.27117 0c-0.000379057,-0.0121298 0.00153428,-0.0237903 0.00583026,-0.0349635 0.00687718,-0.0185196 0.0179601,-0.0366783 0.0331404,-0.0546384 0.0152886,-0.0178518 0.0372559,-0.0385736 0.0659018,-0.0620751 0.0446204,-0.036588 0.0748006,-0.0655227 0.0904683,-0.0869304 0.0156496,-0.0212994 0.0234835,-0.0415338 0.0234835,-0.0605589 0,-0.0199456 -0.00716598,-0.0367685 -0.0213896,-0.0505229 -0.014332,-0.0136641 -0.0329599,-0.0205413 -0.0558838,-0.0205413 -0.0242596,0 -0.0436457,0.00727428 -0.0581582,0.021877 -0.0146208,0.0145305 -0.0219673,0.0346747 -0.0221658,0.0603784l-0.0517684 -0.00525265c0.00353787,-0.0386999 0.0169132,-0.0681039 0.0400176,-0.0883564 0.0231225,-0.0202525 0.0542593,-0.0303787 0.09323,-0.0303787 0.0393497,0 0.0704866,0.0109927 0.0934105,0.0327614 0.0230142,0.021877 0.0344761,0.0488984 0.0344761,0.0811904 0,0.0164258 -0.00333931,0.0325628 -0.0101262,0.048429 -0.00667862,0.0158482 -0.0178518,0.0325628 -0.0334292,0.0500536 -0.0155594,0.017563 -0.0414436,0.0416421 -0.0776525,0.0722013 -0.0301802,0.0254149 -0.0495662,0.0425988 -0.0581582,0.0516781 -0.00861001,0.00897102 -0.0156677,0.0180503 -0.0212994,0.0272199l0.201243 0zm0.0539705 -0.153879c0,-0.0485193 0.00496384,-0.0875802 0.0149818,-0.117093 0.00994573,-0.0296206 0.0248373,-0.0524362 0.0445121,-0.068483 0.0196749,-0.0160467 0.0444219,-0.0240791 0.074223,-0.0240791 0.0220575,0 0.0413533,0.00449453 0.0579777,0.0133753 0.0166244,0.00879051 0.0302704,0.0215882 0.0411728,0.0383028 0.0107941,0.0167146 0.0192958,0.0370573 0.0253968,0.0610282 0.00620931,0.0239708 0.00927787,0.0562629 0.00927787,0.0969483 0,0.0481402 -0.00498189,0.0869304 -0.0148193,0.116533 -0.00992768,0.0296025 -0.024729,0.0524362 -0.0444038,0.0685732 -0.0196749,0.016155 -0.0445121,0.0241694 -0.074602,0.0241694 -0.0395483,0 -0.0705949,-0.0141334 -0.0931217,-0.0425085 -0.0270394,-0.0340971 -0.0405952,-0.0897824 -0.0405952,-0.166767zm0.0517684 0c0,0.0673458 0.0079241,0.112147 0.023682,0.134493 0.0157579,0.0222561 0.035144,0.0334292 0.0582665,0.0334292 0.0232127,0 0.0425988,-0.0112634 0.0583567,-0.0336278 0.0157579,-0.0223463 0.0237001,-0.0671472 0.0237001,-0.134294 0,-0.0675263 -0.00794215,-0.112417 -0.0237001,-0.134583 -0.0157579,-0.0222561 -0.0353426,-0.033339 -0.058826,-0.033339 -0.0232127,0 -0.0416602,0.00985548 -0.0555048,0.029422 -0.0172922,0.0249275 -0.0259744,0.0711725 -0.0259744,0.1385z"/>
</symbol>
<symbol id="Fm3-53736-0" viewBox="2.86527 -10.1135 46.5716 36.3829">
 <path class="fil4" d="M49.4369 -9.60408c0,-0.280177 -0.229239,-0.509417 -0.509417,-0.509417l-45.5528 0c-0.280177,0 -0.509417,0.229239 -0.509417,0.509417l0 35.364c0,0.280177 0.229239,0.509417 0.509417,0.509417l45.5528 0c0.280177,0 0.509417,-0.229239 0.509417,-0.509417l0 -35.364z"/>
</symbol>
<symbol id="Fm25-53731-0" viewBox="23.8184 6.44372 5.60255 1.29462">
 <polygon class="fil3" points="23.8662,6.49148 29.3732,6.49148 29.3732,7.69065 23.8662,7.69065 "/>
 <path class="fil4" d="M29.421 6.44372l-5.60255 0 0 1.29462 5.60255 0 0 -1.29462zm-0.0955224 1.1991l-5.41151 0 0 -1.10358 5.41151 0 0 1.10358z"/>
</symbol>
<symbol id="Fm20-53726-0" viewBox="7.01304 1.27291 5.60255 1.29462">
 <polygon class="fil3" points="7.06088,1.32067 12.5678,1.32067 12.5678,2.51984 7.06088,2.51984 "/>
 <path class="fil4" d="M12.6156 1.27291l-5.60255 0 0 1.29462 5.60255 0 0 -1.29462zm-0.0955224 1.19917l-5.41151 0 0 -1.1036 5.41151 0 0 1.1036z"/>
</symbol>
<symbol id="Fm32-53739-0" viewBox="40.6451 1.27291 5.60253 1.29462">
 <polygon class="fil5" points="40.6928,1.32067 46.1998,1.32067 46.1998,2.51984 40.6928,2.51984 "/>
 <path class="fil4" d="M46.2476 1.27291l-5.60253 0 0 1.29462 5.60253 0 0 -1.29462zm-0.0955043 1.19917l-5.41151 0 0 -1.1036 5.41151 0 0 1.1036z"/>
</symbol>
<symbol id="Fm19-53724-0" viewBox="12.6156 2.56759 5.60253 1.29464">
 <polygon class="fil3" points="12.6634,2.61535 18.1703,2.61535 18.1703,3.81447 12.6634,3.81447 "/>
 <path class="fil4" d="M18.2181 2.56759l-5.60253 0 0 1.29464 5.60253 0 0 -1.29464zm-0.0955043 1.19912l-5.41153 0 0 -1.1036 5.41153 0 0 1.1036z"/>
</symbol>
<symbol id="Fm16-53721-0" viewBox="6.98656 -0.0454688 39.2496 31.1035">
 <polygon class="fil2 str0" points="7.00248,-0.0295484 46.2202,-0.0295484 46.2202,31.0421 7.00248,31.0421 "/>
 <line class="fil2 str0" x1="7.00248" y1="21.9795" x2="46.2202" y2= "21.9795" />
 <line class="fil2 str0" x1="7.00248" y1="20.6849" x2="46.2202" y2= "20.6849" />
 <line class="fil2 str0" x1="7.00248" y1="19.3902" x2="46.2202" y2= "19.3902" />
 <line class="fil2 str0" x1="7.00248" y1="18.0956" x2="46.2202" y2= "18.0956" />
 <line class="fil2 str0" x1="7.00248" y1="16.8009" x2="46.2202" y2= "16.8009" />
 <line class="fil2 str0" x1="7.00248" y1="15.5063" x2="46.2202" y2= "15.5063" />
 <line class="fil2 str0" x1="7.00248" y1="14.2116" x2="46.2202" y2= "14.2116" />
 <line class="fil2 str0" x1="7.00248" y1="12.917" x2="46.2202" y2= "12.917" />
 <line class="fil2 str0" x1="7.00248" y1="11.6223" x2="46.2202" y2= "11.6223" />
 <line class="fil2 str0" x1="7.00248" y1="10.3277" x2="46.2202" y2= "10.3277" />
 <line class="fil2 str0" x1="7.00248" y1="9.03302" x2="46.2202" y2= "9.03302" />
 <line class="fil2 str0" x1="7.00248" y1="7.73836" x2="46.2202" y2= "7.73836" />
 <line class="fil2 str0" x1="7.00248" y1="6.4437" x2="46.2202" y2= "6.4437" />
 <line class="fil2 str0" x1="7.00248" y1="5.14906" x2="46.2202" y2= "5.14906" />
 <line class="fil2 str0" x1="7.00248" y1="3.8544" x2="46.2202" y2= "3.8544" />
 <line class="fil2 str0" x1="7.00248" y1="2.55974" x2="46.2202" y2= "2.55974" />
 <line class="fil2 str0" x1="7.00248" y1="1.26509" x2="46.2202" y2= "1.26509" />
 <line class="fil2 str0" x1="40.6177" y1="-0.0295664" x2="40.6177" y2= "31.0421" />
 <line class="fil2 str0" x1="35.0151" y1="-0.0295664" x2="35.0151" y2= "31.0421" />
 <line class="fil2 str0" x1="29.4126" y1="-0.0295664" x2="29.4126" y2= "31.0421" />
 <line class="fil2 str0" x1="23.8101" y1="-0.0295664" x2="23.8101" y2= "31.0421" />
 <line class="fil2 str0" x1="18.2075" y1="-0.0295664" x2="18.2075" y2= "31.0421" />
 <line class="fil2 str0" x1="12.605" y1="-0.0295664" x2="12.605" y2= "31.0421" />
</symbol>
<symbol id="Fm29-53735-0" viewBox="23.8117 1.27291 5.60255 1.29462">
 <polygon class="fil5" points="23.8595,1.32067 29.3665,1.32067 29.3665,2.51984 23.8595,2.51984 "/>
 <path class="fil4" d="M29.4142 1.27291l-5.60255 0 0 1.29462 5.60255 0 0 -1.29462zm-0.0955224 1.19917l-5.41151 0 0 -1.1036 5.41151 0 0 1.1036z"/>
</symbol>
<symbol id="Fm24-53730-0" viewBox="35.0235 1.27291 5.60255 1.29462">
 <polygon class="fil3" points="35.0713,1.32067 40.5783,1.32067 40.5783,2.51984 35.0713,2.51984 "/>
 <path class="fil4" d="M40.6261 1.27291l-5.60255 0 0 1.29462 5.60255 0 0 -1.29462zm-0.0955224 1.19917l-5.41151 0 0 -1.1036 5.41151 0 0 1.1036z"/>
</symbol>
 <g id="Layer_x0020_1">
  <metadata id="CorelCorpID_0Corel-Layer"/>
  <rect class="fil8" width="0.811868" height="0.811868"/>
  <path class="fil0" d="M0.0500536 0.175991l0.711761 0 0.0117869 0 0 0.0117869 0 0.436295 0 0.0118049 -0.0117869 0 -0.711761 0 -0.0117869 0 0 -0.0118049 0 -0.436295 0 -0.0117869 0.0117869 0zm0.249059 0.0235737l0 0.412721 0.213662 0 0 -0.412721 -0.213662 0zm-0.0235737 0.412721l0 -0.412721 -0.21368 0 0 0.412721 0.21368 0zm0.260827 -0.412721l0 0.412721 0.213644 0 0 -0.412721 -0.213644 0z"/>
 </g>
</svg>
