<?xml version="1.0" encoding="UTF-8"?>
<!DOCTYPE svg PUBLIC "-//W3C//DTD SVG 1.1//EN" "http://www.w3.org/Graphics/SVG/1.1/DTD/svg11.dtd">
<!-- Creator: CorelDRAW -->
<svg xmlns="http://www.w3.org/2000/svg" xml:space="preserve" width="31px" height="35px" style="shape-rendering:geometricPrecision; text-rendering:geometricPrecision; image-rendering:optimizeQuality; fill-rule:evenodd; clip-rule:evenodd"
viewBox="0 0 0.35403 0.400307"
 xmlns:xlink="http://www.w3.org/1999/xlink">
 <defs>
  <style type="text/css">
   <![CDATA[
    .str3 {stroke:white;stroke-width:0.000175624}
    .str4 {stroke:#686868;stroke-width:0.0119154}
    .str1 {stroke:#231F20;stroke-width:0.000351247}
    .str2 {stroke:#ADADAD;stroke-width:0.000459324}
    .str0 {stroke:#686868;stroke-width:0.000580909}
    .fil1 {fill:none}
    .fil2 {fill:none;fill-rule:nonzero}
    .fil4 {fill:#686868;fill-rule:nonzero}
    .fil5 {fill:lightgrey;fill-rule:nonzero}
    .fil3 {fill:white;fill-rule:nonzero}
    .fil0 {fill:url(#id1)}
   ]]>
  </style>
  <pattern id="id0" patternUnits="userSpaceOnUse" patternTransform="matrix(1 0 0 1 -15.5708 -2.2576)" x="0" y="0" width="0.698206" height="0.698192" viewBox="-15.5708 -1.5696 0.0101929 0.0101929">
   <polygon id="_1234567891011121314151617181920212223242526271" class="fil3" points="-17.2865,-3.28531 -13.8449,-3.28531 -13.8449,0.156298 -17.2865,0.156298 "/>
   <polygon id="_12345678910111213141516171819202122232425262712" class="fil3" points="-15.5963,-1.5951 -15.5351,-1.5951 -15.5351,-1.53392 -15.5963,-1.53392 "/>
   <path id="_123456789101112131415161718192021222324252627123" class="fil3" d="M-15.5606 -1.55915c0.00014185,0 0.000256681,-0.000114831 0.000256681,-0.000256681 0,-0.00014185 -0.000114831,-0.000256681 -0.000256681,-0.000256681 -0.00014185,0 -0.000256681,0.000114831 -0.000256681,0.000256681 0,0.00014185 0.000114831,0.000256681 0.000256681,0.000256681z"/>
   <path id="_1234567891011121314151617181920212223242526271234" class="fil2 str3" d="M-15.5606 -1.55915c0.00014185,0 0.000256681,-0.000114831 0.000256681,-0.000256681 0,-0.00014185 -0.000114831,-0.000256681 -0.000256681,-0.000256681 -0.00014185,0 -0.000256681,0.000114831 -0.000256681,0.000256681 0,0.00014185 0.000114831,0.000256681 0.000256681,0.000256681z"/>
   <path id="_12345678910111213141516171819202122232425262712345" class="fil3" d="M-15.5657 -1.55915c0.00014185,0 0.000256681,-0.000114831 0.000256681,-0.000256681 0,-0.00014185 -0.000114831,-0.000256681 -0.000256681,-0.000256681 -0.00014185,0 -0.000256681,0.000114831 -0.000256681,0.000256681 0,0.00014185 0.000114831,0.000256681 0.000256681,0.000256681z"/>
   <path id="_123456789101112131415161718192021222324252627123456" class="fil2 str3" d="M-15.5657 -1.55915c0.00014185,0 0.000256681,-0.000114831 0.000256681,-0.000256681 0,-0.00014185 -0.000114831,-0.000256681 -0.000256681,-0.000256681 -0.00014185,0 -0.000256681,0.000114831 -0.000256681,0.000256681 0,0.00014185 0.000114831,0.000256681 0.000256681,0.000256681z"/>
   <path id="_1234567891011121314151617181920212223242526271234567" class="fil3" d="M-15.5606 -1.56425c0.00014185,0 0.000256681,-0.000114831 0.000256681,-0.000256681 0,-0.00014185 -0.000114831,-0.000256681 -0.000256681,-0.000256681 -0.00014185,0 -0.000256681,0.000114831 -0.000256681,0.000256681 0,0.00014185 0.000114831,0.000256681 0.000256681,0.000256681z"/>
   <path id="_12345678910111213141516171819202122232425262712345678" class="fil2 str3" d="M-15.5606 -1.56425c0.00014185,0 0.000256681,-0.000114831 0.000256681,-0.000256681 0,-0.00014185 -0.000114831,-0.000256681 -0.000256681,-0.000256681 -0.00014185,0 -0.000256681,0.000114831 -0.000256681,0.000256681 0,0.00014185 0.000114831,0.000256681 0.000256681,0.000256681z"/>
   <path id="_123456789101112131415161718192021222324252627123456789" class="fil3" d="M-15.5657 -1.56425c0.00014185,0 0.000256681,-0.000114831 0.000256681,-0.000256681 0,-0.00014185 -0.000114831,-0.000256681 -0.000256681,-0.000256681 -0.00014185,0 -0.000256681,0.000114831 -0.000256681,0.000256681 0,0.00014185 0.000114831,0.000256681 0.000256681,0.000256681z"/>
   <path id="_12345678910111213141516171819202122232425262712345678910" class="fil2 str3" d="M-15.5657 -1.56425c0.00014185,0 0.000256681,-0.000114831 0.000256681,-0.000256681 0,-0.00014185 -0.000114831,-0.000256681 -0.000256681,-0.000256681 -0.00014185,0 -0.000256681,0.000114831 -0.000256681,0.000256681 0,0.00014185 0.000114831,0.000256681 0.000256681,0.000256681z"/>
   <path id="_1234567891011121314151617181920212223242526271234567891011" class="fil3" d="M-15.5682 -1.5617c0.00014185,0 0.000256681,-0.000114831 0.000256681,-0.000256681 0,-0.00014185 -0.000114831,-0.000256681 -0.000256681,-0.000256681 -0.00014185,0 -0.000256681,0.000114831 -0.000256681,0.000256681 0,0.00014185 0.000114831,0.000256681 0.000256681,0.000256681z"/>
   <path id="_123456789101112131415161718192021222324252627123456789101112" class="fil2 str3" d="M-15.5682 -1.5617c0.00014185,0 0.000256681,-0.000114831 0.000256681,-0.000256681 0,-0.00014185 -0.000114831,-0.000256681 -0.000256681,-0.000256681 -0.00014185,0 -0.000256681,0.000114831 -0.000256681,0.000256681 0,0.00014185 0.000114831,0.000256681 0.000256681,0.000256681z"/>
   <path id="_12345678910111213141516171819202122232425262712345678910111213" class="fil3" d="M-15.5631 -1.5617c0.00014185,0 0.000256681,-0.000114831 0.000256681,-0.000256681 0,-0.00014185 -0.000114831,-0.000256681 -0.000256681,-0.000256681 -0.00014185,0 -0.000256681,0.000114831 -0.000256681,0.000256681 0,0.00014185 0.000114831,0.000256681 0.000256681,0.000256681z"/>
   <path id="_1234567891011121314151617181920212223242526271234567891011121314" class="fil2 str3" d="M-15.5631 -1.5617c0.00014185,0 0.000256681,-0.000114831 0.000256681,-0.000256681 0,-0.00014185 -0.000114831,-0.000256681 -0.000256681,-0.000256681 -0.00014185,0 -0.000256681,0.000114831 -0.000256681,0.000256681 0,0.00014185 0.000114831,0.000256681 0.000256681,0.000256681z"/>
   <path id="_123456789101112131415161718192021222324252627123456789101112131415" class="fil3" d="M-15.5682 -1.5668c0.00014185,0 0.000256681,-0.000114831 0.000256681,-0.000256681 0,-0.00014185 -0.000114831,-0.000256681 -0.000256681,-0.000256681 -0.00014185,0 -0.000256681,0.000114831 -0.000256681,0.000256681 0,0.00014185 0.000114831,0.000256681 0.000256681,0.000256681z"/>
   <path id="_12345678910111213141516171819202122232425262712345678910111213141516" class="fil2 str3" d="M-15.5682 -1.5668c0.00014185,0 0.000256681,-0.000114831 0.000256681,-0.000256681 0,-0.00014185 -0.000114831,-0.000256681 -0.000256681,-0.000256681 -0.00014185,0 -0.000256681,0.000114831 -0.000256681,0.000256681 0,0.00014185 0.000114831,0.000256681 0.000256681,0.000256681z"/>
   <path id="_1234567891011121314151617181920212223242526271234567891011121314151617" class="fil3" d="M-15.5631 -1.5668c0.00014185,0 0.000256681,-0.000114831 0.000256681,-0.000256681 0,-0.00014185 -0.000114831,-0.000256681 -0.000256681,-0.000256681 -0.00014185,0 -0.000256681,0.000114831 -0.000256681,0.000256681 0,0.00014185 0.000114831,0.000256681 0.000256681,0.000256681z"/>
   <path id="_123456789101112131415161718192021222324252627123456789101112131415161718" class="fil2 str3" d="M-15.5631 -1.5668c0.00014185,0 0.000256681,-0.000114831 0.000256681,-0.000256681 0,-0.00014185 -0.000114831,-0.000256681 -0.000256681,-0.000256681 -0.00014185,0 -0.000256681,0.000114831 -0.000256681,0.000256681 0,0.00014185 0.000114831,0.000256681 0.000256681,0.000256681z"/>
   <path id="_12345678910111213141516171819202122232425262712345678910111213141516171819" class="fil3" d="M-15.5708 -1.55915c0.00014185,0 0.000256681,-0.000114831 0.000256681,-0.000256681 0,-0.00014185 -0.000114831,-0.000256681 -0.000256681,-0.000256681 -0.00014185,0 -0.000256681,0.000114831 -0.000256681,0.000256681 0,0.00014185 0.000114831,0.000256681 0.000256681,0.000256681z"/>
   <path id="_1234567891011121314151617181920212223242526271234567891011121314151617181920" class="fil2 str3" d="M-15.5708 -1.55915c0.00014185,0 0.000256681,-0.000114831 0.000256681,-0.000256681 0,-0.00014185 -0.000114831,-0.000256681 -0.000256681,-0.000256681 -0.00014185,0 -0.000256681,0.000114831 -0.000256681,0.000256681 0,0.00014185 0.000114831,0.000256681 0.000256681,0.000256681z"/>
   <path id="_123456789101112131415161718192021222324252627123456789101112131415161718192021" class="fil3" d="M-15.5708 -1.56425c0.00014185,0 0.000256681,-0.000114831 0.000256681,-0.000256681 0,-0.00014185 -0.000114831,-0.000256681 -0.000256681,-0.000256681 -0.00014185,0 -0.000256681,0.000114831 -0.000256681,0.000256681 0,0.00014185 0.000114831,0.000256681 0.000256681,0.000256681z"/>
   <path id="_12345678910111213141516171819202122232425262712345678910111213141516171819202122" class="fil2 str3" d="M-15.5708 -1.56425c0.00014185,0 0.000256681,-0.000114831 0.000256681,-0.000256681 0,-0.00014185 -0.000114831,-0.000256681 -0.000256681,-0.000256681 -0.00014185,0 -0.000256681,0.000114831 -0.000256681,0.000256681 0,0.00014185 0.000114831,0.000256681 0.000256681,0.000256681z"/>
   <path id="_1234567891011121314151617181920212223242526271234567891011121314151617181920212223" class="fil3" d="M-15.5606 -1.56935c0.00014185,0 0.000256681,-0.000114831 0.000256681,-0.000256681 0,-0.00014185 -0.000114831,-0.000256681 -0.000256681,-0.000256681 -0.00014185,0 -0.000256681,0.000114831 -0.000256681,0.000256681 0,0.00014185 0.000114831,0.000256681 0.000256681,0.000256681z"/>
   <path id="_123456789101112131415161718192021222324252627123456789101112131415161718192021222324" class="fil2 str3" d="M-15.5606 -1.56935c0.00014185,0 0.000256681,-0.000114831 0.000256681,-0.000256681 0,-0.00014185 -0.000114831,-0.000256681 -0.000256681,-0.000256681 -0.00014185,0 -0.000256681,0.000114831 -0.000256681,0.000256681 0,0.00014185 0.000114831,0.000256681 0.000256681,0.000256681z"/>
   <path id="_12345678910111213141516171819202122232425262712345678910111213141516171819202122232425" class="fil3" d="M-15.5657 -1.56935c0.00014185,0 0.000256681,-0.000114831 0.000256681,-0.000256681 0,-0.00014185 -0.000114831,-0.000256681 -0.000256681,-0.000256681 -0.00014185,0 -0.000256681,0.000114831 -0.000256681,0.000256681 0,0.00014185 0.000114831,0.000256681 0.000256681,0.000256681z"/>
   <path id="_1234567891011121314151617181920212223242526271234567891011121314151617181920212223242526" class="fil2 str3" d="M-15.5657 -1.56935c0.00014185,0 0.000256681,-0.000114831 0.000256681,-0.000256681 0,-0.00014185 -0.000114831,-0.000256681 -0.000256681,-0.000256681 -0.00014185,0 -0.000256681,0.000114831 -0.000256681,0.000256681 0,0.00014185 0.000114831,0.000256681 0.000256681,0.000256681z"/>
   <path id="_123456789101112131415161718192021222324252627123456789101112131415161718192021222324252627" class="fil3" d="M-15.5708 -1.56935c0.00014185,0 0.000256681,-0.000114831 0.000256681,-0.000256681 0,-0.00014185 -0.000114831,-0.000256681 -0.000256681,-0.000256681 -0.00014185,0 -0.000256681,0.000114831 -0.000256681,0.000256681 0,0.00014185 0.000114831,0.000256681 0.000256681,0.000256681z"/>
   <path id="_12345678910111213141516171819202122232425262712345678910111213141516171819202122232425262728" class="fil2 str3" d="M-15.5708 -1.56935c0.00014185,0 0.000256681,-0.000114831 0.000256681,-0.000256681 0,-0.00014185 -0.000114831,-0.000256681 -0.000256681,-0.000256681 -0.00014185,0 -0.000256681,0.000114831 -0.000256681,0.000256681 0,0.00014185 0.000114831,0.000256681 0.000256681,0.000256681z"/>
  </pattern>
  <linearGradient id="id1" gradientUnits="userSpaceOnUse" x1="-15.5708" y1="-1.66554" x2="-15.2168" y2="-1.66554">
   <stop offset="0" style="stop-color:#EF5053"/>
   <stop offset="0.0117647" style="stop-color:#EF5053"/>
   <stop offset="1" style="stop-color:#F8D322"/>
  </linearGradient>
 </defs>
<symbol id="Fm1-53753-0" viewBox="-15.5708 -1.77166 0.354037 0.212248">
 <polygon class="fil0" points="-15.5708,-1.55942 -15.2168,-1.55942 -15.2168,-1.77166 -15.5708,-1.77166 "/>
</symbol>
<symbol id="Fm9-54076-0" viewBox="-15.1437 -2.07699 0.354037 0.000580909">
 <line class="fil1 str0" x1="-15.1437" y1="-2.0767" x2="-14.7897" y2= "-2.0767" />
</symbol>
<symbol id="Fm3-54079-0" viewBox="-15.3488 -2.0941 0.12039 0.400321">
 <polygon class="fil2 str1" points="-15.2286,-1.69395 -15.3486,-1.69395 -15.3486,-2.09392 -15.2286,-2.09392 "/>
</symbol>
<symbol id="Fm5-54081-0" viewBox="-15.2159 -2.18065 0.283281 0.400327">
 <path class="fil3" d="M-14.9328 -2.17302c0,-0.00407312 -0.0033301,-0.00740321 -0.00740321,-0.00740321l-0.268015 0c-0.00407312,0 -0.00740321,0.0033301 -0.00740321,0.00740321l0 0.385062c0,0.00407312 0.0033301,0.00740321 0.00740321,0.00740321l0.268015 0c0.00407312,0 0.00740321,-0.0033301 0.00740321,-0.00740321l0 -0.385062z"/>
 <path class="fil2 str2" d="M-14.9328 -2.17302c0,-0.00407312 -0.0033301,-0.00740321 -0.00740321,-0.00740321l-0.268015 0c-0.00407312,0 -0.00740321,0.0033301 -0.00740321,0.00740321l0 0.385062c0,0.00407312 0.0033301,0.00740321 0.00740321,0.00740321l0.268015 0c0.00407312,0 0.00740321,-0.0033301 0.00740321,-0.00740321l0 -0.385062z"/>
</symbol>
<symbol id="Fm10-54090-0" viewBox="-14.8967 -2.18065 0.308875 0.400327">
 <path class="fil3" d="M-14.5881 -2.17302c0,-0.00407312 -0.0033301,-0.00740321 -0.00740321,-0.00740321l-0.293609 0c-0.00407312,0 -0.00740321,0.0033301 -0.00740321,0.00740321l0 0.385062c0,0.00407312 0.0033301,0.00740321 0.00740321,0.00740321l0.293609 0c0.00407312,0 0.00740321,-0.0033301 0.00740321,-0.00740321l0 -0.385062z"/>
 <path class="fil2 str2" d="M-14.5881 -2.17302c0,-0.00407312 -0.0033301,-0.00740321 -0.00740321,-0.00740321l-0.293609 0c-0.00407312,0 -0.00740321,0.0033301 -0.00740321,0.00740321l0 0.385062c0,0.00407312 0.0033301,0.00740321 0.00740321,0.00740321l0.293609 0c0.00407312,0 0.00740321,-0.0033301 0.00740321,-0.00740321l0 -0.385062z"/>
</symbol>
<symbol id="Fm7-54094-0" viewBox="6.32761 -15.4601 0.354051 0.215693">
 <path class="fil4" d="M6.32761 -15.3523c0,-0.0381982 0.0106117,-0.0665209 0.0319027,-0.084887 0.017711,-0.015259 0.0393262,-0.0229527 0.0648592,-0.0229527 0.028397,0 0.0515996,0.00928104 0.069574,0.0279242 0.0180352,0.0185688 0.026992,0.0442369 0.026992,0.0770042 0,0.0265867 -0.00397855,0.0474859 -0.0119357,0.0626774 -0.0079571,0.0152455 -0.0195685,0.0270528 -0.0347532,0.0354827 -0.0152455,0.00841643 -0.0318284,0.0126044 -0.0498771,0.0126044 -0.0288428,0 -0.052194,-0.00922024 -0.0700266,-0.0277891 -0.0178461,-0.018508 -0.0267353,-0.0451691 -0.0267353,-0.0800574l0 -6.75476e-006zm0.0359556 0c0,0.0264651 0.00576181,0.0462296 0.0173124,0.0593608 0.0115371,0.0131988 0.0260599,0.0197577 0.0435006,0.0197577 0.01738,0 0.0318419,-0.00663317 0.0433791,-0.019832 0.0114763,-0.0131988 0.0172449,-0.033355 0.0172449,-0.0604213 0,-0.025533 -0.00577532,-0.0448921 -0.01738,-0.0580301 -0.0116114,-0.0131245 -0.0259923,-0.0196969 -0.043244,-0.0196969 -0.0174408,0 -0.0319635,0.00657238 -0.0435006,0.0196361 -0.0115439,0.0130637 -0.0173124,0.0328214 -0.0173124,0.059219l0 6.75476e-006zm0.205993 0.103206l0 -0.206331 0.0314434 0 0 0.031234c0.00803141,-0.0145903 0.0154549,-0.0242698 0.0222839,-0.0289171 0.00676827,-0.00463376 0.014266,-0.00702495 0.022419,-0.00702495 0.0118141,0 0.0237497,0.00378266 0.0359556,0.0112669l-0.0120708 0.0325039c-0.00849073,-0.0051066 -0.0170558,-0.00762612 -0.0256073,-0.00762612 -0.00769367,0 -0.0145227,0.00231688 -0.0206223,0.00688985 -0.00609955,0.00464727 -0.0104158,0.0110103 -0.0130029,0.0191768 -0.00391776,0.012395 -0.00583611,0.0259923 -0.00583611,0.0407852l0 0.108042 -0.0349559 0 -6.75476e-006 0z"/>
</symbol>
<symbol id="Fm6-54093-0" viewBox="-9.39766 -5.40569 0.354037 0.0925199">
 <path class="fil4" d="M-9.39766 -5.31466l0 -0.0910339 0.0658116 0 0 0.0107468 -0.0537679 0 0 0.0278701 0.0503567 0 0 0.010686 -0.0503567 0 0 0.0309908 0.0558889 0 0 0.0107468 -0.0679326 0 0 -6.75476e-006zm0.0813273 -0.027323l0 -0.0112332 0.0343547 0 0 0.0112332 -0.0343547 0zm0.0492557 0.027323l0 -0.0659399 0.00998353 0 0 0.00924051c0.00208047,-0.00322202 0.00483641,-0.00582936 0.00826782,-0.00778148 0.00343142,-0.00197239 0.00735593,-0.00296534 0.0117398,-0.00296534 0.00487693,0 0.00888251,0.00101321 0.0119964,0.00305315 0.00313421,0.00203318 0.00533626,0.00485667 0.00661291,0.00849748 0.00523494,-0.00769367 0.0120167,-0.0115506 0.0203656,-0.0115506 0.00654536,0 0.0115709,0.00182378 0.0150901,0.00544433 0.00351923,0.0036273 0.00527547,0.00919998 0.00527547,0.0167248l0 0.0452704 -0.0111048 0 0 -0.0415418c0,-0.00447165 -0.000358002,-0.00769367 -0.00108076,-0.00966606 -0.000743023,-0.00195212 -0.0020602,-0.00353949 -0.00394478,-0.00474859 -0.0019116,-0.00118884 -0.00415418,-0.00179677 -0.00672098,-0.00179677 -0.00464052,0 -0.00847722,0.00154684 -0.0115506,0.00464052 -0.00305315,0.00307341 -0.00459999,0.00801114 -0.00459999,0.0147929l0 0.0383197 -0.0111724 0 0 -0.0428319c0,-0.00497826 -0.000911892,-0.00871364 -0.00273568,-0.0111926 -0.00182378,-0.002479 -0.00478912,-0.00372863 -0.0089433,-0.00372863 -0.00313421,0 -0.00604551,0.00082408 -0.00871364,0.00249926 -0.00266813,0.00165492 -0.00462025,0.00407312 -0.00580909,0.00724785 -0.0012091,0.00320176 -0.00179677,0.00780174 -0.00179677,0.0137932l0 0.0342061 -0.0111724 0 1.35095e-005 1.35095e-005zm0.151502 -0.00813948c-0.00415418,0.00351923 -0.00813948,0.00599822 -0.0119559,0.00746401 -0.0038367,0.00143876 -0.00795035,0.00216152 -0.0123342,0.00216152 -0.00724785,0 -0.0128003,-0.00176299 -0.0167045,-0.00529573 -0.00387723,-0.00353949 -0.00582936,-0.00807194 -0.00582936,-0.0135636 0,-0.00324228 0.000722759,-0.00618736 0.00220881,-0.00886224 0.00145903,-0.00266813 0.00339089,-0.00480939 0.00576181,-0.00642377 0.00239794,-0.00160763 0.00506607,-0.002837 0.00805167,-0.00366783 0.00218179,-0.0005674 0.00549162,-0.00114155 0.00992274,-0.00167518 0.00903111,-0.00108076 0.0156845,-0.00235066 0.0199468,-0.00385697 4.05285e-005,-0.00152658 6.07928e-005,-0.00249926 6.07928e-005,-0.00290455 0,-0.00455271 -0.0010605,-0.00777473 -0.00318149,-0.00961877 -0.002837,-0.00253979 -0.00709925,-0.00379617 -0.0127125,-0.00379617 -0.0052552,0 -0.00913919,0.000911892 -0.0116587,0.00275594 -0.00249926,0.00184405 -0.00434331,0.0051066 -0.00555241,0.0097944l-0.0109157 -0.00150631c0.000992949,-0.00466078 0.0026276,-0.00845696 0.0048972,-0.011321 0.0022696,-0.00287753 0.00557267,-0.0051066 0.00987546,-0.00665344 0.00430278,-0.00154684 0.00928104,-0.00233039 0.0149618,-0.00233039 0.00564022,0 0.0101929,0.000675476 0.0137122,0.00199265 0.00351923,0.00133069 0.00609955,0.0029856 0.00777473,0.00499852 0.00165492,0.00201292 0.00279647,0.00453244 0.0034787,0.00761261 0.000358002,0.00190484 0.00055389,0.00534301 0.00055389,0.010301l0 0.014901c0,0.0104091 0.000229662,0.0169815 0.000722759,0.0197104 0.000466078,0.00275594 0.0014185,0.00540381 0.00281673,0.00793009l-0.011679 0c-0.00114831,-0.00231013 -0.00190484,-0.00502554 -0.00222232,-0.00813948l0 -6.75476e-006zm-0.000938911 -0.0249656c-0.00407312,0.00166843 -0.0101524,0.00307341 -0.0182514,0.00423523 -0.00459999,0.000661966 -0.00786254,0.00139823 -0.00974711,0.00222232 -0.00190484,0.00082408 -0.00339089,0.00203318 -0.00441086,0.00364757 -0.00104023,0.00158737 -0.0015671,0.0033436 -0.0015671,0.00529573 0,0.0029856 0.00114831,0.00547135 0.00339089,0.00746401 0.00224933,0.00197239 0.00555241,0.00297209 0.00990247,0.00297209 0.00430278,0 0.00813948,-0.000932157 0.0114831,-0.00282349 0.00335036,-0.00188458 0.00582936,-0.00447165 0.00739646,-0.0077342 0.0012091,-0.00252628 0.00180352,-0.00625491 0.00180352,-0.0111724l0 -0.00410689zm0.0312205 -0.045061l0 -0.0128678 0.0111926 0 0 0.0128678 -0.0111926 0zm0 0.0781661l0 -0.0659399 0.0111926 0 0 0.0659399 -0.0111926 0zm0.0305045 0l0 -0.0910339 0.0111656 0 0 0.0910339 -0.0111656 0z"/>
</symbol>
<symbol id="Fm2-54091-0" viewBox="-15.5708 -1.77183 0.354037 0.212424">
 <polygon id="_12345678910111213141516171819202122232425262712345678910111213141516171819202122232425262728" style="fill:url(#id0);fill-rule:nonzero" points="-15.2167,-1.55941 -15.5708,-1.55941 -15.5708,-1.77183 -15.2167,-1.77183 "/>
</symbol>
<symbol id="Fm8-54095-0" viewBox="-11.6705 -3.61862 0.354044 0.0590298">
 <path class="fil4" d="M-11.6705 -3.56054l0 -0.0580842 0.0219057 0c0.00385697,0 0.00680204,0.000189133 0.00883522,0.00055389 0.00285051,0.000472833 0.00524845,0.00137797 0.00718031,0.00271541 0.00191835,0.00132393 0.00347195,0.00320176 0.00465403,0.00559969 0.00117533,0.00240469 0.00175624,0.0050458 0.00175624,0.00792333 0,0.00493773 -0.0015671,0.00913243 -0.00470807,0.0125503 -0.00315447,0.00341115 -0.00883522,0.00512686 -0.0170423,0.00512686l-0.0149077 0 0 0.0236146 -0.00768016 0 6.75476e-006 0zm0.00768016 -0.0304707l0.0150226 0c0.00496475,0 0.00849073,-0.000918647 0.0105712,-0.00276945 0.00208047,-0.0018508 0.0031207,-0.00444463 0.0031207,-0.00780174 0,-0.00243847 -0.000607928,-0.00451893 -0.00183729,-0.00624815 -0.00122937,-0.00172922 -0.002837,-0.00287077 -0.00485667,-0.00342466 -0.00129691,-0.000337738 -0.00368134,-0.000513362 -0.0071668,-0.000513362l-0.0148605 0 0 0.0207574 6.75476e-006 0zm0.0746063 0.0252763c-0.00265462,0.00224258 -0.00519441,0.00382995 -0.00762612,0.0047621 -0.00244522,0.000918647 -0.00507282,0.00137797 -0.00786929,0.00137797 -0.00462701,0 -0.0081665,-0.00112129 -0.010659,-0.00338413 -0.00247224,-0.00225609 -0.00372187,-0.00515388 -0.00372187,-0.00865284 0,-0.00206696 0.000459324,-0.00395153 0.00140499,-0.00565373 0.000932157,-0.0017022 0.00216152,-0.00306666 0.00368134,-0.00410014 0.00152658,-0.00102672 0.00323553,-0.00181027 0.00514037,-0.00233715 0.00139148,-0.000364757 0.00350572,-0.000729514 0.00632921,-0.00106725 0.00576181,-0.000688985 0.0100106,-0.00149956 0.012726,-0.00245873 2.7019e-005,-0.000972685 4.05285e-005,-0.00159412 4.05285e-005,-0.0018508 0,-0.00290455 -0.000675476,-0.00496475 -0.00202643,-0.00614007 -0.00181027,-0.00162114 -0.00452569,-0.0024182 -0.00811246,-0.0024182 -0.00335711,0 -0.00582936,0.000580909 -0.00743699,0.00175624 -0.00159412,0.00117533 -0.00276945,0.00326255 -0.00353949,0.00624815l-0.00696415 -0.000959176c0.000634947,-0.00297209 0.00167518,-0.00539705 0.0031207,-0.00722084 0.00144552,-0.00183729 0.00355976,-0.00326255 0.00630219,-0.00424874 0.00274243,-0.000986195 0.00592392,-0.00148605 0.00954447,-0.00148605 0.00360029,0 0.00650483,0.000432304 0.00874741,0.00126989 0.00224258,0.000851099 0.00389074,0.00190484 0.00496475,0.00318825 0.00105374,0.0012834 0.00178326,0.00289104 0.00221556,0.00485667 0.000229662,0.00121586 0.000351247,0.00341115 0.000351247,0.00657238l0 0.0095107c0,0.00663993 0.000148605,0.0108346 0.000459324,0.0125774 0.000297209,0.00175624 0.000905137,0.00344493 0.00179677,0.00505931l-0.0074505 0c-0.000729514,-0.00147254 -0.00121586,-0.00320851 -0.0014185,-0.00519441l0 -6.75476e-006zm-0.000594419 -0.0159277c-0.00259383,0.00106725 -0.00647781,0.00195888 -0.0116452,0.0027019 -0.00293156,0.000418795 -0.00501878,0.000891628 -0.00622113,0.0014185 -0.00121586,0.000526871 -0.00216152,0.00129691 -0.00280998,0.00233039 -0.000661966,0.00101321 -0.000999704,0.0021345 -0.000999704,0.00337738 0,0.00190484 0.000729514,0.00349221 0.00216152,0.0047621 0.00143201,0.00125638 0.00354625,0.00189133 0.0063157,0.00189133 0.00274243,0 0.00519441,-0.000594419 0.00732891,-0.00180352 0.0021345,-0.00120235 0.00372187,-0.00285051 0.00472158,-0.00493773 0.000770042,-0.00160763 0.00114831,-0.00399206 0.00114831,-0.00712627l0 -0.00262085 0 6.75476e-006zm0.0170423 0.00855828l0.00704521 -0.00110778c0.000391776,0.00283024 0.00149956,0.00499177 0.00331659,0.00650483 0.00179677,0.00149956 0.00432304,0.00225609 0.00758559,0.00225609 0.0032693,0 0.00570777,-0.000675476 0.00728838,-0.00199941 0.00158061,-0.00133744 0.00237767,-0.0029113 0.00237767,-0.00469456 0,-0.00162114 -0.000702495,-0.00288428 -0.00210748,-0.00381644 -0.000972685,-0.000634947 -0.00341115,-0.00143201 -0.00728838,-0.00240469 -0.00522143,-0.00132393 -0.00885549,-0.00245873 -0.0108752,-0.00343817 -0.00201292,-0.000959176 -0.00355976,-0.00230337 -0.00459999,-0.00400557 -0.00104023,-0.0017022 -0.0015671,-0.00358678 -0.0015671,-0.00564022 0,-0.00187782 0.000432304,-0.00360704 0.00129691,-0.00520792 0.000851099,-0.00160763 0.00202643,-0.00293156 0.00350572,-0.00399206 0.00110778,-0.000810571 0.00262085,-0.00151307 0.00453244,-0.00208047 0.00191835,-0.0005674 0.0039718,-0.000851099 0.00616709,-0.000851099 0.00329632,0 0.00619411,0.000486343 0.00869337,0.00143201 0.00249926,0.000945666 0.00434331,0.00223582 0.00553215,0.00385697 0.00118884,0.00163465 0.00199941,0.00379617 0.00244522,0.00651834l-0.00696415 0.000959176c-0.000324228,-0.00216152 -0.00124288,-0.00385697 -0.00275594,-0.00507282 -0.00151307,-0.00121586 -0.00366783,-0.00182378 -0.00643728,-0.00182378 -0.0032693,0 -0.0056132,0.000540381 -0.00700468,0.00162114 -0.00140499,0.00108076 -0.00210748,0.00235066 -0.00210748,0.00379617 0,0.000932157 0.000297209,0.00175624 0.000878118,0.00250602 0.000580909,0.000770042 0.00148605,0.00139148 0.00273568,0.00190484 0.000716004,0.000256681 0.00280998,0.000864609 0.00630219,0.00181027 0.0050458,0.00135095 0.00855828,0.00244522 0.0105442,0.00330983 0.00200616,0.000851099 0.00357327,0.00210748 0.00470807,0.00374889 0.0011348,0.00163465 0.0017022,0.00366108 0.0017022,0.00609955 0,0.00237767 -0.000702495,0.0046135 -0.00208047,0.00672098 -0.00139148,0.00209397 -0.00339089,0.00372187 -0.00600498,0.00487018 -0.00260734,0.00114831 -0.00557267,0.00171571 -0.008869,0.00171571 -0.00547811,0 -0.00964579,-0.0011348 -0.0125098,-0.00341115 -0.00286402,-0.0022696 -0.00469456,-0.00564022 -0.00547811,-0.0100984l-6.75476e-006 1.35095e-005zm0.042197 0l0.00704521 -0.00110778c0.000391776,0.00283024 0.00149956,0.00499177 0.00331659,0.00650483 0.00179677,0.00149956 0.00432304,0.00225609 0.00758559,0.00225609 0.0032693,0 0.00570777,-0.000675476 0.00728838,-0.00199941 0.00158061,-0.00133744 0.00237767,-0.0029113 0.00237767,-0.00469456 0,-0.00162114 -0.000702495,-0.00288428 -0.00210748,-0.00381644 -0.000972685,-0.000634947 -0.00341115,-0.00143201 -0.00728838,-0.00240469 -0.00522143,-0.00132393 -0.00885549,-0.00245873 -0.0108752,-0.00343817 -0.00201292,-0.000959176 -0.00355976,-0.00230337 -0.00459999,-0.00400557 -0.00104023,-0.0017022 -0.0015671,-0.00358678 -0.0015671,-0.00564022 0,-0.00187782 0.000432304,-0.00360704 0.00129691,-0.00520792 0.000851099,-0.00160763 0.00202643,-0.00293156 0.00350572,-0.00399206 0.00110778,-0.000810571 0.00262085,-0.00151307 0.00453244,-0.00208047 0.00191835,-0.0005674 0.0039718,-0.000851099 0.00616709,-0.000851099 0.00329632,0 0.00619411,0.000486343 0.00869337,0.00143201 0.00249926,0.000945666 0.00434331,0.00223582 0.00553215,0.00385697 0.00118884,0.00163465 0.00199941,0.00379617 0.00244522,0.00651834l-0.00696415 0.000959176c-0.000324228,-0.00216152 -0.00124288,-0.00385697 -0.00275594,-0.00507282 -0.00151307,-0.00121586 -0.00366783,-0.00182378 -0.00643728,-0.00182378 -0.0032693,0 -0.0056132,0.000540381 -0.00700468,0.00162114 -0.00140499,0.00108076 -0.00210748,0.00235066 -0.00210748,0.00379617 0,0.000932157 0.000297209,0.00175624 0.000878118,0.00250602 0.000580909,0.000770042 0.00148605,0.00139148 0.00273568,0.00190484 0.000716004,0.000256681 0.00280998,0.000864609 0.00630219,0.00181027 0.0050458,0.00135095 0.00855828,0.00244522 0.0105442,0.00330983 0.00200616,0.000851099 0.00357327,0.00210748 0.00470807,0.00374889 0.0011348,0.00163465 0.0017022,0.00366108 0.0017022,0.00609955 0,0.00237767 -0.000702495,0.0046135 -0.00208047,0.00672098 -0.00139148,0.00209397 -0.00339089,0.00372187 -0.00600498,0.00487018 -0.00260734,0.00114831 -0.00557267,0.00171571 -0.008869,0.00171571 -0.00547811,0 -0.00964579,-0.0011348 -0.0125098,-0.00341115 -0.00286402,-0.0022696 -0.00469456,-0.00564022 -0.00547811,-0.0100984l-6.75476e-006 1.35095e-005zm0.0528087 0.0125638l-0.0128746 -0.0420754 0.00736944 0 0.00669396 0.0242901 0.00248575 0.00903111c0.000108076,-0.000459324 0.00083759,-0.00335711 0.00217503,-0.00867986l0.00669396 -0.0246414 0.00732891 0 0.00630219 0.0243982 0.00210748 0.00804492 0.00240469 -0.00812597 0.00720733 -0.0243171 0.00693714 0 -0.0131583 0.0420754 -0.00739646 0 -0.00669396 -0.0251952 -0.00163465 -0.00718031 -0.00850424 0.0323756 -0.0074505 0 6.75476e-006 0zm0.0497893 -0.0210411c0,-0.00778824 0.00216152,-0.0135636 0.00650483,-0.0173124 0.0036138,-0.00311394 0.0080179,-0.00468105 0.0132258,-0.00468105 0.00578883,0 0.0105239,0.00189133 0.014185,0.00569426 0.00368134,0.00378942 0.00550513,0.0090176 0.00550513,0.0156981 0,0.00542407 -0.000810571,0.00968632 -0.00243171,0.01278 -0.00162114,0.00310719 -0.00399206,0.00551864 -0.00708574,0.00723435 -0.00310719,0.00171571 -0.00649132,0.00256681 -0.0101727,0.00256681 -0.00588339,0 -0.0106455,-0.00187782 -0.0142796,-0.00566724 -0.00364081,-0.00377591 -0.00545109,-0.00921349 -0.00545109,-0.0163262l0 1.35095e-005zm0.00733567 0c0,0.00539705 0.00117533,0.00942289 0.00353274,0.0121045 0.00235066,0.00268839 0.00531599,0.00403259 0.008869,0.00403259 0.00354625,0 0.00649132,-0.00135095 0.00884198,-0.0040461 0.00233715,-0.00268839 0.00351923,-0.00680204 0.00351923,-0.0123207 0,-0.00520792 -0.00117533,-0.0091527 -0.00354625,-0.0118343 -0.00236417,-0.00267488 -0.00530248,-0.00401908 -0.00881496,-0.00401908 -0.00355976,0 -0.00651834,0.00133744 -0.008869,0.00400557 -0.00235741,0.00266137 -0.00353274,0.00669396 -0.00353274,0.0120775zm0.0420011 0.0210411l0 -0.0420754 0.00641026 0 0 0.00636974c0.00163465,-0.00297209 0.00315447,-0.00495124 0.00454595,-0.0058969 0.00137797,-0.000945666 0.0029113,-0.00143201 0.00457297,-0.00143201 0.00241145,0 0.00484316,0.000770042 0.00732891,0.00229662l-0.00245873 0.00662642c-0.00172922,-0.00104023 -0.0034787,-0.00155359 -0.00522143,-0.00155359 -0.0015671,0 -0.00295858,0.000472833 -0.00420821,0.00140499 -0.00124288,0.000945666 -0.00212775,0.00224258 -0.00265462,0.003911 -0.000797061,0.00252628 -0.00118884,0.00530248 -0.00118884,0.00831511l0 0.0220273 -0.00712627 0 0 6.75476e-006zm0.0545582 0l0 -0.00531599c-0.00266137,0.00418119 -0.00658589,0.00626166 -0.0117668,0.00626166 -0.00335711,0 -0.00643728,-0.000918647 -0.00924726,-0.00276945 -0.00280998,-0.00183729 -0.00499177,-0.00442437 -0.00654536,-0.00774771 -0.00154008,-0.00331659 -0.00231013,-0.00711276 -0.00231013,-0.011429 0,-0.0041947 0.000702495,-0.00800439 0.00209397,-0.011429 0.00140499,-0.00342466 0.00350572,-0.00604551 0.00630219,-0.00785578 0.00279647,-0.00182378 0.00593743,-0.00274243 0.00939587,-0.00274243 0.00253303,0 0.00478912,0.000540381 0.00676151,0.00160763 0.0019859,0.00106725 0.00360029,0.00245873 0.00484316,0.00417444l0 -0.0208384 0.00708574 0 0 0.0580842 -0.00661291 0zm-0.0225474 -0.0210005c0,0.00539705 0.0011348,0.00942289 0.00341115,0.012091 0.0022696,0.00266137 0.00495124,0.00399882 0.00804492,0.00399882 0.00311394,0 0.00576181,-0.0012834 0.00793684,-0.00382319 0.00217503,-0.00253979 0.0032693,-0.00643728 0.0032693,-0.0116722 0,-0.00576181 -0.00110778,-0.00998353 -0.0033301,-0.0126719 -0.00221556,-0.0027019 -0.00495124,-0.0040461 -0.00820703,-0.0040461 -0.00316123,0 -0.00581585,0.00129691 -0.00793684,0.00388399 -0.00212775,0.00258707 -0.003195,0.00666695 -0.003195,0.0122396l6.75476e-006 0z"/>
</symbol>
<symbol id="Fm4-54092-0" viewBox="1.24795 -10.8999 0.354037 0.0788348">
 <path class="fil4" d="M1.24795 -10.8223l0.029802 -0.0775649 0.0110508 0 0.0317474 0.0775649 -0.011706 0 -0.00904462 -0.023493 -0.0324363 0 -0.00850424 0.023493 -0.0109089 0zm0.0223785 -0.0318554l0.0263098 0 -0.00811246 -0.0214734c-0.00245873,-0.00651834 -0.00430278,-0.0118816 -0.00549162,-0.0160898 -0.000992949,0.00498501 -0.00238443,0.00991598 -0.00418795,0.0148267l-0.0085245 0.0227365 6.75476e-006 0zm0.107205 0.0318554l0 -0.00709925c-0.00355976,0.00557943 -0.00879469,0.00836239 -0.0157183,0.00836239 -0.0044784,0 -0.00859205,-0.00122937 -0.0123545,-0.00370161 -0.00375565,-0.00245873 -0.00666019,-0.00590366 -0.00874066,-0.0103483 -0.0020602,-0.00442437 -0.00309368,-0.00949719 -0.00309368,-0.015259 0,-0.00559969 0.000938911,-0.0106928 0.00279647,-0.015259 0.00188458,-0.00456622 0.00468105,-0.00807194 0.00841643,-0.0104969 0.00374214,-0.00243847 0.00793009,-0.00366783 0.0125503,-0.00366783 0.00337738,0 0.00639,0.000722759 0.00903111,0.00214801 0.00265462,0.00142525 0.00480263,0.00328957 0.0064643,0.00557943l0 -0.0278296 0.00946342 0 0 0.0775649 -0.00882847 0 1.35095e-005 6.75476e-006zm-0.030106 -0.0280458c0,0.00720733 0.00151982,0.0125909 0.00455271,0.0161439 0.00303289,0.00355976 0.00661291,0.00534977 0.0107468,0.00534977 0.00414742,0 0.00769367,-0.00171571 0.0105982,-0.00511335 0.00290455,-0.00339089 0.00437033,-0.00859881 0.00437033,-0.0155832 0,-0.00769367 -0.00147929,-0.0133271 -0.00444463,-0.0169207 -0.00296534,-0.0036138 -0.00661291,-0.00540381 -0.010963,-0.00540381 -0.00422848,0 -0.00776797,0.00173597 -0.0105982,0.0051809 -0.002837,0.00345168 -0.00426225,0.00890277 -0.00426225,0.0163465zm0.0674733 0.0280458l0 -0.0561861 0.00850424 0 0 0.00787605c0.00176975,-0.00274243 0.0041204,-0.0049715 0.00704521,-0.00663317 0.00292481,-0.00167518 0.00626841,-0.00252628 0.0100038,-0.00252628 0.00415418,0 0.00756533,0.000864609 0.0102267,0.00260058 0.00267488,0.00173597 0.00455271,0.00413391 0.00563347,0.0072411 0.00446489,-0.00655211 0.0102402,-0.00984168 0.017353,-0.00984168 0.00557943,0 0.00986195,0.00155359 0.0128611,0.00464052 0.00299911,0.00308692 0.00449867,0.00783552 0.00449867,0.0142458l0 0.0385764 -0.00946342 0 0 -0.0353949c0,-0.00380968 -0.000303964,-0.00655887 -0.000918647,-0.00823405 -0.000634947,-0.00166167 -0.00174948,-0.00301938 -0.00335711,-0.0040461 -0.00162114,-0.00100646 -0.00353949,-0.00153333 -0.00572803,-0.00153333 -0.00395153,0 -0.00722084,0.00131718 -0.00984168,0.00395153 -0.00260058,0.00262085 -0.00391776,0.00682906 -0.00391776,0.0126044l0 0.0326525 -0.00951745 0 0 -0.036496c0,-0.00424199 -0.000776797,-0.00742348 -0.00233039,-0.00953772 -0.00155359,-0.00211424 -0.00407987,-0.00317474 -0.00761937,-0.00317474 -0.00267488,0 -0.00514713,0.000702495 -0.00742348,0.00212775 -0.00227635,0.00140499 -0.00393802,0.00346519 -0.00495124,0.00617385 -0.00102672,0.00272892 -0.00153333,0.00664668 -0.00153333,0.01176l0 0.0291535 -0.00951745 0 -6.75476e-006 0zm0.103848 -0.0666019l0 -0.010963 0.00953772 0 0 0.010963 -0.00953772 0zm0 0.0666019l0 -0.0561861 0.00953772 0 0 0.0561861 -0.00953772 0zm0.0375835 0l0 -0.0561861 0.00855828 0 0 0.00798412c0.00413391,-0.0061806 0.0100984,-0.00926753 0.0178798,-0.00926753 0.00339089,0 0.00649808,0.000614683 0.00933507,0.00182378 0.00285051,0.00122937 0.00496475,0.00281673 0.00637649,0.00480263 0.00142525,0.00197239 0.00240469,0.00431629 0.00297885,0.00702495 0.000344493,0.00176975 0.000526871,0.00485667 0.000526871,0.00926753l0 0.0345506 -0.00953772 0 0 -0.0341858c0,-0.00386372 -0.000358002,-0.00677502 -0.00110103,-0.00870688 -0.000743023,-0.00191835 -0.0020602,-0.00345168 -0.00393802,-0.00458648 -0.00189809,-0.00115506 -0.00410014,-0.00172922 -0.00664668,-0.00172922 -0.00406636,0 -0.00755182,0.00129691 -0.0105104,0.00386372 -0.00294507,0.00258707 -0.00441086,0.00745725 -0.00441086,0.0146646l0 0.0306869 -0.00951745 0 6.75476e-006 -6.75476e-006z"/>
</symbol>
<symbol id="Fm0-53752-0" viewBox="-15.5708 -1.77205 0.354037 0.212505">
 <polygon class="fil5" points="-15.5708,-1.77205 -15.2168,-1.77205 -15.2168,-1.55955 -15.5708,-1.55955 "/>
</symbol>
 <g id="Layer_x0020_1">
  <metadata id="CorelCorpID_0Corel-Layer"/>
  <g id="_231326432">
   <path id="_234014336" class="fil2 str4" d="M0.169308 0.366331c-0.0373673,0.0373606 -0.0979642,0.0373606 -0.135332,0 -0.0373606,-0.0373673 -0.0373606,-0.0979642 0,-0.135332 0.0373673,-0.0373538 0.0979642,-0.0373538 0.135332,0 0.0373538,0.0373673 0.0373538,0.0979642 0,0.135332z"/>
   <polyline id="_234014552" class="fil2 str4" points="0.295088,0.00421497 0.3456,0.054727 0.169301,0.231006 "/>
   <line id="_234014696" class="fil2 str4" x1="0.294312" y1="0.105996" x2="0.243793" y2= "0.0554836" />
  </g>
 </g>
</svg>
