<?xml version="1.0" encoding="UTF-8"?>
<!DOCTYPE svg PUBLIC "-//W3C//DTD SVG 1.1//EN" "http://www.w3.org/Graphics/SVG/1.1/DTD/svg11.dtd">
<!-- Creator: CorelDRAW -->
<svg xmlns="http://www.w3.org/2000/svg" xml:space="preserve" width="60px" height="60px" style="shape-rendering:geometricPrecision; text-rendering:geometricPrecision; image-rendering:optimizeQuality; fill-rule:evenodd; clip-rule:evenodd"
viewBox="0 0 7.5742 7.56929"
 xmlns:xlink="http://www.w3.org/1999/xlink">
 <defs>
  <style type="text/css">
   <![CDATA[
    .str2 {stroke:white;stroke-width:0.262447}
    .str1 {stroke:#231F20;stroke-width:0.262447}
    .str0 {stroke:#686868;stroke-width:0.262447}
    .fil1 {fill:none;fill-rule:nonzero}
    .fil0 {fill:#686868;fill-rule:nonzero}
    .fil6 {fill:lightgrey;fill-rule:nonzero}
    .fil4 {fill:#F9F9F9;fill-rule:nonzero}
    .fil2 {fill:#FF7676;fill-rule:nonzero}
    .fil5 {fill:#FFD550;fill-rule:nonzero}
    .fil3 {fill:white;fill-rule:nonzero}
    .fil7 {fill:url(#id2)}
   ]]>
  </style>
  <clipPath id="id0" style="clip-rule:nonzero">
   <rect x="47.8482" y="-263.954" width="52.1907" height="43.2216"/>
  </clipPath>
  <pattern id="id1" patternUnits="userSpaceOnUse" patternTransform="matrix(1 0 0 1 -418.625 213.103)" x="0" y="0" width="15.3786" height="15.3783" viewBox="30 -11.3312 15.1161 15.1158">
   <polygon id="1" class="fil3" points="-7.78993,-49.1211 82.9061,-49.1211 82.9061,41.5746 -7.78993,41.5746 "/>
   <path id="12" class="fil3" d="M45.1158 4.1624c0.207845,0 0.377899,-0.169608 0.377899,-0.377899 0,-0.208886 -0.170055,-0.377453 -0.377899,-0.377453 -0.208886,0 -0.377899,0.168567 -0.377899,0.377453 0,0.208291 0.169013,0.377899 0.377899,0.377899z"/>
   <path id="123" class="fil1 str2" d="M45.1158 4.1624c0.207845,0 0.377899,-0.169608 0.377899,-0.377899 0,-0.208886 -0.170055,-0.377453 -0.377899,-0.377453 -0.208886,0 -0.377899,0.168567 -0.377899,0.377453 0,0.208291 0.169013,0.377899 0.377899,0.377899z"/>
   <path id="1234" class="fil3" d="M37.5577 4.1624c0.208291,0 0.377899,-0.169608 0.377899,-0.377899 0,-0.208886 -0.169608,-0.377453 -0.377899,-0.377453 -0.20844,0 -0.377899,0.168567 -0.377899,0.377453 0,0.208291 0.16946,0.377899 0.377899,0.377899z"/>
   <path id="12345" class="fil1 str2" d="M37.5577 4.1624c0.208291,0 0.377899,-0.169608 0.377899,-0.377899 0,-0.208886 -0.169608,-0.377453 -0.377899,-0.377453 -0.20844,0 -0.377899,0.168567 -0.377899,0.377453 0,0.208291 0.16946,0.377899 0.377899,0.377899z"/>
   <path id="123456" class="fil3" d="M45.1158 -3.39529c0.207845,0 0.377899,-0.169608 0.377899,-0.378494 0,-0.208886 -0.170055,-0.377304 -0.377899,-0.377304 -0.208886,0 -0.377899,0.168418 -0.377899,0.377304 0,0.208886 0.169013,0.378494 0.377899,0.378494z"/>
   <path id="1234567" class="fil1 str2" d="M45.1158 -3.39529c0.207845,0 0.377899,-0.169608 0.377899,-0.378494 0,-0.208886 -0.170055,-0.377304 -0.377899,-0.377304 -0.208886,0 -0.377899,0.168418 -0.377899,0.377304 0,0.208886 0.169013,0.378494 0.377899,0.378494z"/>
   <path id="12345678" class="fil3" d="M37.5577 -3.39529c0.208291,0 0.377899,-0.169608 0.377899,-0.378494 0,-0.208886 -0.169608,-0.377304 -0.377899,-0.377304 -0.20844,0 -0.377899,0.168418 -0.377899,0.377304 0,0.208886 0.16946,0.378494 0.377899,0.378494z"/>
   <path id="123456789" class="fil1 str2" d="M37.5577 -3.39529c0.208291,0 0.377899,-0.169608 0.377899,-0.378494 0,-0.208886 -0.169608,-0.377304 -0.377899,-0.377304 -0.20844,0 -0.377899,0.168418 -0.377899,0.377304 0,0.208886 0.16946,0.378494 0.377899,0.378494z"/>
   <path id="12345678910" class="fil3" d="M33.7788 0.383255c0.208291,0 0.377899,-0.169013 0.377899,-0.377899 0,-0.208886 -0.169608,-0.377453 -0.377899,-0.377453 -0.208886,0 -0.377899,0.168567 -0.377899,0.377453 0,0.208886 0.169013,0.377899 0.377899,0.377899z"/>
   <path id="1234567891011" class="fil1 str2" d="M33.7788 0.383255c0.208291,0 0.377899,-0.169013 0.377899,-0.377899 0,-0.208886 -0.169608,-0.377453 -0.377899,-0.377453 -0.208886,0 -0.377899,0.168567 -0.377899,0.377453 0,0.208886 0.169013,0.377899 0.377899,0.377899z"/>
   <path id="123456789101112" class="fil3" d="M41.3368 0.383255c0.208291,0 0.377899,-0.169013 0.377899,-0.377899 0,-0.208886 -0.169608,-0.377453 -0.377899,-0.377453 -0.208886,0 -0.377899,0.168567 -0.377899,0.377453 0,0.208886 0.169013,0.377899 0.377899,0.377899z"/>
   <path id="12345678910111213" class="fil1 str2" d="M41.3368 0.383255c0.208291,0 0.377899,-0.169013 0.377899,-0.377899 0,-0.208886 -0.169608,-0.377453 -0.377899,-0.377453 -0.208886,0 -0.377899,0.168567 -0.377899,0.377453 0,0.208886 0.169013,0.377899 0.377899,0.377899z"/>
   <path id="1234567891011121314" class="fil3" d="M33.7788 -7.17503c0.208291,0 0.377899,-0.168864 0.377899,-0.377304 0,-0.208886 -0.169608,-0.377899 -0.377899,-0.377899 -0.208886,0 -0.377899,0.169013 -0.377899,0.377899 0,0.20844 0.169013,0.377304 0.377899,0.377304z"/>
   <path id="123456789101112131415" class="fil1 str2" d="M33.7788 -7.17503c0.208291,0 0.377899,-0.168864 0.377899,-0.377304 0,-0.208886 -0.169608,-0.377899 -0.377899,-0.377899 -0.208886,0 -0.377899,0.169013 -0.377899,0.377899 0,0.20844 0.169013,0.377304 0.377899,0.377304z"/>
   <path id="12345678910111213141516" class="fil3" d="M41.3368 -7.17503c0.208291,0 0.377899,-0.168864 0.377899,-0.377304 0,-0.208886 -0.169608,-0.377899 -0.377899,-0.377899 -0.208886,0 -0.377899,0.169013 -0.377899,0.377899 0,0.20844 0.169013,0.377304 0.377899,0.377304z"/>
   <path id="1234567891011121314151617" class="fil1 str2" d="M41.3368 -7.17503c0.208291,0 0.377899,-0.168864 0.377899,-0.377304 0,-0.208886 -0.169608,-0.377899 -0.377899,-0.377899 -0.208886,0 -0.377899,0.169013 -0.377899,0.377899 0,0.20844 0.169013,0.377304 0.377899,0.377304z"/>
   <path id="123456789101112131415161718" class="fil3" d="M29.9997 4.1624c0.207845,0 0.377899,-0.169608 0.377899,-0.377899 0,-0.208886 -0.170055,-0.377453 -0.377899,-0.377453 -0.208886,0 -0.377899,0.168567 -0.377899,0.377453 0,0.208291 0.169013,0.377899 0.377899,0.377899z"/>
   <path id="12345678910111213141516171819" class="fil1 str2" d="M29.9997 4.1624c0.207845,0 0.377899,-0.169608 0.377899,-0.377899 0,-0.208886 -0.170055,-0.377453 -0.377899,-0.377453 -0.208886,0 -0.377899,0.168567 -0.377899,0.377453 0,0.208291 0.169013,0.377899 0.377899,0.377899z"/>
   <path id="1234567891011121314151617181920" class="fil3" d="M29.9997 -3.39529c0.207845,0 0.377899,-0.169608 0.377899,-0.378494 0,-0.208886 -0.170055,-0.377304 -0.377899,-0.377304 -0.208886,0 -0.377899,0.168418 -0.377899,0.377304 0,0.208886 0.169013,0.378494 0.377899,0.378494z"/>
   <path id="123456789101112131415161718192021" class="fil1 str2" d="M29.9997 -3.39529c0.207845,0 0.377899,-0.169608 0.377899,-0.378494 0,-0.208886 -0.170055,-0.377304 -0.377899,-0.377304 -0.208886,0 -0.377899,0.168418 -0.377899,0.377304 0,0.208886 0.169013,0.378494 0.377899,0.378494z"/>
   <path id="12345678910111213141516171819202122" class="fil3" d="M45.1158 -10.9536c0.207845,0 0.377899,-0.16946 0.377899,-0.377899 0,-0.208886 -0.170055,-0.377304 -0.377899,-0.377304 -0.208886,0 -0.377899,0.168418 -0.377899,0.377304 0,0.20844 0.169013,0.377899 0.377899,0.377899z"/>
   <path id="1234567891011121314151617181920212223" class="fil1 str2" d="M45.1158 -10.9536c0.207845,0 0.377899,-0.16946 0.377899,-0.377899 0,-0.208886 -0.170055,-0.377304 -0.377899,-0.377304 -0.208886,0 -0.377899,0.168418 -0.377899,0.377304 0,0.20844 0.169013,0.377899 0.377899,0.377899z"/>
   <path id="123456789101112131415161718192021222324" class="fil3" d="M37.5577 -10.9536c0.208291,0 0.377899,-0.16946 0.377899,-0.377899 0,-0.208886 -0.169608,-0.377304 -0.377899,-0.377304 -0.20844,0 -0.377899,0.168418 -0.377899,0.377304 0,0.20844 0.16946,0.377899 0.377899,0.377899z"/>
   <path id="12345678910111213141516171819202122232425" class="fil1 str2" d="M37.5577 -10.9536c0.208291,0 0.377899,-0.16946 0.377899,-0.377899 0,-0.208886 -0.169608,-0.377304 -0.377899,-0.377304 -0.20844,0 -0.377899,0.168418 -0.377899,0.377304 0,0.20844 0.16946,0.377899 0.377899,0.377899z"/>
   <path id="1234567891011121314151617181920212223242526" class="fil3" d="M29.9997 -10.9536c0.207845,0 0.377899,-0.16946 0.377899,-0.377899 0,-0.208886 -0.170055,-0.377304 -0.377899,-0.377304 -0.208886,0 -0.377899,0.168418 -0.377899,0.377304 0,0.20844 0.169013,0.377899 0.377899,0.377899z"/>
   <path id="123456789101112131415161718192021222324252627" class="fil1 str2" d="M29.9997 -10.9536c0.207845,0 0.377899,-0.16946 0.377899,-0.377899 0,-0.208886 -0.170055,-0.377304 -0.377899,-0.377304 -0.208886,0 -0.377899,0.168418 -0.377899,0.377304 0,0.20844 0.169013,0.377899 0.377899,0.377899z"/>
  </pattern>
  <linearGradient id="id2" gradientUnits="userSpaceOnUse" x1="292.509" y1="3.6256" x2="292.509" y2="-311.126">
   <stop offset="0" style="stop-color:#EF5053"/>
   <stop offset="0.0117647" style="stop-color:#EF5053"/>
   <stop offset="1" style="stop-color:#F8D322"/>
  </linearGradient>
 </defs>
<symbol id="Fm7-53743-0" viewBox="311.596 -263.344 67.9701 8.98299">
 <path class="fil0" d="M325.634 -259.724c0,-0.499006 0.133604,-0.889402 0.401704,-1.17149 0.267951,-0.282085 0.613714,-0.423426 1.03788,-0.423426 0.277027,0 0.527571,0.0665043 0.750145,0.198769 0.222574,0.133009 0.392628,0.317793 0.50942,0.554947 0.116941,0.236559 0.174964,0.505998 0.174964,0.806235 0,0.305146 -0.0608507,0.578007 -0.18404,0.817988 -0.123189,0.240725 -0.29741,0.422682 -0.52281,0.546615 -0.225996,0.123784 -0.468803,0.185379 -0.729911,0.185379 -0.283425,0 -0.536052,-0.0678433 -0.758477,-0.205018 -0.223318,-0.136431 -0.391885,-0.323297 -0.506742,-0.559856 -0.114709,-0.235815 -0.172138,-0.486359 -0.172138,-0.750145zm0.410036 0.00624873c0,0.362575 0.0973016,0.647339 0.291905,0.855927 0.195198,0.208589 0.439494,0.312734 0.733333,0.312734 0.299493,0 0.545871,-0.104889 0.738987,-0.315561 0.193264,-0.210671 0.290417,-0.50942 0.290417,-0.896395 0,-0.244296 -0.0419558,-0.457794 -0.124528,-0.640346 -0.0825725,-0.182701 -0.203679,-0.324041 -0.362426,-0.424765 -0.15964,-0.100128 -0.338026,-0.150565 -0.536052,-0.150565 -0.282085,0 -0.524149,0.0965577 -0.727084,0.290417 -0.203084,0.193264 -0.304551,0.516562 -0.304551,0.968553zm3.50822 1.45774l0 -3.00564 1.33247 0c0.267951,0 0.47163,0.0272266 0.610888,0.0810847 0.139257,0.0540069 0.250544,0.149077 0.334605,0.285507 0.0831676,0.137174 0.124528,0.288334 0.124528,0.453479 0,0.213498 -0.0685872,0.392628 -0.207101,0.538879 -0.137918,0.14625 -0.351417,0.239386 -0.639751,0.279259 0.105782,0.0504362 0.185528,0.100128 0.24013,0.149821 0.116197,0.106377 0.225996,0.239981 0.33029,0.399472l0.52281 0.818137 -0.500493 0 -0.397389 -0.625617c-0.116197,-0.179874 -0.212159,-0.318388 -0.287739,-0.413606 -0.074836,-0.0958138 -0.141935,-0.163062 -0.201447,-0.200852 -0.0595117,-0.0385338 -0.119619,-0.0650165 -0.181213,-0.0804896 -0.0455265,-0.00907554 -0.119023,-0.0139853 -0.22183,-0.0139853l-0.461216 0 0 1.33455 -0.397538 0zm0.397538 -1.67883l0.855183 0c0.181213,0 0.323892,-0.018895 0.426104,-0.0566849 0.102955,-0.0377899 0.180618,-0.0980455 0.233732,-0.180618 0.053263,-0.0825725 0.0797457,-0.172138 0.0797457,-0.269439 0,-0.141935 -0.0510313,-0.258876 -0.154582,-0.350524 -0.102806,-0.091648 -0.265869,-0.137174 -0.489186,-0.137174l-0.950997 0 0 0.994441zm4.55994 0.499601l0 -0.352012 1.27296 -0.00208291 0 1.1148c-0.195198,0.156069 -0.396794,0.27301 -0.604639,0.352012 -0.207845,0.0784067 -0.421194,0.117536 -0.639602,0.117536 -0.295327,0 -0.564022,-0.0629336 -0.804747,-0.189545 -0.241469,-0.126016 -0.423426,-0.309312 -0.546615,-0.547954 -0.123189,-0.239386 -0.184784,-0.506742 -0.184784,-0.802069 0,-0.2925 0.0615946,-0.565361 0.184189,-0.818732 0.121701,-0.253966 0.298005,-0.442321 0.527571,-0.56551 0.229566,-0.122445 0.494096,-0.18404 0.793589,-0.18404 0.21692,0 0.413606,0.0351119 0.589315,0.105782 0.17556,0.0699263 0.313478,0.167972 0.412862,0.293839 0.0999797,0.126016 0.17556,0.289673 0.228079,0.492013l-0.359004 0.0986407c-0.0455265,-0.153243 -0.101467,-0.273605 -0.167972,-0.361087 -0.0670994,-0.0874822 -0.163062,-0.157408 -0.28759,-0.209928 -0.123933,-0.0525191 -0.262447,-0.0791506 -0.413606,-0.0791506 -0.181957,0 -0.339366,0.0281193 -0.47163,0.0833164 -0.133009,0.0553459 -0.239386,0.128099 -0.321214,0.218408 -0.0812335,0.0901602 -0.144167,0.18895 -0.189694,0.29741 -0.076175,0.185379 -0.114709,0.386975 -0.114709,0.604639 0,0.267951 0.0461216,0.491864 0.138513,0.672482 0.0923919,0.180469 0.22674,0.314222 0.403043,0.401704 0.176452,0.0874822 0.363319,0.131521 0.561344,0.131521 0.172882,0 0.340705,-0.0336241 0.50451,-0.100128 0.16455,-0.0657604 0.288334,-0.136431 0.37299,-0.21201l0 -0.559856 -0.883154 0zm2.05405 1.17922l1.15468 -3.00564 0.428187 0 1.23026 3.00564 -0.453479 0 -0.350524 -0.91038 -1.25689 0 -0.329546 0.91038 -0.422682 0zm0.867086 -1.23442l1.01958 0 -0.314222 -0.832122c-0.0952187,-0.252627 -0.166633,-0.460472 -0.212754,-0.623534 -0.0385338,0.193115 -0.0923919,0.384148 -0.162318,0.574586l-0.33029 0.881071zm2.78455 1.23442l0 -3.00564 0.407953 0 1.5787 2.35979 0 -2.35979 0.38147 0 0 3.00564 -0.407953 0 -1.57885 -2.36187 0 2.36187 -0.381321 0zm3.62917 0l0 -3.00564 0.397538 0 0 3.00564 -0.397538 0zm1.3835 0l0 -0.368824 1.53972 -1.9252c0.109799,-0.137174 0.213349,-0.256049 0.31199,-0.356773l-1.67734 0 0 -0.354839 2.15254 0 0 0.354839 -1.68716 2.0847 -0.182701 0.211267 1.91955 0 0 0.354839 -2.3766 0zm3.33816 0l0 -3.00564 2.17292 0 0 0.354839 -1.77538 0 0 0.9202 1.66276 0 0 0.352607 -1.66276 0 0 1.02316 1.84531 0 0 0.354839 -2.24285 0zm4.87356 -0.965726l0.375073 -0.0328802c0.017556,0.150416 0.0587678,0.273605 0.123933,0.370163 0.0650165,0.0965577 0.16574,0.174221 0.302319,0.233732 0.136431,0.0595117 0.290417,0.0888212 0.461067,0.0888212 0.151904,0 0.285656,-0.0223169 0.401704,-0.0670994 0.116197,-0.0455265 0.202935,-0.107121 0.25962,-0.185528 0.0566849,-0.0790018 0.0853993,-0.164401 0.0853993,-0.257388 0,-0.0944748 -0.0272266,-0.176452 -0.0825725,-0.247122 -0.054602,-0.0706702 -0.144762,-0.129438 -0.270034,-0.177047 -0.0812335,-0.0315412 -0.259025,-0.0804896 -0.535457,-0.146994 -0.275688,-0.0665043 -0.469547,-0.128694 -0.58009,-0.187462 -0.143423,-0.0749848 -0.250544,-0.168716 -0.321214,-0.280003 -0.0699263,-0.111287 -0.105038,-0.235815 -0.105038,-0.374329 0,-0.15116 0.0426996,-0.293244 0.128843,-0.424765 0.0859944,-0.132265 0.21201,-0.232393 0.377155,-0.30098 0.165889,-0.0678433 0.349185,-0.102211 0.551525,-0.102211 0.223169,0 0.419111,0.035707 0.58991,0.107865 0.170055,0.071414 0.300832,0.177047 0.392628,0.316305 0.0909041,0.139257 0.140596,0.29741 0.147589,0.473713l-0.381321 0.0287144c-0.0211267,-0.189694 -0.090309,-0.333861 -0.208589,-0.430418 -0.11828,-0.0973016 -0.2925,-0.145506 -0.523405,-0.145506 -0.240874,0 -0.415689,0.0440387 -0.526381,0.132265 -0.109799,0.0882261 -0.165145,0.194603 -0.165145,0.318388 0,0.10846 0.0392777,0.19743 0.116941,0.266612 0.0769189,0.070075 0.276432,0.14134 0.599729,0.214242 0.323297,0.0733482 0.545127,0.137026 0.66549,0.191628 0.174964,0.0812335 0.304402,0.183445 0.387719,0.306634 0.0833164,0.123784 0.124528,0.266612 0.124528,0.427443 0,0.160384 -0.0455265,0.3108 -0.137174,0.45214 -0.091648,0.14134 -0.223169,0.251288 -0.394711,0.33029 -0.171394,0.0784067 -0.364509,0.117536 -0.578751,0.117536 -0.272117,0 -0.500345,-0.0391289 -0.683641,-0.118875 -0.18404,-0.0791506 -0.328207,-0.198025 -0.433245,-0.357665 -0.104145,-0.158896 -0.159491,-0.339366 -0.164401,-0.540218zm5.60481 -0.0882261l0.398133 0.100872c-0.0833164,0.326124 -0.233732,0.575181 -0.449909,0.747318 -0.21692,0.171542 -0.48145,0.256793 -0.795076,0.256793 -0.323892,0 -0.587083,-0.0657604 -0.790018,-0.197281 -0.202935,-0.132265 -0.357665,-0.323297 -0.463299,-0.573098 -0.105633,-0.250544 -0.158896,-0.51924 -0.158896,-0.806235 0,-0.312883 0.0595117,-0.585744 0.179279,-0.818732 0.119619,-0.233137 0.289673,-0.410184 0.510759,-0.531142 0.220491,-0.121106 0.463299,-0.181362 0.728572,-0.181362 0.300832,0 0.553459,0.0763238 0.758625,0.229566 0.205018,0.153243 0.347697,0.36808 0.428187,0.646l-0.391141 0.0923919c-0.070075,-0.219152 -0.170799,-0.377899 -0.303807,-0.478028 -0.132265,-0.100128 -0.298749,-0.149821 -0.500345,-0.149821 -0.230905,0 -0.423277,0.0553459 -0.578751,0.165889 -0.155326,0.111287 -0.26453,0.25962 -0.326719,0.446487 -0.0630824,0.186123 -0.0944748,0.378643 -0.0944748,0.576668 0,0.256049 0.037046,0.478623 0.111287,0.669655 0.074836,0.190437 0.190289,0.333117 0.347697,0.427592 0.157557,0.0944748 0.327612,0.14134 0.510908,0.14134 0.222574,0 0.41078,-0.0642726 0.56551,-0.192372 0.154582,-0.128843 0.258876,-0.319875 0.313478,-0.572503zm1.42486 1.05395l0 -3.00564 0.398133 0 0 1.23442 1.56203 0 0 -1.23442 0.398133 0 0 3.00564 -0.398133 0 0 -1.41638 -1.56203 0 0 1.41638 -0.398133 0zm3.55359 0l0 -3.00564 2.17292 0 0 0.354839 -1.77538 0 0 0.9202 1.66276 0 0 0.352607 -1.66276 0 0 1.02316 1.84531 0 0 0.354839 -2.24285 0zm3.31718 0l0 -3.00564 1.03506 0c0.233732,0 0.412119,0.0147291 0.535308,0.0432948 0.172138,0.0392777 0.319132,0.111287 0.440833,0.214837 0.158152,0.134496 0.277176,0.305146 0.355582,0.513735 0.0790018,0.208589 0.11828,0.446487 0.11828,0.714438 0,0.228227 -0.0266315,0.430418 -0.0804896,0.606722 -0.053263,0.176452 -0.121106,0.322702 -0.205167,0.438155 -0.0831676,0.115453 -0.174221,0.206357 -0.273605,0.272266 -0.0986407,0.0663556 -0.218259,0.116792 -0.35826,0.15116 -0.140596,0.0342192 -0.301576,0.0510313 -0.482937,0.0510313l-1.0846 0zm0.397389 -0.354839l0.641834 0c0.198025,0 0.354095,-0.0181511 0.466721,-0.0551971 0.112626,-0.0371948 0.202191,-0.08897 0.269439,-0.156069 0.0944748,-0.0938797 0.167972,-0.221235 0.220491,-0.379982 0.0523703,-0.15964 0.0790018,-0.352012 0.0790018,-0.579495 0,-0.314222 -0.0517752,-0.555691 -0.154582,-0.724257 -0.10355,-0.16946 -0.228823,-0.282085 -0.37656,-0.339514 -0.106377,-0.0412119 -0.278515,-0.0614458 -0.51433,-0.0614458l-0.632014 0 0 2.29596zm5.13184 -2.6508l0.398133 0 0 1.73685c0,0.301724 -0.0342192,0.541705 -0.102806,0.719497 -0.0685872,0.177642 -0.191776,0.32181 -0.370312,0.433096 -0.178386,0.112031 -0.412119,0.167228 -0.701792,0.167228 -0.281342,0 -0.512247,-0.0482045 -0.690782,-0.145506 -0.17913,-0.0965577 -0.307229,-0.237303 -0.383404,-0.421343 -0.0770677,-0.18404 -0.114858,-0.434584 -0.114858,-0.752972l0 -1.73685 0.397538 0 0 1.73477c0,0.261108 0.0243998,0.453479 0.0727531,0.576668 0.0483533,0.123933 0.132265,0.219003 0.2498,0.286251 0.11828,0.0670994 0.263191,0.100724 0.43384,0.100724 0.292649,0 0.501089,-0.0665043 0.625766,-0.199364 0.123784,-0.132265 0.186123,-0.387124 0.186123,-0.764279l0 -1.73477zm1.56828 3.00564l0 -3.00564 0.398133 0 0 2.6508 1.4802 0 0 0.354839 -1.87834 0zm2.88528 0l0 -3.00564 2.17292 0 0 0.354839 -1.77538 0 0 0.9202 1.66276 0 0 0.352607 -1.66276 0 0 1.02316 1.84531 0 0 0.354839 -2.24285 0z"/>
 <polygon class="fil1 str0" points="312.968,-255.734 311.727,-255.734 311.727,-262.337 318.33,-262.337 318.33,-261.096 312.968,-261.096 "/>
 <line class="fil1 str0" x1="313.009" y1="-261.436" x2="313.009" y2= "-263.344" />
 <line class="fil1 str0" x1="317.087" y1="-261.436" x2="317.087" y2= "-263.344" />
 <polygon class="fil1 str0" points="319.572,-254.492 312.968,-254.492 312.968,-261.096 319.572,-261.096 "/>
</symbol>
<symbol id="Fm18-53723-0" viewBox="178.472 -134.038 46.1789 10.6709">
 <polygon class="fil2" points="178.866,-133.645 224.257,-133.645 224.257,-123.761 178.866,-123.761 "/>
 <path class="fil3" d="M224.651 -134.038l-46.1789 0 0 10.6709 46.1789 0 0 -10.6709zm-0.78734 9.88356l-44.6042 0 0 -9.09622 44.6042 0 0 9.09622z"/>
</symbol>
<symbol id="Fm14-53719-0" viewBox="30.1009 -74.0445 89.3638 0.262447">
 <line class="fil1 str1" x1="119.465" y1="-73.9132" x2="30.1009" y2= "-73.9132" />
</symbol>
<symbol id="Fm0-54062-0" viewBox="51.8921 -263.367 40.3287 40.3281">
 <path class="fil4" d="M92.2208 -243.203c0,11.1366 -9.02807,20.1641 -20.1641,20.1641 -11.137,0 -20.1646,-9.02748 -20.1646,-20.1641 0,-11.1364 9.02763,-20.1641 20.1646,-20.1641 11.136,0 20.1641,9.02763 20.1641,20.1641z"/>
</symbol>
<symbol id="Fm31-53738-0" viewBox="363.125 -176.659 46.1787 10.6709">
 <polygon class="fil5" points="363.519,-176.265 408.91,-176.265 408.91,-166.381 363.519,-166.381 "/>
 <path class="fil3" d="M409.304 -176.659l-46.1787 0 0 10.6709 46.1787 0 0 -10.6709zm-0.787191 9.88415l-44.6042 0 0 -9.09636 44.6042 0 0 9.09636z"/>
</symbol>
<symbol id="Fm0-53714-0" viewBox="30 -311.51 525.017 315.136">
 <polygon class="fil6" points="30,-311.51 555.017,-311.51 555.017,3.62575 30,3.62575 "/>
</symbol>
<symbol id="Fm28-53734-0" viewBox="362.969 -134.038 46.1787 10.6709">
 <polygon class="fil2" points="363.362,-133.645 408.753,-133.645 408.753,-123.761 363.362,-123.761 "/>
 <path class="fil3" d="M409.147 -134.038l-46.1787 0 0 10.6709 46.1787 0 0 -10.6709zm-0.78734 9.88356l-44.6042 0 0 -9.09622 44.6042 0 0 9.09622z"/>
</symbol>
<symbol id="Fm10-49378-0" viewBox="47.8482 -263.954 52.1907 43.2216">
 <g style="clip-path:url(#id0)">
  <image transform="matrix(1 0 0 1 17.8482 -224.517)" x="30" y="-39.4491" width="52.2053" height="43.2338" xlink:href="manage-reposts_Images\manage-reposts_ImgID1.png"/>
 </g>
</symbol>
<symbol id="Fm5-53741-0" viewBox="29.8657 -294.121 89.6294 298.037">
 <polygon class="fil1 str1" points="119.364,3.78465 29.9969,3.78465 29.9969,-293.989 119.364,-293.989 "/>
</symbol>
<symbol id="Fm23-53729-0" viewBox="270.801 -155.381 46.1787 10.6709">
 <polygon class="fil2" points="271.195,-154.987 316.586,-154.987 316.586,-145.103 271.195,-145.103 "/>
 <path class="fil3" d="M316.98 -155.381l-46.1787 0 0 10.6709 46.1787 0 0 -10.6709zm-0.787191 9.88415l-44.6043 0 0 -9.09636 44.6043 0 0 9.09636z"/>
</symbol>
<symbol id="Fm12-53717-0" viewBox="29.8686 -181.054 89.4952 86.5144">
 <polyline class="fil1 str1" points="119.364,-94.6706 29.9999,-94.6706 29.9999,-180.923 119.364,-180.923 "/>
 <line class="fil1 str1" x1="30" y1="-116.234" x2="119.364" y2= "-116.234" />
 <line class="fil1 str1" x1="30" y1="-137.797" x2="119.364" y2= "-137.797" />
 <line class="fil1 str1" x1="30" y1="-159.36" x2="119.364" y2= "-159.36" />
</symbol>
<symbol id="Fm30-53737-0" viewBox="270.801 -176.659 46.1787 10.6709">
 <polygon class="fil5" points="271.195,-176.265 316.586,-176.265 316.586,-166.381 271.195,-166.381 "/>
 <path class="fil3" d="M316.98 -176.659l-46.1787 0 0 10.6709 46.1787 0 0 -10.6709zm-0.787191 9.88415l-44.6043 0 0 -9.09636 44.6043 0 0 9.09636z"/>
</symbol>
<symbol id="Fm9-53745-0" viewBox="272.108 -270.511 256.041 22.0753">
 <line class="fil1 str1" x1="528.149" y1="-248.567" x2="272.239" y2= "-248.567" />
 <line class="fil1 str1" x1="400.194" y1="-270.511" x2="400.194" y2= "-248.566" />
 <line class="fil1 str1" x1="272.239" y1="-270.511" x2="272.239" y2= "-248.566" />
</symbol>
<symbol id="Fm27-53733-0" viewBox="362.969 -155.381 46.1787 10.6709">
 <polygon class="fil2" points="363.362,-154.987 408.753,-154.987 408.753,-145.104 363.362,-145.104 "/>
 <path class="fil3" d="M409.147 -155.381l-46.1787 0 0 10.6709 46.1787 0 0 -10.6709zm-0.78734 9.88415l-44.6042 0 0 -9.09636 44.6042 0 0 9.09636z"/>
</symbol>
<symbol id="Fm22-53728-0" viewBox="270.801 -134.038 46.1787 10.6709">
 <polygon class="fil2" points="271.195,-133.645 316.586,-133.645 316.586,-123.761 271.195,-123.761 "/>
 <path class="fil3" d="M316.98 -134.038l-46.1787 0 0 10.6709 46.1787 0 0 -10.6709zm-0.787191 9.88356l-44.6043 0 0 -9.09622 44.6043 0 0 9.09622z"/>
</symbol>
<symbol id="Fm17-53722-0" viewBox="224.581 -102.065 46.1789 10.6709">
 <polygon class="fil0" points="270.76,-91.3941 224.581,-91.3941 224.581,-102.065 270.76,-102.065 "/>
</symbol>
<symbol id="Fm13-53718-0" viewBox="29.8429 -52.8217 89.3638 0.262447">
 <line class="fil1 str1" x1="119.207" y1="-52.6905" x2="29.8429" y2= "-52.6905" />
</symbol>
<symbol id="Fm26-53732-0" viewBox="409.347 -155.381 46.1789 10.6709">
 <polygon class="fil2" points="409.741,-154.987 455.133,-154.987 455.133,-145.103 409.741,-145.103 "/>
 <path class="fil3" d="M455.526 -155.381l-46.1789 0 0 10.6709 46.1789 0 0 -10.6709zm-0.78734 9.88415l-44.6042 0 0 -9.09636 44.6042 0 0 9.09636z"/>
</symbol>
<symbol id="Fm15-53720-0" viewBox="278.492 -230.007 5.94046 6.20276">
 <line class="fil1 str0" x1="278.492" y1="-223.936" x2="284.433" y2= "-223.936" />
 <line class="fil1 str0" x1="278.492" y1="-225.979" x2="284.433" y2= "-225.979" />
 <line class="fil1 str0" x1="278.492" y1="-228.022" x2="284.433" y2= "-228.022" />
 <line class="fil1 str0" x1="278.492" y1="-229.876" x2="284.433" y2= "-229.876" />
</symbol>
<symbol id="Fm8-53744-0" viewBox="-0 0 59.8689 7.56929">
</symbol>
<symbol id="Fm21-53727-0" viewBox="224.651 -144.709 46.1787 10.6709">
 <polygon class="fil2" points="225.044,-144.316 270.435,-144.316 270.435,-134.431 225.044,-134.431 "/>
 <path class="fil3" d="M270.829 -144.709l-46.1787 0 0 10.6709 46.1787 0 0 -10.6709zm-0.787191 9.88356l-44.6043 0 0 -9.09636 44.6043 0 0 9.09636z"/>
</symbol>
<symbol id="Fm2-53725-0" viewBox="30 -311.132 524.86 314.916">
 <polygon id="123456789101112131415161718192021222324252627" style="fill:url(#id1);fill-rule:nonzero" points="554.86,3.78465 30,3.78465 30,-311.132 554.86,-311.132 "/>
</symbol>
<symbol id="Fm1-53715-0" viewBox="30 -311.126 525.017 314.752">
 <polygon class="fil7" points="30,3.6256 555.017,3.6256 555.017,-311.126 30,-311.126 "/>
</symbol>
<symbol id="Fm4-53740-0" viewBox="29.9984 -293.989 89.3655 297.774">
 <polygon class="fil3" points="119.364,-293.989 29.9984,-293.989 29.9984,3.78465 119.364,3.78465 "/>
</symbol>
<symbol id="Fm11-53716-0" viewBox="528.466 -301.609 13.7185 3.05459">
 <path class="fil0" d="M528.466 -298.603l1.15468 -3.00564 0.428187 0 1.23026 3.00564 -0.453479 0 -0.350524 -0.91038 -1.25689 0 -0.329546 0.91038 -0.422682 0zm0.867086 -1.23442l1.01958 0 -0.314222 -0.832122c-0.0952187,-0.252627 -0.166633,-0.460472 -0.212754,-0.623534 -0.0385338,0.193115 -0.0923919,0.384148 -0.162318,0.574586l-0.33029 0.881071zm4.15407 1.23442l0 -0.275093c-0.137918,0.216325 -0.340853,0.324041 -0.608954,0.324041 -0.173477,0 -0.332968,-0.0476094 -0.478623,-0.143423 -0.145506,-0.0952187 -0.258132,-0.228823 -0.338622,-0.40096 -0.0798945,-0.171542 -0.119767,-0.36808 -0.119767,-0.591398 0,-0.21692 0.0364509,-0.414201 0.10846,-0.591249 0.0729018,-0.177047 0.181362,-0.312883 0.326124,-0.406614 0.144911,-0.0944748 0.307229,-0.142084 0.486359,-0.142084 0.130926,0 0.247717,0.0279705 0.349929,0.0833164 0.102955,0.0551971 0.186123,0.127355 0.250544,0.216176l0 -1.07835 0.366741 0 0 3.00564 -0.342192 0zm-1.16658 -1.08683c0,0.279259 0.0587678,0.487847 0.176303,0.625617 0.117536,0.137918 0.256198,0.20725 0.416433,0.20725 0.16083,0 0.298005,-0.0665043 0.41078,-0.198174 0.112626,-0.131521 0.169311,-0.333117 0.169311,-0.603895 0,-0.298154 -0.0574288,-0.516413 -0.172138,-0.65567 -0.114858,-0.140001 -0.256198,-0.209332 -0.424765,-0.209332 -0.163806,0 -0.30098,0.0672482 -0.41078,0.200852 -0.109948,0.133753 -0.165145,0.345019 -0.165145,0.633353zm2.6145 1.08683l0 -2.17709 0.329546 0 0 0.305146c0.0685872,-0.106377 0.15964,-0.19252 0.27301,-0.256942 0.11337,-0.0650165 0.242808,-0.0978968 0.38757,-0.0978968 0.160979,0 0.293244,0.0336241 0.396199,0.100724 0.10355,0.0672482 0.176303,0.160235 0.218259,0.280598 0.172882,-0.253966 0.396794,-0.381321 0.672482,-0.381321 0.216325,0 0.382214,0.0601068 0.498262,0.179874 0.116197,0.119619 0.174369,0.303658 0.174369,0.55212l0 1.49479 -0.366741 0 0 -1.3716c0,-0.147738 -0.0119023,-0.254115 -0.035707,-0.319132 -0.0245486,-0.0644214 -0.0678433,-0.116941 -0.130182,-0.156813 -0.0629336,-0.0391289 -0.137174,-0.0593629 -0.22183,-0.0593629 -0.153243,0 -0.279854,0.0510313 -0.381321,0.153243 -0.100872,0.101467 -0.151904,0.26453 -0.151904,0.488442l0 1.26522 -0.368824 0 0 -1.4143c0,-0.164401 -0.0300534,-0.28759 -0.090309,-0.369568 -0.0601068,-0.0818286 -0.158152,-0.12304 -0.295327,-0.12304 -0.10355,0 -0.199364,0.0272266 -0.28759,0.0825725 -0.0882261,0.0544532 -0.152499,0.134348 -0.191776,0.239237 -0.0398728,0.105633 -0.0595117,0.257537 -0.0595117,0.455562l0 1.12953 -0.368675 0zm4.02388 -2.58087l0 -0.424765 0.369568 0 0 0.424765 -0.369568 0zm0 2.58087l0 -2.17709 0.369568 0 0 2.17709 -0.369568 0zm1.4564 0l0 -2.17709 0.331629 0 0 0.309312c0.160235,-0.239386 0.391289,-0.359004 0.692865,-0.359004 0.131521,0 0.251883,0.0238047 0.361831,0.0706702 0.110543,0.0476094 0.192372,0.109204 0.246974,0.186123 0.0553459,0.0763238 0.0931358,0.167228 0.115453,0.272266 0.0132414,0.0685872 0.0203828,0.188206 0.0203828,0.359004l0 1.33872 -0.369568 0 0 -1.32473c0,-0.149821 -0.0139853,-0.262447 -0.0426996,-0.337283 -0.0287144,-0.0742409 -0.0797457,-0.133753 -0.152499,-0.177791 -0.073497,-0.0447826 -0.158896,-0.0670994 -0.257537,-0.0670994 -0.157557,0 -0.2925,0.0502874 -0.407358,0.149672 -0.114114,0.100128 -0.170799,0.289078 -0.170799,0.568188l0 1.18904 -0.368675 0z"/>
</symbol>
<symbol id="Fm6-53742-0" viewBox="168.669 -181.89 4.92251 194.254">
 <path class="fil0" d="M171.598 -178.494l-0.414945 0 0 -2.6453c-0.0999797,0.0952187 -0.230608,0.190586 -0.392777,0.285805 -0.163062,0.0952187 -0.308717,0.16693 -0.437857,0.214093l0 -0.400663c0.232393,-0.109502 0.435477,-0.241766 0.6094,-0.396794 0.173179,-0.155921 0.296815,-0.306337 0.36927,-0.452735l0.26691 0 0 3.39559z"/>
 <path class="fil0" d="M172.217 -168.293l0 0.399175 -2.23511 0c-0.00312436,-0.0999797 0.0126462,-0.196091 0.0480557,-0.288185 0.0566849,-0.152648 0.148035,-0.302319 0.273159,-0.450355 0.126016,-0.147143 0.30708,-0.317941 0.543193,-0.511652 0.367782,-0.301576 0.616541,-0.540069 0.745682,-0.716521 0.128992,-0.17556 0.193562,-0.342341 0.193562,-0.499154 0,-0.164401 -0.0590654,-0.303063 -0.176303,-0.416433 -0.118131,-0.112626 -0.271671,-0.169311 -0.460621,-0.169311 -0.199959,0 -0.359748,0.059958 -0.479367,0.18032 -0.120511,0.119767 -0.181064,0.285805 -0.182701,0.497667l-0.426699 -0.0432948c0.0291607,-0.318983 0.139406,-0.561344 0.329844,-0.728275 0.190586,-0.16693 0.44723,-0.250396 0.768445,-0.250396 0.324339,0 0.580983,0.0906066 0.769933,0.270034 0.189694,0.18032 0.284168,0.403043 0.284168,0.669209 0,0.135389 -0.0275242,0.268398 -0.0834652,0.399175 -0.0550483,0.130628 -0.147143,0.268398 -0.275539,0.412565 -0.128248,0.144762 -0.341597,0.343234 -0.640048,0.595117 -0.248759,0.209481 -0.408548,0.351119 -0.479367,0.425955 -0.0709677,0.0739433 -0.12914,0.148779 -0.17556,0.224359l1.65874 0z"/>
 <path class="fil0" d="M170.037 -158.187l0.414797 -0.0550483c0.0480557,0.235369 0.12914,0.40468 0.243254,0.508528 0.115006,0.103997 0.254413,0.155921 0.418962,0.155921 0.195198,0 0.360492,-0.0676946 0.495137,-0.203084 0.133901,-0.135389 0.201596,-0.303212 0.201596,-0.503171 0,-0.190437 -0.0621897,-0.347995 -0.186569,-0.471481 -0.125272,-0.123636 -0.283425,-0.185825 -0.475647,-0.185825 -0.0787042,0 -0.176303,0.0157706 -0.292798,0.0464191l0.0464191 -0.364509c0.0275242,0.00312436 0.0495435,0.00476094 0.0669507,0.00476094 0.176303,0 0.335348,-0.0464191 0.477135,-0.138662 0.141638,-0.0920944 0.212457,-0.234625 0.212457,-0.426699 0,-0.151904 -0.051924,-0.278664 -0.155028,-0.377899 -0.103104,-0.0999797 -0.236261,-0.150267 -0.399175,-0.150267 -0.161426,0 -0.296071,0.0511801 -0.403043,0.151904 -0.107865,0.101616 -0.177196,0.254264 -0.207845,0.457347l-0.414945 -0.0739433c0.0504362,-0.278664 0.166186,-0.494394 0.345614,-0.64719 0.18032,-0.152648 0.403936,-0.229864 0.67159,-0.229864 0.184189,0 0.354243,0.0401704 0.50942,0.118875 0.155028,0.0795969 0.273903,0.187313 0.356624,0.324339 0.0818286,0.137026 0.123487,0.281937 0.123487,0.436221 0,0.145655 -0.0392777,0.278664 -0.117982,0.399175 -0.0787042,0.119619 -0.194455,0.214837 -0.347995,0.285805 0.199959,0.0455265 0.354987,0.141638 0.465977,0.287293 0.110245,0.144911 0.165443,0.326719 0.165443,0.54483 0,0.295178 -0.107121,0.545574 -0.322851,0.751038 -0.214986,0.205464 -0.487252,0.307824 -0.816352,0.307824 -0.296815,0 -0.543342,-0.0882261 -0.739284,-0.265273 -0.196091,-0.176303 -0.307824,-0.405424 -0.335348,-0.68736z"/>
 <path class="fil0" d="M171.365 -146.694l0 -0.809359 -1.46681 0 0 -0.381024 1.54314 -2.19107 0.339366 0 0 2.19107 0.456604 0 0 0.381024 -0.456604 0 0 0.809359 -0.415689 0zm0 -1.19038l0 -1.52424 -1.05812 1.52424 1.05812 0z"/>
 <path class="fil0" d="M170.035 -136.979l0.436072 -0.037046c0.0322851,0.212606 0.107121,0.371651 0.224359,0.478623 0.118131,0.107121 0.259917,0.160682 0.425955,0.160682 0.199959,0 0.36927,-0.0755799 0.50704,-0.225996 0.138513,-0.15116 0.207845,-0.351119 0.207845,-0.599878 0,-0.237005 -0.0662068,-0.423575 -0.199215,-0.5606 -0.133009,-0.136877 -0.30708,-0.205464 -0.522662,-0.205464 -0.133901,0 -0.254413,0.0307973 -0.362278,0.0913505 -0.107865,0.0607019 -0.192074,0.139406 -0.25352,0.236261l-0.389653 -0.0504362 0.327463 -1.73685 1.68165 0 0 0.396794 -1.34943 0 -0.182552 0.908595c0.203084,-0.141638 0.416433,-0.212606 0.639305,-0.212606 0.295178,0 0.543937,0.10236 0.747021,0.30708 0.203232,0.20472 0.3047,0.467613 0.3047,0.788828 0,0.306337 -0.0897139,0.570866 -0.267654,0.793589 -0.217218,0.273308 -0.513288,0.410184 -0.888063,0.410184 -0.307824,0 -0.558964,-0.0858456 -0.753418,-0.258132 -0.194455,-0.172435 -0.305444,-0.400811 -0.332968,-0.68498z"/>
 <path class="fil0" d="M172.189 -128.047l-0.412565 0.0322851c-0.037046,-0.162913 -0.08897,-0.281788 -0.156665,-0.354987 -0.112626,-0.119023 -0.251139,-0.17794 -0.415689,-0.17794 -0.132265,0 -0.248015,0.0368973 -0.347995,0.110989 -0.130777,0.0952187 -0.233881,0.234625 -0.309461,0.417177 -0.0746872,0.182701 -0.114114,0.443362 -0.117238,0.781835 0.0999797,-0.151904 0.221979,-0.265273 0.36689,-0.339366 0.144018,-0.0731994 0.295922,-0.110245 0.454223,-0.110245 0.277176,0 0.512545,0.101616 0.706999,0.305593 0.194455,0.203828 0.292054,0.466869 0.292054,0.789572 0,0.212606 -0.0464191,0.409441 -0.13777,0.591993 -0.0913505,0.181957 -0.217218,0.322107 -0.377155,0.418962 -0.159789,0.0968553 -0.340853,0.144762 -0.543937,0.144762 -0.346507,0 -0.628295,-0.12676 -0.846405,-0.381768 -0.218854,-0.254264 -0.327463,-0.67397 -0.327463,-1.25808 0,-0.653439 0.120511,-1.12819 0.362129,-1.42501 0.210225,-0.258281 0.49365,-0.388165 0.851017,-0.388165 0.265422,0 0.483384,0.074836 0.653439,0.224359 0.170055,0.148779 0.271671,0.355136 0.305593,0.618029zm-1.69504 1.45729c0,0.143274 0.0306485,0.2803 0.0913505,0.410928 0.0605532,0.130777 0.145506,0.229864 0.254264,0.298451 0.109353,0.0684385 0.224359,0.103104 0.343978,0.103104 0.17556,0 0.325975,-0.0708189 0.451991,-0.212606 0.125867,-0.141638 0.18895,-0.333712 0.18895,-0.576222 0,-0.233881 -0.0621897,-0.41807 -0.186718,-0.552715 -0.124379,-0.134645 -0.281044,-0.201596 -0.469994,-0.201596 -0.188057,0 -0.347102,0.0669507 -0.477879,0.201596 -0.130628,0.134645 -0.195942,0.310949 -0.195942,0.529059z"/>
 <path class="fil0" d="M170.062 -117.832l0 -0.399026 2.18869 0 0 0.322702c-0.214986,0.22912 -0.428336,0.53382 -0.640048,0.913356 -0.211118,0.379387 -0.374775,0.770677 -0.489781,1.17149 -0.0834652,0.283425 -0.136133,0.592737 -0.159045,0.929722l-0.426699 0c0.00476094,-0.266166 0.0566849,-0.587381 0.156665,-0.964387 0.0999797,-0.376412 0.243254,-0.740028 0.429823,-1.08966 0.187462,-0.349482 0.385785,-0.644809 0.596902,-0.884195l-1.65651 0z"/>
 <path class="fil0" d="M170.674 -106.127c-0.172286,-0.0630824 -0.299939,-0.152796 -0.383404,-0.270034 -0.0825725,-0.116643 -0.124379,-0.256644 -0.124379,-0.419706 0,-0.246378 0.0882261,-0.452735 0.265422,-0.62041 0.177047,-0.167674 0.411672,-0.251883 0.705363,-0.251883 0.295178,0 0.532927,0.0858456 0.713248,0.257388 0.179577,0.171691 0.26929,0.38028 0.26929,0.626807 0,0.156665 -0.0409143,0.292798 -0.122892,0.409292 -0.0825725,0.11575 -0.206952,0.205464 -0.374626,0.268547 0.206952,0.0676946 0.365253,0.176303 0.473862,0.327463 0.107865,0.150416 0.162169,0.330736 0.162169,0.539325 0,0.289673 -0.10236,0.532183 -0.306188,0.729018 -0.20472,0.196835 -0.474011,0.295178 -0.807723,0.295178 -0.333861,0 -0.602407,-0.0983431 -0.806979,-0.295922 -0.20472,-0.197728 -0.30708,-0.444106 -0.30708,-0.739284 0,-0.219747 0.055941,-0.403936 0.167674,-0.552715 0.110989,-0.148035 0.270034,-0.249503 0.476242,-0.303063zm-0.0833164 -0.703875c0,0.159789 0.051924,0.290566 0.154284,0.392033 0.103104,0.101616 0.237005,0.152796 0.401406,0.152796 0.159938,0 0.29131,-0.0504362 0.39367,-0.15116 0.10236,-0.100872 0.152796,-0.224359 0.152796,-0.370014 0,-0.152796 -0.051924,-0.2803 -0.157408,-0.384297 -0.105633,-0.103848 -0.236261,-0.155772 -0.39367,-0.155772 -0.158301,0 -0.289822,0.0511801 -0.394414,0.151904 -0.104741,0.101616 -0.156665,0.223615 -0.156665,0.364509zm-0.133901 1.56203c0,0.117982 0.0282681,0.232988 0.0842091,0.343234 0.055941,0.110989 0.139406,0.196835 0.250396,0.257388 0.110989,0.0607019 0.229864,0.0913505 0.357368,0.0913505 0.198472,0 0.362278,-0.0638263 0.491269,-0.192074 0.12914,-0.127504 0.193711,-0.289822 0.193711,-0.486508 0,-0.200108 -0.066058,-0.365402 -0.199215,-0.49603 -0.133009,-0.130777 -0.299939,-0.196091 -0.499898,-0.196091 -0.195198,0 -0.356624,0.0645702 -0.48502,0.193711 -0.128248,0.129884 -0.192818,0.29131 -0.192818,0.48502z"/>
 <path class="fil0" d="M170.097 -94.4753l0.399175 -0.0368973c0.0337729,0.187313 0.0983431,0.323595 0.193562,0.408548 0.0953675,0.0842091 0.217367,0.12676 0.36689,0.12676 0.127504,0 0.239386,-0.0291607 0.335348,-0.0882261 0.0961114,-0.0581727 0.174816,-0.136133 0.236261,-0.233732 0.0621897,-0.0975992 0.11337,-0.229864 0.155028,-0.395307 0.0410631,-0.166038 0.0621897,-0.335348 0.0621897,-0.507784 0,-0.0181511 -0.000743896,-0.0464191 -0.00223169,-0.0825725 -0.0834652,0.131372 -0.196835,0.239237 -0.340109,0.321214 -0.144167,0.0825725 -0.300088,0.123487 -0.466869,0.123487 -0.2803,0 -0.517306,-0.101467 -0.711016,-0.3047 -0.193562,-0.203084 -0.290417,-0.469994 -0.290417,-0.802218 0,-0.343234 0.100724,-0.618773 0.303063,-0.828254 0.20234,-0.209332 0.45586,-0.314073 0.76056,-0.314073 0.219598,0 0.420301,0.0598093 0.603002,0.17794 0.181808,0.118131 0.320471,0.287293 0.414945,0.506147 0.0944748,0.219003 0.141638,0.5362 0.141638,0.95189 0,0.43146 -0.0464191,0.775438 -0.14015,1.03208 -0.0944748,0.2559 -0.233732,0.450355 -0.418814,0.584256 -0.185825,0.133753 -0.402299,0.200703 -0.651802,0.200703 -0.26453,0 -0.480259,-0.0731994 -0.647934,-0.220342 -0.167674,-0.146548 -0.268547,-0.352756 -0.302319,-0.618922zm1.69965 -1.4927c0,-0.237749 -0.0629336,-0.427443 -0.189694,-0.566849 -0.127504,-0.14015 -0.279407,-0.210225 -0.45824,-0.210225 -0.184189,0 -0.344722,0.0755799 -0.481747,0.225996 -0.137026,0.15116 -0.205464,0.346507 -0.205464,0.585744 0,0.21573 0.0653141,0.390546 0.195198,0.525191 0.129884,0.134645 0.289673,0.201447 0.480259,0.201447 0.192818,0 0.350375,-0.0668019 0.474011,-0.201447 0.124379,-0.134645 0.185677,-0.321214 0.185677,-0.559856z"/>
 <path class="fil0" d="M170.285 -83.0934l-0.414945 0 0 -2.6453c-0.0999797,0.0952187 -0.230608,0.190586 -0.392777,0.285805 -0.163062,0.0952187 -0.308717,0.16693 -0.437857,0.214093l0 -0.400663c0.232393,-0.109502 0.435477,-0.241766 0.6094,-0.396794 0.173179,-0.155921 0.296815,-0.306337 0.36927,-0.452735l0.26691 0 0 3.39559zm1.06362 -1.66752c0,-0.399919 0.0409143,-0.721877 0.123487,-0.965131 0.0819774,-0.244147 0.20472,-0.432204 0.36689,-0.564469 0.162169,-0.132265 0.366146,-0.198472 0.61178,-0.198472 0.181808,0 0.340853,0.037046 0.477879,0.110245 0.137026,0.0724555 0.249503,0.17794 0.339366,0.31571 0.08897,0.13777 0.159045,0.305444 0.209332,0.503023 0.0511801,0.197579 0.0764725,0.463745 0.0764725,0.799093 0,0.396794 -0.0410631,0.716521 -0.122148,0.960519 -0.0818286,0.243998 -0.203828,0.432204 -0.365997,0.565212 -0.162169,0.133157 -0.36689,0.199215 -0.614905,0.199215 -0.325975,0 -0.581876,-0.116494 -0.767552,-0.350375 -0.222871,-0.281044 -0.334605,-0.740028 -0.334605,-1.37457zm0.426699 0c0,0.555095 0.0653141,0.924366 0.195198,1.10855 0.129884,0.183445 0.289673,0.275539 0.480259,0.275539 0.19133,0 0.351119,-0.0928383 0.481003,-0.277176 0.129884,-0.184189 0.195347,-0.553459 0.195347,-1.10692 0,-0.556583 -0.0654629,-0.926597 -0.195347,-1.1093 -0.129884,-0.183445 -0.29131,-0.274795 -0.484872,-0.274795 -0.19133,0 -0.343383,0.0812335 -0.457496,0.24251 -0.142531,0.205464 -0.214093,0.586637 -0.214093,1.14158z"/>
 <path class="fil0" d="M170.285 -72.4933l-0.414945 0 0 -2.6453c-0.0999797,0.0952187 -0.230608,0.190586 -0.392777,0.285805 -0.163062,0.0952187 -0.308717,0.16693 -0.437857,0.214093l0 -0.400663c0.232393,-0.109502 0.435477,-0.241766 0.6094,-0.396794 0.173179,-0.155921 0.296815,-0.306337 0.36927,-0.452735l0.26691 0 0 3.39559zm2.62714 0l-0.414945 0 0 -2.6453c-0.0999797,0.0952187 -0.230608,0.190586 -0.392777,0.285805 -0.163062,0.0952187 -0.308717,0.16693 -0.437857,0.214093l0 -0.400663c0.232393,-0.109502 0.435477,-0.241766 0.6094,-0.396794 0.173179,-0.155921 0.296815,-0.306337 0.36927,-0.452735l0.26691 0 0 3.39559z"/>
 <path class="fil0" d="M170.285 -61.8932l-0.414945 0 0 -2.6453c-0.0999797,0.0952187 -0.230608,0.190586 -0.392777,0.285805 -0.163062,0.0952187 -0.308717,0.16693 -0.437857,0.214093l0 -0.400663c0.232393,-0.109502 0.435477,-0.241766 0.6094,-0.396794 0.173179,-0.155921 0.296815,-0.306337 0.36927,-0.452735l0.26691 0 0 3.39559zm1.066 -0.892824l0.414797 -0.0550483c0.0480557,0.235369 0.12914,0.40468 0.243254,0.508528 0.115006,0.103997 0.254413,0.155921 0.418962,0.155921 0.195198,0 0.360492,-0.0676946 0.495137,-0.203084 0.133901,-0.135389 0.201596,-0.303212 0.201596,-0.503171 0,-0.190437 -0.0621897,-0.347995 -0.186569,-0.471481 -0.125272,-0.123636 -0.283425,-0.185825 -0.475647,-0.185825 -0.0787042,0 -0.176303,0.0157706 -0.292798,0.0464191l0.0464191 -0.364509c0.0275242,0.00312436 0.0495435,0.00476094 0.0669507,0.00476094 0.176303,0 0.335348,-0.0464191 0.477135,-0.138662 0.141638,-0.0920944 0.212457,-0.234625 0.212457,-0.426699 0,-0.151904 -0.051924,-0.278664 -0.155028,-0.377899 -0.103104,-0.0999797 -0.236261,-0.150267 -0.399175,-0.150267 -0.161426,0 -0.296071,0.0511801 -0.403043,0.151904 -0.107865,0.101616 -0.177196,0.254264 -0.207845,0.457347l-0.414945 -0.0739433c0.0504362,-0.278664 0.166186,-0.494394 0.345614,-0.64719 0.18032,-0.152648 0.403936,-0.229864 0.67159,-0.229864 0.184189,0 0.354243,0.0401704 0.50942,0.118875 0.155028,0.0795969 0.273903,0.187313 0.356624,0.324339 0.0818286,0.137026 0.123487,0.281937 0.123487,0.436221 0,0.145655 -0.0392777,0.278664 -0.117982,0.399175 -0.0787042,0.119619 -0.194455,0.214837 -0.347995,0.285805 0.199959,0.0455265 0.354987,0.141638 0.465977,0.287293 0.110245,0.144911 0.165443,0.326719 0.165443,0.54483 0,0.295178 -0.107121,0.545574 -0.322851,0.751038 -0.214986,0.205464 -0.487252,0.307824 -0.816352,0.307824 -0.296815,0 -0.543342,-0.0882261 -0.739284,-0.265273 -0.196091,-0.176303 -0.307824,-0.405424 -0.335348,-0.68736z"/>
 <path class="fil0" d="M170.285 -51.2931l-0.414945 0 0 -2.6453c-0.0999797,0.0952187 -0.230608,0.190586 -0.392777,0.285805 -0.163062,0.0952187 -0.308717,0.16693 -0.437857,0.214093l0 -0.400663c0.232393,-0.109502 0.435477,-0.241766 0.6094,-0.396794 0.173179,-0.155921 0.296815,-0.306337 0.36927,-0.452735l0.26691 0 0 3.39559zm2.39416 0l0 -0.809359 -1.46681 0 0 -0.381024 1.54314 -2.19107 0.339366 0 0 2.19107 0.456604 0 0 0.381024 -0.456604 0 0 0.809359 -0.415689 0zm0 -1.19038l0 -1.52424 -1.05812 1.52424 1.05812 0z"/>
 <path class="fil0" d="M170.285 -40.6931l-0.414945 0 0 -2.6453c-0.0999797,0.0952187 -0.230608,0.190586 -0.392777,0.285805 -0.163062,0.0952187 -0.308717,0.16693 -0.437857,0.214093l0 -0.400663c0.232393,-0.109502 0.435477,-0.241766 0.6094,-0.396794 0.173179,-0.155921 0.296815,-0.306337 0.36927,-0.452735l0.26691 0 0 3.39559zm1.06362 -0.885683l0.436072 -0.037046c0.0322851,0.212606 0.107121,0.371651 0.224359,0.478623 0.118131,0.107121 0.259917,0.160682 0.425955,0.160682 0.199959,0 0.36927,-0.0755799 0.50704,-0.225996 0.138513,-0.15116 0.207845,-0.351119 0.207845,-0.599878 0,-0.237005 -0.0662068,-0.423575 -0.199215,-0.5606 -0.133009,-0.136877 -0.30708,-0.205464 -0.522662,-0.205464 -0.133901,0 -0.254413,0.0307973 -0.362278,0.0913505 -0.107865,0.0607019 -0.192074,0.139406 -0.25352,0.236261l-0.389653 -0.0504362 0.327463 -1.73685 1.68165 0 0 0.396794 -1.34943 0 -0.182552 0.908595c0.203084,-0.141638 0.416433,-0.212606 0.639305,-0.212606 0.295178,0 0.543937,0.10236 0.747021,0.30708 0.203232,0.20472 0.3047,0.467613 0.3047,0.788828 0,0.306337 -0.0897139,0.570866 -0.267654,0.793589 -0.217218,0.273308 -0.513288,0.410184 -0.888063,0.410184 -0.307824,0 -0.558964,-0.0858456 -0.753418,-0.258132 -0.194455,-0.172435 -0.305444,-0.400811 -0.332968,-0.68498z"/>
 <path class="fil0" d="M170.285 -30.093l-0.414945 0 0 -2.6453c-0.0999797,0.0952187 -0.230608,0.190586 -0.392777,0.285805 -0.163062,0.0952187 -0.308717,0.16693 -0.437857,0.214093l0 -0.400663c0.232393,-0.109502 0.435477,-0.241766 0.6094,-0.396794 0.173179,-0.155921 0.296815,-0.306337 0.36927,-0.452735l0.26691 0 0 3.39559zm3.21765 -2.5532l-0.412565 0.0322851c-0.037046,-0.162913 -0.08897,-0.281788 -0.156665,-0.354987 -0.112626,-0.119023 -0.251139,-0.17794 -0.415689,-0.17794 -0.132265,0 -0.248015,0.0368973 -0.347995,0.110989 -0.130777,0.0952187 -0.233881,0.234625 -0.309461,0.417177 -0.0746872,0.182701 -0.114114,0.443362 -0.117238,0.781835 0.0999797,-0.151904 0.221979,-0.265273 0.36689,-0.339366 0.144018,-0.0731994 0.295922,-0.110245 0.454223,-0.110245 0.277176,0 0.512545,0.101616 0.706999,0.305593 0.194455,0.203828 0.292054,0.466869 0.292054,0.789572 0,0.212606 -0.0464191,0.409441 -0.13777,0.591993 -0.0913505,0.181957 -0.217218,0.322107 -0.377155,0.418962 -0.159789,0.0968553 -0.340853,0.144762 -0.543937,0.144762 -0.346507,0 -0.628295,-0.12676 -0.846405,-0.381768 -0.218854,-0.254264 -0.327463,-0.67397 -0.327463,-1.25808 0,-0.653439 0.120511,-1.12819 0.362129,-1.42501 0.210225,-0.258281 0.49365,-0.388165 0.851017,-0.388165 0.265422,0 0.483384,0.074836 0.653439,0.224359 0.170055,0.148779 0.271671,0.355136 0.305593,0.618029zm-1.69504 1.45729c0,0.143274 0.0306485,0.2803 0.0913505,0.410928 0.0605532,0.130777 0.145506,0.229864 0.254264,0.298451 0.109353,0.0684385 0.224359,0.103104 0.343978,0.103104 0.17556,0 0.325975,-0.0708189 0.451991,-0.212606 0.125867,-0.141638 0.18895,-0.333712 0.18895,-0.576222 0,-0.233881 -0.0621897,-0.41807 -0.186718,-0.552715 -0.124379,-0.134645 -0.281044,-0.201596 -0.469994,-0.201596 -0.188057,0 -0.347102,0.0669507 -0.477879,0.201596 -0.130628,0.134645 -0.195942,0.310949 -0.195942,0.529059z"/>
 <path class="fil0" d="M170.285 -19.4929l-0.414945 0 0 -2.6453c-0.0999797,0.0952187 -0.230608,0.190586 -0.392777,0.285805 -0.163062,0.0952187 -0.308717,0.16693 -0.437857,0.214093l0 -0.400663c0.232393,-0.109502 0.435477,-0.241766 0.6094,-0.396794 0.173179,-0.155921 0.296815,-0.306337 0.36927,-0.452735l0.26691 0 0 3.39559zm1.09115 -2.93824l0 -0.399026 2.18869 0 0 0.322702c-0.214986,0.22912 -0.428336,0.53382 -0.640048,0.913356 -0.211118,0.379387 -0.374775,0.770677 -0.489781,1.17149 -0.0834652,0.283425 -0.136133,0.592737 -0.159045,0.929722l-0.426699 0c0.00476094,-0.266166 0.0566849,-0.587381 0.156665,-0.964387 0.0999797,-0.376412 0.243254,-0.740028 0.429823,-1.08966 0.187462,-0.349482 0.385785,-0.644809 0.596902,-0.884195l-1.65651 0z"/>
 <path class="fil0" d="M170.285 -8.89283l-0.414945 0 0 -2.6453c-0.0999797,0.0952187 -0.230608,0.190586 -0.392777,0.285805 -0.163062,0.0952187 -0.308717,0.16693 -0.437857,0.214093l0 -0.400663c0.232393,-0.109502 0.435477,-0.241766 0.6094,-0.396794 0.173179,-0.155921 0.296815,-0.306337 0.36927,-0.452735l0.26691 0 0 3.39559zm1.70278 -1.83356c-0.172286,-0.0630824 -0.299939,-0.152796 -0.383404,-0.270034 -0.0825725,-0.116643 -0.124379,-0.256644 -0.124379,-0.419706 0,-0.246378 0.0882261,-0.452735 0.265422,-0.62041 0.177047,-0.167674 0.411672,-0.251883 0.705363,-0.251883 0.295178,0 0.532927,0.0858456 0.713248,0.257388 0.179577,0.171691 0.26929,0.38028 0.26929,0.626807 0,0.156665 -0.0409143,0.292798 -0.122892,0.409292 -0.0825725,0.11575 -0.206952,0.205464 -0.374626,0.268547 0.206952,0.0676946 0.365253,0.176303 0.473862,0.327463 0.107865,0.150416 0.162169,0.330736 0.162169,0.539325 0,0.289673 -0.10236,0.532183 -0.306188,0.729018 -0.20472,0.196835 -0.474011,0.295178 -0.807723,0.295178 -0.333861,0 -0.602407,-0.0983431 -0.806979,-0.295922 -0.20472,-0.197728 -0.30708,-0.444106 -0.30708,-0.739284 0,-0.219747 0.055941,-0.403936 0.167674,-0.552715 0.110989,-0.148035 0.270034,-0.249503 0.476242,-0.303063zm-0.0833164 -0.703875c0,0.159789 0.051924,0.290566 0.154284,0.392033 0.103104,0.101616 0.237005,0.152796 0.401406,0.152796 0.159938,0 0.29131,-0.0504362 0.39367,-0.15116 0.10236,-0.100872 0.152796,-0.224359 0.152796,-0.370014 0,-0.152796 -0.051924,-0.2803 -0.157408,-0.384297 -0.105633,-0.103848 -0.236261,-0.155772 -0.39367,-0.155772 -0.158301,0 -0.289822,0.0511801 -0.394414,0.151904 -0.104741,0.101616 -0.156665,0.223615 -0.156665,0.364509zm-0.133901 1.56203c0,0.117982 0.0282681,0.232988 0.0842091,0.343234 0.055941,0.110989 0.139406,0.196835 0.250396,0.257388 0.110989,0.0607019 0.229864,0.0913505 0.357368,0.0913505 0.198472,0 0.362278,-0.0638263 0.491269,-0.192074 0.12914,-0.127504 0.193711,-0.289822 0.193711,-0.486508 0,-0.200108 -0.066058,-0.365402 -0.199215,-0.49603 -0.133009,-0.130777 -0.299939,-0.196091 -0.499898,-0.196091 -0.195198,0 -0.356624,0.0645702 -0.48502,0.193711 -0.128248,0.129884 -0.192818,0.29131 -0.192818,0.48502z"/>
 <path class="fil0" d="M170.285 1.70724l-0.414945 0 0 -2.6453c-0.0999797,0.0952187 -0.230608,0.190586 -0.392777,0.285805 -0.163062,0.0952187 -0.308717,0.16693 -0.437857,0.214093l0 -0.400663c0.232393,-0.109502 0.435477,-0.241766 0.6094,-0.396794 0.173179,-0.155921 0.296815,-0.306337 0.36927,-0.452735l0.26691 0 0 3.39559zm1.12581 -0.781835l0.399175 -0.0368973c0.0337729,0.187313 0.0983431,0.323595 0.193562,0.408548 0.0953675,0.0842091 0.217367,0.12676 0.36689,0.12676 0.127504,0 0.239386,-0.0291607 0.335348,-0.0882261 0.0961114,-0.0581727 0.174816,-0.136133 0.236261,-0.233732 0.0621897,-0.0975992 0.11337,-0.229864 0.155028,-0.395307 0.0410631,-0.166038 0.0621897,-0.335348 0.0621897,-0.507784 0,-0.0181511 -0.000743896,-0.0464191 -0.00223169,-0.0825725 -0.0834652,0.131372 -0.196835,0.239237 -0.340109,0.321214 -0.144167,0.0825725 -0.300088,0.123487 -0.466869,0.123487 -0.2803,0 -0.517306,-0.101467 -0.711016,-0.3047 -0.193562,-0.203084 -0.290417,-0.469994 -0.290417,-0.802218 0,-0.343234 0.100724,-0.618773 0.303063,-0.828254 0.20234,-0.209332 0.45586,-0.314073 0.76056,-0.314073 0.219598,0 0.420301,0.0598093 0.603002,0.17794 0.181808,0.118131 0.320471,0.287293 0.414945,0.506147 0.0944748,0.219003 0.141638,0.5362 0.141638,0.95189 0,0.43146 -0.0464191,0.775438 -0.14015,1.03208 -0.0944748,0.2559 -0.233732,0.450355 -0.418814,0.584256 -0.185825,0.133753 -0.402299,0.200703 -0.651802,0.200703 -0.26453,0 -0.480259,-0.0731994 -0.647934,-0.220342 -0.167674,-0.146548 -0.268547,-0.352756 -0.302319,-0.618922zm1.69965 -1.4927c0,-0.237749 -0.0629336,-0.427443 -0.189694,-0.566849 -0.127504,-0.14015 -0.279407,-0.210225 -0.45824,-0.210225 -0.184189,0 -0.344722,0.0755799 -0.481747,0.225996 -0.137026,0.15116 -0.205464,0.346507 -0.205464,0.585744 0,0.21573 0.0653141,0.390546 0.195198,0.525191 0.129884,0.134645 0.289673,0.201447 0.480259,0.201447 0.192818,0 0.350375,-0.0668019 0.474011,-0.201447 0.124379,-0.134645 0.185677,-0.321214 0.185677,-0.559856z"/>
 <path class="fil0" d="M170.904 11.9081l0 0.399175 -2.23511 0c-0.00312436,-0.0999797 0.0126462,-0.196091 0.0480557,-0.288185 0.0566849,-0.152648 0.148035,-0.302319 0.273159,-0.450355 0.126016,-0.147143 0.30708,-0.317941 0.543193,-0.511652 0.367782,-0.301576 0.616541,-0.540069 0.745682,-0.716521 0.128992,-0.17556 0.193562,-0.342341 0.193562,-0.499154 0,-0.164401 -0.0590654,-0.303063 -0.176303,-0.416433 -0.118131,-0.112626 -0.271671,-0.169311 -0.460621,-0.169311 -0.199959,0 -0.359748,0.059958 -0.479367,0.18032 -0.120511,0.119767 -0.181064,0.285805 -0.182701,0.497667l-0.426699 -0.0432948c0.0291607,-0.318983 0.139406,-0.561344 0.329844,-0.728275 0.190586,-0.16693 0.44723,-0.250396 0.768445,-0.250396 0.324339,0 0.580983,0.0906066 0.769933,0.270034 0.189694,0.18032 0.284168,0.403043 0.284168,0.669209 0,0.135389 -0.0275242,0.268398 -0.0834652,0.399175 -0.0550483,0.130628 -0.147143,0.268398 -0.275539,0.412565 -0.128248,0.144762 -0.341597,0.343234 -0.640048,0.595117 -0.248759,0.209481 -0.408548,0.351119 -0.479367,0.425955 -0.0709677,0.0739433 -0.12914,0.148779 -0.17556,0.224359l1.65874 0zm0.44485 -1.26834c0,-0.399919 0.0409143,-0.721877 0.123487,-0.965131 0.0819774,-0.244147 0.20472,-0.432204 0.36689,-0.564469 0.162169,-0.132265 0.366146,-0.198472 0.61178,-0.198472 0.181808,0 0.340853,0.037046 0.477879,0.110245 0.137026,0.0724555 0.249503,0.17794 0.339366,0.31571 0.08897,0.13777 0.159045,0.305444 0.209332,0.503023 0.0511801,0.197579 0.0764725,0.463745 0.0764725,0.799093 0,0.396794 -0.0410631,0.716521 -0.122148,0.960519 -0.0818286,0.243998 -0.203828,0.432204 -0.365997,0.565212 -0.162169,0.133157 -0.36689,0.199215 -0.614905,0.199215 -0.325975,0 -0.581876,-0.116494 -0.767552,-0.350375 -0.222871,-0.281044 -0.334605,-0.740028 -0.334605,-1.37457zm0.426699 0c0,0.555095 0.0653141,0.924366 0.195198,1.10855 0.129884,0.183445 0.289673,0.275539 0.480259,0.275539 0.19133,0 0.351119,-0.0928383 0.481003,-0.277176 0.129884,-0.184189 0.195347,-0.553459 0.195347,-1.10692 0,-0.556583 -0.0654629,-0.926597 -0.195347,-1.1093 -0.129884,-0.183445 -0.29131,-0.274795 -0.484872,-0.274795 -0.19133,0 -0.343383,0.0812335 -0.457496,0.24251 -0.142531,0.205464 -0.214093,0.586637 -0.214093,1.14158z"/>
</symbol>
<symbol id="Fm3-53736-0" viewBox="144.284 -270.511 383.865 299.885">
 <path class="fil3" d="M528.149 -266.312c0,-2.30935 -1.8895,-4.19885 -4.19885,-4.19885l-375.467 0c-2.30935,0 -4.19885,1.8895 -4.19885,4.19885l0 291.487c0,2.30935 1.8895,4.19885 4.19885,4.19885l375.467 0c2.30935,0 4.19885,-1.8895 4.19885,-4.19885l0 -291.487z"/>
</symbol>
<symbol id="Fm25-53731-0" viewBox="316.99 -134.038 46.1789 10.6709">
 <polygon class="fil2" points="317.384,-133.645 362.775,-133.645 362.775,-123.761 317.384,-123.761 "/>
 <path class="fil3" d="M363.169 -134.038l-46.1789 0 0 10.6709 46.1789 0 0 -10.6709zm-0.78734 9.88356l-44.6042 0 0 -9.09622 44.6042 0 0 9.09622z"/>
</symbol>
<symbol id="Fm20-53726-0" viewBox="178.472 -176.659 46.1789 10.6709">
 <polygon class="fil2" points="178.866,-176.265 224.257,-176.265 224.257,-166.381 178.866,-166.381 "/>
 <path class="fil3" d="M224.651 -176.659l-46.1789 0 0 10.6709 46.1789 0 0 -10.6709zm-0.78734 9.88415l-44.6042 0 0 -9.09636 44.6042 0 0 9.09636z"/>
</symbol>
<symbol id="Fm32-53739-0" viewBox="455.683 -176.659 46.1787 10.6709">
 <polygon class="fil5" points="456.076,-176.265 501.468,-176.265 501.468,-166.381 456.076,-166.381 "/>
 <path class="fil3" d="M501.861 -176.659l-46.1787 0 0 10.6709 46.1787 0 0 -10.6709zm-0.787191 9.88415l-44.6042 0 0 -9.09636 44.6042 0 0 9.09636z"/>
</symbol>
<symbol id="Fm19-53724-0" viewBox="224.651 -165.987 46.1787 10.671">
 <polygon class="fil2" points="225.044,-165.594 270.435,-165.594 270.435,-155.71 225.044,-155.71 "/>
 <path class="fil3" d="M270.829 -165.987l-46.1787 0 0 10.671 46.1787 0 0 -10.671zm-0.787191 9.8837l-44.6043 0 0 -9.09636 44.6043 0 0 9.09636z"/>
</symbol>
<symbol id="Fm16-53721-0" viewBox="178.254 -187.525 323.513 256.369">
 <polygon class="fil1 str0" points="178.385,-187.394 501.636,-187.394 501.636,68.713 178.385,68.713 "/>
 <line class="fil1 str0" x1="178.385" y1="-5.98479" x2="501.636" y2= "-5.98479" />
 <line class="fil1 str0" x1="178.385" y1="-16.656" x2="501.636" y2= "-16.656" />
 <line class="fil1 str0" x1="178.385" y1="-27.327" x2="501.636" y2= "-27.327" />
 <line class="fil1 str0" x1="178.385" y1="-37.9982" x2="501.636" y2= "-37.9982" />
 <line class="fil1 str0" x1="178.385" y1="-48.6694" x2="501.636" y2= "-48.6694" />
 <line class="fil1 str0" x1="178.385" y1="-59.3405" x2="501.636" y2= "-59.3405" />
 <line class="fil1 str0" x1="178.385" y1="-70.0117" x2="501.636" y2= "-70.0117" />
 <line class="fil1 str0" x1="178.385" y1="-80.6827" x2="501.636" y2= "-80.6827" />
 <line class="fil1 str0" x1="178.385" y1="-91.3539" x2="501.636" y2= "-91.3539" />
 <line class="fil1 str0" x1="178.385" y1="-102.025" x2="501.636" y2= "-102.025" />
 <line class="fil1 str0" x1="178.385" y1="-112.696" x2="501.636" y2= "-112.696" />
 <line class="fil1 str0" x1="178.385" y1="-123.367" x2="501.636" y2= "-123.367" />
 <line class="fil1 str0" x1="178.385" y1="-134.039" x2="501.636" y2= "-134.039" />
 <line class="fil1 str0" x1="178.385" y1="-144.71" x2="501.636" y2= "-144.71" />
 <line class="fil1 str0" x1="178.385" y1="-155.381" x2="501.636" y2= "-155.381" />
 <line class="fil1 str0" x1="178.385" y1="-166.052" x2="501.636" y2= "-166.052" />
 <line class="fil1 str0" x1="178.385" y1="-176.723" x2="501.636" y2= "-176.723" />
 <line class="fil1 str0" x1="455.457" y1="-187.394" x2="455.457" y2= "68.713" />
 <line class="fil1 str0" x1="409.278" y1="-187.394" x2="409.278" y2= "68.713" />
 <line class="fil1 str0" x1="363.1" y1="-187.394" x2="363.1" y2= "68.713" />
 <line class="fil1 str0" x1="316.921" y1="-187.394" x2="316.921" y2= "68.713" />
 <line class="fil1 str0" x1="270.742" y1="-187.394" x2="270.742" y2= "68.713" />
 <line class="fil1 str0" x1="224.563" y1="-187.394" x2="224.563" y2= "68.713" />
</symbol>
<symbol id="Fm29-53735-0" viewBox="316.934 -176.659 46.1789 10.6709">
 <polygon class="fil5" points="317.328,-176.265 362.719,-176.265 362.719,-166.381 317.328,-166.381 "/>
 <path class="fil3" d="M363.113 -176.659l-46.1789 0 0 10.6709 46.1789 0 0 -10.6709zm-0.78734 9.88415l-44.6042 0 0 -9.09636 44.6042 0 0 9.09636z"/>
</symbol>
<symbol id="Fm24-53730-0" viewBox="409.347 -176.659 46.1789 10.6709">
 <polygon class="fil2" points="409.741,-176.265 455.133,-176.265 455.133,-166.381 409.741,-166.381 "/>
 <path class="fil3" d="M455.526 -176.659l-46.1789 0 0 10.6709 46.1789 0 0 -10.6709zm-0.78734 9.88415l-44.6042 0 0 -9.09636 44.6042 0 0 9.09636z"/>
</symbol>
 <g id="Symbol_x0020_Contents">
  <metadata id="CorelCorpID_0Corel-Layer"/>
  <path class="fil1 str0" d="M3.78673 2.17724c-0.891188,0.00312436 -1.60667,0.723811 -1.60458,1.61604 0.00223169,0.879137 0.729614,1.60191 1.60726,1.59715 0.8958,-0.00476094 1.60756,-0.724853 1.60488,-1.62393 -0.00252925,-0.871846 -0.731548,-1.59238 -1.60756,-1.58926zm2.9744 -0.457645c-0.00163657,0.0944748 -0.0363021,0.16574 -0.087631,0.23031 -0.0834652,0.105484 -0.166484,0.21201 -0.251437,0.316453 -0.0174072,0.021573 -0.0178535,0.0363021 -0.00476094,0.059958 0.108609,0.199364 0.19743,0.406763 0.254115,0.626658 0.00996821,0.0398728 0.0371948,0.035707 0.06338,0.0388314 0.134943,0.0162169 0.269886,0.0336241 0.405275,0.047163 0.195794,0.0194901 0.307527,0.200554 0.302766,0.352756 -0.00729018,0.250396 -0.00208291,0.501237 -0.00148779,0.751633 0,0.195794 -0.125421,0.33267 -0.320768,0.352607 -0.140596,0.0147291 -0.281342,0.0315412 -0.421343,0.0493947 -0.0116048,0.00163657 -0.0278217,0.0157706 -0.0310949,0.0267803 -0.0639751,0.227781 -0.156813,0.443511 -0.273456,0.649273 -0.0120511,0.021573 -0.00565361,0.033029 0.00684385,0.0492459 0.0865895,0.108163 0.172138,0.217367 0.258281,0.32657 0.0105633,0.0135389 0.0220193,0.0272266 0.0319875,0.0413606 0.105038,0.145952 0.0934334,0.312288 -0.0361534,0.444106 -0.184784,0.188355 -0.371651,0.374775 -0.559559,0.5606 -0.112775,0.111287 -0.30708,0.117982 -0.433989,0.018895 -0.122892,-0.0965577 -0.245188,-0.193711 -0.36689,-0.29131 -0.0199364,-0.0157706 -0.0342192,-0.0184486 -0.0566849,-0.00580239 -0.203679,0.111733 -0.416731,0.200554 -0.641387,0.259769 -0.0304997,0.0078853 -0.0425509,0.0205315 -0.0456752,0.0535605 -0.0162169,0.162169 -0.035707,0.323892 -0.0556434,0.485467 -0.0147291,0.120214 -0.141787,0.248313 -0.261852,0.265125 -0.0373436,0.00520727 -0.0751335,0.0078853 -0.112328,0.00833164 -0.23894,0.000595117 -0.477135,0.00163657 -0.715479,-0.00104145 -0.0529654,-0.000446338 -0.109204,-0.0078853 -0.156962,-0.0278217 -0.12795,-0.0535605 -0.193562,-0.155326 -0.207845,-0.293393 -0.0156218,-0.155326 -0.0361534,-0.310205 -0.0529654,-0.46553 -0.00252925,-0.0226144 -0.00996821,-0.0346656 -0.033029,-0.0419558 -0.213052,-0.0676946 -0.422979,-0.143274 -0.61669,-0.258281 -0.00892676,-0.00520727 -0.0304997,0.000595117 -0.040468,0.00848042 -0.125421,0.0975992 -0.2498,0.195645 -0.37418,0.294881 -0.14387,0.114411 -0.330736,0.103402 -0.460918,-0.0267803 -0.175708,-0.176303 -0.352161,-0.352607 -0.528464,-0.529059 -0.15116,-0.15116 -0.161128,-0.320619 -0.0288632,-0.487103 0.0949212,-0.119023 0.18895,-0.239237 0.283871,-0.357368 0.0168121,-0.0209779 0.0200852,-0.0361534 0.00639751,-0.0604044 -0.100872,-0.183147 -0.183742,-0.37418 -0.242064,-0.575181 -0.00729018,-0.0251437 -0.0203828,-0.033029 -0.044485,-0.035707 -0.150118,-0.0168121 -0.299195,-0.0367485 -0.449313,-0.0514776 -0.199959,-0.0199364 -0.326422,-0.156367 -0.326422,-0.356326 0,-0.24251 0.00669507,-0.485467 -0.00223169,-0.727531 -0.00624873,-0.17794 0.103997,-0.365699 0.352309,-0.381024 0.133753,-0.00833164 0.267059,-0.0299046 0.40096,-0.0440387 0.0230608,-0.00267803 0.0346656,-0.00892676 0.0409143,-0.0340705 0.0556434,-0.221532 0.140596,-0.43146 0.249354,-0.632461 0.0145804,-0.0273754 0.0120511,-0.0435923 -0.00684385,-0.0666531 -0.0907554,-0.111882 -0.179577,-0.225252 -0.268695,-0.338622 -0.124379,-0.159045 -0.114411,-0.328505 0.0282681,-0.472374 0.181064,-0.182552 0.36317,-0.364807 0.545276,-0.546317 0.116048,-0.115453 0.3108,-0.126462 0.43994,-0.0246974 0.11337,0.0886724 0.22674,0.178386 0.338473,0.268695 0.0199364,0.0157706 0.0336241,0.018895 0.0566849,0.00520727 0.214688,-0.125421 0.441428,-0.222425 0.681855,-0.288037 0.0251437,-0.00684385 0.0361534,-0.0174072 0.0392777,-0.0452289 0.0132414,-0.132711 0.0315412,-0.26453 0.0446338,-0.397241 0.014134,-0.144316 0.0897139,-0.243105 0.220491,-0.297559 0.0371948,-0.0153243 0.0818286,-0.018895 0.122743,-0.018895 0.257239,-0.00163657 0.514925,0 0.772164,-0.00119023 0.198918,-0.00104145 0.314817,0.144911 0.337431,0.268844 0.0172584,0.0949212 0.0230608,0.192074 0.0340705,0.288037 0.00639751,0.0551971 0.0110097,0.110245 0.0199364,0.164847 0.00223169,0.0130926 0.0168121,0.0309461 0.0288632,0.0346656 0.23894,0.0666531 0.464638,0.162765 0.679772,0.284466 0.0104145,0.00580239 0.0336241,0.000595117 0.0440387,-0.00729018 0.106526,-0.0824237 0.21201,-0.166484 0.317049,-0.250396 0.14387,-0.114411 0.332224,-0.103997 0.461365,0.0251437 0.17794,0.178535 0.356326,0.35588 0.53382,0.534861 0.0697775,0.0697775 0.11337,0.153243 0.115453,0.245188z"/>
 </g>
</svg>
