<?xml version="1.0" encoding="UTF-8"?>
<!DOCTYPE svg PUBLIC "-//W3C//DTD SVG 1.1//EN" "http://www.w3.org/Graphics/SVG/1.1/DTD/svg11.dtd">
<!-- Creator: CorelDRAW -->
<svg xmlns="http://www.w3.org/2000/svg" xml:space="preserve" width="38px" height="54px" style="shape-rendering:geometricPrecision; text-rendering:geometricPrecision; image-rendering:optimizeQuality; fill-rule:evenodd; clip-rule:evenodd"
viewBox="0 0 0.453445 0.643472"
 xmlns:xlink="http://www.w3.org/1999/xlink">
 <defs>
  <style type="text/css">
   <![CDATA[
    .str3 {stroke:#686868;stroke-width:0.0250416}
    .str2 {stroke:white;stroke-width:0.0250416}
    .str1 {stroke:#231F20;stroke-width:0.0250416}
    .str0 {stroke:#686868;stroke-width:0.0250416}
    .fil1 {fill:none;fill-rule:nonzero}
    .fil0 {fill:#686868;fill-rule:nonzero}
    .fil6 {fill:lightgrey;fill-rule:nonzero}
    .fil4 {fill:#F9F9F9;fill-rule:nonzero}
    .fil2 {fill:#FF7676;fill-rule:nonzero}
    .fil5 {fill:#FFD550;fill-rule:nonzero}
    .fil3 {fill:white;fill-rule:nonzero}
    .fil7 {fill:url(#id2)}
   ]]>
  </style>
  <clipPath id="id0" style="clip-rule:nonzero">
   <rect x="-17.297" y="-18.2063" width="4.97982" height="4.12402"/>
  </clipPath>
  <pattern id="id1" patternUnits="userSpaceOnUse" patternTransform="matrix(1 0 0 1 -61.8059 27.3125)" x="0" y="0" width="1.46736" height="1.46733" viewBox="-19 5.89795 1.44232 1.44229">
   <polygon id="1" class="fil3" points="-22.6058,2.2922 -13.9519,2.2922 -13.9519,10.946 -22.6058,10.946 "/>
   <path id="12" class="fil3" d="M-17.5577 7.37629c0.0198317,0 0.0360576,-0.0161833 0.0360576,-0.0360576 0,-0.019931 -0.0162259,-0.036015 -0.0360576,-0.036015 -0.019931,0 -0.0360576,0.016084 -0.0360576,0.036015 0,0.0198743 0.0161265,0.0360576 0.0360576,0.0360576z"/>
   <path id="123" class="fil1 str2" d="M-17.5577 7.37629c0.0198317,0 0.0360576,-0.0161833 0.0360576,-0.0360576 0,-0.019931 -0.0162259,-0.036015 -0.0360576,-0.036015 -0.019931,0 -0.0360576,0.016084 -0.0360576,0.036015 0,0.0198743 0.0161265,0.0360576 0.0360576,0.0360576z"/>
   <path id="1234" class="fil3" d="M-18.2789 7.37629c0.0198743,0 0.0360576,-0.0161833 0.0360576,-0.0360576 0,-0.019931 -0.0161833,-0.036015 -0.0360576,-0.036015 -0.0198885,0 -0.0360576,0.016084 -0.0360576,0.036015 0,0.0198743 0.0161691,0.0360576 0.0360576,0.0360576z"/>
   <path id="12345" class="fil1 str2" d="M-18.2789 7.37629c0.0198743,0 0.0360576,-0.0161833 0.0360576,-0.0360576 0,-0.019931 -0.0161833,-0.036015 -0.0360576,-0.036015 -0.0198885,0 -0.0360576,0.016084 -0.0360576,0.036015 0,0.0198743 0.0161691,0.0360576 0.0360576,0.0360576z"/>
   <path id="123456" class="fil3" d="M-17.5577 6.65516c0.0198317,0 0.0360576,-0.0161833 0.0360576,-0.0361144 0,-0.019931 -0.0162259,-0.0360008 -0.0360576,-0.0360008 -0.019931,0 -0.0360576,0.0160698 -0.0360576,0.0360008 0,0.019931 0.0161265,0.0361144 0.0360576,0.0361144z"/>
   <path id="1234567" class="fil1 str2" d="M-17.5577 6.65516c0.0198317,0 0.0360576,-0.0161833 0.0360576,-0.0361144 0,-0.019931 -0.0162259,-0.0360008 -0.0360576,-0.0360008 -0.019931,0 -0.0360576,0.0160698 -0.0360576,0.0360008 0,0.019931 0.0161265,0.0361144 0.0360576,0.0361144z"/>
   <path id="12345678" class="fil3" d="M-18.2789 6.65516c0.0198743,0 0.0360576,-0.0161833 0.0360576,-0.0361144 0,-0.019931 -0.0161833,-0.0360008 -0.0360576,-0.0360008 -0.0198885,0 -0.0360576,0.0160698 -0.0360576,0.0360008 0,0.019931 0.0161691,0.0361144 0.0360576,0.0361144z"/>
   <path id="123456789" class="fil1 str2" d="M-18.2789 6.65516c0.0198743,0 0.0360576,-0.0161833 0.0360576,-0.0361144 0,-0.019931 -0.0161833,-0.0360008 -0.0360576,-0.0360008 -0.0198885,0 -0.0360576,0.0160698 -0.0360576,0.0360008 0,0.019931 0.0161691,0.0361144 0.0360576,0.0361144z"/>
   <path id="12345678910" class="fil3" d="M-18.6394 7.0157c0.0198743,0 0.0360576,-0.0161265 0.0360576,-0.0360576 0,-0.019931 -0.0161833,-0.036015 -0.0360576,-0.036015 -0.019931,0 -0.0360576,0.016084 -0.0360576,0.036015 0,0.019931 0.0161265,0.0360576 0.0360576,0.0360576z"/>
   <path id="1234567891011" class="fil1 str2" d="M-18.6394 7.0157c0.0198743,0 0.0360576,-0.0161265 0.0360576,-0.0360576 0,-0.019931 -0.0161833,-0.036015 -0.0360576,-0.036015 -0.019931,0 -0.0360576,0.016084 -0.0360576,0.036015 0,0.019931 0.0161265,0.0360576 0.0360576,0.0360576z"/>
   <path id="123456789101112" class="fil3" d="M-17.9183 7.0157c0.0198743,0 0.0360576,-0.0161265 0.0360576,-0.0360576 0,-0.019931 -0.0161833,-0.036015 -0.0360576,-0.036015 -0.019931,0 -0.0360576,0.016084 -0.0360576,0.036015 0,0.019931 0.0161265,0.0360576 0.0360576,0.0360576z"/>
   <path id="12345678910111213" class="fil1 str2" d="M-17.9183 7.0157c0.0198743,0 0.0360576,-0.0161265 0.0360576,-0.0360576 0,-0.019931 -0.0161833,-0.036015 -0.0360576,-0.036015 -0.019931,0 -0.0360576,0.016084 -0.0360576,0.036015 0,0.019931 0.0161265,0.0360576 0.0360576,0.0360576z"/>
   <path id="1234567891011121314" class="fil3" d="M-18.6394 6.29452c0.0198743,0 0.0360576,-0.0161123 0.0360576,-0.0360008 0,-0.019931 -0.0161833,-0.0360576 -0.0360576,-0.0360576 -0.019931,0 -0.0360576,0.0161265 -0.0360576,0.0360576 0,0.0198885 0.0161265,0.0360008 0.0360576,0.0360008z"/>
   <path id="123456789101112131415" class="fil1 str2" d="M-18.6394 6.29452c0.0198743,0 0.0360576,-0.0161123 0.0360576,-0.0360008 0,-0.019931 -0.0161833,-0.0360576 -0.0360576,-0.0360576 -0.019931,0 -0.0360576,0.0161265 -0.0360576,0.0360576 0,0.0198885 0.0161265,0.0360008 0.0360576,0.0360008z"/>
   <path id="12345678910111213141516" class="fil3" d="M-17.9183 6.29452c0.0198743,0 0.0360576,-0.0161123 0.0360576,-0.0360008 0,-0.019931 -0.0161833,-0.0360576 -0.0360576,-0.0360576 -0.019931,0 -0.0360576,0.0161265 -0.0360576,0.0360576 0,0.0198885 0.0161265,0.0360008 0.0360576,0.0360008z"/>
   <path id="1234567891011121314151617" class="fil1 str2" d="M-17.9183 6.29452c0.0198743,0 0.0360576,-0.0161123 0.0360576,-0.0360008 0,-0.019931 -0.0161833,-0.0360576 -0.0360576,-0.0360576 -0.019931,0 -0.0360576,0.0161265 -0.0360576,0.0360576 0,0.0198885 0.0161265,0.0360008 0.0360576,0.0360008z"/>
   <path id="123456789101112131415161718" class="fil3" d="M-19 7.37629c0.0198317,0 0.0360576,-0.0161833 0.0360576,-0.0360576 0,-0.019931 -0.0162259,-0.036015 -0.0360576,-0.036015 -0.019931,0 -0.0360576,0.016084 -0.0360576,0.036015 0,0.0198743 0.0161265,0.0360576 0.0360576,0.0360576z"/>
   <path id="12345678910111213141516171819" class="fil1 str2" d="M-19 7.37629c0.0198317,0 0.0360576,-0.0161833 0.0360576,-0.0360576 0,-0.019931 -0.0162259,-0.036015 -0.0360576,-0.036015 -0.019931,0 -0.0360576,0.016084 -0.0360576,0.036015 0,0.0198743 0.0161265,0.0360576 0.0360576,0.0360576z"/>
   <path id="1234567891011121314151617181920" class="fil3" d="M-19 6.65516c0.0198317,0 0.0360576,-0.0161833 0.0360576,-0.0361144 0,-0.019931 -0.0162259,-0.0360008 -0.0360576,-0.0360008 -0.019931,0 -0.0360576,0.0160698 -0.0360576,0.0360008 0,0.019931 0.0161265,0.0361144 0.0360576,0.0361144z"/>
   <path id="123456789101112131415161718192021" class="fil1 str2" d="M-19 6.65516c0.0198317,0 0.0360576,-0.0161833 0.0360576,-0.0361144 0,-0.019931 -0.0162259,-0.0360008 -0.0360576,-0.0360008 -0.019931,0 -0.0360576,0.0160698 -0.0360576,0.0360008 0,0.019931 0.0161265,0.0361144 0.0360576,0.0361144z"/>
   <path id="12345678910111213141516171819202122" class="fil3" d="M-17.5577 5.93398c0.0198317,0 0.0360576,-0.0161691 0.0360576,-0.0360576 0,-0.019931 -0.0162259,-0.0360008 -0.0360576,-0.0360008 -0.019931,0 -0.0360576,0.0160698 -0.0360576,0.0360008 0,0.0198885 0.0161265,0.0360576 0.0360576,0.0360576z"/>
   <path id="1234567891011121314151617181920212223" class="fil1 str2" d="M-17.5577 5.93398c0.0198317,0 0.0360576,-0.0161691 0.0360576,-0.0360576 0,-0.019931 -0.0162259,-0.0360008 -0.0360576,-0.0360008 -0.019931,0 -0.0360576,0.0160698 -0.0360576,0.0360008 0,0.0198885 0.0161265,0.0360576 0.0360576,0.0360576z"/>
   <path id="123456789101112131415161718192021222324" class="fil3" d="M-18.2789 5.93398c0.0198743,0 0.0360576,-0.0161691 0.0360576,-0.0360576 0,-0.019931 -0.0161833,-0.0360008 -0.0360576,-0.0360008 -0.0198885,0 -0.0360576,0.0160698 -0.0360576,0.0360008 0,0.0198885 0.0161691,0.0360576 0.0360576,0.0360576z"/>
   <path id="12345678910111213141516171819202122232425" class="fil1 str2" d="M-18.2789 5.93398c0.0198743,0 0.0360576,-0.0161691 0.0360576,-0.0360576 0,-0.019931 -0.0161833,-0.0360008 -0.0360576,-0.0360008 -0.0198885,0 -0.0360576,0.0160698 -0.0360576,0.0360008 0,0.0198885 0.0161691,0.0360576 0.0360576,0.0360576z"/>
   <path id="1234567891011121314151617181920212223242526" class="fil3" d="M-19 5.93398c0.0198317,0 0.0360576,-0.0161691 0.0360576,-0.0360576 0,-0.019931 -0.0162259,-0.0360008 -0.0360576,-0.0360008 -0.019931,0 -0.0360576,0.0160698 -0.0360576,0.0360008 0,0.0198885 0.0161265,0.0360576 0.0360576,0.0360576z"/>
   <path id="123456789101112131415161718192021222324252627" class="fil1 str2" d="M-19 5.93398c0.0198317,0 0.0360576,-0.0161691 0.0360576,-0.0360576 0,-0.019931 -0.0162259,-0.0360008 -0.0360576,-0.0360008 -0.019931,0 -0.0360576,0.0160698 -0.0360576,0.0360008 0,0.0198885 0.0161265,0.0360576 0.0360576,0.0360576z"/>
  </pattern>
  <linearGradient id="id2" gradientUnits="userSpaceOnUse" x1="6.04747" y1="7.32507" x2="6.04747" y2="-22.7072">
   <stop offset="0" style="stop-color:#EF5053"/>
   <stop offset="0.0117647" style="stop-color:#EF5053"/>
   <stop offset="1" style="stop-color:#F8D322"/>
  </linearGradient>
 </defs>
<symbol id="Fm7-53743-0" viewBox="7.8687 -18.1481 6.48542 0.85712">
 <path class="fil0" d="M9.20817 -17.8026c0,-0.047613 0.0127479,-0.0848631 0.0383289,-0.111778 0.0255668,-0.0269154 0.0585581,-0.0404015 0.0990306,-0.0404015 0.0264328,0 0.0503386,0.00634557 0.0715757,0.0189657 0.0212371,0.0126911 0.037463,0.0303224 0.0486067,0.0529507 0.011158,0.0225715 0.0166944,0.0482802 0.0166944,0.0769276 0,0.0291158 -0.00580612,0.0551511 -0.0175603,0.078049 -0.0117542,0.022969 -0.0283776,0.0403305 -0.0498844,0.0521557 -0.0215636,0.011811 -0.0447313,0.0176881 -0.0696451,0.0176881 -0.0270432,0 -0.0511478,-0.00647333 -0.0723707,-0.0195619 -0.021308,-0.0130176 -0.037392,-0.0308477 -0.0483512,-0.0534192 -0.010945,-0.0225005 -0.0164247,-0.0464064 -0.0164247,-0.0715757zm0.0391239 0.000596228c0,0.0345954 0.00928412,0.0617663 0.0278523,0.081669 0.018625,0.0199026 0.0419347,0.0298398 0.0699716,0.0298398 0.0285763,0 0.0520847,-0.0100081 0.070511,-0.0301095 0.0184405,-0.0201014 0.0277104,-0.0486067 0.0277104,-0.0855303 0,-0.0233097 -0.00400324,-0.0436808 -0.011882,-0.0610991 -0.00787872,-0.0174326 -0.0194342,-0.0309187 -0.0345812,-0.0405293 -0.0152322,-0.00955384 -0.0322531,-0.0143662 -0.0511478,-0.0143662 -0.0269154,0 -0.0500121,0.00921314 -0.0693753,0.0277104 -0.0193774,0.0184405 -0.029059,0.0492882 -0.029059,0.0924153zm0.334739 0.139091l0 -0.286785 0.127138 0c0.0255668,0 0.045001,0.00259785 0.0582883,0.00773676 0.0132874,0.00515311 0.0239059,0.0142243 0.0319266,0.0272419 0.00793551,0.0130886 0.011882,0.0275116 0.011882,0.0432691 0,0.0203711 -0.00654431,0.037463 -0.0197607,0.0514175 -0.0131596,0.0139546 -0.0335307,0.0228412 -0.0610424,0.0266457 0.0100933,0.00481241 0.0177023,0.00955384 0.0229122,0.0142953 0.011087,0.0101501 0.0215636,0.022898 0.0315149,0.038116l0.0498844 0.0780632 -0.047755 0 -0.0379172 -0.0596937c-0.011087,-0.0171628 -0.0202433,-0.0303792 -0.0274549,-0.0394646 -0.00714054,-0.00914216 -0.0135429,-0.0155587 -0.0192212,-0.0191645 -0.00567836,-0.00367674 -0.0114135,-0.00620361 -0.0172906,-0.00767998 -0.00434394,-0.00086595 -0.0113567,-0.00133441 -0.0211661,-0.00133441l-0.0440073 0 0 0.127337 -0.0379314 0zm0.0379314 -0.160186l0.081598 0c0.0172906,0 0.0309045,-0.00180288 0.040657,-0.00540864 0.00982356,-0.00360576 0.0172338,-0.0093551 0.0223018,-0.0172338 0.00508213,-0.00787872 0.007609,-0.0164247 0.007609,-0.0257088 0,-0.0135429 -0.00486919,-0.0247009 -0.0147495,-0.0334455 -0.00980936,-0.00874467 -0.0253681,-0.0130886 -0.0466761,-0.0130886l-0.0907402 0 0 0.0948854zm0.43509 0.0476698l0 -0.0335875 0.12146 -0.000198743 0 0.10637c-0.018625,0.0148915 -0.0378605,0.0260495 -0.0576921,0.0335875 -0.0198317,0.00748124 -0.0401886,0.0112148 -0.0610282,0.0112148 -0.0281789,0 -0.0538166,-0.00600486 -0.0767856,-0.0180856 -0.0230399,-0.0120239 -0.0404015,-0.0295133 -0.0521557,-0.0522835 -0.0117542,-0.0228412 -0.0176313,-0.0483512 -0.0176313,-0.0765301 0,-0.0279091 0.0058771,-0.0539444 0.0175745,-0.07812 0.0116122,-0.0242324 0.0284344,-0.0422044 0.0503386,-0.0539586 0.0219043,-0.0116832 0.0471446,-0.0175603 0.0757209,-0.0175603 0.0206976,0 0.0394646,0.00335023 0.0562299,0.0100933 0.0167512,0.00667207 0.0299108,0.0160272 0.0393936,0.0280369 0.00953964,0.0120239 0.0167512,0.0276394 0.0217623,0.0469458l-0.0342547 0.00941188c-0.00434394,-0.0146218 -0.0096816,-0.0261063 -0.0160272,-0.0344534 -0.00640235,-0.00834719 -0.0155587,-0.0150193 -0.0274407,-0.0200304 -0.0118252,-0.00501115 -0.0250416,-0.00755222 -0.0394646,-0.00755222 -0.0173616,0 -0.0323808,0.00268302 -0.045001,0.0079497 -0.0126911,0.00528087 -0.0228412,0.0122227 -0.0306489,0.0208396 -0.00775096,0.00860271 -0.0137558,0.0180288 -0.0180998,0.0283776 -0.0072683,0.0176881 -0.010945,0.0369235 -0.010945,0.0576921 0,0.0255668 0.00440073,0.0469316 0.0132164,0.0641654 0.00881565,0.0172196 0.0216345,0.0299817 0.0384567,0.0383289 0.0168363,0.00834719 0.0346664,0.0125492 0.0535611,0.0125492 0.0164956,0 0.0325086,-0.00320827 0.0481383,-0.00955384 0.0157007,-0.00627459 0.0275116,-0.0130176 0.0355891,-0.0202292l0 -0.0534192 -0.0842668 0zm0.195989 0.112517l0.110174 -0.286785 0.0408558 0 0.117386 0.286785 -0.0432691 0 -0.0334455 -0.0868647 -0.119927 0 -0.0314439 0.0868647 -0.0403305 0zm0.0827337 -0.117783l0.0972845 0 -0.0299817 -0.0793976c-0.00908537,-0.0241046 -0.0158994,-0.0439363 -0.0203001,-0.059495 -0.00367674,0.0184263 -0.00881565,0.0366538 -0.0154877,0.0548245l-0.0315149 0.0840681zm0.26569 0.117783l0 -0.286785 0.0389251 0 0.150633 0.225161 0 -0.225161 0.0363983 0 0 0.286785 -0.0389251 0 -0.150647 -0.22536 0 0.22536 -0.0363841 0zm0.34628 0l0 -0.286785 0.0379314 0 0 0.286785 -0.0379314 0zm0.132008 0l0 -0.0351916 0.146913 -0.183695c0.0104766,-0.0130886 0.0203569,-0.0244311 0.0297688,-0.0340418l-0.160045 0 0 -0.0338572 0.205386 0 0 0.0338572 -0.160981 0.198913 -0.0174326 0.0201582 0.183155 0 0 0.0338572 -0.226765 0zm0.318513 0l0 -0.286785 0.207331 0 0 0.0338572 -0.1694 0 0 0.0878016 0.158653 0 0 0.0336443 -0.158653 0 0 0.0976252 0.176072 0 0 0.0338572 -0.214003 0zm0.465015 -0.0921456l0.0357879 -0.00313729c0.00167512,0.0143521 0.00560738,0.0261063 0.0118252,0.0353194 0.00620361,0.00921314 0.0158142,0.0166234 0.0288461,0.0223018 0.0130176,0.00567836 0.0277104,0.00847495 0.0439931,0.00847495 0.014494,0 0.0272561,-0.00212938 0.0383289,-0.00640235 0.011087,-0.00434394 0.0193632,-0.010221 0.0247718,-0.0177023 0.00540864,-0.00753802 0.00814844,-0.0156865 0.00814844,-0.0245589 0,-0.00901439 -0.00259785,-0.0168363 -0.00787872,-0.0235794 -0.00520989,-0.00674305 -0.0138126,-0.0123504 -0.0257656,-0.0168931 -0.00775096,-0.00300953 -0.0247151,-0.00767998 -0.051091,-0.0140255 -0.026305,-0.00634557 -0.0448022,-0.0122794 -0.0553498,-0.0178868 -0.0136848,-0.00715473 -0.0239059,-0.0160981 -0.0306489,-0.0267167 -0.00667207,-0.0106185 -0.0100223,-0.0225005 -0.0100223,-0.0357169 0,-0.014423 0.00407422,-0.0279801 0.0122936,-0.0405293 0.00820523,-0.0126202 0.0202292,-0.022174 0.0359866,-0.0287183 0.0158284,-0.00647333 0.0333178,-0.00975258 0.0526242,-0.00975258 0.0212938,0 0.0399898,0.00340702 0.0562867,0.010292 0.0162259,0.00681403 0.0287041,0.0168931 0.037463,0.0301805 0.00867369,0.0132874 0.0134151,0.0283776 0.0140823,0.0451997l-0.0363841 0.00273981c-0.00201582,-0.0180998 -0.00861691,-0.0318556 -0.0199026,-0.0410687 -0.0112857,-0.00928412 -0.0279091,-0.0138836 -0.0499412,-0.0138836 -0.0229832,0 -0.0396633,0.00420199 -0.0502251,0.0126202 -0.0104766,0.00841817 -0.0157574,0.0185682 -0.0157574,0.0303792 0,0.0103488 0.00374772,0.018838 0.011158,0.025439 0.00733928,0.00668627 0.026376,0.0134861 0.0572237,0.0204421 0.0308477,0.00699858 0.0520138,0.0130744 0.0634982,0.0182843 0.0166944,0.00775096 0.0290448,0.0175035 0.0369945,0.0292577 0.0079497,0.011811 0.011882,0.025439 0.011882,0.0407848 0,0.0153032 -0.00434394,0.0296552 -0.0130886,0.0431413 -0.00874467,0.0134861 -0.0212938,0.0239769 -0.0376617,0.0315149 -0.0163537,0.00748124 -0.0347799,0.0112148 -0.055222,0.0112148 -0.0259643,0 -0.0477408,-0.00373352 -0.0652301,-0.0113425 -0.0175603,-0.00755222 -0.0313161,-0.0188947 -0.0413384,-0.0341269 -0.00993713,-0.0151612 -0.015218,-0.0323808 -0.0156865,-0.0515453zm0.534788 -0.00841817l0.0379882 0.00962482c-0.0079497,0.0311174 -0.0223018,0.0548813 -0.0429284,0.071306 -0.0206976,0.0163679 -0.0459379,0.0245021 -0.0758629,0.0245021 -0.0309045,0 -0.056017,-0.00627459 -0.0753802,-0.0188238 -0.0193632,-0.0126202 -0.0341269,-0.0308477 -0.044206,-0.0546826 -0.0100791,-0.0239059 -0.0151612,-0.0495437 -0.0151612,-0.0769276 0,-0.029854 0.00567836,-0.0558892 0.0171061,-0.07812 0.0114135,-0.022245 0.0276394,-0.0391381 0.0487345,-0.0506793 0.0210383,-0.0115555 0.044206,-0.0173048 0.0695173,-0.0173048 0.0287041,0 0.0528087,0.00728249 0.0723849,0.0219043 0.0195619,0.0146218 0.0331758,0.0351206 0.0408558,0.0616386l-0.037321 0.00881565c-0.00668627,-0.0209106 -0.0162969,-0.0360576 -0.028988,-0.0456114 -0.0126202,-0.00955384 -0.0285054,-0.0142953 -0.0477408,-0.0142953 -0.022032,0 -0.0403873,0.00528087 -0.055222,0.0158284 -0.0148205,0.0106185 -0.0252403,0.0247718 -0.0311742,0.0426019 -0.00601906,0.0177591 -0.00901439,0.0361286 -0.00901439,0.0550233 0,0.0244311 0.00353478,0.0456682 0.0106185,0.0638957 0.00714054,0.0181707 0.0181566,0.0317846 0.0331758,0.040799 0.0150335,0.00901439 0.0312594,0.0134861 0.0487487,0.0134861 0.0212371,0 0.0391949,-0.00613263 0.0539586,-0.0183553 0.0147495,-0.0122936 0.0247009,-0.0305212 0.0299108,-0.0546258zm0.135954 0.100564l0 -0.286785 0.0379882 0 0 0.117783 0.149043 0 0 -0.117783 0.0379882 0 0 0.286785 -0.0379882 0 0 -0.135145 -0.149043 0 0 0.135145 -0.0379882 0zm0.339069 0l0 -0.286785 0.207331 0 0 0.0338572 -0.1694 0 0 0.0878016 0.158653 0 0 0.0336443 -0.158653 0 0 0.0976252 0.176072 0 0 0.0338572 -0.214003 0zm0.316512 0l0 -0.286785 0.0987608 0c0.0223018,0 0.0393226,0.00140539 0.0510768,0.00413101 0.0164247,0.00374772 0.0304502,0.0106185 0.0420624,0.0204989 0.0150902,0.0128331 0.026447,0.0291158 0.0339282,0.0490184 0.00753802,0.0199026 0.0112857,0.0426019 0.0112857,0.0681687 0,0.0217765 -0.00254107,0.0410687 -0.00767998,0.0578909 -0.00508213,0.0168363 -0.0115555,0.0307909 -0.0195761,0.0418069 -0.00793551,0.011016 -0.0166234,0.0196897 -0.0261063,0.0259785 -0.00941188,0.00633137 -0.0208254,0.0111438 -0.0341837,0.014423 -0.0134151,0.00326506 -0.0287751,0.00486919 -0.0460799,0.00486919l-0.103488 0zm0.0379172 -0.0338572l0.0612411 0c0.0188947,0 0.0337862,-0.0017319 0.0445325,-0.00526668 0.0107463,-0.00354897 0.0192922,-0.00848915 0.0257088,-0.0148915 0.00901439,-0.00895761 0.0160272,-0.0211093 0.0210383,-0.0362563 0.00499696,-0.0152322 0.00753802,-0.0335875 0.00753802,-0.055293 0,-0.0299817 -0.00494017,-0.0530217 -0.0147495,-0.0691056 -0.00988034,-0.0161691 -0.0218333,-0.0269154 -0.0359298,-0.032395 -0.0101501,-0.00393226 -0.0265747,-0.00586291 -0.0490752,-0.00586291l-0.0603042 0 0 0.219071zm0.489659 -0.252928l0.0379882 0 0 0.165723c0,0.0287893 -0.00326506,0.0516873 -0.00980936,0.0686514 -0.00654431,0.0169499 -0.0182985,0.0307057 -0.0353336,0.0413243 -0.0170209,0.0106895 -0.0393226,0.0159562 -0.066962,0.0159562 -0.0268444,0 -0.0488765,-0.00459947 -0.0659115,-0.0138836 -0.0170919,-0.00921314 -0.0293145,-0.0226425 -0.0365828,-0.0402028 -0.00735347,-0.0175603 -0.0109592,-0.0414662 -0.0109592,-0.0718454l0 -0.165723 0.0379314 0 0 0.165524c0,0.0249138 0.00232813,0.0432691 0.00694179,0.0550233 0.00461367,0.0118252 0.0126202,0.0208964 0.0238349,0.0273129 0.0112857,0.00640235 0.0251125,0.00961062 0.0413952,0.00961062 0.0279233,0 0.0478118,-0.00634557 0.0597079,-0.0190225 0.011811,-0.0126202 0.0177591,-0.0369377 0.0177591,-0.0729243l0 -0.165524zm0.149639 0.286785l0 -0.286785 0.0379882 0 0 0.252928 0.141235 0 0 0.0338572 -0.179223 0zm0.275301 0l0 -0.286785 0.207331 0 0 0.0338572 -0.1694 0 0 0.0878016 0.158653 0 0 0.0336443 -0.158653 0 0 0.0976252 0.176072 0 0 0.0338572 -0.214003 0z"/>
 <polygon class="fil1 str0" points="7.99966,-17.4219 7.88122,-17.4219 7.88122,-18.052 8.51128,-18.052 8.51128,-17.9335 7.99966,-17.9335 "/>
 <line class="fil1 str0" x1="8.00353" y1="-17.966" x2="8.00353" y2= "-18.1481" />
 <line class="fil1 str0" x1="8.39263" y1="-17.966" x2="8.39263" y2= "-18.1481" />
 <polygon class="fil1 str0" points="8.62971,-17.3035 7.99966,-17.3035 7.99966,-17.9335 8.62971,-17.9335 "/>
</symbol>
<symbol id="Fm18-53723-0" viewBox="-4.83343 -5.81025 4.40619 1.01817">
 <polygon class="fil2" points="-4.79581,-5.77269 -0.464802,-5.77269 -0.464802,-4.82959 -4.79581,-4.82959 "/>
 <path class="fil3" d="M-0.42724 -5.81025l-4.40619 0 0 1.01817 4.40619 0 0 -1.01817zm-0.0751247 0.943048l-4.25594 0 0 -0.867923 4.25594 0 0 0.867923z"/>
</symbol>
<symbol id="Fm14-53719-0" viewBox="-18.9904 -0.0858852 8.52672 0.0250416">
 <line class="fil1 str1" x1="-10.4637" y1="-0.0733644" x2="-18.9904" y2= "-0.0733644" />
</symbol>
<symbol id="Fm0-54062-0" viewBox="-16.9111 -18.1503 3.848 3.84794">
 <path class="fil4" d="M-13.0631 -16.2263c0,1.06261 -0.861421,1.92397 -1.92397,1.92397 -1.06265,0 -1.92403,-0.861364 -1.92403,-1.92397 0,-1.06259 0.861379,-1.92397 1.92403,-1.92397 1.06255,0 1.92397,0.861379 1.92397,1.92397z"/>
</symbol>
<symbol id="Fm31-53738-0" viewBox="12.7854 -9.87689 4.40618 1.01817">
 <polygon class="fil5" points="12.823,-9.83933 17.154,-9.83933 17.154,-8.89623 12.823,-8.89623 "/>
 <path class="fil3" d="M17.1916 -9.87689l-4.40618 0 0 1.01817 4.40618 0 0 -1.01817zm-0.0751105 0.943104l-4.25594 0 0 -0.867937 4.25594 0 0 0.867937z"/>
</symbol>
<symbol id="Fm0-53714-0" viewBox="-19 -22.7439 50.0949 30.069">
 <polygon class="fil6" points="-19,-22.7439 31.0949,-22.7439 31.0949,7.32508 -19,7.32508 "/>
</symbol>
<symbol id="Fm28-53734-0" viewBox="12.7705 -5.81025 4.40618 1.01817">
 <polygon class="fil2" points="12.808,-5.77269 17.1391,-5.77269 17.1391,-4.82959 12.808,-4.82959 "/>
 <path class="fil3" d="M17.1767 -5.81025l-4.40618 0 0 1.01817 4.40618 0 0 -1.01817zm-0.0751247 0.943048l-4.25594 0 0 -0.867923 4.25594 0 0 0.867923z"/>
</symbol>
<symbol id="Fm10-49378-0" viewBox="-17.297 -18.2063 4.97982 4.12402">
 <g style="clip-path:url(#id0)">
  <image transform="matrix(1 0 0 1 1.703 -21.4225)" x="-19" y="3.21506" width="4.98121" height="4.12519" xlink:href="shdul-new-songs_Images\shdul-new-songs_ImgID1.png"/>
 </g>
</symbol>
<symbol id="Fm5-53741-0" viewBox="-19.0128 -21.0846 8.55206 28.4374">
 <polygon class="fil1 str1" points="-10.4733,7.34024 -19.0003,7.34024 -19.0003,-21.0721 -10.4733,-21.0721 "/>
</symbol>
<symbol id="Fm23-53729-0" viewBox="3.97624 -7.84665 4.40618 1.01817">
 <polygon class="fil2" points="4.0138,-7.80909 8.34482,-7.80909 8.34482,-6.86599 4.0138,-6.86599 "/>
 <path class="fil3" d="M8.38242 -7.84665l-4.40618 0 0 1.01817 4.40618 0 0 -1.01817zm-0.0751105 0.943104l-4.25596 0 0 -0.867937 4.25596 0 0 0.867937z"/>
</symbol>
<symbol id="Fm12-53717-0" viewBox="-19.0125 -10.2963 8.53926 8.25484">
 <polyline class="fil1 str1" points="-10.4733,-2.05395 -19,-2.05395 -19,-10.2837 -10.4733,-10.2837 "/>
 <line class="fil1 str1" x1="-19" y1="-4.1114" x2="-10.4733" y2= "-4.1114" />
 <line class="fil1 str1" x1="-19" y1="-6.16884" x2="-10.4733" y2= "-6.16884" />
 <line class="fil1 str1" x1="-19" y1="-8.22629" x2="-10.4733" y2= "-8.22629" />
</symbol>
<symbol id="Fm30-53737-0" viewBox="3.97624 -9.87689 4.40618 1.01817">
 <polygon class="fil5" points="4.0138,-9.83933 8.34482,-9.83933 8.34482,-8.89623 4.0138,-8.89623 "/>
 <path class="fil3" d="M8.38242 -9.87689l-4.40618 0 0 1.01817 4.40618 0 0 -1.01817zm-0.0751105 0.943104l-4.25596 0 0 -0.867937 4.25596 0 0 0.867937z"/>
</symbol>
<symbol id="Fm9-53745-0" viewBox="4.10092 -18.8319 24.4304 2.10633">
 <line class="fil1 str1" x1="28.5313" y1="-16.7381" x2="4.11345" y2= "-16.7381" />
 <line class="fil1 str1" x1="16.3224" y1="-18.8319" x2="16.3224" y2= "-16.738" />
 <line class="fil1 str1" x1="4.11345" y1="-18.8319" x2="4.11345" y2= "-16.738" />
</symbol>
<symbol id="Fm27-53733-0" viewBox="12.7705 -7.84665 4.40618 1.01817">
 <polygon class="fil2" points="12.808,-7.80909 17.1391,-7.80909 17.1391,-6.86604 12.808,-6.86604 "/>
 <path class="fil3" d="M17.1767 -7.84665l-4.40618 0 0 1.01817 4.40618 0 0 -1.01817zm-0.0751247 0.943104l-4.25594 0 0 -0.867937 4.25594 0 0 0.867937z"/>
</symbol>
<symbol id="Fm22-53728-0" viewBox="3.97624 -5.81025 4.40618 1.01817">
 <polygon class="fil2" points="4.0138,-5.77269 8.34482,-5.77269 8.34482,-4.82959 4.0138,-4.82959 "/>
 <path class="fil3" d="M8.38242 -5.81025l-4.40618 0 0 1.01817 4.40618 0 0 -1.01817zm-0.0751105 0.943048l-4.25596 0 0 -0.867923 4.25596 0 0 0.867923z"/>
</symbol>
<symbol id="Fm17-53722-0" viewBox="-0.433855 -2.75948 4.40619 1.01817">
 <polygon class="fil0" points="3.97234,-1.74131 -0.433855,-1.74131 -0.433855,-2.75948 3.97234,-2.75948 "/>
</symbol>
<symbol id="Fm13-53718-0" viewBox="-19.015 1.9391 8.52672 0.0250416">
 <line class="fil1 str1" x1="-10.4883" y1="1.95162" x2="-19.015" y2= "1.95162" />
</symbol>
<symbol id="Fm26-53732-0" viewBox="17.1957 -7.84665 4.40619 1.01817">
 <polygon class="fil2" points="17.2333,-7.80909 21.5644,-7.80909 21.5644,-6.86599 17.2333,-6.86599 "/>
 <path class="fil3" d="M21.6019 -7.84665l-4.40619 0 0 1.01817 4.40619 0 0 -1.01817zm-0.0751247 0.943104l-4.25594 0 0 -0.867937 4.25594 0 0 0.867937z"/>
</symbol>
<symbol id="Fm15-53720-0" viewBox="4.71011 -14.9672 0.566814 0.591841">
 <line class="fil1 str0" x1="4.71011" y1="-14.3879" x2="5.27693" y2= "-14.3879" />
 <line class="fil1 str0" x1="4.71011" y1="-14.5828" x2="5.27693" y2= "-14.5828" />
 <line class="fil1 str0" x1="4.71011" y1="-14.7778" x2="5.27693" y2= "-14.7778" />
 <line class="fil1 str0" x1="4.71011" y1="-14.9547" x2="5.27693" y2= "-14.9547" />
</symbol>
<symbol id="Fm8-53744-0" viewBox="20.0219 -18.1461 5.71244 0.72223">
 <path class="fil0" d="M21.3717 -17.663l0 -0.286785 0.0571527 0 0.0678422 0.203058c0.00628878,0.0188947 0.0108883,0.033048 0.013699,0.0424599 0.00326506,-0.0104198 0.00834719,-0.0257656 0.015289,-0.0460089l0.0686372 -0.199509 0.0510768 0 0 0.286785 -0.0365828 0 0 -0.240053 -0.0833299 0.240053 -0.0342547 0 -0.0829324 -0.244127 0 0.244127 -0.036597 0zm0.353506 0l0.110174 -0.286785 0.0408558 0 0.117386 0.286785 -0.0432691 0 -0.0334455 -0.0868647 -0.119927 0 -0.0314439 0.0868647 -0.0403305 0zm0.0827337 -0.117783l0.0972845 0 -0.0299817 -0.0793976c-0.00908537,-0.0241046 -0.0158994,-0.0439363 -0.0203001,-0.059495 -0.00367674,0.0184263 -0.00881565,0.0366538 -0.0154877,0.0548245l-0.0315149 0.0840681zm0.26569 0.117783l0 -0.286785 0.0389251 0 0.150633 0.225161 0 -0.225161 0.0363983 0 0 0.286785 -0.0389251 0 -0.150647 -0.22536 0 0.22536 -0.0363841 0zm0.308292 0l0.110174 -0.286785 0.0408558 0 0.117386 0.286785 -0.0432691 0 -0.0334455 -0.0868647 -0.119927 0 -0.0314439 0.0868647 -0.0403305 0zm0.0827337 -0.117783l0.0972845 0 -0.0299817 -0.0793976c-0.00908537,-0.0241046 -0.0158994,-0.0439363 -0.0203001,-0.059495 -0.00367674,0.0184263 -0.00881565,0.0366538 -0.0154877,0.0548245l-0.0315149 0.0840681zm0.400296 0.00526668l0 -0.0335875 0.12146 -0.000198743 0 0.10637c-0.018625,0.0148915 -0.0378605,0.0260495 -0.0576921,0.0335875 -0.0198317,0.00748124 -0.0401886,0.0112148 -0.0610282,0.0112148 -0.0281789,0 -0.0538166,-0.00600486 -0.0767856,-0.0180856 -0.0230399,-0.0120239 -0.0404015,-0.0295133 -0.0521557,-0.0522835 -0.0117542,-0.0228412 -0.0176313,-0.0483512 -0.0176313,-0.0765301 0,-0.0279091 0.0058771,-0.0539444 0.0175745,-0.07812 0.0116122,-0.0242324 0.0284344,-0.0422044 0.0503386,-0.0539586 0.0219043,-0.0116832 0.0471446,-0.0175603 0.0757209,-0.0175603 0.0206976,0 0.0394646,0.00335023 0.0562299,0.0100933 0.0167512,0.00667207 0.0299108,0.0160272 0.0393936,0.0280369 0.00953964,0.0120239 0.0167512,0.0276394 0.0217623,0.0469458l-0.0342547 0.00941188c-0.00434394,-0.0146218 -0.0096816,-0.0261063 -0.0160272,-0.0344534 -0.00640235,-0.00834719 -0.0155587,-0.0150193 -0.0274407,-0.0200304 -0.0118252,-0.00501115 -0.0250416,-0.00755222 -0.0394646,-0.00755222 -0.0173616,0 -0.0323808,0.00268302 -0.045001,0.0079497 -0.0126911,0.00528087 -0.0228412,0.0122227 -0.0306489,0.0208396 -0.00775096,0.00860271 -0.0137558,0.0180288 -0.0180998,0.0283776 -0.0072683,0.0176881 -0.010945,0.0369235 -0.010945,0.0576921 0,0.0255668 0.00440073,0.0469316 0.0132164,0.0641654 0.00881565,0.0172196 0.0216345,0.0299817 0.0384567,0.0383289 0.0168363,0.00834719 0.0346664,0.0125492 0.0535611,0.0125492 0.0164956,0 0.0325086,-0.00320827 0.0481383,-0.00955384 0.0157007,-0.00627459 0.0275116,-0.0130176 0.0355891,-0.0202292l0 -0.0534192 -0.0842668 0zm0.228298 0.112517l0 -0.286785 0.207331 0 0 0.0338572 -0.1694 0 0 0.0878016 0.158653 0 0 0.0336443 -0.158653 0 0 0.0976252 0.176072 0 0 0.0338572 -0.214003 0zm0.478501 0l0 -0.286785 0.127138 0c0.0255668,0 0.045001,0.00259785 0.0582883,0.00773676 0.0132874,0.00515311 0.0239059,0.0142243 0.0319266,0.0272419 0.00793551,0.0130886 0.011882,0.0275116 0.011882,0.0432691 0,0.0203711 -0.00654431,0.037463 -0.0197607,0.0514175 -0.0131596,0.0139546 -0.0335307,0.0228412 -0.0610424,0.0266457 0.0100933,0.00481241 0.0177023,0.00955384 0.0229122,0.0142953 0.011087,0.0101501 0.0215636,0.022898 0.0315149,0.038116l0.0498844 0.0780632 -0.047755 0 -0.0379172 -0.0596937c-0.011087,-0.0171628 -0.0202433,-0.0303792 -0.0274549,-0.0394646 -0.00714054,-0.00914216 -0.0135429,-0.0155587 -0.0192212,-0.0191645 -0.00567836,-0.00367674 -0.0114135,-0.00620361 -0.0172906,-0.00767998 -0.00434394,-0.00086595 -0.0113567,-0.00133441 -0.0211661,-0.00133441l-0.0440073 0 0 0.127337 -0.0379314 0zm0.0379314 -0.160186l0.081598 0c0.0172906,0 0.0309045,-0.00180288 0.040657,-0.00540864 0.00982356,-0.00360576 0.0172338,-0.0093551 0.0223018,-0.0172338 0.00508213,-0.00787872 0.007609,-0.0164247 0.007609,-0.0257088 0,-0.0135429 -0.00486919,-0.0247009 -0.0147495,-0.0334455 -0.00980936,-0.00874467 -0.0253681,-0.0130886 -0.0466761,-0.0130886l-0.0907402 0 0 0.0948854zm0.301677 0.160186l0 -0.286785 0.207331 0 0 0.0338572 -0.1694 0 0 0.0878016 0.158653 0 0 0.0336443 -0.158653 0 0 0.0976252 0.176072 0 0 0.0338572 -0.214003 0zm0.316512 0l0 -0.286785 0.108173 0c0.0190225,0 0.0335875,0.000936929 0.0435956,0.00273981 0.0140965,0.00232813 0.0259075,0.00679983 0.0354613,0.0134151 0.00948286,0.00654431 0.0171628,0.0158284 0.022969,0.0276394 0.00580612,0.0118962 0.00867369,0.0249138 0.00867369,0.0391381 0,0.0243744 -0.00773676,0.045072 -0.0232245,0.0619651 -0.0155587,0.0168221 -0.0436098,0.0252971 -0.0841391,0.0252971l-0.0735915 0 0 0.116591 -0.0379172 0zm0.0379172 -0.150434l0.0741878 0c0.0245021,0 0.0419347,-0.00454269 0.0522267,-0.013699 0.0102778,-0.00914216 0.0154167,-0.0219611 0.0154167,-0.0385277 0,-0.0120097 -0.00300953,-0.0223018 -0.00908537,-0.0308477 -0.00607584,-0.00854593 -0.0140113,-0.0141533 -0.0239627,-0.0168931 -0.00641654,-0.00166092 -0.0181707,-0.00252687 -0.0353904,-0.00252687l-0.0733928 0 0 0.102494zm0.267834 0.0107463c0,-0.047613 0.0127479,-0.0848631 0.0383289,-0.111778 0.0255668,-0.0269154 0.0585581,-0.0404015 0.0990306,-0.0404015 0.0264328,0 0.0503386,0.00634557 0.0715757,0.0189657 0.0212371,0.0126911 0.037463,0.0303224 0.0486067,0.0529507 0.011158,0.0225715 0.0166944,0.0482802 0.0166944,0.0769276 0,0.0291158 -0.00580612,0.0551511 -0.0175603,0.078049 -0.0117542,0.022969 -0.0283776,0.0403305 -0.0498844,0.0521557 -0.0215636,0.011811 -0.0447313,0.0176881 -0.0696451,0.0176881 -0.0270432,0 -0.0511478,-0.00647333 -0.0723707,-0.0195619 -0.021308,-0.0130176 -0.037392,-0.0308477 -0.0483512,-0.0534192 -0.010945,-0.0225005 -0.0164247,-0.0464064 -0.0164247,-0.0715757zm0.0391239 0.000596228c0,0.0345954 0.00928412,0.0617663 0.0278523,0.081669 0.018625,0.0199026 0.0419347,0.0298398 0.0699716,0.0298398 0.0285763,0 0.0520847,-0.0100081 0.070511,-0.0301095 0.0184405,-0.0201014 0.0277104,-0.0486067 0.0277104,-0.0855303 0,-0.0233097 -0.00400324,-0.0436808 -0.011882,-0.0610991 -0.00787872,-0.0174326 -0.0194342,-0.0309187 -0.0345812,-0.0405293 -0.0152322,-0.00955384 -0.0322531,-0.0143662 -0.0511478,-0.0143662 -0.0269154,0 -0.0500121,0.00921314 -0.0693753,0.0277104 -0.0193774,0.0184405 -0.029059,0.0492882 -0.029059,0.0924153zm0.321253 0.0469458l0.0357879 -0.00313729c0.00167512,0.0143521 0.00560738,0.0261063 0.0118252,0.0353194 0.00620361,0.00921314 0.0158142,0.0166234 0.0288461,0.0223018 0.0130176,0.00567836 0.0277104,0.00847495 0.0439931,0.00847495 0.014494,0 0.0272561,-0.00212938 0.0383289,-0.00640235 0.011087,-0.00434394 0.0193632,-0.010221 0.0247718,-0.0177023 0.00540864,-0.00753802 0.00814844,-0.0156865 0.00814844,-0.0245589 0,-0.00901439 -0.00259785,-0.0168363 -0.00787872,-0.0235794 -0.00520989,-0.00674305 -0.0138126,-0.0123504 -0.0257656,-0.0168931 -0.00775096,-0.00300953 -0.0247151,-0.00767998 -0.051091,-0.0140255 -0.026305,-0.00634557 -0.0448022,-0.0122794 -0.0553498,-0.0178868 -0.0136848,-0.00715473 -0.0239059,-0.0160981 -0.0306489,-0.0267167 -0.00667207,-0.0106185 -0.0100223,-0.0225005 -0.0100223,-0.0357169 0,-0.014423 0.00407422,-0.0279801 0.0122936,-0.0405293 0.00820523,-0.0126202 0.0202292,-0.022174 0.0359866,-0.0287183 0.0158284,-0.00647333 0.0333178,-0.00975258 0.0526242,-0.00975258 0.0212938,0 0.0399898,0.00340702 0.0562867,0.010292 0.0162259,0.00681403 0.0287041,0.0168931 0.037463,0.0301805 0.00867369,0.0132874 0.0134151,0.0283776 0.0140823,0.0451997l-0.0363841 0.00273981c-0.00201582,-0.0180998 -0.00861691,-0.0318556 -0.0199026,-0.0410687 -0.0112857,-0.00928412 -0.0279091,-0.0138836 -0.0499412,-0.0138836 -0.0229832,0 -0.0396633,0.00420199 -0.0502251,0.0126202 -0.0104766,0.00841817 -0.0157574,0.0185682 -0.0157574,0.0303792 0,0.0103488 0.00374772,0.018838 0.011158,0.025439 0.00733928,0.00668627 0.026376,0.0134861 0.0572237,0.0204421 0.0308477,0.00699858 0.0520138,0.0130744 0.0634982,0.0182843 0.0166944,0.00775096 0.0290448,0.0175035 0.0369945,0.0292577 0.0079497,0.011811 0.011882,0.025439 0.011882,0.0407848 0,0.0153032 -0.00434394,0.0296552 -0.0130886,0.0431413 -0.00874467,0.0134861 -0.0212938,0.0239769 -0.0376617,0.0315149 -0.0163537,0.00748124 -0.0347799,0.0112148 -0.055222,0.0112148 -0.0259643,0 -0.0477408,-0.00373352 -0.0652301,-0.0113425 -0.0175603,-0.00755222 -0.0313161,-0.0188947 -0.0413384,-0.0341269 -0.00993713,-0.0151612 -0.015218,-0.0323808 -0.0156865,-0.0515453zm0.403178 0.0921456l0 -0.252928 -0.0944879 0 0 -0.0338572 0.22729 0 0 0.0338572 -0.0948712 0 0 0.252928 -0.0379314 0zm0.208935 -0.0921456l0.0357879 -0.00313729c0.00167512,0.0143521 0.00560738,0.0261063 0.0118252,0.0353194 0.00620361,0.00921314 0.0158142,0.0166234 0.0288461,0.0223018 0.0130176,0.00567836 0.0277104,0.00847495 0.0439931,0.00847495 0.014494,0 0.0272561,-0.00212938 0.0383289,-0.00640235 0.011087,-0.00434394 0.0193632,-0.010221 0.0247718,-0.0177023 0.00540864,-0.00753802 0.00814844,-0.0156865 0.00814844,-0.0245589 0,-0.00901439 -0.00259785,-0.0168363 -0.00787872,-0.0235794 -0.00520989,-0.00674305 -0.0138126,-0.0123504 -0.0257656,-0.0168931 -0.00775096,-0.00300953 -0.0247151,-0.00767998 -0.051091,-0.0140255 -0.026305,-0.00634557 -0.0448022,-0.0122794 -0.0553498,-0.0178868 -0.0136848,-0.00715473 -0.0239059,-0.0160981 -0.0306489,-0.0267167 -0.00667207,-0.0106185 -0.0100223,-0.0225005 -0.0100223,-0.0357169 0,-0.014423 0.00407422,-0.0279801 0.0122936,-0.0405293 0.00820523,-0.0126202 0.0202292,-0.022174 0.0359866,-0.0287183 0.0158284,-0.00647333 0.0333178,-0.00975258 0.0526242,-0.00975258 0.0212938,0 0.0399898,0.00340702 0.0562867,0.010292 0.0162259,0.00681403 0.0287041,0.0168931 0.037463,0.0301805 0.00867369,0.0132874 0.0134151,0.0283776 0.0140823,0.0451997l-0.0363841 0.00273981c-0.00201582,-0.0180998 -0.00861691,-0.0318556 -0.0199026,-0.0410687 -0.0112857,-0.00928412 -0.0279091,-0.0138836 -0.0499412,-0.0138836 -0.0229832,0 -0.0396633,0.00420199 -0.0502251,0.0126202 -0.0104766,0.00841817 -0.0157574,0.0185682 -0.0157574,0.0303792 0,0.0103488 0.00374772,0.018838 0.011158,0.025439 0.00733928,0.00668627 0.026376,0.0134861 0.0572237,0.0204421 0.0308477,0.00699858 0.0520138,0.0130744 0.0634982,0.0182843 0.0166944,0.00775096 0.0290448,0.0175035 0.0369945,0.0292577 0.0079497,0.011811 0.011882,0.025439 0.011882,0.0407848 0,0.0153032 -0.00434394,0.0296552 -0.0130886,0.0431413 -0.00874467,0.0134861 -0.0212938,0.0239769 -0.0376617,0.0315149 -0.0163537,0.00748124 -0.0347799,0.0112148 -0.055222,0.0112148 -0.0259643,0 -0.0477408,-0.00373352 -0.0652301,-0.0113425 -0.0175603,-0.00755222 -0.0313161,-0.0188947 -0.0413384,-0.0341269 -0.00993713,-0.0151612 -0.015218,-0.0323808 -0.0156865,-0.0515453z"/>
 <path class="fil1 str0" d="M20.3832 -17.9383c-0.0850334,0.000298114 -0.153301,0.069063 -0.153103,0.154196 0.000212938,0.0838835 0.0696167,0.152847 0.153358,0.152393 0.0854735,-0.000454269 0.153387,-0.0691624 0.153131,-0.154948 -0.00024133,-0.0831879 -0.0698012,-0.151939 -0.153387,-0.151641zm0.283804 -0.0436666c-0.000156155,0.00901439 -0.0034638,0.0158142 -0.00836138,0.0219752 -0.0079639,0.0100649 -0.0158852,0.0202292 -0.0239911,0.0301947 -0.00166092,0.0020584 -0.00170351,0.0034638 -0.000454269,0.00572095 0.010363,0.0190225 0.018838,0.0388116 0.0242466,0.0597931 0.000951125,0.0038045 0.00354897,0.00340702 0.00604745,0.00370513 0.0128757,0.00154735 0.0257514,0.00320827 0.0386696,0.0045001 0.0186818,0.00185966 0.0293429,0.0191361 0.0288886,0.0336585 -0.000695599,0.0238917 -0.000198743,0.047826 -0.000141959,0.0717177 0,0.0186818 -0.0119671,0.031742 -0.0306064,0.0336443 -0.0134151,0.00140539 -0.0268444,0.00300953 -0.0402028,0.00471304 -0.00110728,0.000156155 -0.00265463,0.00150476 -0.00296694,0.00255526 -0.00610424,0.0217339 -0.0149625,0.042318 -0.0260921,0.0619509 -0.00114987,0.0020584 -0.000539444,0.00315149 0.000653011,0.00469884 0.00826201,0.0103204 0.0164247,0.0207402 0.0246441,0.03116 0.00100791,0.00129183 0.00210099,0.00259785 0.00305212,0.00394646 0.0100223,0.0139262 0.00891502,0.0297972 -0.0034496,0.0423747 -0.0176313,0.017972 -0.0354613,0.0357595 -0.0533908,0.0534901 -0.0107605,0.0106185 -0.0293003,0.0112573 -0.0414094,0.00180288 -0.0117258,-0.00921314 -0.0233948,-0.0184831 -0.0350071,-0.0277956 -0.00190225,-0.00150476 -0.00326506,-0.00176029 -0.00540864,-0.00055364 -0.0194342,0.0106611 -0.0397627,0.0191361 -0.0611985,0.024786 -0.00291016,0.000752382 -0.00406003,0.00195903 -0.00435814,0.00511052 -0.00154735,0.0154735 -0.00340702,0.0309045 -0.00530927,0.0463212 -0.00140539,0.0114703 -0.0135287,0.023693 -0.0249848,0.0252971 -0.00356317,0.000496856 -0.00716893,0.000752382 -0.0107179,0.00079497 -0.0227986,5.67836e-005 -0.0455262,0.000156155 -0.0682681,-9.93713e-005 -0.00505374,-4.25877e-005 -0.0104198,-0.000752382 -0.0149767,-0.00265463 -0.0122085,-0.00511052 -0.0184689,-0.0148205 -0.0198317,-0.0279943 -0.00149057,-0.0148205 -0.0034496,-0.0295984 -0.00505374,-0.044419 -0.00024133,-0.00215778 -0.000951125,-0.00330764 -0.00315149,-0.00400324 -0.0203285,-0.00645913 -0.0403589,-0.0136706 -0.058842,-0.0246441 -0.000851754,-0.000496856 -0.00291016,5.67836e-005 -0.00386128,0.000809166 -0.0119671,0.00931251 -0.0238349,0.0186676 -0.0357027,0.0281363 -0.0137274,0.0109166 -0.0315575,0.00986615 -0.0439789,-0.00255526 -0.0167654,-0.0168221 -0.0336017,-0.0336443 -0.0504238,-0.0504806 -0.014423,-0.014423 -0.0153742,-0.0305922 -0.002754,-0.0464774 0.00905698,-0.0113567 0.0180288,-0.022827 0.0270858,-0.0340985 0.00160414,-0.00200162 0.00191645,-0.0034496 0.000610424,-0.00576353 -0.00962482,-0.0174751 -0.0175319,-0.0357027 -0.0230967,-0.0548813 -0.000695599,-0.00239911 -0.00194484,-0.00315149 -0.00424457,-0.00340702 -0.0143237,-0.00160414 -0.0285479,-0.00350639 -0.0428716,-0.00491178 -0.0190793,-0.00190225 -0.0311458,-0.0149199 -0.0311458,-0.0339992 0,-0.0231393 0.000638815,-0.0463212 -0.000212938,-0.0694179 -0.000596228,-0.0169783 0.00992293,-0.0348935 0.0336159,-0.0363557 0.0127621,-0.00079497 0.0254816,-0.00285338 0.0382579,-0.00420199 0.00220036,-0.000255526 0.00330764,-0.000851754 0.00390387,-0.00325086 0.00530927,-0.0211377 0.0134151,-0.0411681 0.0237923,-0.0603468 0.0013912,-0.00261204 0.00114987,-0.0041594 -0.000653011,-0.00635976 -0.0086595,-0.0106753 -0.0171344,-0.0214926 -0.0256378,-0.0323099 -0.0118678,-0.0151754 -0.0109166,-0.0313445 0.00269722,-0.045072 0.0172764,-0.0174184 0.0346522,-0.0348083 0.052028,-0.0521273 0.0110728,-0.011016 0.0296552,-0.0120665 0.0419773,-0.00235652 0.0108173,0.00846075 0.0216345,0.0170209 0.0322957,0.0256378 0.00190225,0.00150476 0.00320827,0.00180288 0.00540864,0.000496856 0.0204847,-0.0119671 0.0421192,-0.0212229 0.0650598,-0.0274833 0.00239911,-0.000653011 0.0034496,-0.00166092 0.00374772,-0.00431555 0.00126343,-0.0126627 0.00300953,-0.0252403 0.00425877,-0.037903 0.00134861,-0.01377 0.00856013,-0.0231961 0.0210383,-0.0283918 0.00354897,-0.00146218 0.00780774,-0.00180288 0.0117116,-0.00180288 0.0245447,-0.000156155 0.049132,0 0.0736767,-0.000113567 0.0189799,-9.93713e-005 0.0300385,0.0138268 0.0321963,0.025652 0.00164672,0.00905698 0.00220036,0.0183269 0.00325086,0.0274833 0.000610424,0.00526668 0.0010505,0.0105192 0.00190225,0.0157291 0.000212938,0.00124924 0.00160414,0.00295275 0.002754,0.00330764 0.0227986,0.00635976 0.0443338,0.0155303 0.064861,0.0271426 0.000993713,0.00055364 0.00320827,5.67836e-005 0.00420199,-0.000695599 0.0101643,-0.00786453 0.0202292,-0.0158852 0.0302515,-0.0238917 0.0137274,-0.0109166 0.0316994,-0.00992293 0.0440215,0.00239911 0.0169783,0.0170351 0.0339992,0.0339566 0.0509349,0.0510342 0.00665788,0.00665788 0.0108173,0.0146218 0.011016,0.0233948z"/>
</symbol>
<symbol id="Fm21-53727-0" viewBox="-0.42724 -6.82842 4.40618 1.01817">
 <polygon class="fil2" points="-0.389677,-6.79088 3.94133,-6.79088 3.94133,-5.84776 -0.389677,-5.84776 "/>
 <path class="fil3" d="M3.97894 -6.82842l-4.40618 0 0 1.01817 4.40618 0 0 -1.01817zm-0.0751105 0.943048l-4.25596 0 0 -0.867937 4.25596 0 0 0.867937z"/>
</symbol>
<symbol id="Fm2-53725-0" viewBox="-19 -22.7077 50.08 30.048">
 <polygon id="123456789101112131415161718192021222324252627" style="fill:url(#id1);fill-rule:nonzero" points="31.08,7.34024 -19,7.34024 -19,-22.7077 31.08,-22.7077 "/>
</symbol>
<symbol id="Fm1-53715-0" viewBox="-19 -22.7072 50.0949 30.0323">
 <polygon class="fil7" points="-19,7.32507 31.0949,7.32507 31.0949,-22.7072 -19,-22.7072 "/>
</symbol>
<symbol id="Fm4-53740-0" viewBox="-19.0002 -21.0721 8.52688 28.4124">
 <polygon class="fil3" points="-10.4733,-21.0721 -19.0002,-21.0721 -19.0002,7.34024 -10.4733,7.34024 "/>
</symbol>
<symbol id="Fm11-53716-0" viewBox="28.5615 -21.7991 1.30896 0.291456">
 <path class="fil0" d="M28.5615 -21.5123l0.110174 -0.286785 0.0408558 0 0.117386 0.286785 -0.0432691 0 -0.0334455 -0.0868647 -0.119927 0 -0.0314439 0.0868647 -0.0403305 0zm0.0827337 -0.117783l0.0972845 0 -0.0299817 -0.0793976c-0.00908537,-0.0241046 -0.0158994,-0.0439363 -0.0203001,-0.059495 -0.00367674,0.0184263 -0.00881565,0.0366538 -0.0154877,0.0548245l-0.0315149 0.0840681zm0.396364 0.117783l0 -0.0262482c-0.0131596,0.0206408 -0.0325228,0.0309187 -0.0581038,0.0309187 -0.0165524,0 -0.0317704,-0.00454269 -0.0456682,-0.0136848 -0.0138836,-0.00908537 -0.0246299,-0.0218333 -0.0323099,-0.0382579 -0.0076232,-0.0163679 -0.0114277,-0.0351206 -0.0114277,-0.0564287 0,-0.0206976 0.00347799,-0.0395214 0.0103488,-0.0564145 0.00695599,-0.0168931 0.0173048,-0.029854 0.0311174,-0.0387974 0.0138268,-0.00901439 0.0293145,-0.0135571 0.0464064,-0.0135571 0.0124924,0 0.0236362,0.00266883 0.0333887,0.0079497 0.00982356,0.00526668 0.0177591,0.0121517 0.0239059,0.0206266l0 -0.102892 0.0349929 0 0 0.286785 -0.0326506 0zm-0.11131 -0.103701c0,0.0266457 0.00560738,0.0465483 0.0168221,0.0596937 0.0112148,0.0131596 0.0244453,0.0197749 0.0397343,0.0197749 0.0153458,0 0.0284344,-0.00634557 0.0391949,-0.0189089 0.0107463,-0.0125492 0.0161549,-0.0317846 0.0161549,-0.0576211 0,-0.0284486 -0.00547962,-0.049274 -0.0164247,-0.0625613 -0.0109592,-0.0133583 -0.0244453,-0.0199736 -0.0405293,-0.0199736 -0.0156297,0 -0.0287183,0.00641654 -0.0391949,0.0191645 -0.0104908,0.0127621 -0.0157574,0.0329203 -0.0157574,0.0604319zm0.249464 0.103701l0 -0.207729 0.0314439 0 0 0.0291158c0.00654431,-0.0101501 0.0152322,-0.0183695 0.0260495,-0.0245163 0.0108173,-0.00620361 0.0231677,-0.0093409 0.0369803,-0.0093409 0.01536,0 0.0279801,0.00320827 0.0378037,0.00961062 0.00988034,0.00641654 0.0168221,0.015289 0.0208254,0.0267735 0.0164956,-0.0242324 0.0378605,-0.0363841 0.0641654,-0.0363841 0.0206408,0 0.0364693,0.00573514 0.0475421,0.0171628 0.011087,0.0114135 0.0166376,0.0289738 0.0166376,0.052681l0 0.142626 -0.0349929 0 0 -0.130872c0,-0.0140965 -0.00113567,-0.0242466 -0.00340702,-0.0304502 -0.00234232,-0.00614682 -0.00647333,-0.011158 -0.0124214,-0.0149625 -0.00600486,-0.00373352 -0.0130886,-0.00566416 -0.0211661,-0.00566416 -0.0146218,0 -0.0267025,0.00486919 -0.0363841,0.0146218 -0.00962482,0.0096816 -0.014494,0.0252403 -0.014494,0.0466051l0 0.120722 -0.0351916 0 0 -0.134946c0,-0.0156865 -0.00286757,-0.0274407 -0.00861691,-0.0352626 -0.00573514,-0.00780774 -0.0150902,-0.01174 -0.0281789,-0.01174 -0.00988034,0 -0.0190225,0.00259785 -0.0274407,0.00787872 -0.00841817,0.0051957 -0.0145508,0.0128189 -0.0182985,0.022827 -0.0038045,0.0100791 -0.00567836,0.0245731 -0.00567836,0.0434678l0 0.107775 -0.0351774 0zm0.383942 -0.246256l0 -0.0405293 0.0352626 0 0 0.0405293 -0.0352626 0zm0 0.246256l0 -0.207729 0.0352626 0 0 0.207729 -0.0352626 0zm0.138964 0l0 -0.207729 0.0316427 0 0 0.0295133c0.015289,-0.0228412 0.0373352,-0.0342547 0.0661103,-0.0342547 0.0125492,0 0.0240337,0.00227134 0.0345244,0.00674305 0.0105476,0.00454269 0.0183553,0.0104198 0.0235652,0.0177591 0.00528087,0.00728249 0.00888663,0.0159562 0.011016,0.0259785 0.00126343,0.00654431 0.00194484,0.0179578 0.00194484,0.0342547l0 0.127735 -0.0352626 0 0 -0.1264c0,-0.0142953 -0.00133441,-0.0250416 -0.00407422,-0.0321821 -0.00273981,-0.00708375 -0.007609,-0.0127621 -0.0145508,-0.0169641 -0.00701277,-0.00427296 -0.0151612,-0.00640235 -0.0245731,-0.00640235 -0.0150335,0 -0.0279091,0.00479821 -0.0388684,0.0142811 -0.0108883,0.00955384 -0.0162969,0.0275826 -0.0162969,0.0542141l0 0.113454 -0.0351774 0z"/>
</symbol>
<symbol id="Fm6-53742-0" viewBox="-5.76883 -10.376 0.469685 18.5349">
 <path class="fil0" d="M-5.48927 -10.052l-0.0395924 0 0 -0.252403c-0.00953964,0.00908537 -0.0220036,0.0181849 -0.0374772,0.0272703 -0.0155587,0.00908537 -0.0294565,0.0159278 -0.0417785,0.0204279l0 -0.0382295c0.022174,-0.0104482 0.0415514,-0.0230683 0.0581464,-0.0378605 0.016524,-0.0148773 0.0283208,-0.0292293 0.0352342,-0.0431981l0.0254674 0 0 0.323993z"/>
 <path class="fil0" d="M-5.43023 -9.0787l0 0.0380876 -0.213265 0c-0.000298114,-0.00953964 0.00120665,-0.0187102 0.00458527,-0.0274975 0.00540864,-0.014565 0.0141249,-0.0288461 0.0260637,-0.042971 0.0120239,-0.0140397 0.0293003,-0.0303366 0.0518292,-0.0488197 0.0350923,-0.0287751 0.0588278,-0.0515311 0.0711498,-0.0683674 0.0123078,-0.0167512 0.0184689,-0.0326648 0.0184689,-0.0476272 0,-0.0156865 -0.00563577,-0.028917 -0.0168221,-0.0397343 -0.0112715,-0.0107463 -0.0259217,-0.0161549 -0.0439505,-0.0161549 -0.0190793,0 -0.0343257,0.00572095 -0.0457392,0.0172054 -0.0114987,0.0114277 -0.0172764,0.0272703 -0.0174326,0.0474853l-0.0407138 -0.00413101c0.0027824,-0.030436 0.0133016,-0.0535611 0.0314723,-0.0694889 0.0181849,-0.0159278 0.0426729,-0.0238917 0.0733218,-0.0238917 0.0309471,0 0.055435,0.0086453 0.0734638,0.0257656 0.0180998,0.0172054 0.0271142,0.0384567 0.0271142,0.0638531 0,0.0129183 -0.00262624,0.0256094 -0.0079639,0.0380876 -0.00525248,0.012464 -0.0140397,0.0256094 -0.0262908,0.0393652 -0.0122369,0.0138126 -0.0325938,0.0327499 -0.0610707,0.0567836 -0.0237355,0.0199878 -0.0389819,0.0335023 -0.0457392,0.0406428 -0.00677144,0.00705536 -0.012322,0.0141959 -0.0167512,0.0214074l0.15827 0z"/>
 <path class="fil0" d="M-5.63823 -8.11439l0.0395782 -0.00525248c0.00458527,0.0224579 0.012322,0.0386128 0.0232103,0.0485216 0.0109734,0.00992293 0.024275,0.0148773 0.0399756,0.0148773 0.018625,0 0.0343967,-0.00645913 0.0472439,-0.0193774 0.0127763,-0.0129183 0.0192354,-0.0289312 0.0192354,-0.0480105 0,-0.0181707 -0.00593388,-0.0332042 -0.0178017,-0.0449868 -0.0119529,-0.0117968 -0.0270432,-0.0177307 -0.0453843,-0.0177307 -0.00750963,0 -0.0168221,0.00150476 -0.0279375,0.00442912l0.00442912 -0.0347799c0.00262624,0.000298114 0.00472723,0.000454269 0.00638815,0.000454269 0.0168221,0 0.0319975,-0.00442912 0.0455262,-0.0132306 0.0135145,-0.00878726 0.0202717,-0.0223869 0.0202717,-0.0407138 0,-0.014494 -0.00495437,-0.0265889 -0.0147921,-0.0360576 -0.00983776,-0.00953964 -0.0225431,-0.0143379 -0.0380876,-0.0143379 -0.0154025,0 -0.0282498,0.00488339 -0.0384567,0.014494 -0.010292,0.0096958 -0.0169073,0.0242608 -0.0198317,0.0436382l-0.0395924 -0.00705536c0.00481241,-0.0265889 0.0158568,-0.047173 0.0329771,-0.0617521 0.0172054,-0.014565 0.0385419,-0.0219327 0.0640803,-0.0219327 0.0175745,0 0.0338004,0.00383289 0.0486067,0.0113425 0.0147921,0.0075948 0.0261346,0.0178726 0.0340276,0.0309471 0.00780774,0.0130744 0.0117826,0.0269012 0.0117826,0.0416224 0,0.0138978 -0.00374772,0.0265889 -0.0112573,0.0380876 -0.00750963,0.0114135 -0.018554,0.0204989 -0.0332042,0.0272703 0.0190793,0.00434394 0.0338714,0.0135145 0.0444615,0.0274123 0.0105192,0.0138268 0.0157858,0.0311742 0.0157858,0.0519854 0,0.0281647 -0.010221,0.0520564 -0.0308051,0.0716609 -0.0205131,0.0196045 -0.0464916,0.0293713 -0.0778929,0.0293713 -0.0283208,0 -0.0518434,-0.00841817 -0.0705394,-0.0253113 -0.0187102,-0.0168221 -0.0293713,-0.0386838 -0.0319975,-0.065585z"/>
 <path class="fil0" d="M-5.5115 -7.01778l0 -0.0772257 -0.139957 0 0 -0.0363557 0.14724 -0.209063 0.0323808 0 0 0.209063 0.0435672 0 0 0.0363557 -0.0435672 0 0 0.0772257 -0.0396633 0zm0 -0.113581l0 -0.145437 -0.100961 0.145437 0.100961 0z"/>
 <path class="fil0" d="M-5.63845 -6.09088l0.0416082 -0.00353478c0.00308051,0.0202859 0.010221,0.0354613 0.0214074,0.0456682 0.0112715,0.010221 0.0248002,0.0153316 0.0406428,0.0153316 0.0190793,0 0.0352342,-0.00721152 0.0483796,-0.0215636 0.0132164,-0.014423 0.0198317,-0.0335023 0.0198317,-0.0572379 0,-0.0226141 -0.00631717,-0.0404157 -0.0190083,-0.0534901 -0.0126911,-0.0130602 -0.0293003,-0.0196045 -0.0498702,-0.0196045 -0.0127763,0 -0.024275,0.00293855 -0.034567,0.00871628 -0.010292,0.00579193 -0.0183269,0.0133016 -0.0241898,0.0225431l-0.0371791 -0.00481241 0.0312452 -0.165723 0.160456 0 0 0.0378605 -0.128757 0 -0.0174184 0.0866943c0.0193774,-0.0135145 0.0397343,-0.0202859 0.0609998,-0.0202859 0.0281647,0 0.0519002,0.00976678 0.0712776,0.0293003 0.0193916,0.0195336 0.0290732,0.0446177 0.0290732,0.0752666 0,0.0292293 -0.00856013,0.0544697 -0.0255384,0.0757209 -0.020726,0.0260779 -0.0489758,0.0391381 -0.0847353,0.0391381 -0.0293713,0 -0.053334,-0.00819103 -0.071888,-0.0246299 -0.018554,-0.016453 -0.0291442,-0.0382437 -0.0317704,-0.0653579z"/>
 <path class="fil0" d="M-5.43293 -5.23857l-0.0393652 0.00308051c-0.00353478,-0.0155445 -0.00848915,-0.026887 -0.0149483,-0.0338714 -0.0107463,-0.0113567 -0.0239627,-0.0169783 -0.0396633,-0.0169783 -0.0126202,0 -0.0236646,0.00352058 -0.0332042,0.0105901 -0.0124782,0.00908537 -0.0223159,0.0223869 -0.0295275,0.0398053 -0.00712634,0.0174326 -0.0108883,0.0423038 -0.0111864,0.0745994 0.00953964,-0.014494 0.0211803,-0.0253113 0.0350071,-0.0323808 0.0137416,-0.00698438 0.0282356,-0.0105192 0.0433401,-0.0105192 0.026447,0 0.0489049,0.0096958 0.0674589,0.0291584 0.018554,0.0194484 0.0278665,0.0445467 0.0278665,0.0753376 0,0.0202859 -0.00442912,0.0390671 -0.0131454,0.0564855 -0.00871628,0.0173616 -0.020726,0.0307341 -0.0359866,0.0399756 -0.0152464,0.00924153 -0.0325228,0.0138126 -0.0519002,0.0138126 -0.0330622,0 -0.0599493,-0.0120949 -0.0807605,-0.0364267 -0.0208822,-0.0242608 -0.0312452,-0.0643074 -0.0312452,-0.12004 0,-0.0623484 0.0114987,-0.107647 0.0345528,-0.135968 0.0200588,-0.0246441 0.047102,-0.0370371 0.0812005,-0.0370371 0.0253255,0 0.0461225,0.00714054 0.0623484,0.0214074 0.0162259,0.0141959 0.0259217,0.0338856 0.0291584,0.0589698zm-0.161734 0.139049c0,0.0136706 0.00292435,0.0267451 0.00871628,0.0392091 0.00577773,0.0124782 0.0138836,0.0219327 0.0242608,0.028477 0.010434,0.00653011 0.0214074,0.00983776 0.0328209,0.00983776 0.0167512,0 0.0311032,-0.00675725 0.0431271,-0.0202859 0.0120097,-0.0135145 0.0180288,-0.0318414 0.0180288,-0.0549807 0,-0.0223159 -0.00593388,-0.0398905 -0.0178158,-0.0527378 -0.0118678,-0.0128473 -0.026816,-0.0192354 -0.0448448,-0.0192354 -0.0179436,0 -0.033119,0.00638815 -0.0455972,0.0192354 -0.012464,0.0128473 -0.018696,0.0296694 -0.018696,0.0504806z"/>
 <path class="fil0" d="M-5.63583 -4.26389l0 -0.0380734 0.208836 0 0 0.0307909c-0.0205131,0.0218617 -0.04087,0.0509349 -0.0610707,0.0871486 -0.020144,0.0361995 -0.0357595,0.0735347 -0.0467329,0.111778 -0.0079639,0.0270432 -0.0129892,0.0565564 -0.0151754,0.0887102l-0.0407138 0c0.000454269,-0.0253965 0.00540864,-0.0560454 0.0149483,-0.0920178 0.00953964,-0.0359156 0.0232103,-0.0706104 0.0410119,-0.103971 0.0178868,-0.0333462 0.03681,-0.061525 0.0569539,-0.0843662l-0.158057 0z"/>
 <path class="fil0" d="M-5.57747 -3.14707c-0.0164388,-0.00601906 -0.0286189,-0.0145792 -0.0365828,-0.0257656 -0.00787872,-0.0111296 -0.0118678,-0.0244879 -0.0118678,-0.0400466 0,-0.0235084 0.00841817,-0.0431981 0.0253255,-0.0591969 0.0168931,-0.0159988 0.03928,-0.0240337 0.0673027,-0.0240337 0.0281647,0 0.0508497,0.00819103 0.0680551,0.0245589 0.0171344,0.0163821 0.0256946,0.0362847 0.0256946,0.0598073 0,0.0149483 -0.00390387,0.0279375 -0.0117258,0.0390529 -0.00787872,0.0110444 -0.0197465,0.0196045 -0.0357453,0.0256236 0.0197465,0.00645913 0.0348509,0.0168221 0.0452139,0.0312452 0.010292,0.0143521 0.0154735,0.0315575 0.0154735,0.0514601 0,0.0276394 -0.00976678,0.0507787 -0.0292152,0.0695599 -0.0195336,0.0187812 -0.0452281,0.0281647 -0.0770695,0.0281647 -0.0318556,0 -0.0574792,-0.00938349 -0.0769985,-0.0282356 -0.0195336,-0.0188663 -0.0293003,-0.0423747 -0.0293003,-0.0705394 0,-0.0209673 0.00533766,-0.0385419 0.0159988,-0.0527378 0.0105901,-0.0141249 0.0257656,-0.0238065 0.0454411,-0.028917zm-0.0079497 -0.0671608c0,0.0152464 0.00495437,0.0277246 0.0147211,0.0374062 0.00983776,0.0096958 0.0226141,0.0145792 0.0383005,0.0145792 0.0152606,0 0.0277956,-0.00481241 0.0375623,-0.014423 0.00976678,-0.00962482 0.0145792,-0.0214074 0.0145792,-0.0353052 0,-0.0145792 -0.00495437,-0.0267451 -0.0150193,-0.036668 -0.0100791,-0.00990874 -0.0225431,-0.0148631 -0.0375623,-0.0148631 -0.0151044,0 -0.0276536,0.00488339 -0.0376333,0.014494 -0.00999391,0.0096958 -0.0149483,0.0213364 -0.0149483,0.0347799zm-0.0127763 0.149043c0,0.0112573 0.00269722,0.0222308 0.00803488,0.0327499 0.00533766,0.0105901 0.0133016,0.0187812 0.0238917,0.0245589 0.0105901,0.00579193 0.0219327,0.00871628 0.0340985,0.00871628 0.0189373,0 0.034567,-0.00609004 0.0468748,-0.0183269 0.012322,-0.0121659 0.0184831,-0.0276536 0.0184831,-0.0464206 0,-0.0190935 -0.00630298,-0.0348651 -0.0190083,-0.0473291 -0.0126911,-0.0124782 -0.0286189,-0.0187102 -0.0476982,-0.0187102 -0.018625,0 -0.0340276,0.00616102 -0.0462786,0.0184831 -0.0122369,0.012393 -0.0183979,0.0277956 -0.0183979,0.0462786z"/>
 <path class="fil0" d="M-5.63252 -2.03531l0.0380876 -0.00352058c0.00322247,0.0178726 0.00938349,0.0308761 0.0184689,0.0389819 0.00909957,0.00803488 0.0207402,0.0120949 0.0350071,0.0120949 0.0121659,0 0.0228412,-0.0027824 0.0319975,-0.00841817 0.00917055,-0.0055506 0.0166802,-0.0129892 0.0225431,-0.0223018 0.00593388,-0.00931251 0.0108173,-0.0219327 0.0147921,-0.0377185 0.00391807,-0.0158426 0.00593388,-0.0319975 0.00593388,-0.0484506 0,-0.0017319 -7.09795e-005,-0.00442912 -0.000212938,-0.00787872 -0.0079639,0.012535 -0.0187812,0.022827 -0.0324518,0.0306489 -0.0137558,0.00787872 -0.0286331,0.0117826 -0.0445467,0.0117826 -0.0267451,0 -0.0493591,-0.0096816 -0.0678422,-0.0290732 -0.0184689,-0.0193774 -0.0277104,-0.0448448 -0.0277104,-0.0765443 0,-0.0327499 0.00961062,-0.0590407 0.028917,-0.0790286 0.0193064,-0.0199736 0.0434962,-0.0299675 0.0725694,-0.0299675 0.0209531,0 0.0401034,0.00570675 0.057536,0.0169783 0.0173474,0.0112715 0.030578,0.0274123 0.0395924,0.0482944 0.00901439,0.0208964 0.0135145,0.051162 0.0135145,0.0908253 0,0.0411681 -0.00442912,0.073989 -0.0133725,0.0984769 -0.00901439,0.0244169 -0.0223018,0.042971 -0.0399614,0.0557473 -0.0177307,0.0127621 -0.0383857,0.0191503 -0.0621922,0.0191503 -0.0252403,0 -0.0458244,-0.00698438 -0.0618231,-0.0210241 -0.0159988,-0.013983 -0.0256236,-0.0336585 -0.0288461,-0.0590549zm0.162174 -0.142427c0,-0.022685 -0.00600486,-0.0407848 -0.0180998,-0.0540864 -0.0121659,-0.0133725 -0.0266599,-0.0200588 -0.0437234,-0.0200588 -0.0175745,0 -0.0328919,0.00721152 -0.0459663,0.0215636 -0.0130744,0.014423 -0.0196045,0.0330622 -0.0196045,0.0558892 0,0.020584 0.006232,0.0372642 0.018625,0.0501115 0.012393,0.0128473 0.0276394,0.0192212 0.0458244,0.0192212 0.0183979,0 0.0334313,-0.00637396 0.0452281,-0.0192212 0.0118678,-0.0128473 0.0177165,-0.0306489 0.0177165,-0.0534192z"/>
 <path class="fil0" d="M-5.61456 -0.949294l-0.0395924 0 0 -0.252403c-0.00953964,0.00908537 -0.0220036,0.0181849 -0.0374772,0.0272703 -0.0155587,0.00908537 -0.0294565,0.0159278 -0.0417785,0.0204279l0 -0.0382295c0.022174,-0.0104482 0.0415514,-0.0230683 0.0581464,-0.0378605 0.016524,-0.0148773 0.0283208,-0.0292293 0.0352342,-0.0431981l0.0254674 0 0 0.323993zm0.101486 -0.159108c0,-0.0381586 0.00390387,-0.0688785 0.0117826,-0.0920888 0.00782194,-0.0232955 0.0195336,-0.0412391 0.0350071,-0.0538592 0.0154735,-0.0126202 0.0349361,-0.0189373 0.0583735,-0.0189373 0.0173474,0 0.0325228,0.00353478 0.0455972,0.0105192 0.0130744,0.0069134 0.0238065,0.0169783 0.0323808,0.0301237 0.00848915,0.0131454 0.0151754,0.0291442 0.0199736,0.0479963 0.00488339,0.0188521 0.00729669,0.0442486 0.00729669,0.0762462 0,0.0378605 -0.00391807,0.0683674 -0.0116548,0.0916487 -0.00780774,0.0232813 -0.0194484,0.0412391 -0.0349219,0.0539302 -0.0154735,0.0127053 -0.0350071,0.0190083 -0.0586716,0.0190083 -0.0311032,0 -0.0555201,-0.0111154 -0.0732366,-0.0334313 -0.0212655,-0.026816 -0.0319266,-0.0706104 -0.0319266,-0.131156zm0.0407138 0c0,0.0529649 0.006232,0.0881991 0.018625,0.105774 0.012393,0.0175035 0.0276394,0.0262908 0.0458244,0.0262908 0.0182559,0 0.0335023,-0.00885824 0.0458953,-0.026447 0.012393,-0.0175745 0.0186392,-0.0528087 0.0186392,-0.105617 0,-0.0531068 -0.00624619,-0.088412 -0.0186392,-0.105845 -0.012393,-0.0175035 -0.0277956,-0.0262198 -0.0462644,-0.0262198 -0.0182559,0 -0.0327641,0.00775096 -0.0436524,0.0231393 -0.0135997,0.0196045 -0.0204279,0.0559744 -0.0204279,0.108925z"/>
 <path class="fil0" d="M-5.61456 0.0621212l-0.0395924 0 0 -0.252403c-0.00953964,0.00908537 -0.0220036,0.0181849 -0.0374772,0.0272703 -0.0155587,0.00908537 -0.0294565,0.0159278 -0.0417785,0.0204279l0 -0.0382295c0.022174,-0.0104482 0.0415514,-0.0230683 0.0581464,-0.0378605 0.016524,-0.0148773 0.0283208,-0.0292293 0.0352342,-0.0431981l0.0254674 0 0 0.323993zm0.250671 0l-0.0395924 0 0 -0.252403c-0.00953964,0.00908537 -0.0220036,0.0181849 -0.0374772,0.0272703 -0.0155587,0.00908537 -0.0294565,0.0159278 -0.0417785,0.0204279l0 -0.0382295c0.022174,-0.0104482 0.0415514,-0.0230683 0.0581464,-0.0378605 0.016524,-0.0148773 0.0283208,-0.0292293 0.0352342,-0.0431981l0.0254674 0 0 0.323993z"/>
 <path class="fil0" d="M-5.61456 1.07354l-0.0395924 0 0 -0.252403c-0.00953964,0.00908537 -0.0220036,0.0181849 -0.0374772,0.0272703 -0.0155587,0.00908537 -0.0294565,0.0159278 -0.0417785,0.0204279l0 -0.0382295c0.022174,-0.0104482 0.0415514,-0.0230683 0.0581464,-0.0378605 0.016524,-0.0148773 0.0283208,-0.0292293 0.0352342,-0.0431981l0.0254674 0 0 0.323993zm0.101714 -0.0851896l0.0395782 -0.00525248c0.00458527,0.0224579 0.012322,0.0386128 0.0232103,0.0485216 0.0109734,0.00992293 0.024275,0.0148773 0.0399756,0.0148773 0.018625,0 0.0343967,-0.00645913 0.0472439,-0.0193774 0.0127763,-0.0129183 0.0192354,-0.0289312 0.0192354,-0.0480105 0,-0.0181707 -0.00593388,-0.0332042 -0.0178017,-0.0449868 -0.0119529,-0.0117968 -0.0270432,-0.0177307 -0.0453843,-0.0177307 -0.00750963,0 -0.0168221,0.00150476 -0.0279375,0.00442912l0.00442912 -0.0347799c0.00262624,0.000298114 0.00472723,0.000454269 0.00638815,0.000454269 0.0168221,0 0.0319975,-0.00442912 0.0455262,-0.0132306 0.0135145,-0.00878726 0.0202717,-0.0223869 0.0202717,-0.0407138 0,-0.014494 -0.00495437,-0.0265889 -0.0147921,-0.0360576 -0.00983776,-0.00953964 -0.0225431,-0.0143379 -0.0380876,-0.0143379 -0.0154025,0 -0.0282498,0.00488339 -0.0384567,0.014494 -0.010292,0.0096958 -0.0169073,0.0242608 -0.0198317,0.0436382l-0.0395924 -0.00705536c0.00481241,-0.0265889 0.0158568,-0.047173 0.0329771,-0.0617521 0.0172054,-0.014565 0.0385419,-0.0219327 0.0640803,-0.0219327 0.0175745,0 0.0338004,0.00383289 0.0486067,0.0113425 0.0147921,0.0075948 0.0261346,0.0178726 0.0340276,0.0309471 0.00780774,0.0130744 0.0117826,0.0269012 0.0117826,0.0416224 0,0.0138978 -0.00374772,0.0265889 -0.0112573,0.0380876 -0.00750963,0.0114135 -0.018554,0.0204989 -0.0332042,0.0272703 0.0190793,0.00434394 0.0338714,0.0135145 0.0444615,0.0274123 0.0105192,0.0138268 0.0157858,0.0311742 0.0157858,0.0519854 0,0.0281647 -0.010221,0.0520564 -0.0308051,0.0716609 -0.0205131,0.0196045 -0.0464916,0.0293713 -0.0778929,0.0293713 -0.0283208,0 -0.0518434,-0.00841817 -0.0705394,-0.0253113 -0.0187102,-0.0168221 -0.0293713,-0.0386838 -0.0319975,-0.065585z"/>
 <path class="fil0" d="M-5.61456 2.08495l-0.0395924 0 0 -0.252403c-0.00953964,0.00908537 -0.0220036,0.0181849 -0.0374772,0.0272703 -0.0155587,0.00908537 -0.0294565,0.0159278 -0.0417785,0.0204279l0 -0.0382295c0.022174,-0.0104482 0.0415514,-0.0230683 0.0581464,-0.0378605 0.016524,-0.0148773 0.0283208,-0.0292293 0.0352342,-0.0431981l0.0254674 0 0 0.323993zm0.22844 0l0 -0.0772257 -0.139957 0 0 -0.0363557 0.14724 -0.209063 0.0323808 0 0 0.209063 0.0435672 0 0 0.0363557 -0.0435672 0 0 0.0772257 -0.0396633 0zm0 -0.113581l0 -0.145437 -0.100961 0.145437 0.100961 0z"/>
 <path class="fil0" d="M-5.61456 3.09637l-0.0395924 0 0 -0.252403c-0.00953964,0.00908537 -0.0220036,0.0181849 -0.0374772,0.0272703 -0.0155587,0.00908537 -0.0294565,0.0159278 -0.0417785,0.0204279l0 -0.0382295c0.022174,-0.0104482 0.0415514,-0.0230683 0.0581464,-0.0378605 0.016524,-0.0148773 0.0283208,-0.0292293 0.0352342,-0.0431981l0.0254674 0 0 0.323993zm0.101486 -0.0845082l0.0416082 -0.00353478c0.00308051,0.0202859 0.010221,0.0354613 0.0214074,0.0456682 0.0112715,0.010221 0.0248002,0.0153316 0.0406428,0.0153316 0.0190793,0 0.0352342,-0.00721152 0.0483796,-0.0215636 0.0132164,-0.014423 0.0198317,-0.0335023 0.0198317,-0.0572379 0,-0.0226141 -0.00631717,-0.0404157 -0.0190083,-0.0534901 -0.0126911,-0.0130602 -0.0293003,-0.0196045 -0.0498702,-0.0196045 -0.0127763,0 -0.024275,0.00293855 -0.034567,0.00871628 -0.010292,0.00579193 -0.0183269,0.0133016 -0.0241898,0.0225431l-0.0371791 -0.00481241 0.0312452 -0.165723 0.160456 0 0 0.0378605 -0.128757 0 -0.0174184 0.0866943c0.0193774,-0.0135145 0.0397343,-0.0202859 0.0609998,-0.0202859 0.0281647,0 0.0519002,0.00976678 0.0712776,0.0293003 0.0193916,0.0195336 0.0290732,0.0446177 0.0290732,0.0752666 0,0.0292293 -0.00856013,0.0544697 -0.0255384,0.0757209 -0.020726,0.0260779 -0.0489758,0.0391381 -0.0847353,0.0391381 -0.0293713,0 -0.053334,-0.00819103 -0.071888,-0.0246299 -0.018554,-0.016453 -0.0291442,-0.0382437 -0.0317704,-0.0653579z"/>
 <path class="fil0" d="M-5.61456 4.10778l-0.0395924 0 0 -0.252403c-0.00953964,0.00908537 -0.0220036,0.0181849 -0.0374772,0.0272703 -0.0155587,0.00908537 -0.0294565,0.0159278 -0.0417785,0.0204279l0 -0.0382295c0.022174,-0.0104482 0.0415514,-0.0230683 0.0581464,-0.0378605 0.016524,-0.0148773 0.0283208,-0.0292293 0.0352342,-0.0431981l0.0254674 0 0 0.323993zm0.307015 -0.243616l-0.0393652 0.00308051c-0.00353478,-0.0155445 -0.00848915,-0.026887 -0.0149483,-0.0338714 -0.0107463,-0.0113567 -0.0239627,-0.0169783 -0.0396633,-0.0169783 -0.0126202,0 -0.0236646,0.00352058 -0.0332042,0.0105901 -0.0124782,0.00908537 -0.0223159,0.0223869 -0.0295275,0.0398053 -0.00712634,0.0174326 -0.0108883,0.0423038 -0.0111864,0.0745994 0.00953964,-0.014494 0.0211803,-0.0253113 0.0350071,-0.0323808 0.0137416,-0.00698438 0.0282356,-0.0105192 0.0433401,-0.0105192 0.026447,0 0.0489049,0.0096958 0.0674589,0.0291584 0.018554,0.0194484 0.0278665,0.0445467 0.0278665,0.0753376 0,0.0202859 -0.00442912,0.0390671 -0.0131454,0.0564855 -0.00871628,0.0173616 -0.020726,0.0307341 -0.0359866,0.0399756 -0.0152464,0.00924153 -0.0325228,0.0138126 -0.0519002,0.0138126 -0.0330622,0 -0.0599493,-0.0120949 -0.0807605,-0.0364267 -0.0208822,-0.0242608 -0.0312452,-0.0643074 -0.0312452,-0.12004 0,-0.0623484 0.0114987,-0.107647 0.0345528,-0.135968 0.0200588,-0.0246441 0.047102,-0.0370371 0.0812005,-0.0370371 0.0253255,0 0.0461225,0.00714054 0.0623484,0.0214074 0.0162259,0.0141959 0.0259217,0.0338856 0.0291584,0.0589698zm-0.161734 0.139049c0,0.0136706 0.00292435,0.0267451 0.00871628,0.0392091 0.00577773,0.0124782 0.0138836,0.0219327 0.0242608,0.028477 0.010434,0.00653011 0.0214074,0.00983776 0.0328209,0.00983776 0.0167512,0 0.0311032,-0.00675725 0.0431271,-0.0202859 0.0120097,-0.0135145 0.0180288,-0.0318414 0.0180288,-0.0549807 0,-0.0223159 -0.00593388,-0.0398905 -0.0178158,-0.0527378 -0.0118678,-0.0128473 -0.026816,-0.0192354 -0.0448448,-0.0192354 -0.0179436,0 -0.033119,0.00638815 -0.0455972,0.0192354 -0.012464,0.0128473 -0.018696,0.0296694 -0.018696,0.0504806z"/>
 <path class="fil0" d="M-5.61456 5.1192l-0.0395924 0 0 -0.252403c-0.00953964,0.00908537 -0.0220036,0.0181849 -0.0374772,0.0272703 -0.0155587,0.00908537 -0.0294565,0.0159278 -0.0417785,0.0204279l0 -0.0382295c0.022174,-0.0104482 0.0415514,-0.0230683 0.0581464,-0.0378605 0.016524,-0.0148773 0.0283208,-0.0292293 0.0352342,-0.0431981l0.0254674 0 0 0.323993zm0.104113 -0.280355l0 -0.0380734 0.208836 0 0 0.0307909c-0.0205131,0.0218617 -0.04087,0.0509349 -0.0610707,0.0871486 -0.020144,0.0361995 -0.0357595,0.0735347 -0.0467329,0.111778 -0.0079639,0.0270432 -0.0129892,0.0565564 -0.0151754,0.0887102l-0.0407138 0c0.000454269,-0.0253965 0.00540864,-0.0560454 0.0149483,-0.0920178 0.00953964,-0.0359156 0.0232103,-0.0706104 0.0410119,-0.103971 0.0178868,-0.0333462 0.03681,-0.061525 0.0569539,-0.0843662l-0.158057 0z"/>
 <path class="fil0" d="M-5.61456 6.13061l-0.0395924 0 0 -0.252403c-0.00953964,0.00908537 -0.0220036,0.0181849 -0.0374772,0.0272703 -0.0155587,0.00908537 -0.0294565,0.0159278 -0.0417785,0.0204279l0 -0.0382295c0.022174,-0.0104482 0.0415514,-0.0230683 0.0581464,-0.0378605 0.016524,-0.0148773 0.0283208,-0.0292293 0.0352342,-0.0431981l0.0254674 0 0 0.323993zm0.162472 -0.17495c-0.0164388,-0.00601906 -0.0286189,-0.0145792 -0.0365828,-0.0257656 -0.00787872,-0.0111296 -0.0118678,-0.0244879 -0.0118678,-0.0400466 0,-0.0235084 0.00841817,-0.0431981 0.0253255,-0.0591969 0.0168931,-0.0159988 0.03928,-0.0240337 0.0673027,-0.0240337 0.0281647,0 0.0508497,0.00819103 0.0680551,0.0245589 0.0171344,0.0163821 0.0256946,0.0362847 0.0256946,0.0598073 0,0.0149483 -0.00390387,0.0279375 -0.0117258,0.0390529 -0.00787872,0.0110444 -0.0197465,0.0196045 -0.0357453,0.0256236 0.0197465,0.00645913 0.0348509,0.0168221 0.0452139,0.0312452 0.010292,0.0143521 0.0154735,0.0315575 0.0154735,0.0514601 0,0.0276394 -0.00976678,0.0507787 -0.0292152,0.0695599 -0.0195336,0.0187812 -0.0452281,0.0281647 -0.0770695,0.0281647 -0.0318556,0 -0.0574792,-0.00938349 -0.0769985,-0.0282356 -0.0195336,-0.0188663 -0.0293003,-0.0423747 -0.0293003,-0.0705394 0,-0.0209673 0.00533766,-0.0385419 0.0159988,-0.0527378 0.0105901,-0.0141249 0.0257656,-0.0238065 0.0454411,-0.028917zm-0.0079497 -0.0671608c0,0.0152464 0.00495437,0.0277246 0.0147211,0.0374062 0.00983776,0.0096958 0.0226141,0.0145792 0.0383005,0.0145792 0.0152606,0 0.0277956,-0.00481241 0.0375623,-0.014423 0.00976678,-0.00962482 0.0145792,-0.0214074 0.0145792,-0.0353052 0,-0.0145792 -0.00495437,-0.0267451 -0.0150193,-0.036668 -0.0100791,-0.00990874 -0.0225431,-0.0148631 -0.0375623,-0.0148631 -0.0151044,0 -0.0276536,0.00488339 -0.0376333,0.014494 -0.00999391,0.0096958 -0.0149483,0.0213364 -0.0149483,0.0347799zm-0.0127763 0.149043c0,0.0112573 0.00269722,0.0222308 0.00803488,0.0327499 0.00533766,0.0105901 0.0133016,0.0187812 0.0238917,0.0245589 0.0105901,0.00579193 0.0219327,0.00871628 0.0340985,0.00871628 0.0189373,0 0.034567,-0.00609004 0.0468748,-0.0183269 0.012322,-0.0121659 0.0184831,-0.0276536 0.0184831,-0.0464206 0,-0.0190935 -0.00630298,-0.0348651 -0.0190083,-0.0473291 -0.0126911,-0.0124782 -0.0286189,-0.0187102 -0.0476982,-0.0187102 -0.018625,0 -0.0340276,0.00616102 -0.0462786,0.0184831 -0.0122369,0.012393 -0.0183979,0.0277956 -0.0183979,0.0462786z"/>
 <path class="fil0" d="M-5.61456 7.14203l-0.0395924 0 0 -0.252403c-0.00953964,0.00908537 -0.0220036,0.0181849 -0.0374772,0.0272703 -0.0155587,0.00908537 -0.0294565,0.0159278 -0.0417785,0.0204279l0 -0.0382295c0.022174,-0.0104482 0.0415514,-0.0230683 0.0581464,-0.0378605 0.016524,-0.0148773 0.0283208,-0.0292293 0.0352342,-0.0431981l0.0254674 0 0 0.323993zm0.10742 -0.0745994l0.0380876 -0.00352058c0.00322247,0.0178726 0.00938349,0.0308761 0.0184689,0.0389819 0.00909957,0.00803488 0.0207402,0.0120949 0.0350071,0.0120949 0.0121659,0 0.0228412,-0.0027824 0.0319975,-0.00841817 0.00917055,-0.0055506 0.0166802,-0.0129892 0.0225431,-0.0223018 0.00593388,-0.00931251 0.0108173,-0.0219327 0.0147921,-0.0377185 0.00391807,-0.0158426 0.00593388,-0.0319975 0.00593388,-0.0484506 0,-0.0017319 -7.09795e-005,-0.00442912 -0.000212938,-0.00787872 -0.0079639,0.012535 -0.0187812,0.022827 -0.0324518,0.0306489 -0.0137558,0.00787872 -0.0286331,0.0117826 -0.0445467,0.0117826 -0.0267451,0 -0.0493591,-0.0096816 -0.0678422,-0.0290732 -0.0184689,-0.0193774 -0.0277104,-0.0448448 -0.0277104,-0.0765443 0,-0.0327499 0.00961062,-0.0590407 0.028917,-0.0790286 0.0193064,-0.0199736 0.0434962,-0.0299675 0.0725694,-0.0299675 0.0209531,0 0.0401034,0.00570675 0.057536,0.0169783 0.0173474,0.0112715 0.030578,0.0274123 0.0395924,0.0482944 0.00901439,0.0208964 0.0135145,0.051162 0.0135145,0.0908253 0,0.0411681 -0.00442912,0.073989 -0.0133725,0.0984769 -0.00901439,0.0244169 -0.0223018,0.042971 -0.0399614,0.0557473 -0.0177307,0.0127621 -0.0383857,0.0191503 -0.0621922,0.0191503 -0.0252403,0 -0.0458244,-0.00698438 -0.0618231,-0.0210241 -0.0159988,-0.013983 -0.0256236,-0.0336585 -0.0288461,-0.0590549zm0.162174 -0.142427c0,-0.022685 -0.00600486,-0.0407848 -0.0180998,-0.0540864 -0.0121659,-0.0133725 -0.0266599,-0.0200588 -0.0437234,-0.0200588 -0.0175745,0 -0.0328919,0.00721152 -0.0459663,0.0215636 -0.0130744,0.014423 -0.0196045,0.0330622 -0.0196045,0.0558892 0,0.020584 0.006232,0.0372642 0.018625,0.0501115 0.012393,0.0128473 0.0276394,0.0192212 0.0458244,0.0192212 0.0183979,0 0.0334313,-0.00637396 0.0452281,-0.0192212 0.0118678,-0.0128473 0.0177165,-0.0306489 0.0177165,-0.0534192z"/>
 <path class="fil0" d="M-5.55552 8.11535l0 0.0380876 -0.213265 0c-0.000298114,-0.00953964 0.00120665,-0.0187102 0.00458527,-0.0274975 0.00540864,-0.014565 0.0141249,-0.0288461 0.0260637,-0.042971 0.0120239,-0.0140397 0.0293003,-0.0303366 0.0518292,-0.0488197 0.0350923,-0.0287751 0.0588278,-0.0515311 0.0711498,-0.0683674 0.0123078,-0.0167512 0.0184689,-0.0326648 0.0184689,-0.0476272 0,-0.0156865 -0.00563577,-0.028917 -0.0168221,-0.0397343 -0.0112715,-0.0107463 -0.0259217,-0.0161549 -0.0439505,-0.0161549 -0.0190793,0 -0.0343257,0.00572095 -0.0457392,0.0172054 -0.0114987,0.0114277 -0.0172764,0.0272703 -0.0174326,0.0474853l-0.0407138 -0.00413101c0.0027824,-0.030436 0.0133016,-0.0535611 0.0314723,-0.0694889 0.0181849,-0.0159278 0.0426729,-0.0238917 0.0733218,-0.0238917 0.0309471,0 0.055435,0.0086453 0.0734638,0.0257656 0.0180998,0.0172054 0.0271142,0.0384567 0.0271142,0.0638531 0,0.0129183 -0.00262624,0.0256094 -0.0079639,0.0380876 -0.00525248,0.012464 -0.0140397,0.0256094 -0.0262908,0.0393652 -0.0122369,0.0138126 -0.0325938,0.0327499 -0.0610707,0.0567836 -0.0237355,0.0199878 -0.0389819,0.0335023 -0.0457392,0.0406428 -0.00677144,0.00705536 -0.012322,0.0141959 -0.0167512,0.0214074l0.15827 0zm0.0424457 -0.12102c0,-0.0381586 0.00390387,-0.0688785 0.0117826,-0.0920888 0.00782194,-0.0232955 0.0195336,-0.0412391 0.0350071,-0.0538592 0.0154735,-0.0126202 0.0349361,-0.0189373 0.0583735,-0.0189373 0.0173474,0 0.0325228,0.00353478 0.0455972,0.0105192 0.0130744,0.0069134 0.0238065,0.0169783 0.0323808,0.0301237 0.00848915,0.0131454 0.0151754,0.0291442 0.0199736,0.0479963 0.00488339,0.0188521 0.00729669,0.0442486 0.00729669,0.0762462 0,0.0378605 -0.00391807,0.0683674 -0.0116548,0.0916487 -0.00780774,0.0232813 -0.0194484,0.0412391 -0.0349219,0.0539302 -0.0154735,0.0127053 -0.0350071,0.0190083 -0.0586716,0.0190083 -0.0311032,0 -0.0555201,-0.0111154 -0.0732366,-0.0334313 -0.0212655,-0.026816 -0.0319266,-0.0706104 -0.0319266,-0.131156zm0.0407138 0c0,0.0529649 0.006232,0.0881991 0.018625,0.105774 0.012393,0.0175035 0.0276394,0.0262908 0.0458244,0.0262908 0.0182559,0 0.0335023,-0.00885824 0.0458953,-0.026447 0.012393,-0.0175745 0.0186392,-0.0528087 0.0186392,-0.105617 0,-0.0531068 -0.00624619,-0.088412 -0.0186392,-0.105845 -0.012393,-0.0175035 -0.0277956,-0.0262198 -0.0462644,-0.0262198 -0.0182559,0 -0.0327641,0.00775096 -0.0436524,0.0231393 -0.0135997,0.0196045 -0.0204279,0.0559744 -0.0204279,0.108925z"/>
</symbol>
<symbol id="Fm3-53736-0" viewBox="-8.09549 -18.8319 36.6268 28.6137">
 <path class="fil3" d="M28.5313 -18.4312c0,-0.220349 -0.180288,-0.400637 -0.400637,-0.400637l-35.8255 0c-0.220349,0 -0.400637,0.180288 -0.400637,0.400637l0 27.8125c0,0.220349 0.180288,0.400637 0.400637,0.400637l35.8255 0c0.220349,0 0.400637,-0.180288 0.400637,-0.400637l0 -27.8125z"/>
</symbol>
<symbol id="Fm25-53731-0" viewBox="8.38337 -5.81025 4.40619 1.01817">
 <polygon class="fil2" points="8.42093,-5.77269 12.752,-5.77269 12.752,-4.82959 8.42093,-4.82959 "/>
 <path class="fil3" d="M12.7896 -5.81025l-4.40619 0 0 1.01817 4.40619 0 0 -1.01817zm-0.0751247 0.943048l-4.25594 0 0 -0.867923 4.25594 0 0 0.867923z"/>
</symbol>
<symbol id="Fm20-53726-0" viewBox="-4.83343 -9.87689 4.40619 1.01817">
 <polygon class="fil2" points="-4.79581,-9.83933 -0.464802,-9.83933 -0.464802,-8.89623 -4.79581,-8.89623 "/>
 <path class="fil3" d="M-0.42724 -9.87689l-4.40619 0 0 1.01817 4.40619 0 0 -1.01817zm-0.0751247 0.943104l-4.25594 0 0 -0.867937 4.25594 0 0 0.867937z"/>
</symbol>
<symbol id="Fm32-53739-0" viewBox="21.6169 -9.87689 4.40618 1.01817">
 <polygon class="fil5" points="21.6544,-9.83933 25.9855,-9.83933 25.9855,-8.89623 21.6544,-8.89623 "/>
 <path class="fil3" d="M26.023 -9.87689l-4.40618 0 0 1.01817 4.40618 0 0 -1.01817zm-0.0751105 0.943104l-4.25594 0 0 -0.867937 4.25594 0 0 0.867937z"/>
</symbol>
<symbol id="Fm19-53724-0" viewBox="-0.42724 -8.85868 4.40618 1.01819">
 <polygon class="fil2" points="-0.389677,-8.82112 3.94133,-8.82112 3.94133,-7.87806 -0.389677,-7.87806 "/>
 <path class="fil3" d="M3.97894 -8.85868l-4.40618 0 0 1.01819 4.40618 0 0 -1.01819zm-0.0751105 0.943062l-4.25596 0 0 -0.867937 4.25596 0 0 0.867937z"/>
</symbol>
<symbol id="Fm16-53721-0" viewBox="-4.85426 -10.9137 30.8683 24.4617">
 <polygon class="fil1 str0" points="-4.84174,-10.9012 26.0015,-10.9012 26.0015,13.5354 -4.84174,13.5354 "/>
 <line class="fil1 str0" x1="-4.84174" y1="6.40808" x2="26.0015" y2= "6.40808" />
 <line class="fil1 str0" x1="-4.84174" y1="5.38988" x2="26.0015" y2= "5.38988" />
 <line class="fil1 str0" x1="-4.84174" y1="4.3717" x2="26.0015" y2= "4.3717" />
 <line class="fil1 str0" x1="-4.84174" y1="3.3535" x2="26.0015" y2= "3.3535" />
 <line class="fil1 str0" x1="-4.84174" y1="2.3353" x2="26.0015" y2= "2.3353" />
 <line class="fil1 str0" x1="-4.84174" y1="1.31711" x2="26.0015" y2= "1.31711" />
 <line class="fil1 str0" x1="-4.84174" y1="0.298909" x2="26.0015" y2= "0.298909" />
 <line class="fil1 str0" x1="-4.84174" y1="-0.719278" x2="26.0015" y2= "-0.719278" />
 <line class="fil1 str0" x1="-4.84174" y1="-1.73748" x2="26.0015" y2= "-1.73748" />
 <line class="fil1 str0" x1="-4.84174" y1="-2.75568" x2="26.0015" y2= "-2.75568" />
 <line class="fil1 str0" x1="-4.84174" y1="-3.77387" x2="26.0015" y2= "-3.77387" />
 <line class="fil1 str0" x1="-4.84174" y1="-4.79207" x2="26.0015" y2= "-4.79207" />
 <line class="fil1 str0" x1="-4.84174" y1="-5.81027" x2="26.0015" y2= "-5.81027" />
 <line class="fil1 str0" x1="-4.84174" y1="-6.82845" x2="26.0015" y2= "-6.82845" />
 <line class="fil1 str0" x1="-4.84174" y1="-7.84665" x2="26.0015" y2= "-7.84665" />
 <line class="fil1 str0" x1="-4.84174" y1="-8.86485" x2="26.0015" y2= "-8.86485" />
 <line class="fil1 str0" x1="-4.84174" y1="-9.88304" x2="26.0015" y2= "-9.88304" />
 <line class="fil1 str0" x1="21.5953" y1="-10.9012" x2="21.5953" y2= "13.5354" />
 <line class="fil1 str0" x1="17.1891" y1="-10.9012" x2="17.1891" y2= "13.5354" />
 <line class="fil1 str0" x1="12.783" y1="-10.9012" x2="12.783" y2= "13.5354" />
 <line class="fil1 str0" x1="8.37679" y1="-10.9012" x2="8.37679" y2= "13.5354" />
 <line class="fil1 str0" x1="3.97061" y1="-10.9012" x2="3.97061" y2= "13.5354" />
 <line class="fil1 str0" x1="-0.435573" y1="-10.9012" x2="-0.435573" y2= "13.5354" />
</symbol>
<symbol id="Fm29-53735-0" viewBox="8.37806 -9.87689 4.40619 1.01817">
 <polygon class="fil5" points="8.41568,-9.83933 12.7467,-9.83933 12.7467,-8.89623 8.41568,-8.89623 "/>
 <path class="fil3" d="M12.7843 -9.87689l-4.40619 0 0 1.01817 4.40619 0 0 -1.01817zm-0.0751247 0.943104l-4.25594 0 0 -0.867937 4.25594 0 0 0.867937z"/>
</symbol>
<symbol id="Fm24-53730-0" viewBox="17.1957 -9.87689 4.40619 1.01817">
 <polygon class="fil2" points="17.2333,-9.83933 21.5644,-9.83933 21.5644,-8.89623 17.2333,-8.89623 "/>
 <path class="fil3" d="M21.6019 -9.87689l-4.40619 0 0 1.01817 4.40619 0 0 -1.01817zm-0.0751247 0.943104l-4.25594 0 0 -0.867937 4.25594 0 0 0.867937z"/>
</symbol>
 <g id="Layer_x0020_1">
  <metadata id="CorelCorpID_0Corel-Layer"/>
  <path class="fil1 str3" d="M0.440925 0.189146c0,-0.102452 -0.0630014,-0.176625 -0.165467,-0.176625l0 0.514615m-0.275457 -0.323851l0.173971 0m-0.0869925 -0.0869783l0 0.173971m0.185185 0.225104c0.0140823,0.0318556 -0.0184831,0.0770837 -0.0727114,0.101061 -0.0542425,0.0239485 -0.109621,0.0175887 -0.123703,-0.0142101 -0.0140681,-0.0318556 0.0184831,-0.0770837 0.0727256,-0.101061 0.0542283,-0.0239911 0.109621,-0.0175887 0.123689,0.0142101z"/>
 </g>
</svg>
