<?xml version="1.0" encoding="UTF-8"?>
<!DOCTYPE svg PUBLIC "-//W3C//DTD SVG 1.1//EN" "http://www.w3.org/Graphics/SVG/1.1/DTD/svg11.dtd">
<!-- Creator: CorelDRAW -->
<svg xmlns="http://www.w3.org/2000/svg" xml:space="preserve" width="55px" height="61px" style="shape-rendering:geometricPrecision; text-rendering:geometricPrecision; image-rendering:optimizeQuality; fill-rule:evenodd; clip-rule:evenodd"
viewBox="0 0 1.78308 2.0107"
 xmlns:xlink="http://www.w3.org/1999/xlink">
 <defs>
  <style type="text/css">
   <![CDATA[
    .str3 {stroke:#686868;stroke-width:0.0681593}
    .str2 {stroke:white;stroke-width:0.0681593}
    .str1 {stroke:#231F20;stroke-width:0.0681593}
    .str0 {stroke:#686868;stroke-width:0.0681593}
    .fil2 {fill:none;fill-rule:nonzero}
    .fil0 {fill:#686868;fill-rule:nonzero}
    .fil6 {fill:lightgrey;fill-rule:nonzero}
    .fil1 {fill:#F9F9F9;fill-rule:nonzero}
    .fil3 {fill:#FF7676;fill-rule:nonzero}
    .fil5 {fill:#FFD550;fill-rule:nonzero}
    .fil4 {fill:white;fill-rule:nonzero}
    .fil7 {fill:url(#id2)}
   ]]>
  </style>
  <clipPath id="id0" style="clip-rule:nonzero">
   <rect x="32.1353" y="-41.0113" width="13.5543" height="11.225"/>
  </clipPath>
  <pattern id="id1" patternUnits="userSpaceOnUse" patternTransform="matrix(1 0 0 1 -89.0111 82.884)" x="0" y="0" width="3.99393" height="3.99385" viewBox="27.5 24.5967 3.92577 3.92569">
   <polygon id="1" class="fil4" points="17.6857,14.7824 41.2401,14.7824 41.2401,38.3367 17.6857,38.3367 "/>
   <path id="12" class="fil4" d="M31.4257 28.6205c0.0539788,0 0.0981432,-0.0440485 0.0981432,-0.0981432 0,-0.0542492 -0.0441644,-0.0980273 -0.0981432,-0.0980273 -0.0542492,0 -0.0981432,0.0437781 -0.0981432,0.0980273 0,0.0540947 0.043894,0.0981432 0.0981432,0.0981432z"/>
   <path id="123" class="fil2 str2" d="M31.4257 28.6205c0.0539788,0 0.0981432,-0.0440485 0.0981432,-0.0981432 0,-0.0542492 -0.0441644,-0.0980273 -0.0981432,-0.0980273 -0.0542492,0 -0.0981432,0.0437781 -0.0981432,0.0980273 0,0.0540947 0.043894,0.0981432 0.0981432,0.0981432z"/>
   <path id="1234" class="fil4" d="M29.4628 28.6205c0.0540947,0 0.0981432,-0.0440485 0.0981432,-0.0981432 0,-0.0542492 -0.0440485,-0.0980273 -0.0981432,-0.0980273 -0.0541333,0 -0.0981432,0.0437781 -0.0981432,0.0980273 0,0.0540947 0.0440099,0.0981432 0.0981432,0.0981432z"/>
   <path id="12345" class="fil2 str2" d="M29.4628 28.6205c0.0540947,0 0.0981432,-0.0440485 0.0981432,-0.0981432 0,-0.0542492 -0.0440485,-0.0980273 -0.0981432,-0.0980273 -0.0541333,0 -0.0981432,0.0437781 -0.0981432,0.0980273 0,0.0540947 0.0440099,0.0981432 0.0981432,0.0981432z"/>
   <path id="123456" class="fil4" d="M31.4257 26.6577c0.0539788,0 0.0981432,-0.0440485 0.0981432,-0.0982978 0,-0.0542492 -0.0441644,-0.0979887 -0.0981432,-0.0979887 -0.0542492,0 -0.0981432,0.0437394 -0.0981432,0.0979887 0,0.0542492 0.043894,0.0982978 0.0981432,0.0982978z"/>
   <path id="1234567" class="fil2 str2" d="M31.4257 26.6577c0.0539788,0 0.0981432,-0.0440485 0.0981432,-0.0982978 0,-0.0542492 -0.0441644,-0.0979887 -0.0981432,-0.0979887 -0.0542492,0 -0.0981432,0.0437394 -0.0981432,0.0979887 0,0.0542492 0.043894,0.0982978 0.0981432,0.0982978z"/>
   <path id="12345678" class="fil4" d="M29.4628 26.6577c0.0540947,0 0.0981432,-0.0440485 0.0981432,-0.0982978 0,-0.0542492 -0.0440485,-0.0979887 -0.0981432,-0.0979887 -0.0541333,0 -0.0981432,0.0437394 -0.0981432,0.0979887 0,0.0542492 0.0440099,0.0982978 0.0981432,0.0982978z"/>
   <path id="123456789" class="fil2 str2" d="M29.4628 26.6577c0.0540947,0 0.0981432,-0.0440485 0.0981432,-0.0982978 0,-0.0542492 -0.0440485,-0.0979887 -0.0981432,-0.0979887 -0.0541333,0 -0.0981432,0.0437394 -0.0981432,0.0979887 0,0.0542492 0.0440099,0.0982978 0.0981432,0.0982978z"/>
   <path id="12345678910" class="fil4" d="M28.4814 27.6391c0.0540947,0 0.0981432,-0.043894 0.0981432,-0.0981432 0,-0.0542492 -0.0440485,-0.0980273 -0.0981432,-0.0980273 -0.0542492,0 -0.0981432,0.0437781 -0.0981432,0.0980273 0,0.0542492 0.043894,0.0981432 0.0981432,0.0981432z"/>
   <path id="1234567891011" class="fil2 str2" d="M28.4814 27.6391c0.0540947,0 0.0981432,-0.043894 0.0981432,-0.0981432 0,-0.0542492 -0.0440485,-0.0980273 -0.0981432,-0.0980273 -0.0542492,0 -0.0981432,0.0437781 -0.0981432,0.0980273 0,0.0542492 0.043894,0.0981432 0.0981432,0.0981432z"/>
   <path id="123456789101112" class="fil4" d="M30.4443 27.6391c0.0540947,0 0.0981432,-0.043894 0.0981432,-0.0981432 0,-0.0542492 -0.0440485,-0.0980273 -0.0981432,-0.0980273 -0.0542492,0 -0.0981432,0.0437781 -0.0981432,0.0980273 0,0.0542492 0.043894,0.0981432 0.0981432,0.0981432z"/>
   <path id="12345678910111213" class="fil2 str2" d="M30.4443 27.6391c0.0540947,0 0.0981432,-0.043894 0.0981432,-0.0981432 0,-0.0542492 -0.0440485,-0.0980273 -0.0981432,-0.0980273 -0.0542492,0 -0.0981432,0.0437781 -0.0981432,0.0980273 0,0.0542492 0.043894,0.0981432 0.0981432,0.0981432z"/>
   <path id="1234567891011121314" class="fil4" d="M28.4814 25.6761c0.0540947,0 0.0981432,-0.0438553 0.0981432,-0.0979887 0,-0.0542492 -0.0440485,-0.0981432 -0.0981432,-0.0981432 -0.0542492,0 -0.0981432,0.043894 -0.0981432,0.0981432 0,0.0541333 0.043894,0.0979887 0.0981432,0.0979887z"/>
   <path id="123456789101112131415" class="fil2 str2" d="M28.4814 25.6761c0.0540947,0 0.0981432,-0.0438553 0.0981432,-0.0979887 0,-0.0542492 -0.0440485,-0.0981432 -0.0981432,-0.0981432 -0.0542492,0 -0.0981432,0.043894 -0.0981432,0.0981432 0,0.0541333 0.043894,0.0979887 0.0981432,0.0979887z"/>
   <path id="12345678910111213141516" class="fil4" d="M30.4443 25.6761c0.0540947,0 0.0981432,-0.0438553 0.0981432,-0.0979887 0,-0.0542492 -0.0440485,-0.0981432 -0.0981432,-0.0981432 -0.0542492,0 -0.0981432,0.043894 -0.0981432,0.0981432 0,0.0541333 0.043894,0.0979887 0.0981432,0.0979887z"/>
   <path id="1234567891011121314151617" class="fil2 str2" d="M30.4443 25.6761c0.0540947,0 0.0981432,-0.0438553 0.0981432,-0.0979887 0,-0.0542492 -0.0440485,-0.0981432 -0.0981432,-0.0981432 -0.0542492,0 -0.0981432,0.043894 -0.0981432,0.0981432 0,0.0541333 0.043894,0.0979887 0.0981432,0.0979887z"/>
   <path id="123456789101112131415161718" class="fil4" d="M27.4999 28.6205c0.0539788,0 0.0981432,-0.0440485 0.0981432,-0.0981432 0,-0.0542492 -0.0441644,-0.0980273 -0.0981432,-0.0980273 -0.0542492,0 -0.0981432,0.0437781 -0.0981432,0.0980273 0,0.0540947 0.043894,0.0981432 0.0981432,0.0981432z"/>
   <path id="12345678910111213141516171819" class="fil2 str2" d="M27.4999 28.6205c0.0539788,0 0.0981432,-0.0440485 0.0981432,-0.0981432 0,-0.0542492 -0.0441644,-0.0980273 -0.0981432,-0.0980273 -0.0542492,0 -0.0981432,0.0437781 -0.0981432,0.0980273 0,0.0540947 0.043894,0.0981432 0.0981432,0.0981432z"/>
   <path id="1234567891011121314151617181920" class="fil4" d="M27.4999 26.6577c0.0539788,0 0.0981432,-0.0440485 0.0981432,-0.0982978 0,-0.0542492 -0.0441644,-0.0979887 -0.0981432,-0.0979887 -0.0542492,0 -0.0981432,0.0437394 -0.0981432,0.0979887 0,0.0542492 0.043894,0.0982978 0.0981432,0.0982978z"/>
   <path id="123456789101112131415161718192021" class="fil2 str2" d="M27.4999 26.6577c0.0539788,0 0.0981432,-0.0440485 0.0981432,-0.0982978 0,-0.0542492 -0.0441644,-0.0979887 -0.0981432,-0.0979887 -0.0542492,0 -0.0981432,0.0437394 -0.0981432,0.0979887 0,0.0542492 0.043894,0.0982978 0.0981432,0.0982978z"/>
   <path id="12345678910111213141516171819202122" class="fil4" d="M31.4257 24.6948c0.0539788,0 0.0981432,-0.0440099 0.0981432,-0.0981432 0,-0.0542492 -0.0441644,-0.0979887 -0.0981432,-0.0979887 -0.0542492,0 -0.0981432,0.0437394 -0.0981432,0.0979887 0,0.0541333 0.043894,0.0981432 0.0981432,0.0981432z"/>
   <path id="1234567891011121314151617181920212223" class="fil2 str2" d="M31.4257 24.6948c0.0539788,0 0.0981432,-0.0440099 0.0981432,-0.0981432 0,-0.0542492 -0.0441644,-0.0979887 -0.0981432,-0.0979887 -0.0542492,0 -0.0981432,0.0437394 -0.0981432,0.0979887 0,0.0541333 0.043894,0.0981432 0.0981432,0.0981432z"/>
   <path id="123456789101112131415161718192021222324" class="fil4" d="M29.4628 24.6948c0.0540947,0 0.0981432,-0.0440099 0.0981432,-0.0981432 0,-0.0542492 -0.0440485,-0.0979887 -0.0981432,-0.0979887 -0.0541333,0 -0.0981432,0.0437394 -0.0981432,0.0979887 0,0.0541333 0.0440099,0.0981432 0.0981432,0.0981432z"/>
   <path id="12345678910111213141516171819202122232425" class="fil2 str2" d="M29.4628 24.6948c0.0540947,0 0.0981432,-0.0440099 0.0981432,-0.0981432 0,-0.0542492 -0.0440485,-0.0979887 -0.0981432,-0.0979887 -0.0541333,0 -0.0981432,0.0437394 -0.0981432,0.0979887 0,0.0541333 0.0440099,0.0981432 0.0981432,0.0981432z"/>
   <path id="1234567891011121314151617181920212223242526" class="fil4" d="M27.4999 24.6948c0.0539788,0 0.0981432,-0.0440099 0.0981432,-0.0981432 0,-0.0542492 -0.0441644,-0.0979887 -0.0981432,-0.0979887 -0.0542492,0 -0.0981432,0.0437394 -0.0981432,0.0979887 0,0.0541333 0.043894,0.0981432 0.0981432,0.0981432z"/>
   <path id="123456789101112131415161718192021222324252627" class="fil2 str2" d="M27.4999 24.6948c0.0539788,0 0.0981432,-0.0440099 0.0981432,-0.0981432 0,-0.0542492 -0.0441644,-0.0979887 -0.0981432,-0.0979887 -0.0542492,0 -0.0981432,0.0437394 -0.0981432,0.0979887 0,0.0541333 0.043894,0.0981432 0.0981432,0.0981432z"/>
  </pattern>
  <linearGradient id="id2" gradientUnits="userSpaceOnUse" x1="95.6754" y1="28.4811" x2="95.6754" y2="-53.2622">
   <stop offset="0" style="stop-color:#EF5053"/>
   <stop offset="0.0117647" style="stop-color:#EF5053"/>
   <stop offset="1" style="stop-color:#F8D322"/>
  </linearGradient>
 </defs>
<symbol id="Fm7-53743-0" viewBox="100.633 -40.8528 17.6523 2.33295">
 <path class="fil0" d="M104.278 -39.9127c0,-0.129595 0.0346979,-0.230984 0.104325,-0.304244 0.069589,-0.0732597 0.159386,-0.109967 0.269546,-0.109967 0.0719459,0 0.137014,0.0172717 0.194818,0.0516218 0.057804,0.0345433 0.101968,0.082533 0.1323,0.144124 0.0303703,0.0614361 0.0454395,0.131411 0.0454395,0.209385 0,0.0792487 -0.0158034,0.150113 -0.0477965,0.212438 -0.0319931,0.062518 -0.0772395,0.109774 -0.135778,0.14196 -0.0586927,0.0321477 -0.121752,0.0481443 -0.189563,0.0481443 -0.0736074,0 -0.139217,-0.0176194 -0.196982,-0.0532446 -0.0579972,-0.035432 -0.101775,-0.0839627 -0.131605,-0.145399 -0.0297907,-0.0612429 -0.0447054,-0.126311 -0.0447054,-0.194818zm0.106489 0.00162284c0,0.0941634 0.0252699,0.168119 0.0758098,0.222291 0.0506944,0.054172 0.11414,0.0812193 0.190452,0.0812193 0.0777804,0 0.141767,-0.0272405 0.19192,-0.0819535 0.0501921,-0.0547129 0.0754234,-0.1323 0.0754234,-0.2328 0,-0.0634453 -0.0108962,-0.118892 -0.0323409,-0.166303 -0.0214447,-0.0474488 -0.0528969,-0.0841559 -0.0941248,-0.110315 -0.0414597,-0.0260041 -0.0877879,-0.0391027 -0.139217,-0.0391027 -0.0732597,0 -0.136125,0.0250768 -0.188829,0.0754234 -0.0527423,0.0501921 -0.0790942,0.134155 -0.0790942,0.25154zm0.911109 0.378586l0 -0.780586 0.346051 0c0.069589,0 0.122486,0.00707095 0.158652,0.0210583 0.0361662,0.014026 0.0650682,0.0387163 0.0868993,0.0741484 0.0215992,0.0356252 0.0323409,0.0748825 0.0323409,0.117772 0,0.0554471 -0.0178126,0.101968 -0.0537856,0.139951 -0.0358184,0.0379822 -0.0912655,0.0621703 -0.166148,0.0725255 0.0274724,0.0130986 0.0481829,0.0260041 0.0623634,0.0389095 0.0301771,0.0276269 0.0586927,0.0623248 0.0857787,0.103746l0.135778 0.212476 -0.129982 0 -0.103205 -0.162477c-0.0301771,-0.0467146 -0.0550993,-0.0826876 -0.0747279,-0.107417 -0.0194354,-0.0248836 -0.0368617,-0.0423484 -0.0523173,-0.0521627 -0.0154556,-0.0100075 -0.0310658,-0.0168853 -0.0470624,-0.0209037 -0.0118236,-0.00235698 -0.0309112,-0.00363207 -0.0576108,-0.00363207l-0.119781 0 0 0.346592 -0.103244 0zm0.103244 -0.436003l0.222097 0c0.0470624,0 0.0841172,-0.00490716 0.110662,-0.0147215 0.0267382,-0.00981432 0.0469078,-0.0254631 0.060702,-0.0469078 0.0138328,-0.0214447 0.0207105,-0.0447054 0.0207105,-0.0699753 0,-0.0368617 -0.0132532,-0.067232 -0.040146,-0.0910336 -0.0266996,-0.0238017 -0.069048,-0.0356252 -0.127045,-0.0356252l-0.246981 0 0 0.258263zm1.18425 0.12975l0 -0.09142 0.330596 -0.000540947 0 0.289522c-0.0506944,0.0405324 -0.10305,0.0709027 -0.157029,0.09142 -0.0539788,0.0203628 -0.109387,0.0305249 -0.166109,0.0305249 -0.0766985,0 -0.146481,-0.0163443 -0.208999,-0.0492262 -0.0627112,-0.0327273 -0.109967,-0.0803306 -0.14196,-0.142308 -0.0319931,-0.0621703 -0.0479897,-0.131605 -0.0479897,-0.208303 0,-0.0759644 0.0159966,-0.146828 0.0478352,-0.212631 0.0316068,-0.0659569 0.077394,-0.114874 0.137014,-0.146867 0.0596201,-0.0317999 0.12832,-0.0477965 0.206101,-0.0477965 0.0563358,0 0.107417,0.00911882 0.153049,0.0274724 0.0455941,0.0181604 0.0814125,0.0436235 0.107223,0.0763121 0.0259654,0.0327273 0.0455941,0.0752303 0.0592337,0.127779l-0.0932361 0.0256177c-0.0118236,-0.0397982 -0.0263518,-0.0710572 -0.0436235,-0.093777 -0.0174262,-0.0227198 -0.0423484,-0.0408801 -0.0746893,-0.0545197 -0.0321863,-0.0136396 -0.0681593,-0.020556 -0.107417,-0.020556 -0.0472556,0 -0.0881357,0.00730278 -0.122486,0.0216379 -0.0345433,0.0143737 -0.0621703,0.0332682 -0.0834217,0.0567221 -0.0210969,0.0234153 -0.0374413,0.0490716 -0.0492648,0.0772395 -0.0197832,0.0481443 -0.0297907,0.1005 -0.0297907,0.157029 0,0.069589 0.0119781,0.127741 0.035973,0.174649 0.0239949,0.0468692 0.0588859,0.0816057 0.104673,0.104325 0.0458259,0.0227198 0.0943566,0.0341569 0.145785,0.0341569 0.0448986,0 0.0884835,-0.00873243 0.131025,-0.0260041 0.0427348,-0.0170785 0.0748825,-0.035432 0.0968681,-0.0550607l0 -0.145399 -0.229361 0zm0.533451 0.306253l0.299878 -0.780586 0.111203 0 0.319506 0.780586 -0.117772 0 -0.0910336 -0.236432 -0.326423 0 -0.0855855 0.236432 -0.109774 0zm0.225188 -0.320588l0.264793 0 -0.0816057 -0.216108c-0.024729,-0.0656091 -0.0432757,-0.119588 -0.0552539,-0.161936 -0.0100075,0.0501535 -0.0239949,0.0997661 -0.0421552,0.149224l-0.0857787 0.228821zm0.723169 0.320588l0 -0.780586 0.105948 0 0.409999 0.612854 0 -0.612854 0.0990706 0 0 0.780586 -0.105948 0 -0.410038 -0.613395 0 0.613395 -0.0990319 0zm0.942523 0l0 -0.780586 0.103244 0 0 0.780586 -0.103244 0zm0.359305 0l0 -0.0957862 0.399876 -0.499989c0.0285156,-0.0356252 0.0554084,-0.0664978 0.0810261,-0.0926565l-0.435617 0 0 -0.0921542 0.55903 0 0 0.0921542 -0.438167 0.541411 -0.0474488 0.0548675 0.498521 0 0 0.0921542 -0.61722 0zm0.866945 0l0 -0.780586 0.564324 0 0 0.0921542 -0.46108 0 0 0.238983 0.43183 0 0 0.0915746 -0.43183 0 0 0.265721 0.47924 0 0 0.0921542 -0.582484 0zm1.2657 -0.250806l0.0974091 -0.00853923c0.00455941,0.0390641 0.0152624,0.0710572 0.0321863,0.096134 0.0168853,0.0250768 0.0430439,0.0452463 0.0785146,0.060702 0.035432,0.0154556 0.0754234,0.0230675 0.119742,0.0230675 0.0394505,0 0.074187,-0.00579586 0.104325,-0.0174262 0.0301771,-0.0118236 0.0527037,-0.0278201 0.0674252,-0.0481829 0.0147215,-0.0205173 0.0221788,-0.0426962 0.0221788,-0.0668456 0,-0.0245358 -0.00707095,-0.0458259 -0.0214447,-0.0641795 -0.0141805,-0.0183536 -0.0375958,-0.033616 -0.0701299,-0.0459805 -0.0210969,-0.00819148 -0.0672706,-0.0209037 -0.139062,-0.0381754 -0.0715982,-0.0172717 -0.121945,-0.0334228 -0.150654,-0.0486852 -0.0372481,-0.0194741 -0.0650682,-0.0438167 -0.0834217,-0.0727187 -0.0181604,-0.028902 -0.0272792,-0.0612429 -0.0272792,-0.0972159 0,-0.0392573 0.0110894,-0.0761576 0.0334614,-0.110315 0.0223334,-0.0343501 0.0550607,-0.0603542 0.09795,-0.0781668 0.0430826,-0.0176194 0.0906859,-0.026545 0.143235,-0.026545 0.0579586,0 0.108846,0.00927337 0.153204,0.0280133 0.0441644,0.0185467 0.0781282,0.0459805 0.101968,0.0821466 0.0236085,0.0361662 0.0365139,0.0772395 0.0383299,0.123027l-0.0990319 0.00745734c-0.00548675,-0.0492648 -0.0234539,-0.0867061 -0.054172,-0.111783 -0.0307181,-0.0252699 -0.0759644,-0.037789 -0.135932,-0.037789 -0.0625566,0 -0.107958,0.0114372 -0.136705,0.0343501 -0.0285156,0.022913 -0.0428894,0.0505399 -0.0428894,0.0826876 0,0.0281679 0.0102007,0.051274 0.0303703,0.0692412 0.0199764,0.018199 0.0717914,0.0367071 0.155754,0.0556402 0.0839627,0.0190491 0.141574,0.0355866 0.172833,0.0497671 0.0454395,0.0210969 0.0790555,0.047642 0.100693,0.0796351 0.0216379,0.0321477 0.0323409,0.0692412 0.0323409,0.11101 0,0.0416529 -0.0118236,0.080717 -0.0356252,0.117424 -0.0238017,0.0367071 -0.0579586,0.0652614 -0.102509,0.0857787 -0.0445122,0.0203628 -0.0946657,0.0305249 -0.150306,0.0305249 -0.0706708,0 -0.129943,-0.0101621 -0.177546,-0.0308726 -0.0477965,-0.020556 -0.0852378,-0.0514286 -0.112517,-0.0928883 -0.0270473,-0.0412665 -0.0414211,-0.0881357 -0.0426962,-0.140298zm1.45561 -0.022913l0.103398 0.0261973c-0.0216379,0.0846968 -0.060702,0.149379 -0.116845,0.194084 -0.0563358,0.0445508 -0.125036,0.066691 -0.206487,0.066691 -0.0841172,0 -0.15247,-0.0170785 -0.205173,-0.0512354 -0.0527037,-0.0343501 -0.0928883,-0.0839627 -0.120322,-0.148838 -0.0274337,-0.0650682 -0.0412665,-0.13485 -0.0412665,-0.209385 0,-0.0812579 0.0154556,-0.152122 0.0465601,-0.212631 0.0310658,-0.0605474 0.0752303,-0.106528 0.132648,-0.137941 0.0572631,-0.0314522 0.120322,-0.047101 0.189215,-0.047101 0.0781282,0 0.143737,0.0198218 0.197021,0.0596201 0.0532446,0.0397982 0.0902995,0.095593 0.111203,0.167771l-0.101582 0.0239949c-0.018199,-0.0569153 -0.0443576,-0.0981432 -0.078901,-0.124147 -0.0343501,-0.0260041 -0.0775872,-0.0389095 -0.129943,-0.0389095 -0.0599678,0 -0.109928,0.0143737 -0.150306,0.0430826 -0.0403392,0.028902 -0.0687003,0.0674252 -0.0848514,0.115956 -0.016383,0.0483375 -0.0245358,0.0983364 -0.0245358,0.149765 0,0.0664978 0.00962113,0.124302 0.028902,0.173914 0.0194354,0.049458 0.0494194,0.0865129 0.0902995,0.111049 0.0409188,0.0245358 0.0850832,0.0367071 0.132687,0.0367071 0.057804,0 0.106682,-0.0166921 0.146867,-0.0499603 0.040146,-0.0334614 0.067232,-0.083074 0.0814125,-0.148683zm0.370046 0.273719l0 -0.780586 0.103398 0 0 0.320588 0.405672 0 0 -0.320588 0.103398 0 0 0.780586 -0.103398 0 0 -0.367844 -0.405672 0 0 0.367844 -0.103398 0zm0.922894 0l0 -0.780586 0.564324 0 0 0.0921542 -0.46108 0 0 0.238983 0.43183 0 0 0.0915746 -0.43183 0 0 0.265721 0.47924 0 0 0.0921542 -0.582484 0zm0.861497 0l0 -0.780586 0.268812 0c0.060702,0 0.10703,0.00382527 0.139023,0.011244 0.0447054,0.0102007 0.0828808,0.028902 0.114488,0.0557948 0.0410733,0.0349297 0.0719846,0.0792487 0.0923474,0.133421 0.0205173,0.054172 0.0307181,0.115956 0.0307181,0.185545 0,0.0592723 -0.00691639,0.111783 -0.0209037,0.15757 -0.0138328,0.0458259 -0.0314522,0.0838081 -0.0532833,0.113792 -0.0215992,0.0299839 -0.0452463,0.0535924 -0.0710572,0.0707095 -0.0256177,0.017233 -0.0566835,0.0303317 -0.0930429,0.0392573 -0.0365139,0.00888698 -0.0783214,0.0132532 -0.125422,0.0132532l-0.281679 0zm0.103205 -0.0921542l0.166689 0c0.0514286,0 0.091961,-0.00471397 0.121211,-0.0143351 0.0292498,-0.00965977 0.0525105,-0.0231062 0.0699753,-0.0405324 0.0245358,-0.0243812 0.0436235,-0.0574563 0.0572631,-0.0986842 0.0136009,-0.0414597 0.0205173,-0.09142 0.0205173,-0.150499 0,-0.0816057 -0.0134464,-0.144317 -0.040146,-0.188095 -0.0268928,-0.0440099 -0.0594269,-0.0732597 -0.0977955,-0.0881743 -0.0276269,-0.010703 -0.0723323,-0.0159579 -0.133575,-0.0159579l-0.164139 0 0 0.596278zm1.33278 -0.688432l0.103398 0 0 0.451072c0,0.07836 -0.00888698,0.140685 -0.0266996,0.186859 -0.0178126,0.046135 -0.0498058,0.0835763 -0.0961726,0.112478 -0.0463282,0.0290952 -0.10703,0.0434303 -0.18226,0.0434303 -0.0730665,0 -0.133034,-0.0125191 -0.179401,-0.037789 -0.0465214,-0.0250768 -0.0797897,-0.0616293 -0.0995729,-0.109426 -0.020015,-0.0477965 -0.0298294,-0.112865 -0.0298294,-0.195552l0 -0.451072 0.103244 0 0 0.450531c0,0.0678116 0.00633681,0.117772 0.0188945,0.149765 0.0125577,0.0321863 0.0343501,0.0568767 0.064875,0.0743416 0.0307181,0.0174262 0.0683525,0.0261586 0.112672,0.0261586 0.076003,0 0.130136,-0.0172717 0.162516,-0.0517763 0.0321477,-0.0343501 0.0483375,-0.100539 0.0483375,-0.198489l0 -0.450531zm0.407294 0.780586l0 -0.780586 0.103398 0 0 0.688432 0.38442 0 0 0.0921542 -0.487818 0zm0.749327 0l0 -0.780586 0.564324 0 0 0.0921542 -0.46108 0 0 0.238983 0.43183 0 0 0.0915746 -0.43183 0 0 0.265721 0.47924 0 0 0.0921542 -0.582484 0z"/>
 <polygon class="fil1 str0" points="102.381,-38.8763 100.667,-38.8763 100.667,-40.5913 102.381,-40.5913 "/>
 <line class="fil2 str0" x1="100.999" y1="-40.3574" x2="100.999" y2= "-40.8528" />
 <line class="fil2 str0" x1="102.059" y1="-40.3574" x2="102.059" y2= "-40.8528" />
 <polygon class="fil1 str0" points="102.704,-38.554 100.989,-38.554 100.989,-40.2689 102.704,-40.2689 "/>
</symbol>
<symbol id="Fm18-53723-0" viewBox="66.0592 -7.27121 11.993 2.77131">
 <polygon class="fil3" points="66.1616,-7.16898 77.95,-7.16898 77.95,-4.60199 66.1616,-4.60199 "/>
 <path class="fil4" d="M78.0522 -7.27121l-11.993 0 0 2.77131 11.993 0 0 -2.77131zm-0.204478 2.56683l-11.584 0 0 -2.36235 11.584 0 0 2.36235z"/>
</symbol>
<symbol id="Fm14-53719-0" viewBox="27.5262 8.30964 23.2084 0.0681593">
 <line class="fil2 str1" x1="50.7346" y1="8.34372" x2="27.5262" y2= "8.34372" />
</symbol>
<symbol id="Fm0-54062-0" viewBox="33.1855 -40.8589 10.4737 10.4735">
 <path class="fil1" d="M43.6592 -35.6222c0,2.89225 -2.34466,5.23675 -5.23675,5.23675 -2.89237,0 -5.23691,-2.3445 -5.23691,-5.23675 0,-2.89221 2.34454,-5.23675 5.23691,-5.23675 2.8921,0 5.23675,2.34454 5.23675,5.23675z"/>
</symbol>
<symbol id="Fm31-53738-0" viewBox="114.015 -18.34 11.9929 2.77131">
 <polygon class="fil5" points="114.117,-18.2378 125.906,-18.2378 125.906,-15.6708 114.117,-15.6708 "/>
 <path class="fil4" d="M126.008 -18.34l-11.9929 0 0 2.77131 11.9929 0 0 -2.77131zm-0.204439 2.56699l-11.584 0 0 -2.36239 11.584 0 0 2.36239z"/>
</symbol>
<symbol id="Fm0-53714-0" viewBox="27.5 -53.3619 136.351 81.8431">
 <polygon class="fil6" points="27.5,-53.3619 163.851,-53.3619 163.851,28.4812 27.5,28.4812 "/>
</symbol>
<symbol id="Fm28-53734-0" viewBox="113.974 -7.27121 11.9929 2.77131">
 <polygon class="fil3" points="114.077,-7.16898 125.865,-7.16898 125.865,-4.60199 114.077,-4.60199 "/>
 <path class="fil4" d="M125.967 -7.27121l-11.9929 0 0 2.77131 11.9929 0 0 -2.77131zm-0.204478 2.56683l-11.584 0 0 -2.36235 11.584 0 0 2.36235z"/>
</symbol>
<symbol id="Fm10-49378-0" viewBox="32.1353 -41.0113 13.5543 11.225">
 <g style="clip-path:url(#id0)">
  <image transform="matrix(1 0 0 1 4.6353 -58.3088)" x="27.5" y="17.2943" width="13.5581" height="11.2281" xlink:href="my-schdul_Images\my-schdul_ImgID1.png"/>
 </g>
</symbol>
<symbol id="Fm5-53741-0" viewBox="27.4651 -48.8458 23.2774 77.4023">
 <polygon class="fil2 str1" points="50.7084,28.5224 27.4992,28.5224 27.4992,-48.8117 50.7084,-48.8117 "/>
</symbol>
<symbol id="Fm23-53729-0" viewBox="90.0378 -12.814 11.9929 2.77131">
 <polygon class="fil3" points="90.1401,-12.7117 101.928,-12.7117 101.928,-10.1448 90.1401,-10.1448 "/>
 <path class="fil4" d="M102.031 -12.814l-11.9929 0 0 2.77131 11.9929 0 0 -2.77131zm-0.204439 2.56699l-11.5841 0 0 -2.36239 11.5841 0 0 2.36239z"/>
</symbol>
<symbol id="Fm12-53717-0" viewBox="27.4659 -19.4815 23.2426 22.4684">
 <polyline class="fil2 str1" points="50.7084,2.95287 27.5,2.95287 27.5,-19.4474 50.7084,-19.4474 "/>
 <line class="fil2 str1" x1="27.5" y1="-2.6472" x2="50.7084" y2= "-2.6472" />
 <line class="fil2 str1" x1="27.5" y1="-8.24724" x2="50.7084" y2= "-8.24724" />
 <line class="fil2 str1" x1="27.5" y1="-13.8473" x2="50.7084" y2= "-13.8473" />
</symbol>
<symbol id="Fm30-53737-0" viewBox="90.0378 -18.34 11.9929 2.77131">
 <polygon class="fil5" points="90.1401,-18.2378 101.928,-18.2378 101.928,-15.6708 90.1401,-15.6708 "/>
 <path class="fil4" d="M102.031 -18.34l-11.9929 0 0 2.77131 11.9929 0 0 -2.77131zm-0.204439 2.56699l-11.5841 0 0 -2.36239 11.5841 0 0 2.36239z"/>
</symbol>
<symbol id="Fm9-53745-0" viewBox="90.3772 -42.7141 66.4957 5.73311">
 <line class="fil2 str1" x1="156.873" y1="-37.015" x2="90.4113" y2= "-37.015" />
 <line class="fil2 str1" x1="123.642" y1="-42.7141" x2="123.642" y2= "-37.0149" />
 <line class="fil2 str1" x1="90.4113" y1="-42.7141" x2="90.4113" y2= "-37.0149" />
</symbol>
<symbol id="Fm27-53733-0" viewBox="113.974 -12.814 11.9929 2.77131">
 <polygon class="fil3" points="114.077,-12.7117 125.865,-12.7117 125.865,-10.1449 114.077,-10.1449 "/>
 <path class="fil4" d="M125.967 -12.814l-11.9929 0 0 2.77131 11.9929 0 0 -2.77131zm-0.204478 2.56699l-11.584 0 0 -2.36239 11.584 0 0 2.36239z"/>
</symbol>
<symbol id="Fm22-53728-0" viewBox="90.0378 -7.27121 11.9929 2.77131">
 <polygon class="fil3" points="90.1401,-7.16898 101.928,-7.16898 101.928,-4.60199 90.1401,-4.60199 "/>
 <path class="fil4" d="M102.031 -7.27121l-11.9929 0 0 2.77131 11.9929 0 0 -2.77131zm-0.204439 2.56683l-11.5841 0 0 -2.36235 11.5841 0 0 2.36235z"/>
</symbol>
<symbol id="Fm17-53722-0" viewBox="78.0342 1.03251 11.993 2.77131">
 <polygon class="fil0" points="90.0272,3.80382 78.0342,3.80382 78.0342,1.03251 90.0272,1.03251 "/>
</symbol>
<symbol id="Fm13-53718-0" viewBox="27.4592 13.8213 23.2084 0.0681593">
 <line class="fil2 str1" x1="50.6676" y1="13.8554" x2="27.4592" y2= "13.8554" />
</symbol>
<symbol id="Fm26-53732-0" viewBox="126.019 -12.814 11.993 2.77131">
 <polygon class="fil3" points="126.122,-12.7117 137.91,-12.7117 137.91,-10.1448 126.122,-10.1448 "/>
 <path class="fil4" d="M138.012 -12.814l-11.993 0 0 2.77131 11.993 0 0 -2.77131zm-0.204478 2.56699l-11.584 0 0 -2.36239 11.584 0 0 2.36239z"/>
</symbol>
<symbol id="Fm15-53720-0" viewBox="92.0353 -32.195 1.54278 1.6109">
 <line class="fil2 str0" x1="92.0353" y1="-30.6182" x2="93.5781" y2= "-30.6182" />
 <line class="fil2 str0" x1="92.0353" y1="-31.1488" x2="93.5781" y2= "-31.1488" />
 <line class="fil2 str0" x1="92.0353" y1="-31.6794" x2="93.5781" y2= "-31.6794" />
 <line class="fil2 str0" x1="92.0353" y1="-32.1609" x2="93.5781" y2= "-32.1609" />
</symbol>
<symbol id="Fm8-53744-0" viewBox="133.712 -40.8474 15.5484 1.9658">
 <path class="fil0" d="M137.386 -39.5325l0 -0.780586 0.155561 0 0.184656 0.552693c0.0171171,0.0514286 0.0296362,0.0899517 0.0372867,0.115569 0.00888698,-0.0283611 0.0227198,-0.0701299 0.0416143,-0.125229l0.18682 -0.543033 0.139023 0 0 0.780586 -0.0995729 0 0 -0.653387 -0.226811 0.653387 -0.0932361 0 -0.225729 -0.664476 0 0.664476 -0.0996115 0zm0.96219 0l0.299878 -0.780586 0.111203 0 0.319506 0.780586 -0.117772 0 -0.0910336 -0.236432 -0.326423 0 -0.0855855 0.236432 -0.109774 0zm0.225188 -0.320588l0.264793 0 -0.0816057 -0.216108c-0.024729,-0.0656091 -0.0432757,-0.119588 -0.0552539,-0.161936 -0.0100075,0.0501535 -0.0239949,0.0997661 -0.0421552,0.149224l-0.0857787 0.228821zm0.723169 0.320588l0 -0.780586 0.105948 0 0.409999 0.612854 0 -0.612854 0.0990706 0 0 0.780586 -0.105948 0 -0.410038 -0.613395 0 0.613395 -0.0990319 0zm0.839125 0l0.299878 -0.780586 0.111203 0 0.319506 0.780586 -0.117772 0 -0.0910336 -0.236432 -0.326423 0 -0.0855855 0.236432 -0.109774 0zm0.225188 -0.320588l0.264793 0 -0.0816057 -0.216108c-0.024729,-0.0656091 -0.0432757,-0.119588 -0.0552539,-0.161936 -0.0100075,0.0501535 -0.0239949,0.0997661 -0.0421552,0.149224l-0.0857787 0.228821zm1.08954 0.0143351l0 -0.09142 0.330596 -0.000540947 0 0.289522c-0.0506944,0.0405324 -0.10305,0.0709027 -0.157029,0.09142 -0.0539788,0.0203628 -0.109387,0.0305249 -0.166109,0.0305249 -0.0766985,0 -0.146481,-0.0163443 -0.208999,-0.0492262 -0.0627112,-0.0327273 -0.109967,-0.0803306 -0.14196,-0.142308 -0.0319931,-0.0621703 -0.0479897,-0.131605 -0.0479897,-0.208303 0,-0.0759644 0.0159966,-0.146828 0.0478352,-0.212631 0.0316068,-0.0659569 0.077394,-0.114874 0.137014,-0.146867 0.0596201,-0.0317999 0.12832,-0.0477965 0.206101,-0.0477965 0.0563358,0 0.107417,0.00911882 0.153049,0.0274724 0.0455941,0.0181604 0.0814125,0.0436235 0.107223,0.0763121 0.0259654,0.0327273 0.0455941,0.0752303 0.0592337,0.127779l-0.0932361 0.0256177c-0.0118236,-0.0397982 -0.0263518,-0.0710572 -0.0436235,-0.093777 -0.0174262,-0.0227198 -0.0423484,-0.0408801 -0.0746893,-0.0545197 -0.0321863,-0.0136396 -0.0681593,-0.020556 -0.107417,-0.020556 -0.0472556,0 -0.0881357,0.00730278 -0.122486,0.0216379 -0.0345433,0.0143737 -0.0621703,0.0332682 -0.0834217,0.0567221 -0.0210969,0.0234153 -0.0374413,0.0490716 -0.0492648,0.0772395 -0.0197832,0.0481443 -0.0297907,0.1005 -0.0297907,0.157029 0,0.069589 0.0119781,0.127741 0.035973,0.174649 0.0239949,0.0468692 0.0588859,0.0816057 0.104673,0.104325 0.0458259,0.0227198 0.0943566,0.0341569 0.145785,0.0341569 0.0448986,0 0.0884835,-0.00873243 0.131025,-0.0260041 0.0427348,-0.0170785 0.0748825,-0.035432 0.0968681,-0.0550607l0 -0.145399 -0.229361 0zm0.621393 0.306253l0 -0.780586 0.564324 0 0 0.0921542 -0.46108 0 0 0.238983 0.43183 0 0 0.0915746 -0.43183 0 0 0.265721 0.47924 0 0 0.0921542 -0.582484 0zm1.30241 0l0 -0.780586 0.346051 0c0.069589,0 0.122486,0.00707095 0.158652,0.0210583 0.0361662,0.014026 0.0650682,0.0387163 0.0868993,0.0741484 0.0215992,0.0356252 0.0323409,0.0748825 0.0323409,0.117772 0,0.0554471 -0.0178126,0.101968 -0.0537856,0.139951 -0.0358184,0.0379822 -0.0912655,0.0621703 -0.166148,0.0725255 0.0274724,0.0130986 0.0481829,0.0260041 0.0623634,0.0389095 0.0301771,0.0276269 0.0586927,0.0623248 0.0857787,0.103746l0.135778 0.212476 -0.129982 0 -0.103205 -0.162477c-0.0301771,-0.0467146 -0.0550993,-0.0826876 -0.0747279,-0.107417 -0.0194354,-0.0248836 -0.0368617,-0.0423484 -0.0523173,-0.0521627 -0.0154556,-0.0100075 -0.0310658,-0.0168853 -0.0470624,-0.0209037 -0.0118236,-0.00235698 -0.0309112,-0.00363207 -0.0576108,-0.00363207l-0.119781 0 0 0.346592 -0.103244 0zm0.103244 -0.436003l0.222097 0c0.0470624,0 0.0841172,-0.00490716 0.110662,-0.0147215 0.0267382,-0.00981432 0.0469078,-0.0254631 0.060702,-0.0469078 0.0138328,-0.0214447 0.0207105,-0.0447054 0.0207105,-0.0699753 0,-0.0368617 -0.0132532,-0.067232 -0.040146,-0.0910336 -0.0266996,-0.0238017 -0.069048,-0.0356252 -0.127045,-0.0356252l-0.246981 0 0 0.258263zm0.821119 0.436003l0 -0.780586 0.564324 0 0 0.0921542 -0.46108 0 0 0.238983 0.43183 0 0 0.0915746 -0.43183 0 0 0.265721 0.47924 0 0 0.0921542 -0.582484 0zm0.861497 0l0 -0.780586 0.29443 0c0.0517763,0 0.09142,0.00255018 0.118661,0.00745734 0.0383686,0.00633681 0.0705163,0.0185081 0.0965204,0.0365139 0.0258109,0.0178126 0.0467146,0.0430826 0.062518,0.0752303 0.0158034,0.0323795 0.0236085,0.0678116 0.0236085,0.106528 0,0.0663433 -0.0210583,0.122679 -0.0632135,0.16866 -0.0423484,0.0457873 -0.118699,0.0688548 -0.229014,0.0688548l-0.200305 0 0 0.317343 -0.103205 0zm0.103205 -0.409458l0.201928 0c0.066691,0 0.11414,-0.0123645 0.142153,-0.0372867 0.0279747,-0.0248836 0.041962,-0.0597746 0.041962,-0.104866 0,-0.0326886 -0.00819148,-0.060702 -0.024729,-0.0839627 -0.0165375,-0.0232607 -0.0381368,-0.0385231 -0.0652227,-0.0459805 -0.0174649,-0.00452077 -0.049458,-0.00687775 -0.0963272,-0.00687775l-0.199764 0 0 0.278974zm0.729003 0.0292498c0,-0.129595 0.0346979,-0.230984 0.104325,-0.304244 0.069589,-0.0732597 0.159386,-0.109967 0.269546,-0.109967 0.0719459,0 0.137014,0.0172717 0.194818,0.0516218 0.057804,0.0345433 0.101968,0.082533 0.1323,0.144124 0.0303703,0.0614361 0.0454395,0.131411 0.0454395,0.209385 0,0.0792487 -0.0158034,0.150113 -0.0477965,0.212438 -0.0319931,0.062518 -0.0772395,0.109774 -0.135778,0.14196 -0.0586927,0.0321477 -0.121752,0.0481443 -0.189563,0.0481443 -0.0736074,0 -0.139217,-0.0176194 -0.196982,-0.0532446 -0.0579972,-0.035432 -0.101775,-0.0839627 -0.131605,-0.145399 -0.0297907,-0.0612429 -0.0447054,-0.126311 -0.0447054,-0.194818zm0.106489 0.00162284c0,0.0941634 0.0252699,0.168119 0.0758098,0.222291 0.0506944,0.054172 0.11414,0.0812193 0.190452,0.0812193 0.0777804,0 0.141767,-0.0272405 0.19192,-0.0819535 0.0501921,-0.0547129 0.0754234,-0.1323 0.0754234,-0.2328 0,-0.0634453 -0.0108962,-0.118892 -0.0323409,-0.166303 -0.0214447,-0.0474488 -0.0528969,-0.0841559 -0.0941248,-0.110315 -0.0414597,-0.0260041 -0.0877879,-0.0391027 -0.139217,-0.0391027 -0.0732597,0 -0.136125,0.0250768 -0.188829,0.0754234 -0.0527423,0.0501921 -0.0790942,0.134155 -0.0790942,0.25154zm0.874402 0.127779l0.0974091 -0.00853923c0.00455941,0.0390641 0.0152624,0.0710572 0.0321863,0.096134 0.0168853,0.0250768 0.0430439,0.0452463 0.0785146,0.060702 0.035432,0.0154556 0.0754234,0.0230675 0.119742,0.0230675 0.0394505,0 0.074187,-0.00579586 0.104325,-0.0174262 0.0301771,-0.0118236 0.0527037,-0.0278201 0.0674252,-0.0481829 0.0147215,-0.0205173 0.0221788,-0.0426962 0.0221788,-0.0668456 0,-0.0245358 -0.00707095,-0.0458259 -0.0214447,-0.0641795 -0.0141805,-0.0183536 -0.0375958,-0.033616 -0.0701299,-0.0459805 -0.0210969,-0.00819148 -0.0672706,-0.0209037 -0.139062,-0.0381754 -0.0715982,-0.0172717 -0.121945,-0.0334228 -0.150654,-0.0486852 -0.0372481,-0.0194741 -0.0650682,-0.0438167 -0.0834217,-0.0727187 -0.0181604,-0.028902 -0.0272792,-0.0612429 -0.0272792,-0.0972159 0,-0.0392573 0.0110894,-0.0761576 0.0334614,-0.110315 0.0223334,-0.0343501 0.0550607,-0.0603542 0.09795,-0.0781668 0.0430826,-0.0176194 0.0906859,-0.026545 0.143235,-0.026545 0.0579586,0 0.108846,0.00927337 0.153204,0.0280133 0.0441644,0.0185467 0.0781282,0.0459805 0.101968,0.0821466 0.0236085,0.0361662 0.0365139,0.0772395 0.0383299,0.123027l-0.0990319 0.00745734c-0.00548675,-0.0492648 -0.0234539,-0.0867061 -0.054172,-0.111783 -0.0307181,-0.0252699 -0.0759644,-0.037789 -0.135932,-0.037789 -0.0625566,0 -0.107958,0.0114372 -0.136705,0.0343501 -0.0285156,0.022913 -0.0428894,0.0505399 -0.0428894,0.0826876 0,0.0281679 0.0102007,0.051274 0.0303703,0.0692412 0.0199764,0.018199 0.0717914,0.0367071 0.155754,0.0556402 0.0839627,0.0190491 0.141574,0.0355866 0.172833,0.0497671 0.0454395,0.0210969 0.0790555,0.047642 0.100693,0.0796351 0.0216379,0.0321477 0.0323409,0.0692412 0.0323409,0.11101 0,0.0416529 -0.0118236,0.080717 -0.0356252,0.117424 -0.0238017,0.0367071 -0.0579586,0.0652614 -0.102509,0.0857787 -0.0445122,0.0203628 -0.0946657,0.0305249 -0.150306,0.0305249 -0.0706708,0 -0.129943,-0.0101621 -0.177546,-0.0308726 -0.0477965,-0.020556 -0.0852378,-0.0514286 -0.112517,-0.0928883 -0.0270473,-0.0412665 -0.0414211,-0.0881357 -0.0426962,-0.140298zm1.09739 0.250806l0 -0.688432 -0.257182 0 0 -0.0921542 0.61865 0 0 0.0921542 -0.258225 0 0 0.688432 -0.103244 0zm0.56869 -0.250806l0.0974091 -0.00853923c0.00455941,0.0390641 0.0152624,0.0710572 0.0321863,0.096134 0.0168853,0.0250768 0.0430439,0.0452463 0.0785146,0.060702 0.035432,0.0154556 0.0754234,0.0230675 0.119742,0.0230675 0.0394505,0 0.074187,-0.00579586 0.104325,-0.0174262 0.0301771,-0.0118236 0.0527037,-0.0278201 0.0674252,-0.0481829 0.0147215,-0.0205173 0.0221788,-0.0426962 0.0221788,-0.0668456 0,-0.0245358 -0.00707095,-0.0458259 -0.0214447,-0.0641795 -0.0141805,-0.0183536 -0.0375958,-0.033616 -0.0701299,-0.0459805 -0.0210969,-0.00819148 -0.0672706,-0.0209037 -0.139062,-0.0381754 -0.0715982,-0.0172717 -0.121945,-0.0334228 -0.150654,-0.0486852 -0.0372481,-0.0194741 -0.0650682,-0.0438167 -0.0834217,-0.0727187 -0.0181604,-0.028902 -0.0272792,-0.0612429 -0.0272792,-0.0972159 0,-0.0392573 0.0110894,-0.0761576 0.0334614,-0.110315 0.0223334,-0.0343501 0.0550607,-0.0603542 0.09795,-0.0781668 0.0430826,-0.0176194 0.0906859,-0.026545 0.143235,-0.026545 0.0579586,0 0.108846,0.00927337 0.153204,0.0280133 0.0441644,0.0185467 0.0781282,0.0459805 0.101968,0.0821466 0.0236085,0.0361662 0.0365139,0.0772395 0.0383299,0.123027l-0.0990319 0.00745734c-0.00548675,-0.0492648 -0.0234539,-0.0867061 -0.054172,-0.111783 -0.0307181,-0.0252699 -0.0759644,-0.037789 -0.135932,-0.037789 -0.0625566,0 -0.107958,0.0114372 -0.136705,0.0343501 -0.0285156,0.022913 -0.0428894,0.0505399 -0.0428894,0.0826876 0,0.0281679 0.0102007,0.051274 0.0303703,0.0692412 0.0199764,0.018199 0.0717914,0.0367071 0.155754,0.0556402 0.0839627,0.0190491 0.141574,0.0355866 0.172833,0.0497671 0.0454395,0.0210969 0.0790555,0.047642 0.100693,0.0796351 0.0216379,0.0321477 0.0323409,0.0692412 0.0323409,0.11101 0,0.0416529 -0.0118236,0.080717 -0.0356252,0.117424 -0.0238017,0.0367071 -0.0579586,0.0652614 -0.102509,0.0857787 -0.0445122,0.0203628 -0.0946657,0.0305249 -0.150306,0.0305249 -0.0706708,0 -0.129943,-0.0101621 -0.177546,-0.0308726 -0.0477965,-0.020556 -0.0852378,-0.0514286 -0.112517,-0.0928883 -0.0270473,-0.0412665 -0.0414211,-0.0881357 -0.0426962,-0.140298z"/>
 <path class="fil2 str0" d="M134.695 -40.282c-0.231448,0.00081142 -0.417263,0.187979 -0.416722,0.419697 0.000579586,0.228318 0.189486,0.416027 0.417418,0.41479 0.232646,-0.00123645 0.417495,-0.18825 0.4168,-0.421745 -0.000656864,-0.226425 -0.189988,-0.413554 -0.417495,-0.412742zm0.772472 -0.118854c-0.00042503,0.0245358 -0.00942793,0.0430439 -0.0227584,0.0598133 -0.0216765,0.0273951 -0.0432371,0.0550607 -0.0653,0.0821853 -0.00452077,0.00560266 -0.00463669,0.00942793 -0.00123645,0.0155715 0.0282065,0.0517763 0.051274,0.105639 0.0659955,0.162748 0.00258882,0.0103553 0.00965977,0.00927337 0.0164602,0.0100848 0.0350456,0.00421166 0.0700913,0.00873243 0.105253,0.0122486 0.050849,0.00506172 0.0798669,0.0520855 0.0786305,0.0916132 -0.00189331,0.0650295 -0.000540947,0.130175 -0.000386391,0.195205 0,0.050849 -0.0325727,0.0863969 -0.0833058,0.0915746 -0.0365139,0.00382527 -0.0730665,0.00819148 -0.109426,0.0128282 -0.00301385,0.00042503 -0.0072255,0.00409574 -0.00807556,0.00695503 -0.0166148,0.0591564 -0.0407256,0.115183 -0.0710186,0.168621 -0.00312976,0.00560266 -0.00146828,0.00857787 0.0017774,0.0127895 0.0224879,0.0280906 0.0447054,0.0564517 0.0670774,0.0848127 0.00274337,0.00351615 0.00571858,0.00707095 0.0083074,0.0107417 0.0272792,0.0379049 0.0242653,0.0811034 -0.00938929,0.115338 -0.0479897,0.0489171 -0.0965204,0.0973318 -0.145322,0.145592 -0.0292884,0.028902 -0.079751,0.0306408 -0.11271,0.00490716 -0.0319159,-0.0250768 -0.0636772,-0.0503081 -0.0952839,-0.0756553 -0.00517763,-0.00409574 -0.00888698,-0.00479124 -0.0147215,-0.00150692 -0.0528969,0.0290179 -0.108228,0.0520855 -0.166573,0.0674638 -0.00792101,0.00204787 -0.0110508,0.00533219 -0.0118622,0.0139101 -0.00421166,0.0421166 -0.00927337,0.0841172 -0.014451,0.126079 -0.00382527,0.0312204 -0.036823,0.0644886 -0.0680047,0.0688548 -0.0096984,0.00135237 -0.0195127,0.00204787 -0.0291725,0.00216379 -0.0620543,0.000154556 -0.123915,0.00042503 -0.185815,-0.000270473 -0.0137555,-0.000115917 -0.0283611,-0.00204787 -0.0407642,-0.0072255 -0.0332296,-0.0139101 -0.0502694,-0.0403392 -0.0539788,-0.0761962 -0.0040571,-0.0403392 -0.00938929,-0.0805624 -0.0137555,-0.120902 -0.000656864,-0.00587314 -0.00258882,-0.0090029 -0.00857787,-0.0108962 -0.0553311,-0.0175808 -0.109851,-0.0372094 -0.160159,-0.0670774 -0.00231834,-0.00135237 -0.00792101,0.000154556 -0.0105098,0.00220243 -0.0325727,0.0253472 -0.064875,0.0508104 -0.0971772,0.0765826 -0.037364,0.0297134 -0.0858946,0.0268541 -0.119704,-0.00695503 -0.0456327,-0.0457873 -0.0914587,-0.0915746 -0.137246,-0.137401 -0.0392573,-0.0392573 -0.0418461,-0.0832672 -0.00749598,-0.126504 0.0246517,-0.0309112 0.0490716,-0.0621316 0.0737233,-0.092811 0.00436621,-0.00544811 0.00521627,-0.00938929 0.00166148,-0.0156875 -0.0261973,-0.0475647 -0.0477192,-0.0971772 -0.0628658,-0.149379 -0.00189331,-0.00653 -0.00529355,-0.00857787 -0.0115531,-0.00927337 -0.0389868,-0.00436621 -0.0777032,-0.00954385 -0.11669,-0.0133691 -0.0519309,-0.00517763 -0.0847741,-0.0406097 -0.0847741,-0.0925406 0,-0.0629817 0.00173876,-0.126079 -0.000579586,-0.188945 -0.00162284,-0.0462123 0.0270087,-0.0949748 0.0914973,-0.0989546 0.0347365,-0.00216379 0.0693571,-0.00776645 0.104132,-0.0114372 0.00598905,-0.000695503 0.0090029,-0.00231834 0.0106257,-0.00884835 0.014451,-0.0575336 0.0365139,-0.112053 0.0647591,-0.164255 0.00378663,-0.00710959 0.00312976,-0.0113212 -0.0017774,-0.0173103 -0.0235698,-0.0290566 -0.0466373,-0.0584995 -0.0697821,-0.0879425 -0.0323023,-0.0413052 -0.0297134,-0.085315 0.00734142,-0.122679 0.0470237,-0.0474101 0.094318,-0.094743 0.141612,-0.141883 0.0301385,-0.0299839 0.080717,-0.0328432 0.114256,-0.00641408 0.029443,0.0230289 0.0588859,0.0463282 0.0879039,0.0697821 0.00517763,0.00409574 0.00873243,0.00490716 0.0147215,0.00135237 0.0557562,-0.0325727 0.114642,-0.0577654 0.177083,-0.0748052 0.00653,-0.0017774 0.00938929,-0.00452077 0.0102007,-0.0117463 0.00343888,-0.034466 0.00819148,-0.0687003 0.0115917,-0.103166 0.00367071,-0.0374799 0.0232994,-0.0631362 0.0572631,-0.0772781 0.00965977,-0.00397982 0.0212515,-0.00490716 0.0318772,-0.00490716 0.0668069,-0.00042503 0.13373,0 0.200537,-0.000309112 0.0516604,-0.000270473 0.0817603,0.0376344 0.0876334,0.0698208 0.00448213,0.0246517 0.00598905,0.049883 0.00884835,0.0748052 0.00166148,0.0143351 0.00285929,0.0286315 0.00517763,0.0428121 0.000579586,0.00340024 0.00436621,0.00803692 0.00749598,0.0090029 0.0620543,0.0173103 0.12067,0.0422711 0.176542,0.0738779 0.00270473,0.00150692 0.00873243,0.000154556 0.0114372,-0.00189331 0.0276656,-0.021406 0.0550607,-0.0432371 0.0823398,-0.0650295 0.037364,-0.0297134 0.086281,-0.0270087 0.11982,0.00653 0.0462123,0.0463669 0.0925406,0.0924246 0.138637,0.138907 0.0181217,0.0181217 0.029443,0.0397982 0.0299839,0.0636772z"/>
</symbol>
<symbol id="Fm21-53727-0" viewBox="78.0522 -10.0425 11.9929 2.77131">
 <polygon class="fil3" points="78.1545,-9.94032 89.9428,-9.94032 89.9428,-7.3733 78.1545,-7.3733 "/>
 <path class="fil4" d="M90.0452 -10.0425l-11.9929 0 0 2.77131 11.9929 0 0 -2.77131zm-0.204439 2.56683l-11.5841 0 0 -2.36239 11.5841 0 0 2.36239z"/>
</symbol>
<symbol id="Fm2-53725-0" viewBox="27.5 -53.2636 136.31 81.786">
 <polygon id="123456789101112131415161718192021222324252627" style="fill:url(#id1);fill-rule:nonzero" points="163.81,28.5224 27.5,28.5224 27.5,-53.2636 163.81,-53.2636 "/>
</symbol>
<symbol id="Fm1-53715-0" viewBox="27.5 -53.2622 136.351 81.7433">
 <polygon class="fil7" points="27.5,28.4811 163.851,28.4811 163.851,-53.2622 27.5,-53.2622 "/>
</symbol>
<symbol id="Fm4-53740-0" viewBox="27.4996 -48.8117 23.2089 77.3341">
 <polygon class="fil4" points="50.7084,-48.8117 27.4996,-48.8117 27.4996,28.5224 50.7084,28.5224 "/>
</symbol>
<symbol id="Fm11-53716-0" viewBox="156.955 -50.7904 3.56279 0.793299">
 <path class="fil0" d="M156.955 -50.0098l0.299878 -0.780586 0.111203 0 0.319506 0.780586 -0.117772 0 -0.0910336 -0.236432 -0.326423 0 -0.0855855 0.236432 -0.109774 0zm0.225188 -0.320588l0.264793 0 -0.0816057 -0.216108c-0.024729,-0.0656091 -0.0432757,-0.119588 -0.0552539,-0.161936 -0.0100075,0.0501535 -0.0239949,0.0997661 -0.0421552,0.149224l-0.0857787 0.228821zm1.07884 0.320588l0 -0.0714436c-0.0358184,0.0561812 -0.0885221,0.0841559 -0.15815,0.0841559 -0.0450531,0 -0.0864742,-0.0123645 -0.124302,-0.0372481 -0.037789,-0.024729 -0.0670388,-0.0594269 -0.0879425,-0.104132 -0.0207492,-0.0445508 -0.0311044,-0.095593 -0.0311044,-0.15359 0,-0.0563358 0.00946657,-0.107571 0.0281679,-0.153552 0.0189331,-0.0459805 0.047101,-0.0812579 0.0846968,-0.105601 0.0376344,-0.0245358 0.0797897,-0.0369003 0.126311,-0.0369003 0.0340024,0 0.064334,0.00726414 0.0908791,0.0216379 0.0267382,0.0143351 0.0483375,0.033075 0.0650682,0.0561426l0 -0.280056 0.0952453 0 0 0.780586 -0.0888698 0zm-0.302969 -0.282258c0,0.0725255 0.0152624,0.126697 0.0457873,0.162477 0.0305249,0.0358184 0.0665365,0.0538242 0.108151,0.0538242 0.0417688,0 0.077394,-0.0172717 0.106682,-0.0514672 0.0292498,-0.0341569 0.0439713,-0.0865129 0.0439713,-0.156836 0,-0.0774327 -0.0149147,-0.134116 -0.0447054,-0.170282 -0.0298294,-0.0363594 -0.0665365,-0.0543652 -0.110315,-0.0543652 -0.0425416,0 -0.0781668,0.0174649 -0.106682,0.0521627 -0.0285543,0.0347365 -0.0428894,0.089604 -0.0428894,0.164486zm0.679004 0.282258l0 -0.565405 0.0855855 0 0 0.0792487c0.0178126,-0.0276269 0.0414597,-0.0499989 0.0709027,-0.0667297 0.029443,-0.0168853 0.0630589,-0.0254245 0.100655,-0.0254245 0.0418075,0 0.0761576,0.00873243 0.102896,0.0261586 0.0268928,0.0174649 0.0457873,0.0416143 0.0566835,0.0728733 0.0448986,-0.0659569 0.10305,-0.0990319 0.174649,-0.0990319 0.0561812,0 0.0992638,0.0156102 0.129402,0.0467146 0.0301771,0.0310658 0.045285,0.0788623 0.045285,0.14339l0 0.388207 -0.0952453 0 0 -0.356214c0,-0.0383686 -0.00309112,-0.0659955 -0.00927337,-0.0828808 -0.00637545,-0.0167307 -0.0176194,-0.0303703 -0.0338092,-0.0407256 -0.0163443,-0.0101621 -0.0356252,-0.015417 -0.0576108,-0.015417 -0.0397982,0 -0.0726801,0.0132532 -0.0990319,0.0397982 -0.0261973,0.0263518 -0.0394505,0.0687003 -0.0394505,0.126852l0 0.328587 -0.0957862 0 0 -0.367303c0,-0.0426962 -0.00780509,-0.0746893 -0.0234539,-0.0959794 -0.0156102,-0.0212515 -0.0410733,-0.0319545 -0.0766985,-0.0319545 -0.0268928,0 -0.0517763,0.00707095 -0.0746893,0.0214447 -0.022913,0.0141419 -0.039605,0.0348911 -0.0498058,0.0621316 -0.0103553,0.0274337 -0.0154556,0.0668842 -0.0154556,0.118313l0 0.293348 -0.0957476 0zm1.04503 -0.670272l0 -0.110315 0.0959794 0 0 0.110315 -0.0959794 0zm0 0.670272l0 -0.565405 0.0959794 0 0 0.565405 -0.0959794 0zm0.378238 0l0 -0.565405 0.0861265 0 0 0.0803306c0.0416143,-0.0621703 0.101621,-0.0932361 0.179942,-0.0932361 0.0341569,0 0.0654159,0.00618225 0.0939702,0.0183536 0.0287088,0.0123645 0.0499603,0.0283611 0.0641408,0.0483375 0.0143737,0.0198218 0.0241881,0.0434303 0.0299839,0.0707095 0.00343888,0.0178126 0.00529355,0.0488784 0.00529355,0.0932361l0 0.347674 -0.0959794 0 0 -0.344042c0,-0.0389095 -0.00363207,-0.0681593 -0.0110894,-0.0875948 -0.00745734,-0.0192809 -0.0207105,-0.0347365 -0.039605,-0.0461737 -0.0190877,-0.0116304 -0.0412665,-0.0174262 -0.0668842,-0.0174262 -0.0409188,0 -0.0759644,0.01306 -0.105794,0.0388709 -0.0296362,0.0260041 -0.0443576,0.0750757 -0.0443576,0.147563l0 0.308803 -0.0957476 0z"/>
</symbol>
<symbol id="Fm6-53742-0" viewBox="63.5132 -19.6985 1.27841 50.4493">
 <path class="fil0" d="M64.2741 -18.8167l-0.107764 0 0 -0.687003c-0.0259654,0.024729 -0.0598905,0.0494966 -0.102007,0.0742256 -0.0423484,0.024729 -0.0801761,0.043353 -0.113715,0.0556016l0 -0.104055c0.0603542,-0.0284383 0.113097,-0.0627885 0.158266,-0.10305 0.0449759,-0.0404937 0.0770849,-0.0795578 0.0959022,-0.117579l0.0693185 0 0 0.881859z"/>
 <path class="fil0" d="M64.4348 -16.1674l0 0.103669 -0.580475 0c-0.00081142,-0.0259654 0.00328432,-0.0509263 0.0124804,-0.0748439 0.0147215,-0.0396437 0.0384459,-0.0785146 0.0709413,-0.11696 0.0327273,-0.038214 0.079751,-0.0825717 0.141071,-0.13288 0.0955158,-0.0783214 0.16012,-0.14026 0.193659,-0.186086 0.0335001,-0.0455941 0.0502694,-0.0889085 0.0502694,-0.129634 0,-0.0426962 -0.0153397,-0.0787078 -0.0457873,-0.108151 -0.0306794,-0.0292498 -0.0705549,-0.0439713 -0.119627,-0.0439713 -0.0519309,0 -0.0934293,0.0155715 -0.124495,0.0468305 -0.0312976,0.0311044 -0.0470237,0.0742256 -0.0474488,0.129248l-0.110817 -0.011244c0.00757326,-0.0828421 0.0362048,-0.145785 0.0856628,-0.189138 0.0494966,-0.043353 0.116149,-0.0650295 0.199571,-0.0650295 0.0842332,0 0.150886,0.0235312 0.199957,0.0701299 0.0492648,0.0468305 0.0738006,0.104673 0.0738006,0.173799 0,0.0351615 -0.00714823,0.0697049 -0.0216765,0.103669 -0.0142965,0.0339251 -0.038214,0.0697049 -0.0715595,0.107146 -0.0333069,0.0375958 -0.0887153,0.0891403 -0.166225,0.154556 -0.0646045,0.0544038 -0.106103,0.0911882 -0.124495,0.110624 -0.0184308,0.0192036 -0.0335387,0.0386391 -0.0455941,0.0582677l0.430787 0z"/>
 <path class="fil0" d="M63.8687 -13.5427l0.107726 -0.0142965c0.0124804,0.061127 0.0335387,0.105098 0.0631749,0.132068 0.029868,0.0270087 0.0660728,0.0404937 0.108808,0.0404937 0.0506944,0 0.0936224,-0.0175808 0.128591,-0.0527423 0.0347752,-0.0351615 0.0523559,-0.0787464 0.0523559,-0.130677 0,-0.049458 -0.0161511,-0.0903768 -0.0484534,-0.122447 -0.0325341,-0.0321091 -0.0736074,-0.0482602 -0.123529,-0.0482602 -0.0204401,0 -0.0457873,0.00409574 -0.0760417,0.0120554l0.0120554 -0.0946657c0.00714823,0.00081142 0.0128668,0.00123645 0.0173876,0.00123645 0.0457873,0 0.0870924,-0.0120554 0.123915,-0.0360116 0.0367844,-0.0239176 0.0551766,-0.0609338 0.0551766,-0.110817 0,-0.0394505 -0.013485,-0.072371 -0.0402619,-0.0981432 -0.0267769,-0.0259654 -0.0613588,-0.0390255 -0.103669,-0.0390255 -0.0419234,0 -0.0768917,0.0132918 -0.104673,0.0394505 -0.0280133,0.0263905 -0.0460191,0.0660342 -0.0539788,0.118776l-0.107764 -0.0192036c0.0130986,-0.072371 0.0431598,-0.128398 0.0897585,-0.16808 0.0468305,-0.0396437 0.104905,-0.0596974 0.174417,-0.0596974 0.0478352,0 0.0919996,0.0104325 0.1323,0.0308726 0.0402619,0.0206719 0.0711345,0.0486466 0.0926178,0.0842332 0.0212515,0.0355866 0.0320704,0.073221 0.0320704,0.11329 0,0.0378276 -0.0102007,0.072371 -0.0306408,0.103669 -0.0204401,0.0310658 -0.0505013,0.0557948 -0.0903768,0.0742256 0.0519309,0.0118236 0.0921928,0.0367844 0.121018,0.074612 0.0286315,0.0376344 0.0429666,0.0848514 0.0429666,0.141496 0,0.0766599 -0.0278201,0.141689 -0.0838468,0.19505 -0.0558334,0.0533605 -0.126543,0.0799442 -0.212013,0.0799442 -0.0770849,0 -0.14111,-0.022913 -0.191997,-0.0688934 -0.0509263,-0.0457873 -0.0799442,-0.105291 -0.0870924,-0.178512z"/>
 <path class="fil0" d="M64.2136 -10.5579l0 -0.210196 -0.380943 0 0 -0.0989546 0.400764 -0.569037 0.0881357 0 0 0.569037 0.118583 0 0 0.0989546 -0.118583 0 0 0.210196 -0.107958 0zm0 -0.309151l0 -0.395857 -0.274801 0.395857 0.274801 0z"/>
 <path class="fil0" d="M63.8681 -8.03503l0.113251 -0.00962113c0.00838468,0.0552152 0.0278201,0.0965204 0.0582677,0.124302 0.0306794,0.0278201 0.0675024,0.0417302 0.110624,0.0417302 0.0519309,0 0.0959022,-0.0196286 0.131682,-0.0586927 0.035973,-0.0392573 0.0539788,-0.0911882 0.0539788,-0.155793 0,-0.061552 -0.0171944,-0.110005 -0.0517377,-0.145592 -0.0345433,-0.0355479 -0.079751,-0.0533605 -0.135739,-0.0533605 -0.0347752,0 -0.0660728,0.00799829 -0.0940861,0.0237244 -0.0280133,0.0157647 -0.049883,0.0362048 -0.065841,0.0613588l-0.101196 -0.0130986 0.0850446 -0.451072 0.436737 0 0 0.10305 -0.350456 0 -0.0474101 0.235969c0.0527423,-0.0367844 0.108151,-0.0552152 0.166032,-0.0552152 0.0766599,0 0.141264,0.0265837 0.194007,0.079751 0.052781,0.0531673 0.0791328,0.121443 0.0791328,0.204864 0,0.0795578 -0.0232994,0.148258 -0.0695117,0.206101 -0.056413,0.07098 -0.133305,0.106528 -0.230637,0.106528 -0.0799442,0 -0.145167,-0.0222947 -0.195668,-0.0670388 -0.0505013,-0.0447827 -0.079326,-0.104094 -0.0864742,-0.177894z"/>
 <path class="fil0" d="M64.4275 -5.71518l-0.107146 0.00838468c-0.00962113,-0.0423098 -0.0231062,-0.0731824 -0.0406869,-0.0921928 -0.0292498,-0.0309112 -0.0652227,-0.0462123 -0.107958,-0.0462123 -0.0343501,0 -0.0644113,0.00958249 -0.0903768,0.0288247 -0.0339637,0.024729 -0.0607406,0.0609338 -0.0803692,0.108344 -0.0193968,0.0474488 -0.0296362,0.115144 -0.0304476,0.203048 0.0259654,-0.0394505 0.0576495,-0.0688934 0.0952839,-0.0881357 0.0374026,-0.0190104 0.0768531,-0.0286315 0.117965,-0.0286315 0.0719846,0 0.133112,0.0263905 0.183613,0.0793646 0.0505013,0.0529355 0.0758485,0.121249 0.0758485,0.205058 0,0.0552152 -0.0120554,0.106335 -0.0357798,0.153745 -0.0237244,0.0472556 -0.056413,0.0836536 -0.09795,0.108808 -0.0414984,0.025154 -0.0885221,0.0375958 -0.141264,0.0375958 -0.0899904,0 -0.163173,-0.0329205 -0.219818,-0.0991478 -0.0568381,-0.0660342 -0.0850446,-0.175035 -0.0850446,-0.326732 0,-0.169703 0.0312976,-0.293 0.0940475,-0.370085 0.054597,-0.0670774 0.128204,-0.100809 0.221015,-0.100809 0.0689321,0 0.125538,0.0194354 0.169703,0.0582677 0.0441644,0.0386391 0.0705549,0.0922314 0.0793646,0.160507zm-0.440215 0.37847c0,0.0372094 0.00795965,0.072796 0.0237244,0.106721 0.0157261,0.0339637 0.037789,0.0596974 0.0660342,0.07751 0.0283997,0.017774 0.0582677,0.0267769 0.0893335,0.0267769 0.0455941,0 0.0846582,-0.0183922 0.117385,-0.0552152 0.0326886,-0.0367844 0.0490716,-0.0866674 0.0490716,-0.149649 0,-0.0607406 -0.0161511,-0.108576 -0.048492,-0.143544 -0.0323023,-0.0349684 -0.0729892,-0.0523559 -0.122061,-0.0523559 -0.0488398,0 -0.0901449,0.0173876 -0.124109,0.0523559 -0.0339251,0.0349684 -0.0508876,0.0807556 -0.0508876,0.137401z"/>
 <path class="fil0" d="M63.8752 -3.06226l0 -0.10363 0.568419 0 0 0.0838081c-0.0558334,0.0595042 -0.111242,0.138637 -0.166225,0.237205 -0.0548288,0.0985296 -0.0973318,0.20015 -0.1272,0.304244 -0.0216765,0.0736074 -0.0353547,0.153938 -0.0413052,0.241455l-0.110817 0c0.00123645,-0.0691253 0.0147215,-0.152547 0.0406869,-0.250458 0.0259654,-0.0977568 0.0631749,-0.192191 0.111628,-0.282992 0.0486852,-0.0907632 0.100191,-0.167462 0.15502,-0.229632l-0.430207 0z"/>
 <path class="fil0" d="M64.0341 -0.0224493c-0.044744,-0.016383 -0.0778963,-0.0396823 -0.0995729,-0.0701299 -0.0214447,-0.030293 -0.0323023,-0.0666524 -0.0323023,-0.109001 0,-0.0639863 0.022913,-0.117579 0.0689321,-0.161125 0.0459805,-0.0435462 0.106914,-0.0654159 0.183188,-0.0654159 0.0766599,0 0.138405,0.0222947 0.185236,0.0668456 0.0466373,0.0445895 0.0699367,0.0987614 0.0699367,0.162786 0,0.0406869 -0.0106257,0.0760417 -0.0319159,0.106296 -0.0214447,0.0300612 -0.0537469,0.0533605 -0.0972932,0.0697435 0.0537469,0.0175808 0.0948589,0.0457873 0.123065,0.0850446 0.0280133,0.0390641 0.0421166,0.0858946 0.0421166,0.140067 0,0.0752303 -0.0265837,0.138212 -0.0795192,0.189331 -0.0531673,0.0511195 -0.123104,0.0766599 -0.209771,0.0766599 -0.0867061,0 -0.15645,-0.0255404 -0.209578,-0.0768531 -0.0531673,-0.0513513 -0.079751,-0.115338 -0.079751,-0.191997 0,-0.0570699 0.0145283,-0.104905 0.0435462,-0.143544 0.0288247,-0.0384459 0.0701299,-0.0647977 0.123684,-0.0787078zm-0.0216379 -0.182801c0,0.0414984 0.013485,0.0754621 0.0400687,0.101814 0.0267769,0.0263905 0.061552,0.0396823 0.104248,0.0396823 0.041537,0 0.0756553,-0.0130986 0.102239,-0.0392573 0.0265837,-0.0261973 0.0396823,-0.0582677 0.0396823,-0.0960953 0,-0.0396823 -0.013485,-0.072796 -0.0408801,-0.0998047 -0.0274337,-0.0269701 -0.0613588,-0.0404551 -0.102239,-0.0404551 -0.041112,0 -0.0752689,0.0132918 -0.102432,0.0394505 -0.0272019,0.0263905 -0.0406869,0.0580745 -0.0406869,0.0946657zm-0.0347752 0.405672c0,0.0306408 0.00734142,0.0605088 0.0218697,0.0891403 0.0145283,0.0288247 0.0362048,0.0511195 0.0650295,0.0668456 0.0288247,0.0157647 0.0596974,0.0237244 0.092811,0.0237244 0.0515445,0 0.0940861,-0.0165762 0.127586,-0.049883 0.0335387,-0.0331137 0.0503081,-0.0752689 0.0503081,-0.12635 0,-0.0519695 -0.0171557,-0.0948975 -0.0517377,-0.128823 -0.0345433,-0.0339637 -0.0778963,-0.0509263 -0.129827,-0.0509263 -0.0506944,0 -0.0926178,0.0167694 -0.125963,0.0503081 -0.0333069,0.0337319 -0.0500762,0.0756553 -0.0500762,0.125963z"/>
 <path class="fil0" d="M63.8842 3.00361l0.103669 -0.00958249c0.00877107,0.0486466 0.0255404,0.08404 0.0502694,0.106103 0.0247676,0.0218697 0.0564517,0.0329205 0.0952839,0.0329205 0.0331137,0 0.0621703,-0.00757326 0.0870924,-0.022913 0.0249608,-0.0151079 0.0454009,-0.0353547 0.0613588,-0.060702 0.0161511,-0.0253472 0.029443,-0.0596974 0.0402619,-0.102664 0.0106644,-0.0431212 0.0161511,-0.0870924 0.0161511,-0.131875 0,-0.00471397 -0.000193195,-0.0120554 -0.000579586,-0.0214447 -0.0216765,0.0341183 -0.0511195,0.0621316 -0.0883289,0.0834217 -0.0374413,0.0214447 -0.077935,0.0320704 -0.121249,0.0320704 -0.072796,0 -0.134348,-0.0263518 -0.184656,-0.0791328 -0.0502694,-0.0527423 -0.0754234,-0.122061 -0.0754234,-0.208342 0,-0.0891403 0.0261586,-0.1607 0.0787078,-0.215104 0.0525491,-0.0543652 0.11839,-0.0815671 0.197523,-0.0815671 0.0570313,0 0.109155,0.0155329 0.156604,0.0462123 0.0472169,0.0306794 0.0832285,0.074612 0.107764,0.13145 0.0245358,0.0568767 0.0367844,0.139255 0.0367844,0.247213 0,0.112053 -0.0120554,0.201387 -0.036398,0.268039 -0.0245358,0.0664592 -0.060702,0.11696 -0.108769,0.151736 -0.0482602,0.0347365 -0.10448,0.0521241 -0.169278,0.0521241 -0.0687003,0 -0.124727,-0.0190104 -0.168273,-0.0572245 -0.0435462,-0.0380595 -0.0697435,-0.0916132 -0.0785146,-0.160738zm0.441413 -0.387666c0,-0.0617452 -0.0163443,-0.11101 -0.0492648,-0.147215 -0.0331137,-0.036398 -0.0725642,-0.054597 -0.119008,-0.054597 -0.0478352,0 -0.0895267,0.0196286 -0.125113,0.0586927 -0.0355866,0.0392573 -0.0533605,0.0899904 -0.0533605,0.152122 0,0.0560266 0.0169625,0.101428 0.0506944,0.136396 0.0337319,0.0349684 0.0752303,0.0523173 0.124727,0.0523173 0.0500762,0 0.090995,-0.0173489 0.123104,-0.0523173 0.0323023,-0.0349684 0.0482215,-0.0834217 0.0482215,-0.145399z"/>
 <path class="fil0" d="M63.9331 5.95957l-0.107764 0 0 -0.687003c-0.0259654,0.024729 -0.0598905,0.0494966 -0.102007,0.0742256 -0.0423484,0.024729 -0.0801761,0.043353 -0.113715,0.0556016l0 -0.104055c0.0603542,-0.0284383 0.113097,-0.0627885 0.158266,-0.10305 0.0449759,-0.0404937 0.0770849,-0.0795578 0.0959022,-0.117579l0.0693185 0 0 0.881859zm0.276231 -0.433067c0,-0.103862 0.0106257,-0.187477 0.0320704,-0.250652 0.0212901,-0.0634067 0.0531673,-0.112246 0.0952839,-0.146597 0.0421166,-0.0343501 0.0950907,-0.0515445 0.158884,-0.0515445 0.0472169,0 0.0885221,0.00962113 0.124109,0.0286315 0.0355866,0.0188172 0.0647977,0.0462123 0.0881357,0.0819921 0.0231062,0.0357798 0.0413052,0.079326 0.0543652,0.130639 0.0132918,0.0513127 0.0198605,0.120438 0.0198605,0.20753 0,0.10305 -0.0106644,0.186086 -0.0317227,0.249454 -0.0212515,0.0633681 -0.0529355,0.112246 -0.0950521,0.14679 -0.0421166,0.034582 -0.0952839,0.0517377 -0.159695,0.0517377 -0.0846582,0 -0.151117,-0.0302544 -0.199339,-0.090995 -0.0578813,-0.0729892 -0.0868993,-0.192191 -0.0868993,-0.356986zm0.110817 0c0,0.144162 0.0169625,0.240064 0.0506944,0.2879 0.0337319,0.047642 0.0752303,0.0715595 0.124727,0.0715595 0.0496898,0 0.0911882,-0.0241108 0.12492,-0.0719846 0.0337319,-0.0478352 0.0507331,-0.143737 0.0507331,-0.287475 0,-0.144549 -0.0170012,-0.240644 -0.0507331,-0.288093 -0.0337319,-0.047642 -0.0756553,-0.0713663 -0.125925,-0.0713663 -0.0496898,0 -0.089179,0.0210969 -0.118815,0.0629817 -0.0370162,0.0533605 -0.0556016,0.152354 -0.0556016,0.296478z"/>
 <path class="fil0" d="M63.9331 8.71249l-0.107764 0 0 -0.687003c-0.0259654,0.024729 -0.0598905,0.0494966 -0.102007,0.0742256 -0.0423484,0.024729 -0.0801761,0.043353 -0.113715,0.0556016l0 -0.104055c0.0603542,-0.0284383 0.113097,-0.0627885 0.158266,-0.10305 0.0449759,-0.0404937 0.0770849,-0.0795578 0.0959022,-0.117579l0.0693185 0 0 0.881859zm0.682289 0l-0.107764 0 0 -0.687003c-0.0259654,0.024729 -0.0598905,0.0494966 -0.102007,0.0742256 -0.0423484,0.024729 -0.0801761,0.043353 -0.113715,0.0556016l0 -0.104055c0.0603542,-0.0284383 0.113097,-0.0627885 0.158266,-0.10305 0.0449759,-0.0404937 0.0770849,-0.0795578 0.0959022,-0.117579l0.0693185 0 0 0.881859z"/>
 <path class="fil0" d="M63.9331 11.4654l-0.107764 0 0 -0.687003c-0.0259654,0.024729 -0.0598905,0.0494966 -0.102007,0.0742256 -0.0423484,0.024729 -0.0801761,0.043353 -0.113715,0.0556016l0 -0.104055c0.0603542,-0.0284383 0.113097,-0.0627885 0.158266,-0.10305 0.0449759,-0.0404937 0.0770849,-0.0795578 0.0959022,-0.117579l0.0693185 0 0 0.881859zm0.276849 -0.231873l0.107726 -0.0142965c0.0124804,0.061127 0.0335387,0.105098 0.0631749,0.132068 0.029868,0.0270087 0.0660728,0.0404937 0.108808,0.0404937 0.0506944,0 0.0936224,-0.0175808 0.128591,-0.0527423 0.0347752,-0.0351615 0.0523559,-0.0787464 0.0523559,-0.130677 0,-0.049458 -0.0161511,-0.0903768 -0.0484534,-0.122447 -0.0325341,-0.0321091 -0.0736074,-0.0482602 -0.123529,-0.0482602 -0.0204401,0 -0.0457873,0.00409574 -0.0760417,0.0120554l0.0120554 -0.0946657c0.00714823,0.00081142 0.0128668,0.00123645 0.0173876,0.00123645 0.0457873,0 0.0870924,-0.0120554 0.123915,-0.0360116 0.0367844,-0.0239176 0.0551766,-0.0609338 0.0551766,-0.110817 0,-0.0394505 -0.013485,-0.072371 -0.0402619,-0.0981432 -0.0267769,-0.0259654 -0.0613588,-0.0390255 -0.103669,-0.0390255 -0.0419234,0 -0.0768917,0.0132918 -0.104673,0.0394505 -0.0280133,0.0263905 -0.0460191,0.0660342 -0.0539788,0.118776l-0.107764 -0.0192036c0.0130986,-0.072371 0.0431598,-0.128398 0.0897585,-0.16808 0.0468305,-0.0396437 0.104905,-0.0596974 0.174417,-0.0596974 0.0478352,0 0.0919996,0.0104325 0.1323,0.0308726 0.0402619,0.0206719 0.0711345,0.0486466 0.0926178,0.0842332 0.0212515,0.0355866 0.0320704,0.073221 0.0320704,0.11329 0,0.0378276 -0.0102007,0.072371 -0.0306408,0.103669 -0.0204401,0.0310658 -0.0505013,0.0557948 -0.0903768,0.0742256 0.0519309,0.0118236 0.0921928,0.0367844 0.121018,0.074612 0.0286315,0.0376344 0.0429666,0.0848514 0.0429666,0.141496 0,0.0766599 -0.0278201,0.141689 -0.0838468,0.19505 -0.0558334,0.0533605 -0.126543,0.0799442 -0.212013,0.0799442 -0.0770849,0 -0.14111,-0.022913 -0.191997,-0.0688934 -0.0509263,-0.0457873 -0.0799442,-0.105291 -0.0870924,-0.178512z"/>
 <path class="fil0" d="M63.9331 14.2183l-0.107764 0 0 -0.687003c-0.0259654,0.024729 -0.0598905,0.0494966 -0.102007,0.0742256 -0.0423484,0.024729 -0.0801761,0.043353 -0.113715,0.0556016l0 -0.104055c0.0603542,-0.0284383 0.113097,-0.0627885 0.158266,-0.10305 0.0449759,-0.0404937 0.0770849,-0.0795578 0.0959022,-0.117579l0.0693185 0 0 0.881859zm0.62178 0l0 -0.210196 -0.380943 0 0 -0.0989546 0.400764 -0.569037 0.0881357 0 0 0.569037 0.118583 0 0 0.0989546 -0.118583 0 0 0.210196 -0.107958 0zm0 -0.309151l0 -0.395857 -0.274801 0.395857 0.274801 0z"/>
 <path class="fil0" d="M63.9331 16.9712l-0.107764 0 0 -0.687003c-0.0259654,0.024729 -0.0598905,0.0494966 -0.102007,0.0742256 -0.0423484,0.024729 -0.0801761,0.043353 -0.113715,0.0556016l0 -0.104055c0.0603542,-0.0284383 0.113097,-0.0627885 0.158266,-0.10305 0.0449759,-0.0404937 0.0770849,-0.0795578 0.0959022,-0.117579l0.0693185 0 0 0.881859zm0.276231 -0.230018l0.113251 -0.00962113c0.00838468,0.0552152 0.0278201,0.0965204 0.0582677,0.124302 0.0306794,0.0278201 0.0675024,0.0417302 0.110624,0.0417302 0.0519309,0 0.0959022,-0.0196286 0.131682,-0.0586927 0.035973,-0.0392573 0.0539788,-0.0911882 0.0539788,-0.155793 0,-0.061552 -0.0171944,-0.110005 -0.0517377,-0.145592 -0.0345433,-0.0355479 -0.079751,-0.0533605 -0.135739,-0.0533605 -0.0347752,0 -0.0660728,0.00799829 -0.0940861,0.0237244 -0.0280133,0.0157647 -0.049883,0.0362048 -0.065841,0.0613588l-0.101196 -0.0130986 0.0850446 -0.451072 0.436737 0 0 0.10305 -0.350456 0 -0.0474101 0.235969c0.0527423,-0.0367844 0.108151,-0.0552152 0.166032,-0.0552152 0.0766599,0 0.141264,0.0265837 0.194007,0.079751 0.052781,0.0531673 0.0791328,0.121443 0.0791328,0.204864 0,0.0795578 -0.0232994,0.148258 -0.0695117,0.206101 -0.056413,0.07098 -0.133305,0.106528 -0.230637,0.106528 -0.0799442,0 -0.145167,-0.0222947 -0.195668,-0.0670388 -0.0505013,-0.0447827 -0.079326,-0.104094 -0.0864742,-0.177894z"/>
 <path class="fil0" d="M63.9331 19.7242l-0.107764 0 0 -0.687003c-0.0259654,0.024729 -0.0598905,0.0494966 -0.102007,0.0742256 -0.0423484,0.024729 -0.0801761,0.043353 -0.113715,0.0556016l0 -0.104055c0.0603542,-0.0284383 0.113097,-0.0627885 0.158266,-0.10305 0.0449759,-0.0404937 0.0770849,-0.0795578 0.0959022,-0.117579l0.0693185 0 0 0.881859zm0.835647 -0.663085l-0.107146 0.00838468c-0.00962113,-0.0423098 -0.0231062,-0.0731824 -0.0406869,-0.0921928 -0.0292498,-0.0309112 -0.0652227,-0.0462123 -0.107958,-0.0462123 -0.0343501,0 -0.0644113,0.00958249 -0.0903768,0.0288247 -0.0339637,0.024729 -0.0607406,0.0609338 -0.0803692,0.108344 -0.0193968,0.0474488 -0.0296362,0.115144 -0.0304476,0.203048 0.0259654,-0.0394505 0.0576495,-0.0688934 0.0952839,-0.0881357 0.0374026,-0.0190104 0.0768531,-0.0286315 0.117965,-0.0286315 0.0719846,0 0.133112,0.0263905 0.183613,0.0793646 0.0505013,0.0529355 0.0758485,0.121249 0.0758485,0.205058 0,0.0552152 -0.0120554,0.106335 -0.0357798,0.153745 -0.0237244,0.0472556 -0.056413,0.0836536 -0.09795,0.108808 -0.0414984,0.025154 -0.0885221,0.0375958 -0.141264,0.0375958 -0.0899904,0 -0.163173,-0.0329205 -0.219818,-0.0991478 -0.0568381,-0.0660342 -0.0850446,-0.175035 -0.0850446,-0.326732 0,-0.169703 0.0312976,-0.293 0.0940475,-0.370085 0.054597,-0.0670774 0.128204,-0.100809 0.221015,-0.100809 0.0689321,0 0.125538,0.0194354 0.169703,0.0582677 0.0441644,0.0386391 0.0705549,0.0922314 0.0793646,0.160507zm-0.440215 0.37847c0,0.0372094 0.00795965,0.072796 0.0237244,0.106721 0.0157261,0.0339637 0.037789,0.0596974 0.0660342,0.07751 0.0283997,0.017774 0.0582677,0.0267769 0.0893335,0.0267769 0.0455941,0 0.0846582,-0.0183922 0.117385,-0.0552152 0.0326886,-0.0367844 0.0490716,-0.0866674 0.0490716,-0.149649 0,-0.0607406 -0.0161511,-0.108576 -0.048492,-0.143544 -0.0323023,-0.0349684 -0.0729892,-0.0523559 -0.122061,-0.0523559 -0.0488398,0 -0.0901449,0.0173876 -0.124109,0.0523559 -0.0339251,0.0349684 -0.0508876,0.0807556 -0.0508876,0.137401z"/>
 <path class="fil0" d="M63.9331 22.4771l-0.107764 0 0 -0.687003c-0.0259654,0.024729 -0.0598905,0.0494966 -0.102007,0.0742256 -0.0423484,0.024729 -0.0801761,0.043353 -0.113715,0.0556016l0 -0.104055c0.0603542,-0.0284383 0.113097,-0.0627885 0.158266,-0.10305 0.0449759,-0.0404937 0.0770849,-0.0795578 0.0959022,-0.117579l0.0693185 0 0 0.881859zm0.283379 -0.763083l0 -0.10363 0.568419 0 0 0.0838081c-0.0558334,0.0595042 -0.111242,0.138637 -0.166225,0.237205 -0.0548288,0.0985296 -0.0973318,0.20015 -0.1272,0.304244 -0.0216765,0.0736074 -0.0353547,0.153938 -0.0413052,0.241455l-0.110817 0c0.00123645,-0.0691253 0.0147215,-0.152547 0.0406869,-0.250458 0.0259654,-0.0977568 0.0631749,-0.192191 0.111628,-0.282992 0.0486852,-0.0907632 0.100191,-0.167462 0.15502,-0.229632l-0.430207 0z"/>
 <path class="fil0" d="M63.9331 25.23l-0.107764 0 0 -0.687003c-0.0259654,0.024729 -0.0598905,0.0494966 -0.102007,0.0742256 -0.0423484,0.024729 -0.0801761,0.043353 -0.113715,0.0556016l0 -0.104055c0.0603542,-0.0284383 0.113097,-0.0627885 0.158266,-0.10305 0.0449759,-0.0404937 0.0770849,-0.0795578 0.0959022,-0.117579l0.0693185 0 0 0.881859zm0.442224 -0.476188c-0.044744,-0.016383 -0.0778963,-0.0396823 -0.0995729,-0.0701299 -0.0214447,-0.030293 -0.0323023,-0.0666524 -0.0323023,-0.109001 0,-0.0639863 0.022913,-0.117579 0.0689321,-0.161125 0.0459805,-0.0435462 0.106914,-0.0654159 0.183188,-0.0654159 0.0766599,0 0.138405,0.0222947 0.185236,0.0668456 0.0466373,0.0445895 0.0699367,0.0987614 0.0699367,0.162786 0,0.0406869 -0.0106257,0.0760417 -0.0319159,0.106296 -0.0214447,0.0300612 -0.0537469,0.0533605 -0.0972932,0.0697435 0.0537469,0.0175808 0.0948589,0.0457873 0.123065,0.0850446 0.0280133,0.0390641 0.0421166,0.0858946 0.0421166,0.140067 0,0.0752303 -0.0265837,0.138212 -0.0795192,0.189331 -0.0531673,0.0511195 -0.123104,0.0766599 -0.209771,0.0766599 -0.0867061,0 -0.15645,-0.0255404 -0.209578,-0.0768531 -0.0531673,-0.0513513 -0.079751,-0.115338 -0.079751,-0.191997 0,-0.0570699 0.0145283,-0.104905 0.0435462,-0.143544 0.0288247,-0.0384459 0.0701299,-0.0647977 0.123684,-0.0787078zm-0.0216379 -0.182801c0,0.0414984 0.013485,0.0754621 0.0400687,0.101814 0.0267769,0.0263905 0.061552,0.0396823 0.104248,0.0396823 0.041537,0 0.0756553,-0.0130986 0.102239,-0.0392573 0.0265837,-0.0261973 0.0396823,-0.0582677 0.0396823,-0.0960953 0,-0.0396823 -0.013485,-0.072796 -0.0408801,-0.0998047 -0.0274337,-0.0269701 -0.0613588,-0.0404551 -0.102239,-0.0404551 -0.041112,0 -0.0752689,0.0132918 -0.102432,0.0394505 -0.0272019,0.0263905 -0.0406869,0.0580745 -0.0406869,0.0946657zm-0.0347752 0.405672c0,0.0306408 0.00734142,0.0605088 0.0218697,0.0891403 0.0145283,0.0288247 0.0362048,0.0511195 0.0650295,0.0668456 0.0288247,0.0157647 0.0596974,0.0237244 0.092811,0.0237244 0.0515445,0 0.0940861,-0.0165762 0.127586,-0.049883 0.0335387,-0.0331137 0.0503081,-0.0752689 0.0503081,-0.12635 0,-0.0519695 -0.0171557,-0.0948975 -0.0517377,-0.128823 -0.0345433,-0.0339637 -0.0778963,-0.0509263 -0.129827,-0.0509263 -0.0506944,0 -0.0926178,0.0167694 -0.125963,0.0503081 -0.0333069,0.0337319 -0.0500762,0.0756553 -0.0500762,0.125963z"/>
 <path class="fil0" d="M63.9331 27.9829l-0.107764 0 0 -0.687003c-0.0259654,0.024729 -0.0598905,0.0494966 -0.102007,0.0742256 -0.0423484,0.024729 -0.0801761,0.043353 -0.113715,0.0556016l0 -0.104055c0.0603542,-0.0284383 0.113097,-0.0627885 0.158266,-0.10305 0.0449759,-0.0404937 0.0770849,-0.0795578 0.0959022,-0.117579l0.0693185 0 0 0.881859zm0.292382 -0.203048l0.103669 -0.00958249c0.00877107,0.0486466 0.0255404,0.08404 0.0502694,0.106103 0.0247676,0.0218697 0.0564517,0.0329205 0.0952839,0.0329205 0.0331137,0 0.0621703,-0.00757326 0.0870924,-0.022913 0.0249608,-0.0151079 0.0454009,-0.0353547 0.0613588,-0.060702 0.0161511,-0.0253472 0.029443,-0.0596974 0.0402619,-0.102664 0.0106644,-0.0431212 0.0161511,-0.0870924 0.0161511,-0.131875 0,-0.00471397 -0.000193195,-0.0120554 -0.000579586,-0.0214447 -0.0216765,0.0341183 -0.0511195,0.0621316 -0.0883289,0.0834217 -0.0374413,0.0214447 -0.077935,0.0320704 -0.121249,0.0320704 -0.072796,0 -0.134348,-0.0263518 -0.184656,-0.0791328 -0.0502694,-0.0527423 -0.0754234,-0.122061 -0.0754234,-0.208342 0,-0.0891403 0.0261586,-0.1607 0.0787078,-0.215104 0.0525491,-0.0543652 0.11839,-0.0815671 0.197523,-0.0815671 0.0570313,0 0.109155,0.0155329 0.156604,0.0462123 0.0472169,0.0306794 0.0832285,0.074612 0.107764,0.13145 0.0245358,0.0568767 0.0367844,0.139255 0.0367844,0.247213 0,0.112053 -0.0120554,0.201387 -0.036398,0.268039 -0.0245358,0.0664592 -0.060702,0.11696 -0.108769,0.151736 -0.0482602,0.0347365 -0.10448,0.0521241 -0.169278,0.0521241 -0.0687003,0 -0.124727,-0.0190104 -0.168273,-0.0572245 -0.0435462,-0.0380595 -0.0697435,-0.0916132 -0.0785146,-0.160738zm0.441413 -0.387666c0,-0.0617452 -0.0163443,-0.11101 -0.0492648,-0.147215 -0.0331137,-0.036398 -0.0725642,-0.054597 -0.119008,-0.054597 -0.0478352,0 -0.0895267,0.0196286 -0.125113,0.0586927 -0.0355866,0.0392573 -0.0533605,0.0899904 -0.0533605,0.152122 0,0.0560266 0.0169625,0.101428 0.0506944,0.136396 0.0337319,0.0349684 0.0752303,0.0523173 0.124727,0.0523173 0.0500762,0 0.090995,-0.0173489 0.123104,-0.0523173 0.0323023,-0.0349684 0.0482215,-0.0834217 0.0482215,-0.145399z"/>
 <path class="fil0" d="M64.0938 30.6322l0 0.103669 -0.580475 0c-0.00081142,-0.0259654 0.00328432,-0.0509263 0.0124804,-0.0748439 0.0147215,-0.0396437 0.0384459,-0.0785146 0.0709413,-0.11696 0.0327273,-0.038214 0.079751,-0.0825717 0.141071,-0.13288 0.0955158,-0.0783214 0.16012,-0.14026 0.193659,-0.186086 0.0335001,-0.0455941 0.0502694,-0.0889085 0.0502694,-0.129634 0,-0.0426962 -0.0153397,-0.0787078 -0.0457873,-0.108151 -0.0306794,-0.0292498 -0.0705549,-0.0439713 -0.119627,-0.0439713 -0.0519309,0 -0.0934293,0.0155715 -0.124495,0.0468305 -0.0312976,0.0311044 -0.0470237,0.0742256 -0.0474488,0.129248l-0.110817 -0.011244c0.00757326,-0.0828421 0.0362048,-0.145785 0.0856628,-0.189138 0.0494966,-0.043353 0.116149,-0.0650295 0.199571,-0.0650295 0.0842332,0 0.150886,0.0235312 0.199957,0.0701299 0.0492648,0.0468305 0.0738006,0.104673 0.0738006,0.173799 0,0.0351615 -0.00714823,0.0697049 -0.0216765,0.103669 -0.0142965,0.0339251 -0.038214,0.0697049 -0.0715595,0.107146 -0.0333069,0.0375958 -0.0887153,0.0891403 -0.166225,0.154556 -0.0646045,0.0544038 -0.106103,0.0911882 -0.124495,0.110624 -0.0184308,0.0192036 -0.0335387,0.0386391 -0.0455941,0.0582677l0.430787 0zm0.115531 -0.329398c0,-0.103862 0.0106257,-0.187477 0.0320704,-0.250652 0.0212901,-0.0634067 0.0531673,-0.112246 0.0952839,-0.146597 0.0421166,-0.0343501 0.0950907,-0.0515445 0.158884,-0.0515445 0.0472169,0 0.0885221,0.00962113 0.124109,0.0286315 0.0355866,0.0188172 0.0647977,0.0462123 0.0881357,0.0819921 0.0231062,0.0357798 0.0413052,0.079326 0.0543652,0.130639 0.0132918,0.0513127 0.0198605,0.120438 0.0198605,0.20753 0,0.10305 -0.0106644,0.186086 -0.0317227,0.249454 -0.0212515,0.0633681 -0.0529355,0.112246 -0.0950521,0.14679 -0.0421166,0.034582 -0.0952839,0.0517377 -0.159695,0.0517377 -0.0846582,0 -0.151117,-0.0302544 -0.199339,-0.090995 -0.0578813,-0.0729892 -0.0868993,-0.192191 -0.0868993,-0.356986zm0.110817 0c0,0.144162 0.0169625,0.240064 0.0506944,0.2879 0.0337319,0.047642 0.0752303,0.0715595 0.124727,0.0715595 0.0496898,0 0.0911882,-0.0241108 0.12492,-0.0719846 0.0337319,-0.0478352 0.0507331,-0.143737 0.0507331,-0.287475 0,-0.144549 -0.0170012,-0.240644 -0.0507331,-0.288093 -0.0337319,-0.047642 -0.0756553,-0.0713663 -0.125925,-0.0713663 -0.0496898,0 -0.089179,0.0210969 -0.118815,0.0629817 -0.0370162,0.0533605 -0.0556016,0.152354 -0.0556016,0.296478z"/>
</symbol>
<symbol id="Fm3-53736-0" viewBox="57.1804 -42.7141 99.6925 77.8822">
 <path class="fil4" d="M156.873 -41.6236c0,-0.599756 -0.490716,-1.09047 -1.09047,-1.09047l-97.5115 0c-0.599756,0 -1.09047,0.490716 -1.09047,1.09047l0 75.7013c0,0.599756 0.490716,1.09047 1.09047,1.09047l97.5115 0c0.599756,0 1.09047,-0.490716 1.09047,-1.09047l0 -75.7013z"/>
</symbol>
<symbol id="Fm25-53731-0" viewBox="102.033 -7.27121 11.993 2.77131">
 <polygon class="fil3" points="102.136,-7.16898 113.924,-7.16898 113.924,-4.60199 102.136,-4.60199 "/>
 <path class="fil4" d="M114.026 -7.27121l-11.993 0 0 2.77131 11.993 0 0 -2.77131zm-0.204478 2.56683l-11.584 0 0 -2.36235 11.584 0 0 2.36235z"/>
</symbol>
<symbol id="Fm20-53726-0" viewBox="66.0592 -18.34 11.993 2.77131">
 <polygon class="fil3" points="66.1616,-18.2378 77.95,-18.2378 77.95,-15.6708 66.1616,-15.6708 "/>
 <path class="fil4" d="M78.0522 -18.34l-11.993 0 0 2.77131 11.993 0 0 -2.77131zm-0.204478 2.56699l-11.584 0 0 -2.36239 11.584 0 0 2.36239z"/>
</symbol>
<symbol id="Fm32-53739-0" viewBox="138.053 -18.34 11.9929 2.77131">
 <polygon class="fil5" points="138.155,-18.2378 149.944,-18.2378 149.944,-15.6708 138.155,-15.6708 "/>
 <path class="fil4" d="M150.046 -18.34l-11.9929 0 0 2.77131 11.9929 0 0 -2.77131zm-0.204439 2.56699l-11.584 0 0 -2.36239 11.584 0 0 2.36239z"/>
</symbol>
<symbol id="Fm19-53724-0" viewBox="78.0522 -15.5686 11.9929 2.77135">
 <polygon class="fil3" points="78.1545,-15.4663 89.9428,-15.4663 89.9428,-12.8995 78.1545,-12.8995 "/>
 <path class="fil4" d="M90.0452 -15.5686l-11.9929 0 0 2.77135 11.9929 0 0 -2.77135zm-0.204439 2.56687l-11.5841 0 0 -2.36239 11.5841 0 0 2.36239z"/>
</symbol>
<symbol id="Fm16-53721-0" viewBox="66.0026 -21.1622 84.0187 66.581">
 <polygon class="fil2 str0" points="66.0366,-21.1281 149.987,-21.1281 149.987,45.3848 66.0366,45.3848 "/>
 <line class="fil2 str0" x1="66.0366" y1="25.9852" x2="149.987" y2= "25.9852" />
 <line class="fil2 str0" x1="66.0366" y1="23.2138" x2="149.987" y2= "23.2138" />
 <line class="fil2 str0" x1="66.0366" y1="20.4425" x2="149.987" y2= "20.4425" />
 <line class="fil2 str0" x1="66.0366" y1="17.6711" x2="149.987" y2= "17.6711" />
 <line class="fil2 str0" x1="66.0366" y1="14.8997" x2="149.987" y2= "14.8997" />
 <line class="fil2 str0" x1="66.0366" y1="12.1284" x2="149.987" y2= "12.1284" />
 <line class="fil2 str0" x1="66.0366" y1="9.35699" x2="149.987" y2= "9.35699" />
 <line class="fil2 str0" x1="66.0366" y1="6.58564" x2="149.987" y2= "6.58564" />
 <line class="fil2 str0" x1="66.0366" y1="3.81426" x2="149.987" y2= "3.81426" />
 <line class="fil2 str0" x1="66.0366" y1="1.04287" x2="149.987" y2= "1.04287" />
 <line class="fil2 str0" x1="66.0366" y1="-1.72848" x2="149.987" y2= "-1.72848" />
 <line class="fil2 str0" x1="66.0366" y1="-4.49987" x2="149.987" y2= "-4.49987" />
 <line class="fil2 str0" x1="66.0366" y1="-7.27125" x2="149.987" y2= "-7.27125" />
 <line class="fil2 str0" x1="66.0366" y1="-10.0426" x2="149.987" y2= "-10.0426" />
 <line class="fil2 str0" x1="66.0366" y1="-12.814" x2="149.987" y2= "-12.814" />
 <line class="fil2 str0" x1="66.0366" y1="-15.5854" x2="149.987" y2= "-15.5854" />
 <line class="fil2 str0" x1="66.0366" y1="-18.3567" x2="149.987" y2= "-18.3567" />
 <line class="fil2 str0" x1="137.994" y1="-21.1281" x2="137.994" y2= "45.3848" />
 <line class="fil2 str0" x1="126.001" y1="-21.1281" x2="126.001" y2= "45.3848" />
 <line class="fil2 str0" x1="114.008" y1="-21.1281" x2="114.008" y2= "45.3848" />
 <line class="fil2 str0" x1="102.015" y1="-21.1281" x2="102.015" y2= "45.3848" />
 <line class="fil2 str0" x1="90.0225" y1="-21.1281" x2="90.0225" y2= "45.3848" />
 <line class="fil2 str0" x1="78.0295" y1="-21.1281" x2="78.0295" y2= "45.3848" />
</symbol>
<symbol id="Fm29-53735-0" viewBox="102.019 -18.34 11.993 2.77131">
 <polygon class="fil5" points="102.121,-18.2378 113.91,-18.2378 113.91,-15.6708 102.121,-15.6708 "/>
 <path class="fil4" d="M114.012 -18.34l-11.993 0 0 2.77131 11.993 0 0 -2.77131zm-0.204478 2.56699l-11.584 0 0 -2.36239 11.584 0 0 2.36239z"/>
</symbol>
<symbol id="Fm24-53730-0" viewBox="126.019 -18.34 11.993 2.77131">
 <polygon class="fil3" points="126.122,-18.2378 137.91,-18.2378 137.91,-15.6708 126.122,-15.6708 "/>
 <path class="fil4" d="M138.012 -18.34l-11.993 0 0 2.77131 11.993 0 0 -2.77131zm-0.204478 2.56699l-11.584 0 0 -2.36239 11.584 0 0 2.36239z"/>
</symbol>
 <g id="Layer_x0020_1">
  <metadata id="CorelCorpID_0Corel-Layer"/>
  <polygon class="fil2 str3" points="1.749,1.97662 0.0340797,1.97662 0.0340797,0.261702 1.749,0.261702 "/>
  <line class="fil2 str3" x1="0.366878" y1="0.495469" x2="0.366878" y2= "0" />
  <line class="fil2 str3" x1="1.42597" y1="0.495469" x2="1.42597" y2= "0" />
 </g>
</svg>
