<?xml version="1.0" encoding="UTF-8"?>
<!DOCTYPE svg PUBLIC "-//W3C//DTD SVG 1.1//EN" "http://www.w3.org/Graphics/SVG/1.1/DTD/svg11.dtd">
<!-- Creator: CorelDRAW -->
<svg xmlns="http://www.w3.org/2000/svg" xml:space="preserve" width="79px" height="62px" style="shape-rendering:geometricPrecision; text-rendering:geometricPrecision; image-rendering:optimizeQuality; fill-rule:evenodd; clip-rule:evenodd"
viewBox="0 0 34.9368 27.5517"
 xmlns:xlink="http://www.w3.org/1999/xlink">
 <defs>
  <style type="text/css">
   <![CDATA[
    .str4 {stroke:white;stroke-width:0.0100104}
    .str8 {stroke:#686969;stroke-width:1.02449}
    .str1 {stroke:#686868;stroke-width:0.0161812}
    .str6 {stroke:#231F20;stroke-width:0.0194723}
    .str7 {stroke:#231F20;stroke-width:0.0204322}
    .str2 {stroke:#231F20;stroke-width:0.0585541}
    .str5 {stroke:#686868;stroke-width:0.0770665}
    .str0 {stroke:#686868;stroke-width:0.0874883}
    .str3 {stroke:#686868;stroke-width:0.881602}
    .fil7 {fill:none}
    .fil5 {fill:none;fill-rule:nonzero}
    .fil4 {fill:#686868;fill-rule:nonzero}
    .fil2 {fill:lightgrey;fill-rule:nonzero}
    .fil6 {fill:#F9F9F9;fill-rule:nonzero}
    .fil3 {fill:#FF7676;fill-rule:nonzero}
    .fil0 {fill:#FFD550;fill-rule:nonzero}
    .fil1 {fill:white;fill-rule:nonzero}
    .fil8 {fill:url(#id1)}
   ]]>
  </style>
  <pattern id="id0" patternUnits="userSpaceOnUse" patternTransform="matrix(1 0 0 1 33.5361 -85.3716)" x="0" y="0" width="43.9618" height="43.9608" viewBox="33.5483 -41.9968 0.574708 0.574708">
   <polygon id="_1234567891011121314151617181920212223242526271" class="fil1" points="-1.28243,-76.8276 68.9538,-76.8276 68.9538,-6.59138 -1.28243,-6.59138 "/>
   <polygon id="_12345678910111213141516171819202122232425262712" class="fil1" points="32.1115,-43.4335 35.5597,-43.4335 35.5597,-39.9853 32.1115,-39.9853 "/>
   <path id="_123456789101112131415161718192021222324252627123" class="fil1" d="M34.123 -41.4077c0.00795348,0 0.0143985,-0.00644506 0.0143985,-0.0143985 0,-0.00795348 -0.00644506,-0.0143985 -0.0143985,-0.0143985 -0.00795348,0 -0.0143985,0.00644506 -0.0143985,0.0143985 0,0.00795348 0.00644506,0.0143985 0.0143985,0.0143985z"/>
   <path id="_1234567891011121314151617181920212223242526271234" class="fil5 str4" d="M34.123 -41.4077c0.00795348,0 0.0143985,-0.00644506 0.0143985,-0.0143985 0,-0.00795348 -0.00644506,-0.0143985 -0.0143985,-0.0143985 -0.00795348,0 -0.0143985,0.00644506 -0.0143985,0.0143985 0,0.00795348 0.00644506,0.0143985 0.0143985,0.0143985z"/>
   <path id="_12345678910111213141516171819202122232425262712345" class="fil1" d="M33.8356 -41.4077c0.00795348,0 0.0143985,-0.00644506 0.0143985,-0.0143985 0,-0.00795348 -0.00644506,-0.0143985 -0.0143985,-0.0143985 -0.00795348,0 -0.0143985,0.00644506 -0.0143985,0.0143985 0,0.00795348 0.00644506,0.0143985 0.0143985,0.0143985z"/>
   <path id="_123456789101112131415161718192021222324252627123456" class="fil5 str4" d="M33.8356 -41.4077c0.00795348,0 0.0143985,-0.00644506 0.0143985,-0.0143985 0,-0.00795348 -0.00644506,-0.0143985 -0.0143985,-0.0143985 -0.00795348,0 -0.0143985,0.00644506 -0.0143985,0.0143985 0,0.00795348 0.00644506,0.0143985 0.0143985,0.0143985z"/>
   <path id="_1234567891011121314151617181920212223242526271234567" class="fil1" d="M34.123 -41.695c0.00795348,0 0.0143985,-0.00644506 0.0143985,-0.0143985 0,-0.00795348 -0.00644506,-0.0143985 -0.0143985,-0.0143985 -0.00795348,0 -0.0143985,0.00644506 -0.0143985,0.0143985 0,0.00795348 0.00644506,0.0143985 0.0143985,0.0143985z"/>
   <path id="_12345678910111213141516171819202122232425262712345678" class="fil5 str4" d="M34.123 -41.695c0.00795348,0 0.0143985,-0.00644506 0.0143985,-0.0143985 0,-0.00795348 -0.00644506,-0.0143985 -0.0143985,-0.0143985 -0.00795348,0 -0.0143985,0.00644506 -0.0143985,0.0143985 0,0.00795348 0.00644506,0.0143985 0.0143985,0.0143985z"/>
   <path id="_123456789101112131415161718192021222324252627123456789" class="fil1" d="M33.8356 -41.695c0.00795348,0 0.0143985,-0.00644506 0.0143985,-0.0143985 0,-0.00795348 -0.00644506,-0.0143985 -0.0143985,-0.0143985 -0.00795348,0 -0.0143985,0.00644506 -0.0143985,0.0143985 0,0.00795348 0.00644506,0.0143985 0.0143985,0.0143985z"/>
   <path id="_12345678910111213141516171819202122232425262712345678910" class="fil5 str4" d="M33.8356 -41.695c0.00795348,0 0.0143985,-0.00644506 0.0143985,-0.0143985 0,-0.00795348 -0.00644506,-0.0143985 -0.0143985,-0.0143985 -0.00795348,0 -0.0143985,0.00644506 -0.0143985,0.0143985 0,0.00795348 0.00644506,0.0143985 0.0143985,0.0143985z"/>
   <path id="_1234567891011121314151617181920212223242526271234567891011" class="fil1" d="M33.692 -41.5514c0.00795348,0 0.0143985,-0.00644506 0.0143985,-0.0143985 0,-0.00795348 -0.00644506,-0.0143985 -0.0143985,-0.0143985 -0.00795348,0 -0.0143985,0.00644506 -0.0143985,0.0143985 0,0.00795348 0.00644506,0.0143985 0.0143985,0.0143985z"/>
   <path id="_123456789101112131415161718192021222324252627123456789101112" class="fil5 str4" d="M33.692 -41.5514c0.00795348,0 0.0143985,-0.00644506 0.0143985,-0.0143985 0,-0.00795348 -0.00644506,-0.0143985 -0.0143985,-0.0143985 -0.00795348,0 -0.0143985,0.00644506 -0.0143985,0.0143985 0,0.00795348 0.00644506,0.0143985 0.0143985,0.0143985z"/>
   <path id="_12345678910111213141516171819202122232425262712345678910111213" class="fil1" d="M33.9793 -41.5514c0.00795348,0 0.0143985,-0.00644506 0.0143985,-0.0143985 0,-0.00795348 -0.00644506,-0.0143985 -0.0143985,-0.0143985 -0.00795348,0 -0.0143985,0.00644506 -0.0143985,0.0143985 0,0.00795348 0.00644506,0.0143985 0.0143985,0.0143985z"/>
   <path id="_1234567891011121314151617181920212223242526271234567891011121314" class="fil5 str4" d="M33.9793 -41.5514c0.00795348,0 0.0143985,-0.00644506 0.0143985,-0.0143985 0,-0.00795348 -0.00644506,-0.0143985 -0.0143985,-0.0143985 -0.00795348,0 -0.0143985,0.00644506 -0.0143985,0.0143985 0,0.00795348 0.00644506,0.0143985 0.0143985,0.0143985z"/>
   <path id="_123456789101112131415161718192021222324252627123456789101112131415" class="fil1" d="M33.692 -41.8387c0.00795348,0 0.0143985,-0.00644506 0.0143985,-0.0143985 0,-0.00795348 -0.00644506,-0.0143985 -0.0143985,-0.0143985 -0.00795348,0 -0.0143985,0.00644506 -0.0143985,0.0143985 0,0.00795348 0.00644506,0.0143985 0.0143985,0.0143985z"/>
   <path id="_12345678910111213141516171819202122232425262712345678910111213141516" class="fil5 str4" d="M33.692 -41.8387c0.00795348,0 0.0143985,-0.00644506 0.0143985,-0.0143985 0,-0.00795348 -0.00644506,-0.0143985 -0.0143985,-0.0143985 -0.00795348,0 -0.0143985,0.00644506 -0.0143985,0.0143985 0,0.00795348 0.00644506,0.0143985 0.0143985,0.0143985z"/>
   <path id="_1234567891011121314151617181920212223242526271234567891011121314151617" class="fil1" d="M33.9793 -41.8387c0.00795348,0 0.0143985,-0.00644506 0.0143985,-0.0143985 0,-0.00795348 -0.00644506,-0.0143985 -0.0143985,-0.0143985 -0.00795348,0 -0.0143985,0.00644506 -0.0143985,0.0143985 0,0.00795348 0.00644506,0.0143985 0.0143985,0.0143985z"/>
   <path id="_123456789101112131415161718192021222324252627123456789101112131415161718" class="fil5 str4" d="M33.9793 -41.8387c0.00795348,0 0.0143985,-0.00644506 0.0143985,-0.0143985 0,-0.00795348 -0.00644506,-0.0143985 -0.0143985,-0.0143985 -0.00795348,0 -0.0143985,0.00644506 -0.0143985,0.0143985 0,0.00795348 0.00644506,0.0143985 0.0143985,0.0143985z"/>
   <path id="_12345678910111213141516171819202122232425262712345678910111213141516171819" class="fil1" d="M33.5483 -41.4077c0.00795348,0 0.0143985,-0.00644506 0.0143985,-0.0143985 0,-0.00795348 -0.00644506,-0.0143985 -0.0143985,-0.0143985 -0.00795348,0 -0.0143985,0.00644506 -0.0143985,0.0143985 0,0.00795348 0.00644506,0.0143985 0.0143985,0.0143985z"/>
   <path id="_1234567891011121314151617181920212223242526271234567891011121314151617181920" class="fil5 str4" d="M33.5483 -41.4077c0.00795348,0 0.0143985,-0.00644506 0.0143985,-0.0143985 0,-0.00795348 -0.00644506,-0.0143985 -0.0143985,-0.0143985 -0.00795348,0 -0.0143985,0.00644506 -0.0143985,0.0143985 0,0.00795348 0.00644506,0.0143985 0.0143985,0.0143985z"/>
   <path id="_123456789101112131415161718192021222324252627123456789101112131415161718192021" class="fil1" d="M33.5483 -41.695c0.00795348,0 0.0143985,-0.00644506 0.0143985,-0.0143985 0,-0.00795348 -0.00644506,-0.0143985 -0.0143985,-0.0143985 -0.00795348,0 -0.0143985,0.00644506 -0.0143985,0.0143985 0,0.00795348 0.00644506,0.0143985 0.0143985,0.0143985z"/>
   <path id="_12345678910111213141516171819202122232425262712345678910111213141516171819202122" class="fil5 str4" d="M33.5483 -41.695c0.00795348,0 0.0143985,-0.00644506 0.0143985,-0.0143985 0,-0.00795348 -0.00644506,-0.0143985 -0.0143985,-0.0143985 -0.00795348,0 -0.0143985,0.00644506 -0.0143985,0.0143985 0,0.00795348 0.00644506,0.0143985 0.0143985,0.0143985z"/>
   <path id="_1234567891011121314151617181920212223242526271234567891011121314151617181920212223" class="fil1" d="M34.123 -41.9824c0.00795348,0 0.0143985,-0.00644506 0.0143985,-0.0143985 0,-0.00795348 -0.00644506,-0.0143985 -0.0143985,-0.0143985 -0.00795348,0 -0.0143985,0.00644506 -0.0143985,0.0143985 0,0.00795348 0.00644506,0.0143985 0.0143985,0.0143985z"/>
   <path id="_123456789101112131415161718192021222324252627123456789101112131415161718192021222324" class="fil5 str4" d="M34.123 -41.9824c0.00795348,0 0.0143985,-0.00644506 0.0143985,-0.0143985 0,-0.00795348 -0.00644506,-0.0143985 -0.0143985,-0.0143985 -0.00795348,0 -0.0143985,0.00644506 -0.0143985,0.0143985 0,0.00795348 0.00644506,0.0143985 0.0143985,0.0143985z"/>
   <path id="_12345678910111213141516171819202122232425262712345678910111213141516171819202122232425" class="fil1" d="M33.8356 -41.9824c0.00795348,0 0.0143985,-0.00644506 0.0143985,-0.0143985 0,-0.00795348 -0.00644506,-0.0143985 -0.0143985,-0.0143985 -0.00795348,0 -0.0143985,0.00644506 -0.0143985,0.0143985 0,0.00795348 0.00644506,0.0143985 0.0143985,0.0143985z"/>
   <path id="_1234567891011121314151617181920212223242526271234567891011121314151617181920212223242526" class="fil5 str4" d="M33.8356 -41.9824c0.00795348,0 0.0143985,-0.00644506 0.0143985,-0.0143985 0,-0.00795348 -0.00644506,-0.0143985 -0.0143985,-0.0143985 -0.00795348,0 -0.0143985,0.00644506 -0.0143985,0.0143985 0,0.00795348 0.00644506,0.0143985 0.0143985,0.0143985z"/>
   <path id="_123456789101112131415161718192021222324252627123456789101112131415161718192021222324252627" class="fil1" d="M33.5483 -41.9824c0.00795348,0 0.0143985,-0.00644506 0.0143985,-0.0143985 0,-0.00795348 -0.00644506,-0.0143985 -0.0143985,-0.0143985 -0.00795348,0 -0.0143985,0.00644506 -0.0143985,0.0143985 0,0.00795348 0.00644506,0.0143985 0.0143985,0.0143985z"/>
   <path id="_12345678910111213141516171819202122232425262712345678910111213141516171819202122232425262728" class="fil5 str4" d="M33.5483 -41.9824c0.00795348,0 0.0143985,-0.00644506 0.0143985,-0.0143985 0,-0.00795348 -0.00644506,-0.0143985 -0.0143985,-0.0143985 -0.00795348,0 -0.0143985,0.00644506 -0.0143985,0.0143985 0,0.00795348 0.00644506,0.0143985 0.0143985,0.0143985z"/>
  </pattern>
  <linearGradient id="id1" gradientUnits="userSpaceOnUse" x1="43.5246" y1="-53.3876" x2="43.5246" y2="-41.4245">
   <stop offset="0" style="stop-color:#EF5053"/>
   <stop offset="0.0117647" style="stop-color:#EF5053"/>
   <stop offset="1" style="stop-color:#F8D322"/>
  </linearGradient>
 </defs>
<symbol id="Fm31-53738-0" viewBox="219.234 -72.4329 19.9551 4.61124">
 <polygon class="fil0" points="219.403,-72.2629 239.019,-72.2629 239.019,-67.9916 219.403,-67.9916 "/>
 <path class="fil1" d="M239.189 -72.4329l-19.9551 0 0 4.61124 19.9551 0 0 -4.61124zm-0.340217 4.27129l-19.2747 0 0 -3.9308 19.2747 0 0 3.9308z"/>
</symbol>
<symbol id="Fm29-53735-0" viewBox="199.272 -72.4326 19.9551 4.61124">
 <polygon class="fil0" points="199.441,-72.2626 219.057,-72.2626 219.057,-67.9913 199.441,-67.9913 "/>
 <path class="fil1" d="M219.227 -72.4326l-19.9551 0 0 4.61124 19.9551 0 0 -4.61124zm-0.340354 4.27129l-19.2746 0 0 -3.9308 19.2746 0 0 3.9308z"/>
</symbol>
<symbol id="Fm0-53714-0" viewBox="33.5471 -53.4095 19.9551 11.9778">
 <polygon class="fil2" points="33.5471,-53.4095 53.5022,-53.4095 53.5022,-41.4317 33.5471,-41.4317 "/>
</symbol>
<symbol id="Fm28-53734-0" viewBox="219.165 -54.0154 19.9551 4.61124">
 <polygon class="fil3" points="219.337,-53.8452 238.951,-53.8452 238.951,-49.574 219.337,-49.574 "/>
 <path class="fil1" d="M239.121 -54.0154l-19.9551 0 0 4.61124 19.9551 0 0 -4.61124zm-0.340217 4.27102l-19.2747 0 0 -3.9308 19.2747 0 0 3.9308z"/>
</symbol>
<symbol id="Fm8-53744-0" viewBox="201.131 -93.2972 19.956 2.5229">
 <path class="fil4" d="M205.846 -91.6094l0 -1.00186 0.19966 0 0.236959 0.709368c0.0219406,0.065959 0.0379847,0.115463 0.047858,0.148374 0.0113817,-0.0363392 0.0292085,-0.0899566 0.0533432,-0.160715l0.239701 -0.696889 0.178405 0 0 1.00186 -0.127804 0 0 -0.838544 -0.291125 0.838544 -0.119714 0 -0.289754 -0.852805 0 0.852805 -0.127804 0 0.000274258 -0.000137129zm1.23498 0l0.384921 -1.00186 0.142751 0 0.410016 1.00186 -0.151116 0 -0.116834 -0.303466 -0.418929 0 -0.10984 0.303466 -0.140831 0 -0.000137129 0zm0.288931 -0.411387l0.339806 0 -0.104767 -0.277412c-0.0316768,-0.0841972 -0.0555372,-0.153447 -0.0708957,-0.207888 -0.0128901,0.0643135 -0.030854,0.128078 -0.0541659,0.191569l-0.110115 0.29373 0.000137129 0zm0.928089 0.411387l0 -1.00186 0.136032 0 0.526164 0.786572 0 -0.786572 0.127119 0 0 1.00186 -0.136032 0 -0.526301 -0.787257 0 0.787257 -0.127119 0 0.000137129 0zm1.07701 0l0.384921 -1.00186 0.142751 0 0.410016 1.00186 -0.151116 0 -0.116834 -0.303466 -0.418929 0 -0.10984 0.303466 -0.140831 0 -0.000137129 0zm0.289068 -0.411387l0.339806 0 -0.104767 -0.277412c-0.0316768,-0.0841972 -0.0555372,-0.153447 -0.0708957,-0.207888 -0.0128901,0.0643135 -0.030854,0.128078 -0.0541659,0.191569l-0.110115 0.29373 0.000137129 0zm1.3983 0.0183753l0 -0.117382 0.424277 -0.000685645 0 0.37162c-0.0649991,0.0519719 -0.132192,0.0910536 -0.20158,0.117382 -0.0692501,0.0261916 -0.14042,0.0392189 -0.213236,0.0392189 -0.0984586,0 -0.188004,-0.0209807 -0.268224,-0.0632165 -0.0804947,-0.0419615 -0.141106,-0.103121 -0.182244,-0.182656 -0.0410016,-0.0798091 -0.0615709,-0.168943 -0.0615709,-0.267401 0,-0.0974987 0.0205693,-0.188415 0.0614338,-0.272887 0.0405902,-0.0846086 0.0992814,-0.147414 0.175799,-0.188552 0.076518,-0.0408644 0.164692,-0.0612966 0.264522,-0.0612966 0.072267,0 0.137815,0.011656 0.196369,0.0352421 0.0585541,0.0233119 0.104492,0.0559486 0.137677,0.0979101 0.0333223,0.0419615 0.0585541,0.0965388 0.0759694,0.164006l-0.119714 0.032911c-0.0152213,-0.051012 -0.0338709,-0.0911908 -0.0559486,-0.120399 -0.022352,-0.0292085 -0.0543031,-0.0525204 -0.0958532,-0.0699358 -0.0412758,-0.0175525 -0.0874883,-0.0263288 -0.137815,-0.0263288 -0.060611,0 -0.113131,0.00932477 -0.15715,0.0278372 -0.0442927,0.0185124 -0.0798091,0.0426471 -0.107098,0.0728155 -0.0270144,0.0300312 -0.0479951,0.0629422 -0.0632165,0.0991442 -0.0253689,0.0618452 -0.038259,0.129038 -0.038259,0.20158 0,0.089271 0.0153584,0.164006 0.0462125,0.224206 0.030854,0.0601996 0.0755581,0.104767 0.134386,0.133838 0.0588283,0.0292085 0.121085,0.0438813 0.187044,0.0438813 0.0575942,0 0.113543,-0.0112446 0.16812,-0.0333223 0.0548516,-0.0219406 0.0961274,-0.0455268 0.124376,-0.0706214l0 -0.186633 -0.294416 0 0.000137129 -0.000274258zm0.797542 0.393012l0 -1.00186 0.724315 0 0 0.118205 -0.591712 0 0 0.306758 0.554275 0 0 0.11752 -0.554275 0 0 0.34104 0.615023 0 0 0.118205 -0.747627 0 0 0.000137129zm1.67147 0l0 -1.00186 0.444161 0c0.089271,0 0.15715,0.00905051 0.203637,0.0270144 0.0463496,0.0179639 0.0835115,0.0496407 0.111486,0.0951675 0.0277001,0.0456639 0.0415501,0.0961274 0.0415501,0.151116 0,0.0711699 -0.0229005,0.130821 -0.0689759,0.179639 -0.0459382,0.0486808 -0.117108,0.0798091 -0.213236,0.0931106 0.0352421,0.0168669 0.0618452,0.0333223 0.0800833,0.0499149 0.0386704,0.0355164 0.0752838,0.0799462 0.110115,0.133152l0.174291 0.27275 -0.166886 0 -0.132467 -0.208573c-0.0386704,-0.0599254 -0.0707585,-0.106138 -0.0958532,-0.137815 -0.0249575,-0.0319511 -0.0473095,-0.0543031 -0.0671932,-0.0669189 -0.0198837,-0.0128901 -0.0399045,-0.0216664 -0.0603367,-0.0268773 -0.0152213,-0.00301684 -0.0396303,-0.00466239 -0.0739125,-0.00466239l-0.153722 0 0 0.444846 -0.132467 0 -0.000274258 0zm0.132467 -0.559486l0.285091 0c0.0603367,0 0.10792,-0.00630793 0.142066,-0.0189238 0.0342822,-0.0126159 0.0601996,-0.0326367 0.0778893,-0.0601996 0.0176896,-0.0275629 0.026603,-0.0573199 0.026603,-0.0898195 0,-0.0473095 -0.017004,-0.0862541 -0.0515605,-0.116834 -0.0342822,-0.0305798 -0.0885853,-0.0456639 -0.163046,-0.0456639l-0.317042 0 0 0.331441zm1.05384 0.559486l0 -1.00186 0.724315 0 0 0.118205 -0.591712 0 0 0.306758 0.554275 0 0 0.11752 -0.554275 0 0 0.34104 0.615023 0 0 0.118205 -0.747627 0 0 0.000137129zm1.10567 0l0 -1.00186 0.377927 0c0.0665076,0 0.117382,0.0032911 0.15235,0.00959903 0.0492293,0.00809061 0.0905051,0.0237233 0.123827,0.0468981 0.0331852,0.0229005 0.0599254,0.055263 0.0802204,0.0965388 0.0202951,0.0415501 0.0303055,0.0870769 0.0303055,0.136718 0,0.0851571 -0.0270144,0.157424 -0.0811804,0.216527 -0.0543031,0.0588283 -0.15235,0.0883111 -0.293867,0.0883111l-0.257117 0 0 0.407273 -0.132467 0zm0.132467 -0.525478l0.259174 0c0.0855685,0 0.146454,-0.015907 0.182382,-0.047858 0.0359278,-0.0319511 0.0538917,-0.0766551 0.0538917,-0.134524 0,-0.0419615 -0.0105589,-0.0778893 -0.0316768,-0.107783 -0.021255,-0.0298941 -0.048955,-0.0495036 -0.0836487,-0.0589655 -0.022352,-0.00575942 -0.0634907,-0.00877625 -0.12369,-0.00877625l-0.256431 0 0 0.358044 0 -0.000137129zm0.935631 0.0375733c0,-0.166337 0.0445669,-0.296473 0.133838,-0.390406 0.089271,-0.0940705 0.204596,-0.141106 0.345976,-0.141106 0.0922878,0 0.175799,0.0222149 0.249986,0.0662333 0.0741868,0.0442927 0.130821,0.105864 0.169766,0.184987 0.0389446,0.0788492 0.0582798,0.168669 0.0582798,0.268773 0,0.10175 -0.0202951,0.192666 -0.0612966,0.272612 -0.0410016,0.0802204 -0.0991442,0.140831 -0.174291,0.182244 -0.0752838,0.0412758 -0.156327,0.0618452 -0.243267,0.0618452 -0.0944819,0 -0.178679,-0.0226263 -0.252866,-0.0682902 -0.074461,-0.0455268 -0.130684,-0.107783 -0.168943,-0.186633 -0.038259,-0.0785749 -0.0573199,-0.162086 -0.0573199,-0.249986l0.000137129 -0.000274258zm0.136718 0.00205693c0,0.120811 0.0324996,0.215704 0.0973616,0.285228 0.0649991,0.0695244 0.146454,0.104218 0.244364,0.104218 0.0998299,0 0.18197,-0.0349679 0.246284,-0.105178 0.0644506,-0.07021 0.0968131,-0.169766 0.0968131,-0.298804 0,-0.0814546 -0.0139872,-0.152625 -0.0415501,-0.213373 -0.0275629,-0.0608853 -0.0678788,-0.108058 -0.120811,-0.141517 -0.053206,-0.0333223 -0.11272,-0.0501892 -0.178679,-0.0501892 -0.0940705,0 -0.174702,0.0322253 -0.242307,0.0968131 -0.0677417,0.0644506 -0.101475,0.172234 -0.101475,0.322802zm1.12226 0.164006l0.125062 -0.0109703c0.00589655,0.0501892 0.0196094,0.0911908 0.0412758,0.123416 0.0216664,0.0322253 0.055263,0.0580056 0.10079,0.0778893 0.0455268,0.0198837 0.0968131,0.0296199 0.153722,0.0296199 0.0506006,0 0.0951675,-0.00740496 0.133838,-0.022352 0.0386704,-0.0152213 0.0676046,-0.0356535 0.0865284,-0.0618452 0.0189238,-0.0263288 0.0285228,-0.0548516 0.0285228,-0.0858427 0,-0.0315397 -0.00905051,-0.0588283 -0.0275629,-0.0824145 -0.0182382,-0.0235862 -0.0482694,-0.0431956 -0.0899566,-0.0589655 -0.0270144,-0.0105589 -0.0863913,-0.0268773 -0.178542,-0.048955 -0.0918764,-0.0222149 -0.156464,-0.0429214 -0.193352,-0.0625308 -0.047858,-0.0249575 -0.0835115,-0.0562229 -0.107098,-0.0933848 -0.0233119,-0.037162 -0.0349679,-0.0785749 -0.0349679,-0.124787 0,-0.0503263 0.0142614,-0.097773 0.0429214,-0.141517 0.02866,-0.0440184 0.0706214,-0.0774779 0.125747,-0.100378 0.055263,-0.0226263 0.116422,-0.034008 0.18389,-0.034008 0.0743239,0 0.139734,0.0119302 0.196643,0.0359278 0.0566343,0.0238604 0.100241,0.0589655 0.130821,0.105452 0.0303055,0.0463496 0.0468981,0.0991442 0.0492293,0.157835l-0.127119 0.00959903c-0.00699358,-0.0632165 -0.0301684,-0.111349 -0.0695244,-0.143437 -0.039356,-0.0324996 -0.0974987,-0.0485437 -0.174428,-0.0485437 -0.0802204,0 -0.1385,0.0146728 -0.175388,0.0440184 -0.0366134,0.0293456 -0.0549887,0.064862 -0.0549887,0.106138 0,0.036202 0.0130273,0.0658219 0.0389446,0.0888596 0.0256431,0.0233119 0.0921507,0.0471724 0.199934,0.0714442 0.107783,0.024409 0.181696,0.0456639 0.221875,0.0639021 0.0582798,0.0270144 0.101475,0.0611595 0.129175,0.102161 0.0278372,0.0412758 0.0415501,0.0888596 0.0415501,0.142477 0,0.0534803 -0.0152213,0.103532 -0.0456639,0.150705 -0.0305798,0.0471724 -0.0743239,0.0837858 -0.131507,0.110115 -0.0571828,0.0261916 -0.121496,0.0392189 -0.19294,0.0392189 -0.0906422,0 -0.166749,-0.0130273 -0.227908,-0.0396303 -0.0612966,-0.0263288 -0.109429,-0.065959 -0.144397,-0.119165 -0.0346936,-0.0529318 -0.053206,-0.113131 -0.0548516,-0.18005l-0.000274258 0zm1.40831 0.321842l0 -0.883522 -0.330069 0 0 -0.118205 0.793977 0 0 0.118205 -0.331441 0 0 0.883522 -0.132467 0zm0.729938 -0.321842l0.125062 -0.0109703c0.00589655,0.0501892 0.0196094,0.0911908 0.0412758,0.123416 0.0216664,0.0322253 0.055263,0.0580056 0.10079,0.0778893 0.0455268,0.0198837 0.0968131,0.0296199 0.153722,0.0296199 0.0506006,0 0.0951675,-0.00740496 0.133838,-0.022352 0.0386704,-0.0152213 0.0676046,-0.0356535 0.0865284,-0.0618452 0.0189238,-0.0263288 0.0285228,-0.0548516 0.0285228,-0.0858427 0,-0.0315397 -0.00905051,-0.0588283 -0.0275629,-0.0824145 -0.0182382,-0.0235862 -0.0482694,-0.0431956 -0.0899566,-0.0589655 -0.0270144,-0.0105589 -0.0863913,-0.0268773 -0.178542,-0.048955 -0.0918764,-0.0222149 -0.156464,-0.0429214 -0.193352,-0.0625308 -0.047858,-0.0249575 -0.0835115,-0.0562229 -0.107098,-0.0933848 -0.0233119,-0.037162 -0.0349679,-0.0785749 -0.0349679,-0.124787 0,-0.0503263 0.0142614,-0.097773 0.0429214,-0.141517 0.02866,-0.0440184 0.0706214,-0.0774779 0.125747,-0.100378 0.055263,-0.0226263 0.116422,-0.034008 0.18389,-0.034008 0.0743239,0 0.139734,0.0119302 0.196643,0.0359278 0.0566343,0.0238604 0.100241,0.0589655 0.130821,0.105452 0.0303055,0.0463496 0.0468981,0.0991442 0.0492293,0.157835l-0.127119 0.00959903c-0.00699358,-0.0632165 -0.0301684,-0.111349 -0.0695244,-0.143437 -0.039356,-0.0324996 -0.0974987,-0.0485437 -0.174428,-0.0485437 -0.0802204,0 -0.1385,0.0146728 -0.175388,0.0440184 -0.0366134,0.0293456 -0.0549887,0.064862 -0.0549887,0.106138 0,0.036202 0.0130273,0.0658219 0.0389446,0.0888596 0.0256431,0.0233119 0.0921507,0.0471724 0.199934,0.0714442 0.107783,0.024409 0.181696,0.0456639 0.221875,0.0639021 0.0582798,0.0270144 0.101475,0.0611595 0.129175,0.102161 0.0278372,0.0412758 0.0415501,0.0888596 0.0415501,0.142477 0,0.0534803 -0.0152213,0.103532 -0.0456639,0.150705 -0.0305798,0.0471724 -0.0743239,0.0837858 -0.131507,0.110115 -0.0571828,0.0261916 -0.121496,0.0392189 -0.19294,0.0392189 -0.0906422,0 -0.166749,-0.0130273 -0.227908,-0.0396303 -0.0612966,-0.0263288 -0.109429,-0.065959 -0.144397,-0.119165 -0.0346936,-0.0529318 -0.053206,-0.113131 -0.0548516,-0.18005l-0.000274258 0z"/>
 <path class="fil5 str0" d="M202.393 -92.5714c-0.297021,0.00109703 -0.535489,0.24121 -0.534803,0.538643 0.000685645,0.293045 0.24313,0.53398 0.535763,0.532335 0.29853,-0.00164555 0.535763,-0.241621 0.53494,-0.541248 -0.000822774,-0.290576 -0.243815,-0.530826 -0.535763,-0.529729l-0.000137129 0zm0.991305 -0.152487c-0.000548516,0.0315397 -0.0120673,0.055263 -0.0292085,0.0767922 -0.0278372,0.035105 -0.0555372,0.0706214 -0.0837858,0.105452 -0.00575942,0.00713071 -0.00589655,0.0120673 -0.00164555,0.0200208 0.036202,0.0665076 0.0658219,0.135621 0.0847457,0.208847 0.0032911,0.0133015 0.0123416,0.0119302 0.0211179,0.0128901 0.0449783,0.00534803 0.0899566,0.0112446 0.135072,0.0157698 0.0652734,0.00644506 0.102435,0.0667818 0.100927,0.11752 -0.00246832,0.0835115 -0.000685645,0.167023 -0.000548516,0.250535 0,0.0652734 -0.0418243,0.110937 -0.106961,0.11752 -0.0468981,0.00493664 -0.0937962,0.0105589 -0.14042,0.0164555 -0.00383961,0.000548516 -0.00932477,0.0052109 -0.0104218,0.00891338 -0.0213921,0.0759694 -0.0522461,0.147825 -0.0911908,0.21639 -0.00397674,0.00713071 -0.00191981,0.0109703 0.00233119,0.0164555 0.0287971,0.0360649 0.0573199,0.0724041 0.086117,0.10888 0.00356535,0.00452526 0.00740496,0.00905051 0.0106961,0.01385 0.0349679,0.0486808 0.0311283,0.104081 -0.0120673,0.147962 -0.0615709,0.0628051 -0.123827,0.124924 -0.186495,0.186907 -0.0375733,0.037162 -0.102298,0.039356 -0.144671,0.00630793 -0.0410016,-0.0322253 -0.0817289,-0.0645877 -0.122319,-0.0970873 -0.00658219,-0.0052109 -0.0113817,-0.0061708 -0.0189238,-0.00191981 -0.0678788,0.0372991 -0.138912,0.0667818 -0.213784,0.0865284 -0.0101475,0.00260545 -0.0141243,0.00685645 -0.0152213,0.0178268 -0.00534803,0.0540288 -0.0119302,0.10792 -0.0185124,0.161812 -0.00493664,0.0400417 -0.0473095,0.0828259 -0.087214,0.0883111 -0.0124787,0.00178268 -0.0250946,0.00260545 -0.0374362,0.00274258 -0.0796719,0.000137129 -0.15907,0.000548516 -0.238467,-0.000411387 -0.0176896,-0.000137129 -0.0363392,-0.00260545 -0.0523833,-0.00932477 -0.0426471,-0.0178268 -0.0644506,-0.0518348 -0.0692501,-0.097773 -0.0052109,-0.0518348 -0.0120673,-0.103395 -0.0176896,-0.15523 -0.000822774,-0.00754209 -0.0032911,-0.0115188 -0.0109703,-0.0139872 -0.0710328,-0.0226263 -0.140969,-0.0477209 -0.205556,-0.086117 -0.00301684,-0.00178268 -0.0101475,0.000137129 -0.0134386,0.00287971 -0.0418243,0.0324996 -0.0832373,0.0652734 -0.124787,0.0983215 -0.0479951,0.0381219 -0.110252,0.0344194 -0.153584,-0.00891338 -0.0585541,-0.0588283 -0.117382,-0.11752 -0.176211,-0.176348 -0.0503263,-0.0503263 -0.0537546,-0.106823 -0.00959903,-0.162361 0.0316768,-0.0396303 0.0629422,-0.0798091 0.094619,-0.119165 0.00562229,-0.00699358 0.00671932,-0.0120673 0.00219406,-0.020158 -0.0335966,-0.0610224 -0.0612966,-0.124787 -0.0806318,-0.191706 -0.00246832,-0.00836487 -0.00685645,-0.0109703 -0.0148099,-0.0119302 -0.0500521,-0.00562229 -0.0996928,-0.0122045 -0.149745,-0.0171411 -0.0666447,-0.00658219 -0.108743,-0.052109 -0.108743,-0.118754 0,-0.080769 0.00219406,-0.161812 -0.000685645,-0.242444 -0.00205693,-0.0593768 0.0346936,-0.121908 0.117382,-0.126981 0.0445669,-0.00274258 0.0889967,-0.0100104 0.133701,-0.0146728 0.00767922,-0.000959903 0.0115188,-0.00301684 0.0135758,-0.0113817 0.0185124,-0.0737754 0.0468981,-0.143848 0.0831002,-0.210767 0.00479951,-0.00918764 0.00397674,-0.0145357 -0.00233119,-0.0222149 -0.0303055,-0.0372991 -0.0597882,-0.0751467 -0.0895452,-0.112857 -0.0414129,-0.0530689 -0.0381219,-0.109429 0.0094619,-0.157424 0.0603367,-0.0608853 0.121085,-0.121633 0.181696,-0.182107 0.0386704,-0.0385332 0.103532,-0.0420986 0.146591,-0.00822774 0.0378476,0.0296199 0.0755581,0.059514 0.112857,0.0895452 0.00658219,0.0052109 0.0112446,0.00630793 0.0189238,0.00178268 0.0715813,-0.0418243 0.147139,-0.0741868 0.227223,-0.0959903 0.00836487,-0.00233119 0.0120673,-0.00575942 0.0130273,-0.0150842 0.00438813,-0.0442927 0.0105589,-0.0881739 0.0148099,-0.132467 0.00466239,-0.0481323 0.0298941,-0.0810432 0.0735011,-0.0991442 0.0123416,-0.00507377 0.0272887,-0.00630793 0.0408644,-0.00630793 0.0857056,-0.000548516 0.171685,0 0.257391,-0.000411387 0.0663704,-0.000411387 0.104904,0.0482694 0.112446,0.0895452 0.00575942,0.0316768 0.00767922,0.0640392 0.0113817,0.0959903 0.00219406,0.0183753 0.00370248,0.0367506 0.00658219,0.0549887 0.000685645,0.00438813 0.00562229,0.0102847 0.00959903,0.0115188 0.0796719,0.0222149 0.154819,0.0543031 0.226537,0.0947561 0.00342822,0.00191981 0.0112446,0.000137129 0.0146728,-0.00246832 0.0355164,-0.0274258 0.0706214,-0.0555372 0.105726,-0.0835115 0.0479951,-0.0381219 0.1108,-0.0346936 0.153722,0.00836487 0.0593768,0.059514 0.118754,0.118617 0.177993,0.178268 0.0233119,0.0233119 0.0378476,0.051012 0.0385332,0.0817289l0.000137129 0.000411387z"/>
</symbol>
<symbol id="Fm16-53721-0" viewBox="45.1985 -52.544 19.9551 15.8134">
 <polygon class="fil5 str1" points="45.2066,-52.5359 65.1456,-52.5359 65.1456,-36.7386 45.2066,-36.7386 "/>
 <line class="fil5 str1" x1="45.2066" y1="-41.3462" x2="65.1456" y2= "-41.3462" />
 <line class="fil5 str1" x1="45.2066" y1="-42.0044" x2="65.1456" y2= "-42.0044" />
 <line class="fil5 str1" x1="45.2066" y1="-42.6626" x2="65.1456" y2= "-42.6626" />
 <line class="fil5 str1" x1="45.2066" y1="-43.3208" x2="65.1456" y2= "-43.3208" />
 <line class="fil5 str1" x1="45.2066" y1="-43.979" x2="65.1456" y2= "-43.979" />
 <line class="fil5 str1" x1="45.2066" y1="-44.6373" x2="65.1456" y2= "-44.6373" />
 <line class="fil5 str1" x1="45.2066" y1="-45.2955" x2="65.1456" y2= "-45.2955" />
 <line class="fil5 str1" x1="45.2066" y1="-45.9537" x2="65.1456" y2= "-45.9537" />
 <line class="fil5 str1" x1="45.2066" y1="-46.6119" x2="65.1456" y2= "-46.6119" />
 <line class="fil5 str1" x1="45.2066" y1="-47.2701" x2="65.1456" y2= "-47.2701" />
 <line class="fil5 str1" x1="45.2066" y1="-47.9284" x2="65.1456" y2= "-47.9284" />
 <line class="fil5 str1" x1="45.2066" y1="-48.5866" x2="65.1456" y2= "-48.5866" />
 <line class="fil5 str1" x1="45.2066" y1="-49.2448" x2="65.1456" y2= "-49.2448" />
 <line class="fil5 str1" x1="45.2066" y1="-49.903" x2="65.1456" y2= "-49.903" />
 <line class="fil5 str1" x1="45.2066" y1="-50.5612" x2="65.1456" y2= "-50.5612" />
 <line class="fil5 str1" x1="45.2066" y1="-51.2195" x2="65.1456" y2= "-51.2195" />
 <line class="fil5 str1" x1="45.2066" y1="-51.8777" x2="65.1456" y2= "-51.8777" />
 <line class="fil5 str1" x1="62.2971" y1="-52.5359" x2="62.2971" y2= "-36.7386" />
 <line class="fil5 str1" x1="59.4487" y1="-52.5359" x2="59.4487" y2= "-36.7386" />
 <line class="fil5 str1" x1="56.6003" y1="-52.5359" x2="56.6003" y2= "-36.7386" />
 <line class="fil5 str1" x1="53.7518" y1="-52.5359" x2="53.7518" y2= "-36.7386" />
 <line class="fil5 str1" x1="50.9035" y1="-52.5359" x2="50.9035" y2= "-36.7386" />
 <line class="fil5 str1" x1="48.0551" y1="-52.5359" x2="48.0551" y2= "-36.7386" />
</symbol>
<symbol id="Fm14-53719-0" viewBox="53.1901 -32.4956 19.9551 0.0586912">
 <line class="fil5 str2" x1="73.1453" y1="-32.4662" x2="53.1901" y2= "-32.4662" />
</symbol>
<symbol id="Fm15-53720-0" viewBox="1219.96 -466.456 19.9554 20.8358">
 <line class="fil5 str3" x1="1219.96" y1="-446.061" x2="1239.91" y2= "-446.061" />
 <line class="fil5 str3" x1="1219.96" y1="-452.925" x2="1239.91" y2= "-452.925" />
 <line class="fil5 str3" x1="1219.96" y1="-459.788" x2="1239.91" y2= "-459.788" />
 <line class="fil5 str3" x1="1219.96" y1="-466.016" x2="1239.91" y2= "-466.016" />
</symbol>
<symbol id="Fm2-53725-0" viewBox="33.5483 -53.3951 19.9551 11.973">
 <polygon id="_12345678910111213141516171819202122232425262712345678910111213141516171819202122232425262728" style="fill:url(#id0);fill-rule:nonzero" points="53.5035,-41.4221 33.5483,-41.4221 33.5483,-53.3951 53.5035,-53.3951 "/>
</symbol>
<symbol id="Fm11-53716-0" viewBox="908.625 -326.309 19.9553 4.44325">
 <path class="fil4" d="M908.626 -321.937l1.67956 -4.37208 0.62284 0 1.78953 4.37208 -0.65959 0 -0.509846 -1.32425 -1.82834 0 -0.479403 1.32425 -0.614886 0 0.000137129 0zm1.26118 -1.79557l1.48305 0 -0.457051 -1.21044c-0.1385,-0.367506 -0.242444,-0.669875 -0.3095,-0.906971 -0.0560857,0.280977 -0.134386,0.558801 -0.236136,0.835801l-0.4805 1.28161 0.000137129 0zm6.04259 1.79557l0 -0.400142c-0.20062,0.314711 -0.495858,0.471312 -0.885853,0.471312 -0.252317,0 -0.48434,-0.0692501 -0.696204,-0.208573 -0.21159,-0.1385 -0.375459,-0.332812 -0.492567,-0.58321 -0.116148,-0.249575 -0.174154,-0.535352 -0.174154,-0.86021 0,-0.315534 0.0530689,-0.602545 0.157835,-0.860073 0.106001,-0.257528 0.263836,-0.455131 0.474329,-0.591437 0.210767,-0.137403 0.446903,-0.206653 0.707448,-0.206653 0.190472,0 0.360375,0.0407273 0.509023,0.121222 0.149745,0.0803576 0.270693,0.185261 0.364489,0.314437l0 -1.56862 0.533432 0 0 4.37208 -0.497778 0 0 -0.000137129zm-1.69683 -1.58096c0,0.406176 0.0854313,0.709642 0.256431,0.909988 0.171,0.20062 0.372717,0.301409 0.605699,0.301409 0.233942,0 0.433465,-0.0966759 0.597471,-0.288245 0.163869,-0.191295 0.246284,-0.484614 0.246284,-0.878448 0,-0.433739 -0.0835115,-0.751193 -0.250398,-0.953732 -0.167023,-0.203637 -0.372717,-0.304563 -0.617903,-0.304563 -0.23833,0 -0.437853,0.097773 -0.597471,0.292222 -0.159892,0.194586 -0.24025,0.501892 -0.24025,0.921232l0.000137129 0.000137129zm3.803 1.58096l0 -3.16686 0.479403 0 0 0.443886c0.0998299,-0.154681 0.232159,-0.280017 0.397125,-0.373814 0.164966,-0.094619 0.353244,-0.14234 0.563737,-0.14234 0.234216,0 0.426608,0.048955 0.576353,0.146454 0.150568,0.097773 0.256431,0.233119 0.317454,0.408096 0.251495,-0.369425 0.577176,-0.554687 0.978141,-0.554687 0.314711,0 0.555921,0.0874883 0.724727,0.261642 0.16908,0.174017 0.253689,0.441692 0.253689,0.803164l0 2.17432 -0.533432 0 0 -1.99509c0,-0.214881 -0.0172783,-0.3697 -0.0519719,-0.464182 -0.0356535,-0.0936591 -0.0987329,-0.17004 -0.189375,-0.228045 -0.0916022,-0.0569085 -0.199523,-0.0863913 -0.322664,-0.0863913 -0.222972,0 -0.407136,0.0741868 -0.554687,0.222972 -0.146728,0.147551 -0.220915,0.384784 -0.220915,0.710465l0 1.84041 -0.536449 0 0 -2.05721c0,-0.239153 -0.0437441,-0.41838 -0.13137,-0.537546 -0.0874883,-0.119028 -0.230102,-0.178953 -0.429625,-0.178953 -0.150568,0 -0.290028,0.0396303 -0.41838,0.120125 -0.128353,0.0792605 -0.221875,0.195409 -0.27892,0.348033 -0.0580056,0.153722 -0.0865284,0.374636 -0.0865284,0.662607l0 1.64308 -0.536311 0 0 -0.000137129zm5.85321 -3.75418l0 -0.617903 0.537546 0 0 0.617903 -0.537546 0zm0 3.75418l0 -3.16686 0.537546 0 0 3.16686 -0.537546 0zm2.11851 0l0 -3.16686 0.48242 0 0 0.44992c0.233119,-0.34817 0.569222,-0.522187 1.0079,-0.522187 0.191295,0 0.366409,0.0346936 0.526301,0.102847 0.160852,0.0692501 0.27988,0.158795 0.359278,0.270693 0.0804947,0.111074 0.135483,0.243267 0.167983,0.396028 0.0191981,0.0998299 0.0296199,0.273709 0.0296199,0.522187l0 1.94737 -0.537546 0 0 -1.92694c0,-0.217898 -0.0202951,-0.381767 -0.0621194,-0.490647 -0.0418243,-0.108058 -0.116011,-0.194586 -0.221875,-0.258625 -0.106961,-0.0651363 -0.231199,-0.0976358 -0.374636,-0.0976358 -0.229143,0 -0.425511,0.0730897 -0.592534,0.217761 -0.165926,0.145631 -0.248478,0.420437 -0.248478,0.826476l0 1.72961 -0.536311 0z"/>
</symbol>
<symbol id="Fm19-53724-0" viewBox="159.395 -67.8215 19.9551 4.61124">
 <polygon class="fil3" points="159.565,-67.6513 179.179,-67.6513 179.179,-63.3803 159.565,-63.3803 "/>
 <path class="fil1" d="M179.35 -67.8215l-19.9551 0 0 4.61124 19.9551 0 0 -4.61124zm-0.340217 4.27102l-19.275 0 0 -3.9308 19.275 0 0 3.9308z"/>
</symbol>
<symbol id="Fm23-53729-0" viewBox="179.338 -63.2381 19.9551 4.61124">
 <polygon class="fil3" points="179.508,-63.0678 199.122,-63.0678 199.122,-58.7968 179.508,-58.7968 "/>
 <path class="fil1" d="M199.293 -63.2381l-19.9551 0 0 4.61124 19.9551 0 0 -4.61124zm-0.34008 4.27129l-19.275 0 0 -3.9308 19.275 0 0 3.9308z"/>
</symbol>
<symbol id="Fm13-53718-0" viewBox="53.1325 -27.7565 19.9551 0.0586912">
 <line class="fil5 str2" x1="73.0877" y1="-27.7272" x2="53.1325" y2= "-27.7272" />
</symbol>
<symbol id="Fm25-53731-0" viewBox="199.295 -54.0152 19.9551 4.61124">
 <polygon class="fil3" points="199.466,-53.8451 219.081,-53.8451 219.081,-49.5739 199.466,-49.5739 "/>
 <path class="fil1" d="M219.25 -54.0152l-19.9551 0 0 4.61124 19.9551 0 0 -4.61124zm-0.340217 4.27102l-19.2746 0 0 -3.93066 19.2746 0 0 3.93066z"/>
</symbol>
<symbol id="Fm32-53739-0" viewBox="259.231 -72.4329 19.9551 4.61124">
 <polygon class="fil0" points="259.4,-72.2629 279.016,-72.2629 279.016,-67.9916 259.4,-67.9916 "/>
 <path class="fil1" d="M279.186 -72.4329l-19.9551 0 0 4.61124 19.9551 0 0 -4.61124zm-0.340217 4.27129l-19.2747 0 0 -3.9308 19.2747 0 0 3.9308z"/>
</symbol>
<symbol id="Fm0-54062-0" viewBox="92.7496 -127.435 19.955 19.9547">
 <path class="fil6" d="M112.705 -117.458c0,5.51053 -4.46725,9.97737 -9.97737,9.97737 -5.51066,0 -9.97764,-4.46684 -9.97764,-9.97737 0,-5.51039 4.46698,-9.97737 9.97764,-9.97737 5.51025,0 9.97737,4.46698 9.97737,9.97737z"/>
</symbol>
<symbol id="Fm17-53722-0" viewBox="159.363 -40.1987 19.9551 4.61124">
 <polygon class="fil4" points="179.319,-35.5874 159.363,-35.5874 159.363,-40.1987 179.319,-40.1987 "/>
</symbol>
<symbol id="Fm20-53726-0" viewBox="139.438 -72.4326 19.9551 4.61124">
 <polygon class="fil3" points="139.609,-72.2626 159.223,-72.2626 159.223,-67.9913 139.609,-67.9913 "/>
 <path class="fil1" d="M159.393 -72.4326l-19.9551 0 0 4.61124 19.9551 0 0 -4.61124zm-0.340217 4.27129l-19.2746 0 0 -3.9308 19.2746 0 0 3.9308z"/>
</symbol>
<symbol id="Fm7-53743-0" viewBox="143.283 -87.112 19.9545 2.63726">
 <path class="fil4" d="M147.404 -86.0493c0,-0.146454 0.0392189,-0.261094 0.117931,-0.343919 0.078712,-0.0828259 0.180187,-0.124376 0.304701,-0.124376 0.0813175,0 0.154956,0.0194723 0.220229,0.0584169 0.0654105,0.0390818 0.115325,0.0932477 0.149608,0.162909 0.0342822,0.0693873 0.0514234,0.148511 0.0514234,0.236685 0,0.0895452 -0.0178268,0.169629 -0.0540288,0.240113 -0.036202,0.0706214 -0.0873512,0.124102 -0.153447,0.160441 -0.0663704,0.0363392 -0.137677,0.0544402 -0.214333,0.0544402 -0.0832373,0 -0.157424,-0.0198837 -0.222697,-0.0601996 -0.0655476,-0.0400417 -0.115051,-0.0948932 -0.148785,-0.164418 -0.0337337,-0.0692501 -0.0506006,-0.142751 -0.0506006,-0.220229l0 0.000137129zm0.120399 0.00178268c0,0.106412 0.0285228,0.190061 0.0857056,0.251357 0.0573199,0.0612966 0.129038,0.0918764 0.215292,0.0918764 0.0878997,0 0.160304,-0.030854 0.216938,-0.0926992 0.0567714,-0.0618452 0.0852942,-0.149608 0.0852942,-0.26315 0,-0.0717185 -0.0123416,-0.134386 -0.0366134,-0.188004 -0.0242718,-0.0536174 -0.0597882,-0.0951675 -0.106412,-0.12465 -0.0468981,-0.0293456 -0.0992814,-0.0441555 -0.157424,-0.0441555 -0.0828259,0 -0.153859,0.0283857 -0.21351,0.0852942 -0.0596511,0.0567714 -0.0894081,0.151665 -0.0894081,0.284405l0.000137129 -0.000274258zm1.02998 0.42798l0 -0.882425 0.391229 0c0.078712,0 0.1385,0.00795348 0.179365,0.0238604 0.0408644,0.015907 0.0735011,0.0437441 0.0981843,0.0837858 0.024409,0.0403159 0.0366134,0.0846086 0.0366134,0.133152 0,0.0626679 -0.020158,0.115325 -0.0607481,0.158247 -0.040453,0.0429214 -0.103121,0.0703472 -0.187867,0.0820031 0.0309911,0.0148099 0.0544402,0.0293456 0.0704843,0.0440184 0.0341451,0.0312654 0.0663704,0.0704843 0.0969502,0.117245l0.153447 0.24025 -0.147002 0 -0.116697 -0.183616c-0.0341451,-0.0527947 -0.0622566,-0.093522 -0.0844714,-0.121496 -0.0219406,-0.0281114 -0.0416872,-0.047858 -0.0591026,-0.0589655 -0.0174154,-0.0112446 -0.035105,-0.0190609 -0.053206,-0.0235862 -0.0133015,-0.00260545 -0.0349679,-0.00411387 -0.0651363,-0.00411387l-0.135346 0 0 0.391777 -0.116697 0 0 -0.000137129zm0.116697 -0.492842l0.251083 0c0.053206,0 0.0950304,-0.00548516 0.125062,-0.0165926 0.0301684,-0.0111074 0.0530689,-0.0287971 0.0685645,-0.0530689 0.0156327,-0.0242718 0.0234491,-0.0506006 0.0234491,-0.0791234 0,-0.0416872 -0.0149471,-0.0759694 -0.0453897,-0.102847 -0.0301684,-0.0268773 -0.0780264,-0.0403159 -0.143574,-0.0403159l-0.279195 0 0 0.291948zm1.33879 0.146728l0 -0.103395 0.373676 -0.000548516 0 0.327327c-0.0573199,0.0458011 -0.11656,0.0802204 -0.177582,0.103395 -0.0610224,0.0230377 -0.12369,0.0345565 -0.18773,0.0345565 -0.0866655,0 -0.165652,-0.0185124 -0.236273,-0.0556744 -0.0708957,-0.0370248 -0.124376,-0.0907794 -0.160441,-0.160852 -0.036202,-0.0703472 -0.0543031,-0.148785 -0.0543031,-0.23545 0,-0.0858427 0.018101,-0.165926 0.0540288,-0.240387 0.0357907,-0.0745982 0.0874883,-0.129861 0.154956,-0.166063 0.0673303,-0.0359278 0.145082,-0.0540288 0.232982,-0.0540288 0.0636278,0 0.121496,0.0102847 0.173057,0.0309911 0.0515605,0.0205693 0.0920135,0.0493664 0.121222,0.0862541 0.0293456,0.0370248 0.0515605,0.08502 0.0669189,0.144397l-0.105452 0.0289342c-0.0133015,-0.0449783 -0.029757,-0.0803576 -0.0493664,-0.106001 -0.0197466,-0.0256431 -0.047858,-0.0462125 -0.0844714,-0.0615709 -0.0363392,-0.0153584 -0.0770665,-0.0231748 -0.121496,-0.0231748 -0.0534803,0 -0.0996928,0.00822774 -0.1385,0.024409 -0.0390818,0.0161812 -0.0703472,0.0375733 -0.0943447,0.0641764 -0.0238604,0.0264659 -0.0423729,0.0555372 -0.0556744,0.0873512 -0.022352,0.0544402 -0.0337337,0.113543 -0.0337337,0.177582 0,0.078712 0.0135758,0.144397 0.0407273,0.197466 0.0271515,0.0529318 0.0665076,0.0922878 0.118342,0.117931 0.0518348,0.0256431 0.106686,0.0386704 0.164829,0.0386704 0.0507377,0 0.099967,-0.00987329 0.148099,-0.0293456 0.0482694,-0.0193352 0.0846086,-0.0400417 0.109566,-0.0622566l0 -0.164418 -0.259311 0 0.000274258 -0.000274258zm0.603093 0.346114l0.338983 -0.882425 0.125747 0 0.361198 0.882425 -0.133152 0 -0.102847 -0.267264 -0.369014 0 -0.0968131 0.267264 -0.124102 0zm0.254511 -0.362432l0.299353 0 -0.0922878 -0.244364c-0.0279743,-0.0741868 -0.048955,-0.135209 -0.0623937,-0.183067 -0.0112446,0.0566343 -0.0271515,0.11272 -0.0477209,0.168669l-0.0969502 0.258625 0 0.000137129zm0.817563 0.362432l0 -0.882425 0.119714 0 0.463496 0.692776 0 -0.692776 0.112034 0 0 0.882425 -0.119714 0 -0.463496 -0.693461 0 0.693461 -0.111897 0 -0.000137129 0zm1.06549 0l0 -0.882425 0.116697 0 0 0.882425 -0.116697 0zm0.406176 0l0 -0.108332 0.451977 -0.565246c0.0322253,-0.0403159 0.0626679,-0.0751467 0.0916022,-0.104767l-0.49243 0 0 -0.104218 0.63189 0 0 0.104218 -0.49531 0.612007 -0.0536174 0.0619823 0.5636 0 0 0.104218 -0.697712 0 0 0.000137129zm0.979924 0l0 -0.882425 0.637924 0 0 0.104218 -0.521227 0 0 0.270144 0.488179 0 0 0.103532 -0.488179 0 0 0.30045 0.541797 0 0 0.104218 -0.658493 0 0 -0.000137129zm1.43094 -0.283446l0.110115 -0.00959903c0.0052109,0.0441555 0.0172783,0.0803576 0.0363392,0.108743 0.0190609,0.0283857 0.0486808,0.0511491 0.0887224,0.0685645 0.0400417,0.0174154 0.0852942,0.0260545 0.135346,0.0260545 0.0445669,0 0.0839229,-0.00658219 0.117931,-0.0197466 0.0341451,-0.0133015 0.059514,-0.0314025 0.0762437,-0.0544402 0.0165926,-0.0231748 0.0250946,-0.0482694 0.0250946,-0.0755581 0,-0.0277001 -0.00795348,-0.0518348 -0.0242718,-0.0725412 -0.0160441,-0.0207065 -0.04251,-0.0379847 -0.0792605,-0.0519719 -0.0238604,-0.00932477 -0.0761066,-0.0235862 -0.15715,-0.0431956 -0.0809061,-0.0194723 -0.137815,-0.0378476 -0.170314,-0.0549887 -0.0420986,-0.0220778 -0.0735011,-0.0495036 -0.0943447,-0.0821403 -0.0205693,-0.0326367 -0.030854,-0.0692501 -0.030854,-0.10984 0,-0.0444298 0.0124787,-0.086117 0.0378476,-0.12465 0.0252317,-0.0388075 0.0622566,-0.0682902 0.110663,-0.0883111 0.0486808,-0.0198837 0.102572,-0.0300312 0.161949,-0.0300312 0.0655476,0 0.123005,0.0104218 0.173194,0.0316768 0.0499149,0.0209807 0.0883111,0.0519719 0.115325,0.0928363 0.0267401,0.0408644 0.0412758,0.0873512 0.0433328,0.139049l-0.111897 0.00836487c-0.0061708,-0.0556744 -0.0264659,-0.0980472 -0.0612966,-0.126433 -0.0346936,-0.0285228 -0.0858427,-0.0427842 -0.153722,-0.0427842 -0.0707585,0 -0.122045,0.0128901 -0.154544,0.0388075 -0.0322253,0.0259174 -0.0485437,0.0571828 -0.0485437,0.093522 0,0.0318139 0.0115188,0.0580056 0.0342822,0.0783006 0.0226263,0.0205693 0.0811804,0.0415501 0.176074,0.0629422 0.0948932,0.0215292 0.16003,0.0401788 0.195409,0.0562229 0.0514234,0.0238604 0.0894081,0.0538917 0.113817,0.0899566 0.024409,0.0363392 0.0366134,0.0783006 0.0366134,0.125473 0,0.0470352 -0.0133015,0.0911908 -0.0403159,0.132741 -0.0268773,0.0415501 -0.0655476,0.0737754 -0.115874,0.0969502 -0.0503263,0.0230377 -0.106961,0.0345565 -0.169903,0.0345565 -0.0799462,0 -0.146865,-0.0115188 -0.200757,-0.0349679 -0.0540288,-0.0231748 -0.0964017,-0.0581427 -0.127256,-0.105041 -0.0305798,-0.0466239 -0.046761,-0.0996928 -0.0482694,-0.158658l0.000274258 0.000137129zm1.64541 -0.0259174l0.116834 0.0296199c-0.024409,0.095716 -0.0685645,0.168806 -0.132055,0.219406 -0.0636278,0.0503263 -0.14138,0.0754209 -0.233394,0.0754209 -0.0950304,0 -0.172371,-0.0193352 -0.231885,-0.0578684 -0.059514,-0.0388075 -0.105041,-0.0948932 -0.136032,-0.168257 -0.0309911,-0.0735011 -0.0466239,-0.152487 -0.0466239,-0.236685 0,-0.0918764 0.0174154,-0.17196 0.0526575,-0.240387 0.035105,-0.0684274 0.08502,-0.120399 0.150019,-0.155916 0.0647249,-0.0355164 0.136032,-0.053206 0.213921,-0.053206 0.0883111,0 0.162498,0.022352 0.222697,0.0673303 0.0601996,0.0449783 0.102024,0.108058 0.125747,0.189649l-0.114777 0.0271515c-0.0205693,-0.0643135 -0.0501892,-0.110937 -0.0891338,-0.140283 -0.0388075,-0.0293456 -0.0877625,-0.0440184 -0.146865,-0.0440184 -0.0677417,0 -0.124239,0.0161812 -0.169903,0.0486808 -0.0456639,0.0326367 -0.077615,0.0762437 -0.0958532,0.131095 -0.0185124,0.0545773 -0.0277001,0.111212 -0.0277001,0.169354 0,0.0751467 0.0108332,0.140557 0.0326367,0.196643 0.0219406,0.0559486 0.0558115,0.097773 0.102024,0.125473 0.0462125,0.0277001 0.0961274,0.0415501 0.150019,0.0415501 0.0654105,0 0.120536,-0.0189238 0.166063,-0.0564971 0.0453897,-0.0378476 0.0759694,-0.0939333 0.0920135,-0.16812l-0.000411387 -0.000137129zm0.41838 0.309363l0 -0.882425 0.116834 0 0 0.362432 0.458559 0 0 -0.362432 0.116834 0 0 0.882425 -0.116834 0 0 -0.415775 -0.458559 0 0 0.415775 -0.116834 0zm1.04328 0l0 -0.882425 0.637924 0 0 0.104218 -0.521227 0 0 0.270144 0.488179 0 0 0.103532 -0.488179 0 0 0.30045 0.541797 0 0 0.104218 -0.658493 0 0 -0.000137129zm0.97389 0l0 -0.882425 0.303878 0c0.0685645,0 0.120948,0.00438813 0.15715,0.012753 0.0506006,0.0115188 0.0936591,0.0326367 0.12945,0.0630793 0.0464867,0.0394931 0.0813175,0.0895452 0.104355,0.150842 0.0231748,0.0612966 0.0346936,0.131095 0.0346936,0.209807 0,0.0670561 -0.00781635,0.126433 -0.0235862,0.178131 -0.0156327,0.0518348 -0.0355164,0.0947561 -0.0601996,0.128627 -0.024409,0.0338709 -0.0511491,0.060611 -0.0803576,0.0799462 -0.0289342,0.0194723 -0.0640392,0.0342822 -0.105178,0.0444298 -0.0412758,0.0100104 -0.0885853,0.0149471 -0.141791,0.0149471l-0.318413 0 0 -0.000137129zm0.116697 -0.104081l0.188415 0c0.0581427,0 0.103944,-0.00534803 0.136992,-0.0161812 0.0330481,-0.0109703 0.0593768,-0.0260545 0.0791234,-0.0458011 0.0277001,-0.0275629 0.0493664,-0.0649991 0.0647249,-0.111623 0.0153584,-0.0468981 0.0231748,-0.103395 0.0231748,-0.170177 0,-0.0922878 -0.0152213,-0.163183 -0.0453897,-0.212687 -0.0304426,-0.0497778 -0.0671932,-0.0828259 -0.110526,-0.0996928 -0.0312654,-0.0120673 -0.0817289,-0.018101 -0.150979,-0.018101l-0.185535 0 0 0.674126 0 0.000137129zm1.50664 -0.778344l0.116834 0 0 0.509983c0,0.0885853 -0.0100104,0.15907 -0.0301684,0.211179 -0.020158,0.052109 -0.05636,0.0944819 -0.108743,0.127119 -0.0523833,0.032911 -0.120948,0.0490922 -0.206105,0.0490922 -0.0825516,0 -0.15043,-0.0141243 -0.202814,-0.0427842 -0.0526575,-0.0283857 -0.0902309,-0.0696615 -0.112583,-0.12369 -0.0226263,-0.0540288 -0.0337337,-0.12753 -0.0337337,-0.221052l0 -0.509983 0.116697 0 0 0.509297c0,0.0766551 0.00713071,0.133152 0.0213921,0.169354 0.0142614,0.0363392 0.0388075,0.0643135 0.073364,0.0840601 0.0346936,0.0197466 0.0772036,0.0296199 0.127393,0.0296199 0.0859799,0 0.147139,-0.0194723 0.183753,-0.0585541 0.0363392,-0.0388075 0.0545773,-0.11368 0.0545773,-0.224343l0 -0.509297 0.000137129 0zm0.460342 0.882425l0 -0.882425 0.116834 0 0 0.778207 0.434562 0 0 0.104218 -0.551396 0zm0.847183 0l0 -0.882425 0.637924 0 0 0.104218 -0.521227 0 0 0.270144 0.488179 0 0 0.103532 -0.488179 0 0 0.30045 0.541797 0 0 0.104218 -0.658493 0 0 -0.000137129z"/>
 <polygon class="fil6 str5" points="145.26,-84.8776 143.322,-84.8776 143.322,-86.8164 145.26,-86.8164 "/>
 <line class="fil5 str5" x1="143.697" y1="-86.552" x2="143.697" y2= "-87.112" />
 <line class="fil5 str5" x1="144.896" y1="-86.552" x2="144.896" y2= "-87.112" />
 <polygon class="fil6 str5" points="145.625,-84.5133 143.686,-84.5133 143.686,-86.452 145.625,-86.452 "/>
</symbol>
<symbol id="Fm22-53728-0" viewBox="179.338 -54.0154 19.9551 4.61124">
 <polygon class="fil3" points="179.508,-53.8452 199.122,-53.8452 199.122,-49.574 179.508,-49.574 "/>
 <path class="fil1" d="M199.293 -54.0154l-19.9551 0 0 4.61124 19.9551 0 0 -4.61124zm-0.34008 4.27102l-19.275 0 0 -3.9308 19.275 0 0 3.9308z"/>
</symbol>
<symbol id="Fm18-53723-0" viewBox="139.438 -54.0152 19.9551 4.61124">
 <polygon class="fil3" points="139.609,-53.8451 159.223,-53.8451 159.223,-49.5739 139.609,-49.5739 "/>
 <path class="fil1" d="M159.393 -54.0152l-19.9551 0 0 4.61124 19.9551 0 0 -4.61124zm-0.340217 4.27102l-19.2746 0 0 -3.93066 19.2746 0 0 3.93066z"/>
</symbol>
<symbol id="Fm30-53737-0" viewBox="179.338 -72.4329 19.9551 4.61124">
 <polygon class="fil0" points="179.508,-72.2629 199.122,-72.2629 199.122,-67.9916 179.508,-67.9916 "/>
 <path class="fil1" d="M199.293 -72.4329l-19.9551 0 0 4.61124 19.9551 0 0 -4.61124zm-0.34008 4.27129l-19.275 0 0 -3.9308 19.275 0 0 3.9308z"/>
</symbol>
<symbol id="Fm21-53727-0" viewBox="159.395 -58.6265 19.9551 4.61124">
 <polygon class="fil3" points="159.565,-58.4566 179.179,-58.4566 179.179,-54.1853 159.565,-54.1853 "/>
 <path class="fil1" d="M179.35 -58.6265l-19.9551 0 0 4.61124 19.9551 0 0 -4.61124zm-0.340217 4.27088l-19.275 0 0 -3.9308 19.275 0 0 3.9308z"/>
</symbol>
<symbol id="Fm6-53742-0" viewBox="67.0827 -59.319 0.56072 22.1323">
 <path class="fil4" d="M67.4166 -58.932l-0.0473095 0 0 -0.301409c-0.0113817,0.0108332 -0.0263288,0.0216664 -0.044704,0.0324996 -0.0185124,0.0108332 -0.035105,0.0190609 -0.0499149,0.024409l0 -0.0456639c0.0264659,-0.0124787 0.0496407,-0.0275629 0.0693873,-0.0452526 0.0197466,-0.0178268 0.0338709,-0.0349679 0.0420986,-0.0515605l0.0304426 0 0 0.386841 0 0.000137129z"/>
 <path class="fil4" d="M67.4871 -57.7697l0 0.0455268 -0.254648 0c-0.000411387,-0.0113817 0.00150842,-0.022352 0.00548516,-0.0327738 0.00644506,-0.0174154 0.0168669,-0.0344194 0.0311283,-0.0512862 0.0143985,-0.0167297 0.0349679,-0.036202 0.0618452,-0.0582798 0.0419615,-0.0344194 0.07021,-0.0615709 0.08502,-0.0815917 0.0146728,-0.0200208 0.0220778,-0.0389446 0.0220778,-0.0569085 0,-0.0187867 -0.00671932,-0.0345565 -0.0200208,-0.0474466 -0.0134386,-0.0128901 -0.0309911,-0.0193352 -0.0525204,-0.0193352 -0.0227634,0 -0.0410016,0.00685645 -0.0545773,0.0205693 -0.0137129,0.0137129 -0.0205693,0.0324996 -0.0208436,0.0566343l-0.0486808 -0.00493664c0.0032911,-0.0363392 0.015907,-0.0639021 0.0375733,-0.082963 0.0216664,-0.0190609 0.051012,-0.0285228 0.0874883,-0.0285228 0.0368877,0 0.0662333,0.0102847 0.0877625,0.0307169 0.0216664,0.0205693 0.0323624,0.0459382 0.0323624,0.0762437 0,0.0153584 -0.00315397,0.0305798 -0.0094619,0.0455268 -0.00630793,0.0149471 -0.0167297,0.0305798 -0.0314025,0.0470352 -0.0146728,0.0164555 -0.0389446,0.0390818 -0.0729526,0.0677417 -0.0283857,0.0238604 -0.0464867,0.0400417 -0.0545773,0.0485437 -0.00809061,0.00836487 -0.0146728,0.017004 -0.0200208,0.025506l0.188964 0z"/>
 <path class="fil4" d="M67.2387 -56.6182l0.0473095 -0.00630793c0.00548516,0.0268773 0.0146728,0.0460753 0.0277001,0.0580056 0.0131644,0.0117931 0.0289342,0.0178268 0.0477209,0.0178268 0.0222149,0 0.0411387,-0.00767922 0.05636,-0.0231748 0.0152213,-0.0153584 0.0229005,-0.0345565 0.0229005,-0.0573199 0,-0.0216664 -0.00713071,-0.0396303 -0.021255,-0.0537546 -0.0142614,-0.0141243 -0.0322253,-0.0211179 -0.0541659,-0.0211179 -0.00891338,0 -0.0200208,0.00178268 -0.0333223,0.00534803l0.00534803 -0.0415501c0.00315397,0.000411387 0.00562229,0.000548516 0.00767922,0.000548516 0.0200208,0 0.038259,-0.00534803 0.0543031,-0.0157698 0.0161812,-0.0105589 0.0242718,-0.0267401 0.0242718,-0.0486808 0,-0.0172783 -0.00589655,-0.0318139 -0.0176896,-0.0430585 -0.0117931,-0.0113817 -0.0268773,-0.0171411 -0.0455268,-0.0171411 -0.0183753,0 -0.0337337,0.00589655 -0.0459382,0.0172783 -0.0123416,0.0115188 -0.020158,0.0289342 -0.0237233,0.052109l-0.0473095 -0.00836487c0.00575942,-0.0318139 0.0189238,-0.05636 0.039356,-0.0737754 0.0205693,-0.0174154 0.0460753,-0.0261916 0.076518,-0.0261916 0.0209807,0 0.0403159,0.00452526 0.0580056,0.0135758 0.0176896,0.00905051 0.0312654,0.0213921 0.0405902,0.0368877 0.00932477,0.0156327 0.0141243,0.0320882 0.0141243,0.0496407 0,0.0165926 -0.00452526,0.0318139 -0.0134386,0.0455268 -0.00891338,0.0135758 -0.0222149,0.024409 -0.0396303,0.0324996 0.0227634,0.0052109 0.040453,0.0161812 0.0530689,0.0327738 0.0126159,0.0164555 0.0187867,0.037162 0.0187867,0.0621194 0,0.0335966 -0.0122045,0.0621194 -0.0367506,0.0855685 -0.0245461,0.0234491 -0.0555372,0.035105 -0.0929734,0.035105 -0.0338709,0 -0.0618452,-0.0100104 -0.0841972,-0.0301684 -0.022352,-0.0200208 -0.035105,-0.0462125 -0.038259,-0.0783006l0.000137129 -0.000137129z"/>
 <path class="fil4" d="M67.39 -55.3089l0 -0.0921507 -0.16716 0 0 -0.0434699 0.175799 -0.249575 0.0386704 0 0 0.249575 0.0519719 0 0 0.0434699 -0.0519719 0 0 0.0921507 -0.0473095 0zm0 -0.135621l0 -0.173605 -0.120536 0.173605 0.120536 0z"/>
 <path class="fil4" d="M67.2384 -54.202l0.0496407 -0.004251c0.00370248,0.0242718 0.0122045,0.0423729 0.025506,0.0545773 0.0134386,0.0122045 0.0296199,0.0183753 0.0485437,0.0183753 0.0227634,0 0.0420986,-0.00863913 0.0577313,-0.0257802 0.0157698,-0.0172783 0.0237233,-0.0400417 0.0237233,-0.0682902 0,-0.0270144 -0.00754209,-0.0482694 -0.0227634,-0.0639021 -0.0152213,-0.0156327 -0.0349679,-0.0234491 -0.059514,-0.0234491 -0.0152213,0 -0.0289342,0.00356535 -0.0412758,0.0104218 -0.0123416,0.00685645 -0.0219406,0.015907 -0.0289342,0.0268773l-0.0444298 -0.00575942 0.0372991 -0.197877 0.191569 0 0 0.0452526 -0.153722 0 -0.0208436 0.103532c0.0231748,-0.0161812 0.0474466,-0.0242718 0.0728155,-0.0242718 0.0335966,0 0.0619823,0.011656 0.0851571,0.0349679 0.0231748,0.0233119 0.0346936,0.0533432 0.0346936,0.0898195 0,0.0349679 -0.0102847,0.0649991 -0.0304426,0.090368 -0.0246832,0.0311283 -0.0584169,0.046761 -0.101201,0.046761 -0.035105,0 -0.0636278,-0.00973616 -0.0858427,-0.0293456 -0.0222149,-0.0196094 -0.0348308,-0.0456639 -0.0379847,-0.0780264l0.000274258 0z"/>
 <path class="fil4" d="M67.4839 -53.1844l-0.0470352 0.00370248c-0.004251,-0.0185124 -0.0101475,-0.0320882 -0.0178268,-0.040453 -0.0128901,-0.0135758 -0.02866,-0.0202951 -0.0473095,-0.0202951 -0.0150842,0 -0.0282486,0.004251 -0.0396303,0.0126159 -0.0149471,0.0108332 -0.026603,0.0267401 -0.0352421,0.0475838 -0.008502,0.0208436 -0.0130273,0.0504635 -0.0133015,0.0891338 0.0113817,-0.0172783 0.0252317,-0.0301684 0.0418243,-0.0386704 0.0164555,-0.00836487 0.0337337,-0.0126159 0.0516976,-0.0126159 0.0315397,0 0.0584169,0.0115188 0.0804947,0.0348308 0.0222149,0.0231748 0.0333223,0.053206 0.0333223,0.0899566 0,0.0242718 -0.00534803,0.0466239 -0.0156327,0.0674675 -0.0104218,0.0207065 -0.0246832,0.0367506 -0.0429214,0.0477209 -0.0182382,0.0109703 -0.0388075,0.0164555 -0.0619823,0.0164555 -0.0394931,0 -0.0715813,-0.0143985 -0.0964017,-0.0434699 -0.0249575,-0.0289342 -0.0372991,-0.0767922 -0.0372991,-0.1433 0,-0.074461 0.0137129,-0.12849 0.0412758,-0.162361 0.0239976,-0.0294827 0.0562229,-0.0442927 0.0969502,-0.0442927 0.0303055,0 0.0551258,0.008502 0.074461,0.025506 0.0193352,0.017004 0.0309911,0.040453 0.0348308,0.0703472l-0.000274258 0.000137129zm-0.193215 0.166063c0,0.0163183 0.00342822,0.0319511 0.0104218,0.046761 0.00685645,0.0149471 0.0165926,0.0261916 0.0289342,0.034008 0.0124787,0.00781635 0.025506,0.0117931 0.0392189,0.0117931 0.0200208,0 0.037162,-0.00809061 0.0515605,-0.0242718 0.0143985,-0.0161812 0.0215292,-0.0379847 0.0215292,-0.0656848 0,-0.026603 -0.00713071,-0.0475838 -0.021255,-0.0629422 -0.0141243,-0.0153584 -0.0320882,-0.0229005 -0.0534803,-0.0229005 -0.0213921,0 -0.0394931,0.00767922 -0.0544402,0.0229005 -0.0149471,0.0153584 -0.022352,0.0353793 -0.022352,0.0603367l-0.000137129 0z"/>
 <path class="fil4" d="M67.2416 -52.0206l0 -0.0455268 0.2493 0 0 0.0367506c-0.0245461,0.0260545 -0.0488179,0.0608853 -0.0729526,0.104081 -0.0239976,0.0431956 -0.0426471,0.0877625 -0.0558115,0.133426 -0.0094619,0.0322253 -0.0154956,0.0674675 -0.018101,0.105864l-0.0486808 0c0.000548516,-0.0303055 0.00644506,-0.0669189 0.0178268,-0.10984 0.0113817,-0.0429214 0.0277001,-0.0843343 0.048955,-0.124102 0.0213921,-0.0397674 0.0440184,-0.0735011 0.068016,-0.10079l-0.188689 0 0.000137129 0.000137129z"/>
 <path class="fil4" d="M67.3113 -50.687c-0.0196094,-0.00713071 -0.0341451,-0.0174154 -0.0437441,-0.0307169 -0.0094619,-0.0133015 -0.0141243,-0.0292085 -0.0141243,-0.047858 0,-0.0281114 0.0100104,-0.0515605 0.0303055,-0.0706214 0.020158,-0.0190609 0.0468981,-0.02866 0.0803576,-0.02866 0.0335966,0 0.0607481,0.00973616 0.0813175,0.0293456 0.0204322,0.0196094 0.0307169,0.0433328 0.0307169,0.0714442 0,0.0178268 -0.00466239,0.0333223 -0.0139872,0.0466239 -0.0094619,0.0131644 -0.0235862,0.0234491 -0.0426471,0.0305798 0.0235862,0.00767922 0.0415501,0.0200208 0.0540288,0.0372991 0.0123416,0.0171411 0.0185124,0.0377105 0.0185124,0.0614338 0,0.0330481 -0.011656,0.060611 -0.0348308,0.0831002 -0.0233119,0.0224892 -0.0540288,0.0335966 -0.0920135,0.0335966 -0.0379847,0 -0.0687016,-0.0112446 -0.0918764,-0.0337337 -0.0233119,-0.0224892 -0.0349679,-0.0506006 -0.0349679,-0.0841972 0,-0.0250946 0.00630793,-0.0460753 0.0190609,-0.0629422 0.0126159,-0.0168669 0.0307169,-0.0283857 0.0543031,-0.0345565l-0.000411387 -0.000137129zm-0.0094619 -0.0802204c0,0.0182382 0.00589655,0.0330481 0.0175525,0.044704 0.0117931,0.0115188 0.0270144,0.0174154 0.0458011,0.0174154 0.0182382,0 0.0331852,-0.00575942 0.0448412,-0.0172783 0.011656,-0.0115188 0.0174154,-0.025506 0.0174154,-0.0420986 0,-0.0174154 -0.00589655,-0.0319511 -0.0179639,-0.0437441 -0.0120673,-0.0117931 -0.0268773,-0.0176896 -0.0448412,-0.0176896 -0.018101,0 -0.0330481,0.00589655 -0.0449783,0.0172783 -0.0119302,0.0115188 -0.0178268,0.025506 -0.0178268,0.0415501l0 -0.000137129zm-0.0152213 0.177993c0,0.0134386 0.00315397,0.026603 0.00959903,0.0390818 0.00630793,0.0126159 0.015907,0.0224892 0.0285228,0.0293456 0.0126159,0.00685645 0.0261916,0.0104218 0.0407273,0.0104218 0.0226263,0 0.0412758,-0.00726784 0.0559486,-0.0219406 0.0146728,-0.0145357 0.0220778,-0.0330481 0.0220778,-0.0554001 0,-0.0227634 -0.00754209,-0.0416872 -0.0227634,-0.0564971 -0.0152213,-0.0149471 -0.0341451,-0.022352 -0.0569085,-0.022352 -0.0222149,0 -0.0405902,0.00740496 -0.055263,0.0220778 -0.0146728,0.0148099 -0.0219406,0.0331852 -0.0219406,0.055263z"/>
 <path class="fil4" d="M67.2456 -49.3594l0.0455268 -0.004251c0.00383961,0.0213921 0.0112446,0.0368877 0.0220778,0.0464867 0.0108332,0.00959903 0.0248203,0.0143985 0.0418243,0.0143985 0.0145357,0 0.0272887,-0.0032911 0.038259,-0.0100104 0.0109703,-0.00658219 0.0198837,-0.0154956 0.0268773,-0.026603 0.00713071,-0.0111074 0.0128901,-0.0261916 0.0176896,-0.0449783 0.00466239,-0.0189238 0.00713071,-0.038259 0.00713071,-0.0578684 0,-0.00205693 -0.000137129,-0.00534803 -0.000274258,-0.0094619 -0.0094619,0.0149471 -0.0224892,0.0272887 -0.0388075,0.0366134 -0.0164555,0.0094619 -0.0341451,0.0141243 -0.053206,0.0141243 -0.0319511,0 -0.0589655,-0.0115188 -0.0810432,-0.0346936 -0.0220778,-0.0231748 -0.0330481,-0.0534803 -0.0330481,-0.091465 0,-0.0390818 0.0115188,-0.0704843 0.0345565,-0.0943447 0.0230377,-0.0238604 0.0519719,-0.0357907 0.0866655,-0.0357907 0.0249575,0 0.047858,0.00685645 0.0687016,0.0202951 0.0207065,0.0134386 0.0364763,0.0327738 0.0473095,0.0577313 0.0106961,0.0249575 0.0161812,0.0611595 0.0161812,0.108469 0,0.0490922 -0.00534803,0.0883111 -0.015907,0.117657 -0.0106961,0.0292085 -0.026603,0.0512862 -0.0477209,0.0665076 -0.0211179,0.0152213 -0.0458011,0.0229005 -0.0743239,0.0229005 -0.0301684,0 -0.0547145,-0.00836487 -0.0737754,-0.0250946 -0.0190609,-0.0167297 -0.0305798,-0.0401788 -0.0344194,-0.0704843l-0.000274258 -0.000137129zm0.193626 -0.17004c0,-0.0271515 -0.00713071,-0.0486808 -0.0216664,-0.0645877 -0.0145357,-0.015907 -0.0318139,-0.0239976 -0.0522461,-0.0239976 -0.0209807,0 -0.0392189,0.00863913 -0.0548516,0.0257802 -0.0156327,0.0172783 -0.0234491,0.0394931 -0.0234491,0.0667818 0,0.0245461 0.00740496,0.0444298 0.0222149,0.0597882 0.0148099,0.0153584 0.0330481,0.0229005 0.0547145,0.0229005 0.0219406,0 0.0399045,-0.00767922 0.0540288,-0.0229005 0.0141243,-0.0153584 0.0211179,-0.0366134 0.0211179,-0.063765l0.000137129 0z"/>
 <path class="fil4" d="M67.267 -48.0626l-0.0473095 0 0 -0.301409c-0.0113817,0.0108332 -0.0263288,0.0216664 -0.044704,0.0324996 -0.0185124,0.0108332 -0.035105,0.0190609 -0.0499149,0.024409l0 -0.0456639c0.0264659,-0.0124787 0.0496407,-0.0275629 0.0693873,-0.0452526 0.0197466,-0.0178268 0.0338709,-0.0349679 0.0420986,-0.0515605l0.0304426 0 0 0.386841 0 0.000137129zm0.121222 -0.190061c0,-0.0455268 0.00466239,-0.0822774 0.0141243,-0.109977 0.00932477,-0.0278372 0.0233119,-0.0492293 0.0418243,-0.0643135 0.0185124,-0.0150842 0.0416872,-0.0226263 0.0696615,-0.0226263 0.0207065,0 0.0388075,0.004251 0.0544402,0.0126159 0.0156327,0.00822774 0.0283857,0.0202951 0.0386704,0.0359278 0.0101475,0.0156327 0.018101,0.0348308 0.0238604,0.0573199 0.00589655,0.0224892 0.00877625,0.0527947 0.00877625,0.0910536 0,0.0452526 -0.00466239,0.0815917 -0.01385,0.109429 -0.00932477,0.0278372 -0.0231748,0.0492293 -0.0416872,0.0644506 -0.0185124,0.0152213 -0.0418243,0.0227634 -0.0700729,0.0227634 -0.037162,0 -0.0662333,-0.0133015 -0.0874883,-0.0399045 -0.0253689,-0.0320882 -0.0381219,-0.0843343 -0.0381219,-0.156601l-0.000137129 -0.000137129zm0.0485437 0c0,0.0632165 0.00740496,0.105315 0.0222149,0.126296 0.0148099,0.0208436 0.0330481,0.0314025 0.0547145,0.0314025 0.0218035,0 0.0400417,-0.0105589 0.0548516,-0.0315397 0.0148099,-0.0209807 0.0222149,-0.0630793 0.0222149,-0.126159 0,-0.0633536 -0.00740496,-0.105589 -0.0222149,-0.126433 -0.0148099,-0.0208436 -0.0331852,-0.0312654 -0.055263,-0.0312654 -0.0218035,0 -0.0390818,0.00918764 -0.052109,0.0275629 -0.0161812,0.0234491 -0.024409,0.0667818 -0.024409,0.129998l0 0.000137129z"/>
 <path class="fil4" d="M67.267 -46.8549l-0.0473095 0 0 -0.301409c-0.0113817,0.0108332 -0.0263288,0.0216664 -0.044704,0.0324996 -0.0185124,0.0108332 -0.035105,0.0190609 -0.0499149,0.024409l0 -0.0456639c0.0264659,-0.0124787 0.0496407,-0.0275629 0.0693873,-0.0452526 0.0197466,-0.0178268 0.0338709,-0.0349679 0.0420986,-0.0515605l0.0304426 0 0 0.386841 0 0.000137129zm0.299353 0l-0.0473095 0 0 -0.301409c-0.0113817,0.0108332 -0.0263288,0.0216664 -0.044704,0.0324996 -0.0185124,0.0108332 -0.035105,0.0190609 -0.0499149,0.024409l0 -0.0456639c0.0264659,-0.0124787 0.0496407,-0.0275629 0.0693873,-0.0452526 0.0197466,-0.0178268 0.0338709,-0.0349679 0.0420986,-0.0515605l0.0304426 0 0 0.386841 0 0.000137129z"/>
 <path class="fil4" d="M67.267 -45.6472l-0.0473095 0 0 -0.301409c-0.0113817,0.0108332 -0.0263288,0.0216664 -0.044704,0.0324996 -0.0185124,0.0108332 -0.035105,0.0190609 -0.0499149,0.024409l0 -0.0456639c0.0264659,-0.0124787 0.0496407,-0.0275629 0.0693873,-0.0452526 0.0197466,-0.0178268 0.0338709,-0.0349679 0.0420986,-0.0515605l0.0304426 0 0 0.386841 0 0.000137129zm0.121496 -0.10175l0.0473095 -0.00630793c0.00548516,0.0268773 0.0146728,0.0460753 0.0277001,0.0580056 0.0131644,0.0117931 0.0289342,0.0178268 0.0477209,0.0178268 0.0222149,0 0.0411387,-0.00767922 0.05636,-0.0231748 0.0152213,-0.0153584 0.0229005,-0.0345565 0.0229005,-0.0573199 0,-0.0216664 -0.00713071,-0.0396303 -0.021255,-0.0537546 -0.0142614,-0.0141243 -0.0322253,-0.0211179 -0.0541659,-0.0211179 -0.00891338,0 -0.0200208,0.00178268 -0.0333223,0.00534803l0.00534803 -0.0415501c0.00315397,0.000411387 0.00562229,0.000548516 0.00767922,0.000548516 0.0200208,0 0.038259,-0.00534803 0.0543031,-0.0157698 0.0161812,-0.0105589 0.0242718,-0.0267401 0.0242718,-0.0486808 0,-0.0172783 -0.00589655,-0.0318139 -0.0176896,-0.0430585 -0.0117931,-0.0113817 -0.0268773,-0.0171411 -0.0455268,-0.0171411 -0.0183753,0 -0.0337337,0.00589655 -0.0459382,0.0172783 -0.0123416,0.0115188 -0.020158,0.0289342 -0.0237233,0.052109l-0.0473095 -0.00836487c0.00575942,-0.0318139 0.0189238,-0.05636 0.039356,-0.0737754 0.0205693,-0.0174154 0.0460753,-0.0261916 0.076518,-0.0261916 0.0209807,0 0.0403159,0.00452526 0.0580056,0.0135758 0.0176896,0.00905051 0.0312654,0.0213921 0.0405902,0.0368877 0.00932477,0.0156327 0.0141243,0.0320882 0.0141243,0.0496407 0,0.0165926 -0.00452526,0.0318139 -0.0134386,0.0455268 -0.00891338,0.0135758 -0.0222149,0.024409 -0.0396303,0.0324996 0.0227634,0.0052109 0.040453,0.0161812 0.0530689,0.0327738 0.0126159,0.0164555 0.0187867,0.037162 0.0187867,0.0621194 0,0.0335966 -0.0122045,0.0621194 -0.0367506,0.0855685 -0.0245461,0.0234491 -0.0555372,0.035105 -0.0929734,0.035105 -0.0338709,0 -0.0618452,-0.0100104 -0.0841972,-0.0301684 -0.022352,-0.0200208 -0.035105,-0.0462125 -0.038259,-0.0783006l0.000137129 -0.000137129z"/>
 <path class="fil4" d="M67.267 -44.4395l-0.0473095 0 0 -0.301409c-0.0113817,0.0108332 -0.0263288,0.0216664 -0.044704,0.0324996 -0.0185124,0.0108332 -0.035105,0.0190609 -0.0499149,0.024409l0 -0.0456639c0.0264659,-0.0124787 0.0496407,-0.0275629 0.0693873,-0.0452526 0.0197466,-0.0178268 0.0338709,-0.0349679 0.0420986,-0.0515605l0.0304426 0 0 0.386841 0 0.000137129zm0.27275 0l0 -0.0921507 -0.16716 0 0 -0.0434699 0.175799 -0.249575 0.0386704 0 0 0.249575 0.0519719 0 0 0.0434699 -0.0519719 0 0 0.0921507 -0.0473095 0zm0 -0.135621l0 -0.173605 -0.120536 0.173605 0.120536 0z"/>
 <path class="fil4" d="M67.267 -43.2318l-0.0473095 0 0 -0.301409c-0.0113817,0.0108332 -0.0263288,0.0216664 -0.044704,0.0324996 -0.0185124,0.0108332 -0.035105,0.0190609 -0.0499149,0.024409l0 -0.0456639c0.0264659,-0.0124787 0.0496407,-0.0275629 0.0693873,-0.0452526 0.0197466,-0.0178268 0.0338709,-0.0349679 0.0420986,-0.0515605l0.0304426 0 0 0.386841 0 0.000137129zm0.121222 -0.100927l0.0496407 -0.004251c0.00370248,0.0242718 0.0122045,0.0423729 0.025506,0.0545773 0.0134386,0.0122045 0.0296199,0.0183753 0.0485437,0.0183753 0.0227634,0 0.0420986,-0.00863913 0.0577313,-0.0257802 0.0157698,-0.0172783 0.0237233,-0.0400417 0.0237233,-0.0682902 0,-0.0270144 -0.00754209,-0.0482694 -0.0227634,-0.0639021 -0.0152213,-0.0156327 -0.0349679,-0.0234491 -0.059514,-0.0234491 -0.0152213,0 -0.0289342,0.00356535 -0.0412758,0.0104218 -0.0123416,0.00685645 -0.0219406,0.015907 -0.0289342,0.0268773l-0.0444298 -0.00575942 0.0372991 -0.197877 0.191569 0 0 0.0452526 -0.153722 0 -0.0208436 0.103532c0.0231748,-0.0161812 0.0474466,-0.0242718 0.0728155,-0.0242718 0.0335966,0 0.0619823,0.011656 0.0851571,0.0349679 0.0231748,0.0233119 0.0346936,0.0533432 0.0346936,0.0898195 0,0.0349679 -0.0102847,0.0649991 -0.0304426,0.090368 -0.0246832,0.0311283 -0.0584169,0.046761 -0.101201,0.046761 -0.035105,0 -0.0636278,-0.00973616 -0.0858427,-0.0293456 -0.0222149,-0.0196094 -0.0348308,-0.0456639 -0.0379847,-0.0780264l0.000274258 0z"/>
 <path class="fil4" d="M67.267 -42.0241l-0.0473095 0 0 -0.301409c-0.0113817,0.0108332 -0.0263288,0.0216664 -0.044704,0.0324996 -0.0185124,0.0108332 -0.035105,0.0190609 -0.0499149,0.024409l0 -0.0456639c0.0264659,-0.0124787 0.0496407,-0.0275629 0.0693873,-0.0452526 0.0197466,-0.0178268 0.0338709,-0.0349679 0.0420986,-0.0515605l0.0304426 0 0 0.386841 0 0.000137129zm0.366546 -0.290851l-0.0470352 0.00370248c-0.004251,-0.0185124 -0.0101475,-0.0320882 -0.0178268,-0.040453 -0.0128901,-0.0135758 -0.02866,-0.0202951 -0.0473095,-0.0202951 -0.0150842,0 -0.0282486,0.004251 -0.0396303,0.0126159 -0.0149471,0.0108332 -0.026603,0.0267401 -0.0352421,0.0475838 -0.008502,0.0208436 -0.0130273,0.0504635 -0.0133015,0.0891338 0.0113817,-0.0172783 0.0252317,-0.0301684 0.0418243,-0.0386704 0.0164555,-0.00836487 0.0337337,-0.0126159 0.0516976,-0.0126159 0.0315397,0 0.0584169,0.0115188 0.0804947,0.0348308 0.0222149,0.0231748 0.0333223,0.053206 0.0333223,0.0899566 0,0.0242718 -0.00534803,0.0466239 -0.0156327,0.0674675 -0.0104218,0.0207065 -0.0246832,0.0367506 -0.0429214,0.0477209 -0.0182382,0.0109703 -0.0388075,0.0164555 -0.0619823,0.0164555 -0.0394931,0 -0.0715813,-0.0143985 -0.0964017,-0.0434699 -0.0249575,-0.0289342 -0.0372991,-0.0767922 -0.0372991,-0.1433 0,-0.074461 0.0137129,-0.12849 0.0412758,-0.162361 0.0239976,-0.0294827 0.0562229,-0.0442927 0.0969502,-0.0442927 0.0303055,0 0.0551258,0.008502 0.074461,0.025506 0.0193352,0.017004 0.0309911,0.040453 0.0348308,0.0703472l-0.000274258 0.000137129zm-0.193078 0.166063c0,0.0163183 0.00342822,0.0319511 0.0104218,0.046761 0.00685645,0.0149471 0.0165926,0.0261916 0.0289342,0.034008 0.0124787,0.00781635 0.025506,0.0117931 0.0392189,0.0117931 0.0200208,0 0.037162,-0.00809061 0.0515605,-0.0242718 0.0143985,-0.0161812 0.0215292,-0.0379847 0.0215292,-0.0656848 0,-0.026603 -0.00713071,-0.0475838 -0.021255,-0.0629422 -0.0141243,-0.0153584 -0.0320882,-0.0229005 -0.0534803,-0.0229005 -0.0213921,0 -0.0394931,0.00767922 -0.0544402,0.0229005 -0.0149471,0.0153584 -0.022352,0.0353793 -0.022352,0.0603367l-0.000137129 0z"/>
 <path class="fil4" d="M67.267 -40.8164l-0.0473095 0 0 -0.301409c-0.0113817,0.0108332 -0.0263288,0.0216664 -0.044704,0.0324996 -0.0185124,0.0108332 -0.035105,0.0190609 -0.0499149,0.024409l0 -0.0456639c0.0264659,-0.0124787 0.0496407,-0.0275629 0.0693873,-0.0452526 0.0197466,-0.0178268 0.0338709,-0.0349679 0.0420986,-0.0515605l0.0304426 0 0 0.386841 0 0.000137129zm0.124376 -0.334732l0 -0.0455268 0.2493 0 0 0.0367506c-0.0245461,0.0260545 -0.0488179,0.0608853 -0.0729526,0.104081 -0.0239976,0.0431956 -0.0426471,0.0877625 -0.0558115,0.133426 -0.0094619,0.0322253 -0.0154956,0.0674675 -0.018101,0.105864l-0.0486808 0c0.000548516,-0.0303055 0.00644506,-0.0669189 0.0178268,-0.10984 0.0113817,-0.0429214 0.0277001,-0.0843343 0.048955,-0.124102 0.0213921,-0.0397674 0.0440184,-0.0735011 0.068016,-0.10079l-0.188689 0 0.000137129 0.000137129z"/>
 <path class="fil4" d="M67.267 -39.6087l-0.0473095 0 0 -0.301409c-0.0113817,0.0108332 -0.0263288,0.0216664 -0.044704,0.0324996 -0.0185124,0.0108332 -0.035105,0.0190609 -0.0499149,0.024409l0 -0.0456639c0.0264659,-0.0124787 0.0496407,-0.0275629 0.0693873,-0.0452526 0.0197466,-0.0178268 0.0338709,-0.0349679 0.0420986,-0.0515605l0.0304426 0 0 0.386841 0 0.000137129zm0.194037 -0.208847c-0.0196094,-0.00713071 -0.0341451,-0.0174154 -0.0437441,-0.0307169 -0.0094619,-0.0133015 -0.0141243,-0.0292085 -0.0141243,-0.047858 0,-0.0281114 0.0100104,-0.0515605 0.0303055,-0.0706214 0.020158,-0.0190609 0.0468981,-0.02866 0.0803576,-0.02866 0.0335966,0 0.0607481,0.00973616 0.0813175,0.0293456 0.0204322,0.0196094 0.0307169,0.0433328 0.0307169,0.0714442 0,0.0178268 -0.00466239,0.0333223 -0.0139872,0.0466239 -0.0094619,0.0131644 -0.0235862,0.0234491 -0.0426471,0.0305798 0.0235862,0.00767922 0.0415501,0.0200208 0.0540288,0.0372991 0.0123416,0.0171411 0.0185124,0.0377105 0.0185124,0.0614338 0,0.0330481 -0.011656,0.060611 -0.0348308,0.0831002 -0.0233119,0.0224892 -0.0540288,0.0335966 -0.0920135,0.0335966 -0.0379847,0 -0.0687016,-0.0112446 -0.0918764,-0.0337337 -0.0233119,-0.0224892 -0.0349679,-0.0506006 -0.0349679,-0.0841972 0,-0.0250946 0.00630793,-0.0460753 0.0190609,-0.0629422 0.0126159,-0.0168669 0.0307169,-0.0283857 0.0543031,-0.0345565l-0.000411387 -0.000137129zm-0.0094619 -0.0802204c0,0.0182382 0.00589655,0.0330481 0.0175525,0.044704 0.0117931,0.0115188 0.0270144,0.0174154 0.0458011,0.0174154 0.0182382,0 0.0331852,-0.00575942 0.0448412,-0.0172783 0.011656,-0.0115188 0.0174154,-0.025506 0.0174154,-0.0420986 0,-0.0174154 -0.00589655,-0.0319511 -0.0179639,-0.0437441 -0.0120673,-0.0117931 -0.0268773,-0.0176896 -0.0448412,-0.0176896 -0.018101,0 -0.0330481,0.00589655 -0.0449783,0.0172783 -0.0119302,0.0115188 -0.0178268,0.025506 -0.0178268,0.0415501l0 -0.000137129zm-0.0153584 0.177993c0,0.0134386 0.00315397,0.026603 0.00959903,0.0390818 0.00630793,0.0126159 0.015907,0.0224892 0.0285228,0.0293456 0.0126159,0.00685645 0.0261916,0.0104218 0.0407273,0.0104218 0.0226263,0 0.0412758,-0.00726784 0.0559486,-0.0219406 0.0146728,-0.0145357 0.0220778,-0.0330481 0.0220778,-0.0554001 0,-0.0227634 -0.00754209,-0.0416872 -0.0227634,-0.0564971 -0.0152213,-0.0149471 -0.0341451,-0.022352 -0.0569085,-0.022352 -0.0222149,0 -0.0405902,0.00740496 -0.055263,0.0220778 -0.0146728,0.0148099 -0.0219406,0.0331852 -0.0219406,0.055263z"/>
 <path class="fil4" d="M67.267 -38.401l-0.0473095 0 0 -0.301409c-0.0113817,0.0108332 -0.0263288,0.0216664 -0.044704,0.0324996 -0.0185124,0.0108332 -0.035105,0.0190609 -0.0499149,0.024409l0 -0.0456639c0.0264659,-0.0124787 0.0496407,-0.0275629 0.0693873,-0.0452526 0.0197466,-0.0178268 0.0338709,-0.0349679 0.0420986,-0.0515605l0.0304426 0 0 0.386841 0 0.000137129zm0.128216 -0.0889967l0.0455268 -0.004251c0.00383961,0.0213921 0.0112446,0.0368877 0.0220778,0.0464867 0.0108332,0.00959903 0.0248203,0.0143985 0.0418243,0.0143985 0.0145357,0 0.0272887,-0.0032911 0.038259,-0.0100104 0.0109703,-0.00658219 0.0198837,-0.0154956 0.0268773,-0.026603 0.00713071,-0.0111074 0.0128901,-0.0261916 0.0176896,-0.0449783 0.00466239,-0.0189238 0.00713071,-0.038259 0.00713071,-0.0578684 0,-0.00205693 -0.000137129,-0.00534803 -0.000274258,-0.0094619 -0.0094619,0.0149471 -0.0224892,0.0272887 -0.0388075,0.0366134 -0.0164555,0.0094619 -0.0341451,0.0141243 -0.053206,0.0141243 -0.0319511,0 -0.0589655,-0.0115188 -0.0810432,-0.0346936 -0.0220778,-0.0231748 -0.0330481,-0.0534803 -0.0330481,-0.091465 0,-0.0390818 0.0115188,-0.0704843 0.0345565,-0.0943447 0.0230377,-0.0238604 0.0519719,-0.0357907 0.0866655,-0.0357907 0.0249575,0 0.047858,0.00685645 0.0687016,0.0202951 0.0207065,0.0134386 0.0364763,0.0327738 0.0473095,0.0577313 0.0106961,0.0249575 0.0161812,0.0611595 0.0161812,0.108469 0,0.0490922 -0.00534803,0.0883111 -0.015907,0.117657 -0.0106961,0.0292085 -0.026603,0.0512862 -0.0477209,0.0665076 -0.0211179,0.0152213 -0.0458011,0.0229005 -0.0743239,0.0229005 -0.0301684,0 -0.0547145,-0.00836487 -0.0737754,-0.0250946 -0.0190609,-0.0167297 -0.0305798,-0.0401788 -0.0344194,-0.0704843l-0.000274258 -0.000137129zm0.193763 -0.170177c0,-0.0271515 -0.00713071,-0.0486808 -0.0216664,-0.0645877 -0.0145357,-0.015907 -0.0318139,-0.0239976 -0.0522461,-0.0239976 -0.0209807,0 -0.0392189,0.00863913 -0.0548516,0.0257802 -0.0156327,0.0172783 -0.0234491,0.0394931 -0.0234491,0.0667818 0,0.0245461 0.00740496,0.0444298 0.0222149,0.0597882 0.0148099,0.0153584 0.0330481,0.0229005 0.0547145,0.0229005 0.0219406,0 0.0399045,-0.00767922 0.0540288,-0.0229005 0.0141243,-0.0153584 0.0211179,-0.0366134 0.0211179,-0.063765l0.000137129 0z"/>
 <path class="fil4" d="M67.3375 -37.2387l0 0.0455268 -0.254648 0c-0.000411387,-0.0113817 0.00150842,-0.022352 0.00548516,-0.0327738 0.00644506,-0.0174154 0.0168669,-0.0344194 0.0311283,-0.0512862 0.0143985,-0.0167297 0.0349679,-0.036202 0.0618452,-0.0582798 0.0419615,-0.0344194 0.07021,-0.0615709 0.08502,-0.0815917 0.0146728,-0.0200208 0.0220778,-0.0389446 0.0220778,-0.0569085 0,-0.0187867 -0.00671932,-0.0345565 -0.0200208,-0.0474466 -0.0134386,-0.0128901 -0.0309911,-0.0193352 -0.0525204,-0.0193352 -0.0227634,0 -0.0410016,0.00685645 -0.0545773,0.0205693 -0.0137129,0.0137129 -0.0205693,0.0324996 -0.0208436,0.0566343l-0.0486808 -0.00493664c0.0032911,-0.0363392 0.015907,-0.0639021 0.0375733,-0.082963 0.0216664,-0.0190609 0.051012,-0.0285228 0.0874883,-0.0285228 0.0368877,0 0.0662333,0.0102847 0.0877625,0.0307169 0.0216664,0.0205693 0.0323624,0.0459382 0.0323624,0.0762437 0,0.0153584 -0.00315397,0.0305798 -0.0094619,0.0455268 -0.00630793,0.0149471 -0.0167297,0.0305798 -0.0314025,0.0470352 -0.0146728,0.0164555 -0.0389446,0.0390818 -0.0729526,0.0677417 -0.0283857,0.0238604 -0.0464867,0.0400417 -0.0545773,0.0485437 -0.00809061,0.00836487 -0.0146728,0.017004 -0.0200208,0.025506l0.188964 0zm0.0507377 -0.144534c0,-0.0455268 0.00466239,-0.0822774 0.0141243,-0.109977 0.00932477,-0.0278372 0.0233119,-0.0492293 0.0418243,-0.0643135 0.0185124,-0.0150842 0.0416872,-0.0226263 0.0696615,-0.0226263 0.0207065,0 0.0388075,0.004251 0.0544402,0.0126159 0.0156327,0.00822774 0.0283857,0.0202951 0.0386704,0.0359278 0.0101475,0.0156327 0.018101,0.0348308 0.0238604,0.0573199 0.00589655,0.0224892 0.00877625,0.0527947 0.00877625,0.0910536 0,0.0452526 -0.00466239,0.0815917 -0.01385,0.109429 -0.00932477,0.0278372 -0.0231748,0.0492293 -0.0416872,0.0644506 -0.0185124,0.0152213 -0.0418243,0.0227634 -0.0700729,0.0227634 -0.037162,0 -0.0662333,-0.0133015 -0.0874883,-0.0399045 -0.0253689,-0.0320882 -0.0381219,-0.0843343 -0.0381219,-0.156601l-0.000137129 -0.000137129zm0.0485437 0c0,0.0632165 0.00740496,0.105315 0.0222149,0.126296 0.0148099,0.0208436 0.0330481,0.0314025 0.0547145,0.0314025 0.0218035,0 0.0400417,-0.0105589 0.0548516,-0.0315397 0.0148099,-0.0209807 0.0222149,-0.0630793 0.0222149,-0.126159 0,-0.0633536 -0.00740496,-0.105589 -0.0222149,-0.126433 -0.0148099,-0.0208436 -0.0331852,-0.0312654 -0.055263,-0.0312654 -0.0218035,0 -0.0390818,0.00918764 -0.052109,0.0275629 -0.0161812,0.0234491 -0.024409,0.0667818 -0.024409,0.129998l0 0.000137129z"/>
</symbol>
<symbol id="Fm5-53741-0" viewBox="44.0254 -64.6438 6.65569 22.1321">
 <polygon class="fil7 str6" points="50.6713,-42.5215 44.0351,-42.5215 44.0351,-64.6341 50.6713,-64.6341 "/>
</symbol>
<symbol id="Fm26-53732-0" viewBox="239.205 -63.2378 19.9551 4.61124">
 <polygon class="fil3" points="239.377,-63.0677 258.991,-63.0677 258.991,-58.7967 239.377,-58.7967 "/>
 <path class="fil1" d="M259.16 -63.2378l-19.9551 0 0 4.61124 19.9551 0 0 -4.61124zm-0.340217 4.27116l-19.2746 0 0 -3.9308 19.2746 0 0 3.9308z"/>
</symbol>
<symbol id="Fm1-53715-0" viewBox="33.5471 -53.3877 19.9551 11.9633">
 <polygon class="fil8" points="33.5471,-41.4245 53.5022,-41.4245 53.5022,-53.3877 33.5471,-53.3877 "/>
</symbol>
<symbol id="Fm3-53736-0" viewBox="40.9681 -55.9558 19.9551 15.5895">
 <path class="fil1" d="M60.9232 -55.7374c0,-0.119988 -0.0981843,-0.218309 -0.218309,-0.218309l-19.5185 0c-0.119988,0 -0.218309,0.0981843 -0.218309,0.218309l0 15.1529c0,0.119988 0.0981843,0.218309 0.218309,0.218309l19.5185 0c0.119988,0 0.218309,-0.0981843 0.218309,-0.218309l0 -15.1529z"/>
</symbol>
<symbol id="Fm12-53717-0" viewBox="53.1035 -65.9823 19.9551 19.2906">
 <polyline class="fil5 str2" points="73.0586,-46.7211 53.1328,-46.7211 53.1328,-65.953 73.0586,-65.953 "/>
 <line class="fil5 str2" x1="53.1328" y1="-51.5291" x2="73.0586" y2= "-51.5291" />
 <line class="fil5 str2" x1="53.1328" y1="-56.3371" x2="73.0586" y2= "-56.3371" />
 <line class="fil5 str2" x1="53.1328" y1="-61.145" x2="73.0586" y2= "-61.145" />
</symbol>
<symbol id="Fm4-53740-0" viewBox="44.049 -64.6464 6.64212 22.1321">
 <polygon class="fil1" points="50.6911,-64.6464 44.049,-64.6464 44.049,-42.5144 50.6911,-42.5144 "/>
</symbol>
<symbol id="Fm24-53730-0" viewBox="239.205 -72.4326 19.9551 4.61124">
 <polygon class="fil3" points="239.377,-72.2626 258.991,-72.2626 258.991,-67.9913 239.377,-67.9913 "/>
 <path class="fil1" d="M259.16 -72.4326l-19.9551 0 0 4.61124 19.9551 0 0 -4.61124zm-0.340217 4.27129l-19.2746 0 0 -3.9308 19.2746 0 0 3.9308z"/>
</symbol>
<symbol id="Fm27-53733-0" viewBox="219.165 -63.2381 19.9551 4.61124">
 <polygon class="fil3" points="219.337,-63.0678 238.951,-63.0678 238.951,-58.7969 219.337,-58.7969 "/>
 <path class="fil1" d="M239.121 -63.2381l-19.9551 0 0 4.61124 19.9551 0 0 -4.61124zm-0.340217 4.27129l-19.2747 0 0 -3.9308 19.2747 0 0 3.9308z"/>
</symbol>
<symbol id="Fm9-53745-0" viewBox="56.6443 -53.2897 19.9553 1.72056">
 <line class="fil5 str7" x1="76.5996" y1="-51.5794" x2="56.6546" y2= "-51.5794" />
 <line class="fil5 str7" x1="66.627" y1="-53.2897" x2="66.627" y2= "-51.5794" />
 <line class="fil5 str7" x1="56.6546" y1="-53.2897" x2="56.6546" y2= "-51.5794" />
</symbol>
 <g id="Layer_x0020_1">
  <metadata id="CorelCorpID_0Corel-Layer"/>
  <path id="XMLID_4_" class="fil7 str8" d="M5.44855 4.9701l-1.21071 -4.45779 -4.23783 0m30.7649 19.1524l-21.574 0 -3.74239 -14.6946 0.0792605 0 28.7594 0 -3.52229 14.6946zm-14.2543 4.45779c0,-1.61085 -1.30588,-2.91687 -2.91687,-2.91687 -1.61085,0 -2.91687,1.30602 -2.91687,2.91687 0,1.61099 1.30602,2.91687 2.91687,2.91687 1.61099,0 2.91687,-1.30588 2.91687,-2.91687zm11.4474 0c0,-1.61085 -1.30588,-2.91687 -2.91687,-2.91687 -1.61085,0 -2.91687,1.30602 -2.91687,2.91687 0,1.61099 1.30602,2.91687 2.91687,2.91687 1.61099,0 2.91687,-1.30588 2.91687,-2.91687z"/>
 </g>
</svg>
