<?xml version="1.0" encoding="UTF-8"?>
<!DOCTYPE svg PUBLIC "-//W3C//DTD SVG 1.1//EN" "http://www.w3.org/Graphics/SVG/1.1/DTD/svg11.dtd">
<!-- Creator: CorelDRAW -->
<svg xmlns="http://www.w3.org/2000/svg" xml:space="preserve" width="51px" height="59px" style="shape-rendering:geometricPrecision; text-rendering:geometricPrecision; image-rendering:optimizeQuality; fill-rule:evenodd; clip-rule:evenodd"
viewBox="0 0 0.888312 1.03734"
 xmlns:xlink="http://www.w3.org/1999/xlink">
 <defs>
  <style type="text/css">
   <![CDATA[
    .str3 {stroke:#686868;stroke-width:0.0365426}
    .str2 {stroke:white;stroke-width:0.0365426}
    .str1 {stroke:#231F20;stroke-width:0.0365426}
    .str0 {stroke:#686868;stroke-width:0.0365426}
    .fil1 {fill:none;fill-rule:nonzero}
    .fil0 {fill:#686868;fill-rule:nonzero}
    .fil6 {fill:lightgrey;fill-rule:nonzero}
    .fil4 {fill:#F9F9F9;fill-rule:nonzero}
    .fil2 {fill:#FF7676;fill-rule:nonzero}
    .fil5 {fill:#FFD550;fill-rule:nonzero}
    .fil3 {fill:white;fill-rule:nonzero}
    .fil7 {fill:url(#id2)}
   ]]>
  </style>
  <clipPath id="id0" style="clip-rule:nonzero">
   <rect x="-23.0149" y="-16.4686" width="7.26694" height="6.01809"/>
  </clipPath>
  <pattern id="id1" patternUnits="userSpaceOnUse" patternTransform="matrix(1 0 0 1 -87.9657 49.956)" x="0" y="0" width="2.14128" height="2.14124" viewBox="-25.5 18.7062 2.10474 2.1047">
   <polygon id="1" class="fil3" points="-30.7618,13.4444 -18.1335,13.4444 -18.1335,26.0727 -30.7618,26.0727 "/>
   <path id="12" class="fil3" d="M-23.3953 20.8635c0.0289399,0 0.052618,-0.0236159 0.052618,-0.052618 0,-0.0290849 -0.0236781,-0.0525558 -0.052618,-0.0525558 -0.0290849,0 -0.052618,0.0234709 -0.052618,0.0525558 0,0.029002 0.0235331,0.052618 0.052618,0.052618z"/>
   <path id="123" class="fil1 str2" d="M-23.3953 20.8635c0.0289399,0 0.052618,-0.0236159 0.052618,-0.052618 0,-0.0290849 -0.0236781,-0.0525558 -0.052618,-0.0525558 -0.0290849,0 -0.052618,0.0234709 -0.052618,0.0525558 0,0.029002 0.0235331,0.052618 0.052618,0.052618z"/>
   <path id="1234" class="fil3" d="M-24.4477 20.8635c0.029002,0 0.052618,-0.0236159 0.052618,-0.052618 0,-0.0290849 -0.0236159,-0.0525558 -0.052618,-0.0525558 -0.0290228,0 -0.052618,0.0234709 -0.052618,0.0525558 0,0.029002 0.0235952,0.052618 0.052618,0.052618z"/>
   <path id="12345" class="fil1 str2" d="M-24.4477 20.8635c0.029002,0 0.052618,-0.0236159 0.052618,-0.052618 0,-0.0290849 -0.0236159,-0.0525558 -0.052618,-0.0525558 -0.0290228,0 -0.052618,0.0234709 -0.052618,0.0525558 0,0.029002 0.0235952,0.052618 0.052618,0.052618z"/>
   <path id="123456" class="fil3" d="M-23.3953 19.8111c0.0289399,0 0.052618,-0.0236159 0.052618,-0.0527008 0,-0.0290849 -0.0236781,-0.0525351 -0.052618,-0.0525351 -0.0290849,0 -0.052618,0.0234502 -0.052618,0.0525351 0,0.0290849 0.0235331,0.0527008 0.052618,0.0527008z"/>
   <path id="1234567" class="fil1 str2" d="M-23.3953 19.8111c0.0289399,0 0.052618,-0.0236159 0.052618,-0.0527008 0,-0.0290849 -0.0236781,-0.0525351 -0.052618,-0.0525351 -0.0290849,0 -0.052618,0.0234502 -0.052618,0.0525351 0,0.0290849 0.0235331,0.0527008 0.052618,0.0527008z"/>
   <path id="12345678" class="fil3" d="M-24.4477 19.8111c0.029002,0 0.052618,-0.0236159 0.052618,-0.0527008 0,-0.0290849 -0.0236159,-0.0525351 -0.052618,-0.0525351 -0.0290228,0 -0.052618,0.0234502 -0.052618,0.0525351 0,0.0290849 0.0235952,0.0527008 0.052618,0.0527008z"/>
   <path id="123456789" class="fil1 str2" d="M-24.4477 19.8111c0.029002,0 0.052618,-0.0236159 0.052618,-0.0527008 0,-0.0290849 -0.0236159,-0.0525351 -0.052618,-0.0525351 -0.0290228,0 -0.052618,0.0234502 -0.052618,0.0525351 0,0.0290849 0.0235952,0.0527008 0.052618,0.0527008z"/>
   <path id="12345678910" class="fil3" d="M-24.9738 20.3373c0.029002,0 0.052618,-0.0235331 0.052618,-0.052618 0,-0.0290849 -0.0236159,-0.0525558 -0.052618,-0.0525558 -0.0290849,0 -0.052618,0.0234709 -0.052618,0.0525558 0,0.0290849 0.0235331,0.052618 0.052618,0.052618z"/>
   <path id="1234567891011" class="fil1 str2" d="M-24.9738 20.3373c0.029002,0 0.052618,-0.0235331 0.052618,-0.052618 0,-0.0290849 -0.0236159,-0.0525558 -0.052618,-0.0525558 -0.0290849,0 -0.052618,0.0234709 -0.052618,0.0525558 0,0.0290849 0.0235331,0.052618 0.052618,0.052618z"/>
   <path id="123456789101112" class="fil3" d="M-23.9215 20.3373c0.029002,0 0.052618,-0.0235331 0.052618,-0.052618 0,-0.0290849 -0.0236159,-0.0525558 -0.052618,-0.0525558 -0.0290849,0 -0.052618,0.0234709 -0.052618,0.0525558 0,0.0290849 0.0235331,0.052618 0.052618,0.052618z"/>
   <path id="12345678910111213" class="fil1 str2" d="M-23.9215 20.3373c0.029002,0 0.052618,-0.0235331 0.052618,-0.052618 0,-0.0290849 -0.0236159,-0.0525558 -0.052618,-0.0525558 -0.0290849,0 -0.052618,0.0234709 -0.052618,0.0525558 0,0.0290849 0.0235331,0.052618 0.052618,0.052618z"/>
   <path id="1234567891011121314" class="fil3" d="M-24.9738 19.2849c0.029002,0 0.052618,-0.0235124 0.052618,-0.0525351 0,-0.0290849 -0.0236159,-0.052618 -0.052618,-0.052618 -0.0290849,0 -0.052618,0.0235331 -0.052618,0.052618 0,0.0290228 0.0235331,0.0525351 0.052618,0.0525351z"/>
   <path id="123456789101112131415" class="fil1 str2" d="M-24.9738 19.2849c0.029002,0 0.052618,-0.0235124 0.052618,-0.0525351 0,-0.0290849 -0.0236159,-0.052618 -0.052618,-0.052618 -0.0290849,0 -0.052618,0.0235331 -0.052618,0.052618 0,0.0290228 0.0235331,0.0525351 0.052618,0.0525351z"/>
   <path id="12345678910111213141516" class="fil3" d="M-23.9215 19.2849c0.029002,0 0.052618,-0.0235124 0.052618,-0.0525351 0,-0.0290849 -0.0236159,-0.052618 -0.052618,-0.052618 -0.0290849,0 -0.052618,0.0235331 -0.052618,0.052618 0,0.0290228 0.0235331,0.0525351 0.052618,0.0525351z"/>
   <path id="1234567891011121314151617" class="fil1 str2" d="M-23.9215 19.2849c0.029002,0 0.052618,-0.0235124 0.052618,-0.0525351 0,-0.0290849 -0.0236159,-0.052618 -0.052618,-0.052618 -0.0290849,0 -0.052618,0.0235331 -0.052618,0.052618 0,0.0290228 0.0235331,0.0525351 0.052618,0.0525351z"/>
   <path id="123456789101112131415161718" class="fil3" d="M-25.5 20.8635c0.0289399,0 0.052618,-0.0236159 0.052618,-0.052618 0,-0.0290849 -0.0236781,-0.0525558 -0.052618,-0.0525558 -0.0290849,0 -0.052618,0.0234709 -0.052618,0.0525558 0,0.029002 0.0235331,0.052618 0.052618,0.052618z"/>
   <path id="12345678910111213141516171819" class="fil1 str2" d="M-25.5 20.8635c0.0289399,0 0.052618,-0.0236159 0.052618,-0.052618 0,-0.0290849 -0.0236781,-0.0525558 -0.052618,-0.0525558 -0.0290849,0 -0.052618,0.0234709 -0.052618,0.0525558 0,0.029002 0.0235331,0.052618 0.052618,0.052618z"/>
   <path id="1234567891011121314151617181920" class="fil3" d="M-25.5 19.8111c0.0289399,0 0.052618,-0.0236159 0.052618,-0.0527008 0,-0.0290849 -0.0236781,-0.0525351 -0.052618,-0.0525351 -0.0290849,0 -0.052618,0.0234502 -0.052618,0.0525351 0,0.0290849 0.0235331,0.0527008 0.052618,0.0527008z"/>
   <path id="123456789101112131415161718192021" class="fil1 str2" d="M-25.5 19.8111c0.0289399,0 0.052618,-0.0236159 0.052618,-0.0527008 0,-0.0290849 -0.0236781,-0.0525351 -0.052618,-0.0525351 -0.0290849,0 -0.052618,0.0234502 -0.052618,0.0525351 0,0.0290849 0.0235331,0.0527008 0.052618,0.0527008z"/>
   <path id="12345678910111213141516171819202122" class="fil3" d="M-23.3953 18.7587c0.0289399,0 0.052618,-0.0235952 0.052618,-0.052618 0,-0.0290849 -0.0236781,-0.0525351 -0.052618,-0.0525351 -0.0290849,0 -0.052618,0.0234502 -0.052618,0.0525351 0,0.0290228 0.0235331,0.052618 0.052618,0.052618z"/>
   <path id="1234567891011121314151617181920212223" class="fil1 str2" d="M-23.3953 18.7587c0.0289399,0 0.052618,-0.0235952 0.052618,-0.052618 0,-0.0290849 -0.0236781,-0.0525351 -0.052618,-0.0525351 -0.0290849,0 -0.052618,0.0234502 -0.052618,0.0525351 0,0.0290228 0.0235331,0.052618 0.052618,0.052618z"/>
   <path id="123456789101112131415161718192021222324" class="fil3" d="M-24.4477 18.7587c0.029002,0 0.052618,-0.0235952 0.052618,-0.052618 0,-0.0290849 -0.0236159,-0.0525351 -0.052618,-0.0525351 -0.0290228,0 -0.052618,0.0234502 -0.052618,0.0525351 0,0.0290228 0.0235952,0.052618 0.052618,0.052618z"/>
   <path id="12345678910111213141516171819202122232425" class="fil1 str2" d="M-24.4477 18.7587c0.029002,0 0.052618,-0.0235952 0.052618,-0.052618 0,-0.0290849 -0.0236159,-0.0525351 -0.052618,-0.0525351 -0.0290228,0 -0.052618,0.0234502 -0.052618,0.0525351 0,0.0290228 0.0235952,0.052618 0.052618,0.052618z"/>
   <path id="1234567891011121314151617181920212223242526" class="fil3" d="M-25.5 18.7587c0.0289399,0 0.052618,-0.0235952 0.052618,-0.052618 0,-0.0290849 -0.0236781,-0.0525351 -0.052618,-0.0525351 -0.0290849,0 -0.052618,0.0234502 -0.052618,0.0525351 0,0.0290228 0.0235331,0.052618 0.052618,0.052618z"/>
   <path id="123456789101112131415161718192021222324252627" class="fil1 str2" d="M-25.5 18.7587c0.0289399,0 0.052618,-0.0235952 0.052618,-0.052618 0,-0.0290849 -0.0236781,-0.0525351 -0.052618,-0.0525351 -0.0290849,0 -0.052618,0.0234502 -0.052618,0.0525351 0,0.0290228 0.0235331,0.052618 0.052618,0.052618z"/>
  </pattern>
  <linearGradient id="id2" gradientUnits="userSpaceOnUse" x1="11.0512" y1="20.7887" x2="11.0512" y2="-23.0367">
   <stop offset="0" style="stop-color:#EF5053"/>
   <stop offset="0.0117647" style="stop-color:#EF5053"/>
   <stop offset="1" style="stop-color:#F8D322"/>
  </linearGradient>
 </defs>
<symbol id="Fm7-53743-0" viewBox="13.7089 -16.3836 9.46403 1.25078">
 <path class="fil0" d="M15.6635 -15.8796c0,-0.0694806 0.0186027,-0.123839 0.0559325,-0.163116 0.037309,-0.039277 0.0854524,-0.058957 0.144513,-0.058957 0.0385727,0 0.073458,0.00925994 0.104449,0.0276762 0.0309907,0.0185199 0.0546688,0.0442488 0.0709307,0.0772697 0.0162826,0.032938 0.0243617,0.0704542 0.0243617,0.112259 0,0.042488 -0.00847274,0.0804807 -0.0256254,0.113895 -0.0171526,0.0335181 -0.0414108,0.0588534 -0.0727951,0.0761096 -0.0314672,0.0172355 -0.0652753,0.0258118 -0.101631,0.0258118 -0.0394635,0 -0.0746388,-0.00944638 -0.105609,-0.0285463 -0.0310943,-0.0189963 -0.0545653,-0.0450153 -0.0705578,-0.0779533 -0.0159718,-0.0328344 -0.0239681,-0.0677198 -0.0239681,-0.104449zm0.0570926 0.000870061c0,0.0504843 0.0135481,0.0901342 0.0406443,0.119178 0.0271791,0.0290435 0.0611943,0.0435445 0.102108,0.0435445 0.0417008,0 0.0760061,-0.0146046 0.102895,-0.0439381 0.0269097,-0.0293335 0.0404371,-0.0709307 0.0404371,-0.124812 0,-0.0340152 -0.00584184,-0.0637423 -0.0173391,-0.0891605 -0.0114972,-0.0254389 -0.0283598,-0.0451189 -0.0504635,-0.0591434 -0.022228,-0.0139417 -0.0470662,-0.0209643 -0.0746388,-0.0209643 -0.039277,0 -0.0729816,0.0134445 -0.101238,0.0404371 -0.028277,0.0269097 -0.0424051,0.0719251 -0.0424051,0.134859zm0.488477 0.202973l0 -0.418499 0.18553 0c0.037309,0 0.0656689,0.00379098 0.0850588,0.0112901 0.0193899,0.00751981 0.0348853,0.0207572 0.0465897,0.0397535 0.0115801,0.0190999 0.0173391,0.0401471 0.0173391,0.0631416 0,0.0297271 -0.00954996,0.0546688 -0.0288363,0.0750324 -0.0192035,0.0203636 -0.0489306,0.0333316 -0.0890777,0.0388834 0.0147289,0.00702264 0.0258325,0.0139417 0.0334352,0.0208608 0.016179,0.0148118 0.0314672,0.0334145 0.0459889,0.0556218l0.0727951 0.113916 -0.0696878 0 -0.0553317 -0.0871097c-0.016179,-0.0250453 -0.0295406,-0.0443317 -0.0400642,-0.0575898 -0.01042,-0.0133409 -0.0197628,-0.0227045 -0.0280491,-0.0279663 -0.0082863,-0.00536538 -0.0166555,-0.00905278 -0.0252318,-0.0112072 -0.00633902,-0.00126366 -0.0165726,-0.00194728 -0.0308872,-0.00194728l-0.0642188 0 0 0.18582 -0.0553525 0zm0.0553525 -0.233756l0.119074 0c0.0252318,0 0.0450982,-0.0026309 0.0593299,-0.0078927 0.0143353,-0.0052618 0.0251489,-0.0136517 0.0325444,-0.0251489 0.00741624,-0.0114972 0.0111036,-0.0239681 0.0111036,-0.0375162 0,-0.0197628 -0.0071055,-0.0360454 -0.0215237,-0.0488063 -0.0143146,-0.0127609 -0.037019,-0.0190999 -0.0681134,-0.0190999l-0.132415 0 0 0.138464zm0.634917 0.0695635l0 -0.0490134 0.177244 -0.00029002 0 0.155223c-0.0271791,0.0217308 -0.0552489,0.0380134 -0.0841888,0.0490134 -0.0289399,0.0109172 -0.0586463,0.0163654 -0.089057,0.0163654 -0.0411207,0 -0.0785334,-0.00876276 -0.112051,-0.0263919 -0.0336216,-0.0175462 -0.058957,-0.043068 -0.0761096,-0.0762961 -0.0171526,-0.0333316 -0.025729,-0.0705578 -0.025729,-0.111679 0,-0.0407271 0.00857632,-0.0787198 0.0256461,-0.113999 0.0169455,-0.0353618 0.0414936,-0.0615879 0.073458,-0.0787405 0.0319644,-0.0170491 0.068797,-0.0256254 0.110498,-0.0256254 0.0302036,0 0.0575898,0.00488891 0.0820551,0.0147289 0.0244446,0.0097364 0.0436481,0.0233881 0.0574862,0.0409136 0.013921,0.0175462 0.0244446,0.0403335 0.0317572,0.068507l-0.0499871 0.0137345c-0.00633902,-0.0213372 -0.0141281,-0.0380962 -0.0233881,-0.0502771 -0.0093428,-0.0121809 -0.0227045,-0.0219173 -0.0400435,-0.0292299 -0.0172562,-0.00731266 -0.0365426,-0.0110208 -0.0575898,-0.0110208 -0.0253354,0 -0.0472526,0.00391528 -0.0656689,0.0116008 -0.0185199,0.00770626 -0.0333316,0.0178363 -0.0447253,0.0304107 -0.0113108,0.0125537 -0.0200736,0.026309 -0.0264126,0.0414108 -0.0106065,0.0258118 -0.0159718,0.0538816 -0.0159718,0.0841888 0,0.037309 0.00642188,0.0684862 0.0192864,0.0936351 0.0128645,0.0251282 0.0315708,0.0437516 0.0561189,0.0559325 0.0245689,0.0121809 0.0505878,0.0183127 0.0781605,0.0183127 0.0240717,0 0.047439,-0.00468176 0.0702471,-0.0139417 0.0229116,-0.00915636 0.0401471,-0.0189963 0.0519344,-0.0295199l0 -0.0779533 -0.122969 0zm0.286002 0.164193l0.160775 -0.418499 0.0596199 0 0.171298 0.418499 -0.0631416 0 -0.0488063 -0.12676 -0.175007 0 -0.0458854 0.12676 -0.0588534 0zm0.120731 -0.171879l0.141965 0 -0.0437516 -0.115863c-0.0132581,-0.0351753 -0.0232016,-0.0641152 -0.0296235,-0.0868197 -0.00536538,0.026889 -0.0128645,0.053488 -0.0226009,0.0800042l-0.0459889 0.122679zm0.387716 0.171879l0 -0.418499 0.0568026 0 0.219815 0.328572 0 -0.328572 0.0531152 0 0 0.418499 -0.0568026 0 -0.219835 -0.328862 0 0.328862 -0.0530944 0zm0.505319 0l0 -0.418499 0.0553525 0 0 0.418499 -0.0553525 0zm0.192636 0l0 -0.0513543 0.214387 -0.268062c0.0152882,-0.0190999 0.0297064,-0.0356518 0.0434409,-0.0496763l-0.233549 0 0 -0.049407 0.299715 0 0 0.049407 -0.234917 0.290269 -0.0254389 0.0294164 0.267274 0 0 0.049407 -0.330913 0zm0.464799 0l0 -0.418499 0.302553 0 0 0.049407 -0.247201 0 0 0.128127 0.231519 0 0 0.0490963 -0.231519 0 0 0.142462 0.256937 0 0 0.049407 -0.31229 0zm0.678586 -0.134466l0.0522244 -0.00457818c0.00244446,0.0209436 0.00818272,0.0380962 0.0172562,0.0515408 0.00905278,0.0134445 0.0230773,0.0242581 0.0420944,0.0325444 0.0189963,0.0082863 0.0404371,0.0123673 0.0641981,0.0123673 0.0211508,0 0.0397742,-0.00310736 0.0559325,-0.0093428 0.016179,-0.00633902 0.0282563,-0.0149153 0.036149,-0.0258325 0.0078927,-0.0110001 0.0118908,-0.0228909 0.0118908,-0.0358382 0,-0.0131545 -0.00379098,-0.0245689 -0.0114972,-0.0344088 -0.00760268,-0.00983998 -0.0201564,-0.0180227 -0.0375991,-0.0246517 -0.0113108,-0.00439174 -0.0360661,-0.0112072 -0.074556,-0.0204672 -0.0383863,-0.00925994 -0.0653789,-0.0179191 -0.0807707,-0.0261018 -0.01997,-0.0104407 -0.0348853,-0.0234917 -0.0447253,-0.038987 -0.0097364,-0.0154954 -0.0146253,-0.0328344 -0.0146253,-0.0521208 0,-0.0210472 0.00594542,-0.0408307 0.0179398,-0.0591434 0.0119737,-0.0184163 0.0295199,-0.032358 0.0525144,-0.0419079 0.0230981,-0.00944638 0.0486198,-0.0142317 0.0767933,-0.0142317 0.0310736,0 0.0583562,0.00497178 0.0821379,0.0150189 0.0236781,0.00994356 0.0418872,0.0246517 0.0546688,0.0440417 0.0126573,0.0193899 0.0195764,0.0414108 0.02055,0.0659589l-0.0530944 0.00399814c-0.00294164,-0.0264126 -0.0125745,-0.0464861 -0.0290435,-0.0599306 -0.016469,-0.0135481 -0.0407271,-0.02026 -0.072878,-0.02026 -0.0335388,0 -0.0578798,0.00613186 -0.0732923,0.0184163 -0.0152882,0.0122844 -0.0229945,0.0270962 -0.0229945,0.0443317 0,0.0151018 0.00546896,0.0274898 0.0162826,0.0371226 0.01071,0.00975711 0.0384898,0.01968 0.0835052,0.0298307 0.0450153,0.0102129 0.0759025,0.0190792 0.0926615,0.0266819 0.0243617,0.0113108 0.0423844,0.0255425 0.0539852,0.0426951 0.0116008,0.0172355 0.0173391,0.0371226 0.0173391,0.0595163 0,0.0223316 -0.00633902,0.0432752 -0.0190999,0.0629551 -0.0127609,0.01968 -0.0310736,0.0349889 -0.0549589,0.0459889 -0.0238645,0.0109172 -0.0507536,0.0163654 -0.0805842,0.0163654 -0.0378891,0 -0.069667,-0.00544824 -0.0951888,-0.0165519 -0.0256254,-0.0110208 -0.0456989,-0.0275727 -0.0603242,-0.0498006 -0.014501,-0.0221244 -0.0222073,-0.0472526 -0.0228909,-0.0752189zm0.780403 -0.0122844l0.0554353 0.0140453c-0.0116008,0.0454089 -0.0325444,0.0800871 -0.0626444,0.104055 -0.0302036,0.0238852 -0.0670361,0.0357554 -0.110705,0.0357554 -0.0450982,0 -0.0817443,-0.00915636 -0.110001,-0.0274691 -0.0282563,-0.0184163 -0.0498006,-0.0450153 -0.0645088,-0.079797 -0.0147082,-0.0348853 -0.0221244,-0.0722979 -0.0221244,-0.112259 0,-0.0435652 0.0082863,-0.0815579 0.0249625,-0.113999 0.0166555,-0.0324616 0.0403335,-0.0571133 0.0711171,-0.0739552 0.0307007,-0.0168626 0.0645088,-0.0252525 0.101445,-0.0252525 0.0418872,0 0.0770626,0.0106272 0.10563,0.0319644 0.0285463,0.0213372 0.0484127,0.0512507 0.0596199,0.0899477l-0.0544617 0.0128645c-0.00975711,-0.0305143 -0.0237817,-0.052618 -0.0423015,-0.0665597 -0.0184163,-0.0139417 -0.0415972,-0.0208608 -0.069667,-0.0208608 -0.0321508,0 -0.0589363,0.00770626 -0.0805842,0.0230981 -0.0216272,0.0154954 -0.0368326,0.036149 -0.0454918,0.0621679 -0.00878347,0.0259154 -0.0131545,0.0527216 -0.0131545,0.0802942 0,0.0356518 0.00515822,0.0666425 0.0154954,0.0932416 0.01042,0.0265161 0.0264954,0.0463825 0.0484127,0.059537 0.021938,0.0131545 0.0456161,0.01968 0.0711379,0.01968 0.0309907,0 0.0571962,-0.0089492 0.0787405,-0.0267855 0.0215237,-0.0179398 0.0360454,-0.0445388 0.0436481,-0.0797142zm0.198395 0.14675l0 -0.418499 0.0554353 0 0 0.171879 0.217495 0 0 -0.171879 0.0554353 0 0 0.418499 -0.0554353 0 0 -0.197214 -0.217495 0 0 0.197214 -0.0554353 0zm0.494795 0l0 -0.418499 0.302553 0 0 0.049407 -0.247201 0 0 0.128127 0.231519 0 0 0.0490963 -0.231519 0 0 0.142462 0.256937 0 0 0.049407 -0.31229 0zm0.461878 0l0 -0.418499 0.144119 0c0.0325444,0 0.0573826,0.00205086 0.0745352,0.00602828 0.0239681,0.00546896 0.0444353,0.0154954 0.0613807,0.0299135 0.0220208,0.018727 0.0385934,0.042488 0.0495106,0.0715315 0.0110001,0.0290435 0.016469,0.0621679 0.016469,0.099477 0,0.0317779 -0.00370812,0.0599306 -0.0112072,0.0844788 -0.00741624,0.0245689 -0.0168626,0.0449324 -0.028567,0.0610079 -0.0115801,0.0160754 -0.0242581,0.0287327 -0.0380962,0.0379098 -0.0137345,0.00923922 -0.03039,0.0162619 -0.0498835,0.0210472 -0.0195764,0.00476462 -0.0419908,0.0071055 -0.0672433,0.0071055l-0.151018 0zm0.0553317 -0.049407l0.0893677 0c0.0275727,0 0.0493035,-0.00252732 0.0649853,-0.00768554 0.0156818,-0.00517894 0.0281527,-0.012388 0.0375162,-0.0217308 0.0131545,-0.0130716 0.0233881,-0.0308043 0.0307007,-0.052908 0.00729194,-0.022228 0.0110001,-0.0490134 0.0110001,-0.0806878 0,-0.0437516 -0.00720908,-0.0773733 -0.0215237,-0.100844 -0.0144182,-0.0235952 -0.0318608,-0.039277 -0.0524315,-0.0472733 -0.0148118,-0.00573826 -0.0387799,-0.0085556 -0.0716143,-0.0085556l-0.0880005 0 0 0.319685zm0.714548 -0.369092l0.0554353 0 0 0.241836c0,0.0420115 -0.00476462,0.075426 -0.0143146,0.100181 -0.00954996,0.0247346 -0.0267026,0.0448081 -0.0515615,0.0603035 -0.0248382,0.015599 -0.0573826,0.0232845 -0.0977162,0.0232845 -0.0391735,0 -0.0713243,-0.0067119 -0.0961832,-0.02026 -0.0249418,-0.0134445 -0.042778,-0.0330416 -0.0533845,-0.058667 -0.0107308,-0.0256254 -0.0159926,-0.0605107 -0.0159926,-0.104842l0 -0.241836 0.0553525 0 0 0.241546c0,0.0363561 0.00339738,0.0631416 0.01013,0.0802942 0.00673262,0.0172562 0.0184163,0.0304936 0.0347817,0.0398571 0.016469,0.0093428 0.0366461,0.0140246 0.0604071,0.0140246 0.0407479,0 0.0697706,-0.00925994 0.0871304,-0.0277591 0.0172355,-0.0184163 0.0259154,-0.0539024 0.0259154,-0.106417l0 -0.241546zm0.218365 0.418499l0 -0.418499 0.0554353 0 0 0.369092 0.206101 0 0 0.049407 -0.261536 0zm0.40174 0l0 -0.418499 0.302553 0 0 0.049407 -0.247201 0 0 0.128127 0.231519 0 0 0.0490963 -0.231519 0 0 0.142462 0.256937 0 0 0.049407 -0.31229 0z"/>
 <polygon class="fil1 str0" points="13.9,-15.324 13.7271,-15.324 13.7271,-16.2434 14.6466,-16.2434 14.6466,-16.0705 13.9,-16.0705 "/>
 <line class="fil1 str0" x1="13.9056" y1="-16.118" x2="13.9056" y2= "-16.3836" />
 <line class="fil1 str0" x1="14.4734" y1="-16.118" x2="14.4734" y2= "-16.3836" />
 <polygon class="fil1 str0" points="14.8194,-15.1511 13.9,-15.1511 13.9,-16.0705 14.8194,-16.0705 "/>
</symbol>
<symbol id="Fm18-53723-0" viewBox="-4.82706 1.62065 6.42986 1.4858">
 <polygon class="fil2" points="-4.77216,1.67547 1.54798,1.67547 1.54798,3.05172 -4.77216,3.05172 "/>
 <path class="fil3" d="M1.6028 1.62065l-6.42986 0 0 1.4858 6.42986 0 0 -1.4858zm-0.109628 1.37617l-6.2106 0 0 -1.26654 6.2106 0 0 1.26654z"/>
</symbol>
<symbol id="Fm14-53719-0" viewBox="-25.486 9.97409 12.4428 0.0365426">
 <line class="fil1 str1" x1="-13.0431" y1="9.99236" x2="-25.486" y2= "9.99236" />
</symbol>
<symbol id="Fm0-54062-0" viewBox="-22.4518 -16.3869 5.61529 5.61521">
 <path class="fil4" d="M-16.8365 -13.5793c0,1.55064 -1.25705,2.8076 -2.8076,2.8076 -1.5507,0 -2.80769,-1.25697 -2.80769,-2.8076 0,-1.55061 1.25699,-2.8076 2.80769,-2.8076 1.55055,0 2.8076,1.25699 2.8076,2.8076z"/>
</symbol>
<symbol id="Fm31-53738-0" viewBox="20.8837 -4.3137 6.42983 1.4858">
 <polygon class="fil5" points="20.9386,-4.25889 27.2587,-4.25889 27.2587,-2.88264 20.9386,-2.88264 "/>
 <path class="fil3" d="M27.3135 -4.3137l-6.42983 0 0 1.4858 6.42983 0 0 -1.4858zm-0.109607 1.37625l-6.2106 0 0 -1.26656 6.2106 0 0 1.26656z"/>
</symbol>
<symbol id="Fm0-53714-0" viewBox="-25.5 -23.0902 73.1024 43.8789">
 <polygon class="fil6" points="-25.5,-23.0902 47.6024,-23.0902 47.6024,20.7887 -25.5,20.7887 "/>
</symbol>
<symbol id="Fm28-53734-0" viewBox="20.8619 1.62065 6.42983 1.4858">
 <polygon class="fil2" points="20.9167,1.67547 27.2369,1.67547 27.2369,3.05172 20.9167,3.05172 "/>
 <path class="fil3" d="M27.2918 1.62065l-6.42983 0 0 1.4858 6.42983 0 0 -1.4858zm-0.109628 1.37617l-6.2106 0 0 -1.26654 6.2106 0 0 1.26654z"/>
</symbol>
<symbol id="Fm10-49378-0" viewBox="-23.0149 -16.4686 7.26694 6.01809">
 <g style="clip-path:url(#id0)">
  <image transform="matrix(1 0 0 1 2.48514 -31.2614)" x="-25.5" y="14.7911" width="7.26897" height="6.01979" xlink:href="notification-bell_Images\notification-bell_ImgID1.png"/>
 </g>
</symbol>
<symbol id="Fm5-53741-0" viewBox="-25.5187 -20.6689 12.4798 41.498">
 <polygon class="fil1 str1" points="-13.0572,20.8109 -25.5004,20.8109 -25.5004,-20.6506 -13.0572,-20.6506 "/>
</symbol>
<symbol id="Fm23-53729-0" viewBox="8.0287 -1.35102 6.42983 1.4858">
 <polygon class="fil2" points="8.08351,-1.2962 14.4037,-1.2962 14.4037,0.0800456 8.08351,0.0800456 "/>
 <path class="fil3" d="M14.4585 -1.35102l-6.42983 0 0 1.4858 6.42983 0 0 -1.4858zm-0.109607 1.37625l-6.21062 0 0 -1.26656 6.21062 0 0 1.26656z"/>
</symbol>
<symbol id="Fm12-53717-0" viewBox="-25.5183 -4.92569 12.4611 12.0461">
 <polyline class="fil1 str1" points="-13.0572,7.10214 -25.5,7.10214 -25.5,-4.90741 -13.0572,-4.90741 "/>
 <line class="fil1 str1" x1="-25.5" y1="4.09975" x2="-13.0572" y2= "4.09975" />
 <line class="fil1 str1" x1="-25.5" y1="1.09737" x2="-13.0572" y2= "1.09737" />
 <line class="fil1 str1" x1="-25.5" y1="-1.90502" x2="-13.0572" y2= "-1.90502" />
</symbol>
<symbol id="Fm30-53737-0" viewBox="8.0287 -4.3137 6.42983 1.4858">
 <polygon class="fil5" points="8.08351,-4.25889 14.4037,-4.25889 14.4037,-2.88264 8.08351,-2.88264 "/>
 <path class="fil3" d="M14.4585 -4.3137l-6.42983 0 0 1.4858 6.42983 0 0 -1.4858zm-0.109607 1.37625l-6.21062 0 0 -1.26656 6.21062 0 0 1.26656z"/>
</symbol>
<symbol id="Fm9-53745-0" viewBox="8.21064 -17.3815 35.6507 3.07372">
 <line class="fil1 str1" x1="43.8613" y1="-14.326" x2="8.22891" y2= "-14.326" />
 <line class="fil1 str1" x1="26.0451" y1="-17.3815" x2="26.0451" y2= "-14.326" />
 <line class="fil1 str1" x1="8.22891" y1="-17.3815" x2="8.22891" y2= "-14.326" />
</symbol>
<symbol id="Fm27-53733-0" viewBox="20.8619 -1.35102 6.42983 1.4858">
 <polygon class="fil2" points="20.9167,-1.2962 27.2369,-1.2962 27.2369,0.0799628 20.9167,0.0799628 "/>
 <path class="fil3" d="M27.2918 -1.35102l-6.42983 0 0 1.4858 6.42983 0 0 -1.4858zm-0.109628 1.37625l-6.2106 0 0 -1.26656 6.2106 0 0 1.26656z"/>
</symbol>
<symbol id="Fm22-53728-0" viewBox="8.0287 1.62065 6.42983 1.4858">
 <polygon class="fil2" points="8.08351,1.67547 14.4037,1.67547 14.4037,3.05172 8.08351,3.05172 "/>
 <path class="fil3" d="M14.4585 1.62065l-6.42983 0 0 1.4858 6.42983 0 0 -1.4858zm-0.109607 1.37617l-6.21062 0 0 -1.26654 6.21062 0 0 1.26654z"/>
</symbol>
<symbol id="Fm17-53722-0" viewBox="1.59314 6.07257 6.42986 1.4858">
 <polygon class="fil0" points="8.023,7.55837 1.59314,7.55837 1.59314,6.07257 8.023,6.07257 "/>
</symbol>
<symbol id="Fm13-53718-0" viewBox="-25.5219 12.9291 12.4428 0.0365426">
 <line class="fil1 str1" x1="-13.079" y1="12.9474" x2="-25.5219" y2= "12.9474" />
</symbol>
<symbol id="Fm26-53732-0" viewBox="27.3196 -1.35102 6.42986 1.4858">
 <polygon class="fil2" points="27.3744,-1.2962 33.6946,-1.2962 33.6946,0.0800456 27.3744,0.0800456 "/>
 <path class="fil3" d="M33.7495 -1.35102l-6.42986 0 0 1.4858 6.42986 0 0 -1.4858zm-0.109628 1.37625l-6.2106 0 0 -1.26656 6.2106 0 0 1.26656z"/>
</symbol>
<symbol id="Fm15-53720-0" viewBox="9.09962 -11.7418 0.827138 0.86366">
 <line class="fil1 str0" x1="9.09962" y1="-10.8965" x2="9.92676" y2= "-10.8965" />
 <line class="fil1 str0" x1="9.09962" y1="-11.1809" x2="9.92676" y2= "-11.1809" />
 <line class="fil1 str0" x1="9.09962" y1="-11.4654" x2="9.92676" y2= "-11.4654" />
 <line class="fil1 str0" x1="9.09962" y1="-11.7236" x2="9.92676" y2= "-11.7236" />
</symbol>
<symbol id="Fm8-53744-0" viewBox="31.4437 -16.3807 8.33603 1.05393">
 <path class="fil0" d="M33.4134 -15.6757l0 -0.418499 0.0834016 0 0.0990005 0.296318c0.00917707,0.0275727 0.015889,0.0482262 0.0199907,0.0619608 0.00476462,-0.0152054 0.0121809,-0.0375991 0.0223109,-0.0671397l0.100161 -0.291139 0.0745352 0 0 0.418499 -0.0533845 0 0 -0.350303 -0.121601 0.350303 -0.0499871 0 -0.121021 -0.356249 0 0.356249 -0.0534052 0zm0.515863 0l0.160775 -0.418499 0.0596199 0 0.171298 0.418499 -0.0631416 0 -0.0488063 -0.12676 -0.175007 0 -0.0458854 0.12676 -0.0588534 0zm0.120731 -0.171879l0.141965 0 -0.0437516 -0.115863c-0.0132581,-0.0351753 -0.0232016,-0.0641152 -0.0296235,-0.0868197 -0.00536538,0.026889 -0.0128645,0.053488 -0.0226009,0.0800042l-0.0459889 0.122679zm0.387716 0.171879l0 -0.418499 0.0568026 0 0.219815 0.328572 0 -0.328572 0.0531152 0 0 0.418499 -0.0568026 0 -0.219835 -0.328862 0 0.328862 -0.0530944 0zm0.449884 0l0.160775 -0.418499 0.0596199 0 0.171298 0.418499 -0.0631416 0 -0.0488063 -0.12676 -0.175007 0 -0.0458854 0.12676 -0.0588534 0zm0.120731 -0.171879l0.141965 0 -0.0437516 -0.115863c-0.0132581,-0.0351753 -0.0232016,-0.0641152 -0.0296235,-0.0868197 -0.00536538,0.026889 -0.0128645,0.053488 -0.0226009,0.0800042l-0.0459889 0.122679zm0.584142 0.00768554l0 -0.0490134 0.177244 -0.00029002 0 0.155223c-0.0271791,0.0217308 -0.0552489,0.0380134 -0.0841888,0.0490134 -0.0289399,0.0109172 -0.0586463,0.0163654 -0.089057,0.0163654 -0.0411207,0 -0.0785334,-0.00876276 -0.112051,-0.0263919 -0.0336216,-0.0175462 -0.058957,-0.043068 -0.0761096,-0.0762961 -0.0171526,-0.0333316 -0.025729,-0.0705578 -0.025729,-0.111679 0,-0.0407271 0.00857632,-0.0787198 0.0256461,-0.113999 0.0169455,-0.0353618 0.0414936,-0.0615879 0.073458,-0.0787405 0.0319644,-0.0170491 0.068797,-0.0256254 0.110498,-0.0256254 0.0302036,0 0.0575898,0.00488891 0.0820551,0.0147289 0.0244446,0.0097364 0.0436481,0.0233881 0.0574862,0.0409136 0.013921,0.0175462 0.0244446,0.0403335 0.0317572,0.068507l-0.0499871 0.0137345c-0.00633902,-0.0213372 -0.0141281,-0.0380962 -0.0233881,-0.0502771 -0.0093428,-0.0121809 -0.0227045,-0.0219173 -0.0400435,-0.0292299 -0.0172562,-0.00731266 -0.0365426,-0.0110208 -0.0575898,-0.0110208 -0.0253354,0 -0.0472526,0.00391528 -0.0656689,0.0116008 -0.0185199,0.00770626 -0.0333316,0.0178363 -0.0447253,0.0304107 -0.0113108,0.0125537 -0.0200736,0.026309 -0.0264126,0.0414108 -0.0106065,0.0258118 -0.0159718,0.0538816 -0.0159718,0.0841888 0,0.037309 0.00642188,0.0684862 0.0192864,0.0936351 0.0128645,0.0251282 0.0315708,0.0437516 0.0561189,0.0559325 0.0245689,0.0121809 0.0505878,0.0183127 0.0781605,0.0183127 0.0240717,0 0.047439,-0.00468176 0.0702471,-0.0139417 0.0229116,-0.00915636 0.0401471,-0.0189963 0.0519344,-0.0295199l0 -0.0779533 -0.122969 0zm0.333151 0.164193l0 -0.418499 0.302553 0 0 0.049407 -0.247201 0 0 0.128127 0.231519 0 0 0.0490963 -0.231519 0 0 0.142462 0.256937 0 0 0.049407 -0.31229 0zm0.698265 0l0 -0.418499 0.18553 0c0.037309,0 0.0656689,0.00379098 0.0850588,0.0112901 0.0193899,0.00751981 0.0348853,0.0207572 0.0465897,0.0397535 0.0115801,0.0190999 0.0173391,0.0401471 0.0173391,0.0631416 0,0.0297271 -0.00954996,0.0546688 -0.0288363,0.0750324 -0.0192035,0.0203636 -0.0489306,0.0333316 -0.0890777,0.0388834 0.0147289,0.00702264 0.0258325,0.0139417 0.0334352,0.0208608 0.016179,0.0148118 0.0314672,0.0334145 0.0459889,0.0556218l0.0727951 0.113916 -0.0696878 0 -0.0553317 -0.0871097c-0.016179,-0.0250453 -0.0295406,-0.0443317 -0.0400642,-0.0575898 -0.01042,-0.0133409 -0.0197628,-0.0227045 -0.0280491,-0.0279663 -0.0082863,-0.00536538 -0.0166555,-0.00905278 -0.0252318,-0.0112072 -0.00633902,-0.00126366 -0.0165726,-0.00194728 -0.0308872,-0.00194728l-0.0642188 0 0 0.18582 -0.0553525 0zm0.0553525 -0.233756l0.119074 0c0.0252318,0 0.0450982,-0.0026309 0.0593299,-0.0078927 0.0143353,-0.0052618 0.0251489,-0.0136517 0.0325444,-0.0251489 0.00741624,-0.0114972 0.0111036,-0.0239681 0.0111036,-0.0375162 0,-0.0197628 -0.0071055,-0.0360454 -0.0215237,-0.0488063 -0.0143146,-0.0127609 -0.037019,-0.0190999 -0.0681134,-0.0190999l-0.132415 0 0 0.138464zm0.44023 0.233756l0 -0.418499 0.302553 0 0 0.049407 -0.247201 0 0 0.128127 0.231519 0 0 0.0490963 -0.231519 0 0 0.142462 0.256937 0 0 0.049407 -0.31229 0zm0.461878 0l0 -0.418499 0.157854 0c0.0277591,0 0.0490134,0.00136724 0.063618,0.00399814 0.0205707,0.00339738 0.0378062,0.00992284 0.0517479,0.0195764 0.0138381,0.00954996 0.0250453,0.0230981 0.0335181,0.0403335 0.00847274,0.0173598 0.0126573,0.0363561 0.0126573,0.0571133 0,0.0355689 -0.0112901,0.0657725 -0.033891,0.0904242 -0.0227045,0.0245482 -0.0636388,0.0369155 -0.122782,0.0369155l-0.10739 0 0 0.170138 -0.0553317 0zm0.0553317 -0.219525l0.10826 0c0.0357554,0 0.0611943,-0.00662904 0.0762132,-0.0199907 0.0149982,-0.0133409 0.0224973,-0.0320473 0.0224973,-0.0562225 0,-0.0175255 -0.00439174,-0.0325444 -0.0132581,-0.0450153 -0.00886634,-0.0124709 -0.0204464,-0.0206536 -0.0349682,-0.0246517 -0.00936351,-0.00242374 -0.0265161,-0.0036874 -0.0516443,-0.0036874l-0.1071 0 0 0.149568zm0.390844 0.0156818c0,-0.0694806 0.0186027,-0.123839 0.0559325,-0.163116 0.037309,-0.039277 0.0854524,-0.058957 0.144513,-0.058957 0.0385727,0 0.073458,0.00925994 0.104449,0.0276762 0.0309907,0.0185199 0.0546688,0.0442488 0.0709307,0.0772697 0.0162826,0.032938 0.0243617,0.0704542 0.0243617,0.112259 0,0.042488 -0.00847274,0.0804807 -0.0256254,0.113895 -0.0171526,0.0335181 -0.0414108,0.0588534 -0.0727951,0.0761096 -0.0314672,0.0172355 -0.0652753,0.0258118 -0.101631,0.0258118 -0.0394635,0 -0.0746388,-0.00944638 -0.105609,-0.0285463 -0.0310943,-0.0189963 -0.0545653,-0.0450153 -0.0705578,-0.0779533 -0.0159718,-0.0328344 -0.0239681,-0.0677198 -0.0239681,-0.104449zm0.0570926 0.000870061c0,0.0504843 0.0135481,0.0901342 0.0406443,0.119178 0.0271791,0.0290435 0.0611943,0.0435445 0.102108,0.0435445 0.0417008,0 0.0760061,-0.0146046 0.102895,-0.0439381 0.0269097,-0.0293335 0.0404371,-0.0709307 0.0404371,-0.124812 0,-0.0340152 -0.00584184,-0.0637423 -0.0173391,-0.0891605 -0.0114972,-0.0254389 -0.0283598,-0.0451189 -0.0504635,-0.0591434 -0.022228,-0.0139417 -0.0470662,-0.0209643 -0.0746388,-0.0209643 -0.039277,0 -0.0729816,0.0134445 -0.101238,0.0404371 -0.028277,0.0269097 -0.0424051,0.0719251 -0.0424051,0.134859zm0.468797 0.068507l0.0522244 -0.00457818c0.00244446,0.0209436 0.00818272,0.0380962 0.0172562,0.0515408 0.00905278,0.0134445 0.0230773,0.0242581 0.0420944,0.0325444 0.0189963,0.0082863 0.0404371,0.0123673 0.0641981,0.0123673 0.0211508,0 0.0397742,-0.00310736 0.0559325,-0.0093428 0.016179,-0.00633902 0.0282563,-0.0149153 0.036149,-0.0258325 0.0078927,-0.0110001 0.0118908,-0.0228909 0.0118908,-0.0358382 0,-0.0131545 -0.00379098,-0.0245689 -0.0114972,-0.0344088 -0.00760268,-0.00983998 -0.0201564,-0.0180227 -0.0375991,-0.0246517 -0.0113108,-0.00439174 -0.0360661,-0.0112072 -0.074556,-0.0204672 -0.0383863,-0.00925994 -0.0653789,-0.0179191 -0.0807707,-0.0261018 -0.01997,-0.0104407 -0.0348853,-0.0234917 -0.0447253,-0.038987 -0.0097364,-0.0154954 -0.0146253,-0.0328344 -0.0146253,-0.0521208 0,-0.0210472 0.00594542,-0.0408307 0.0179398,-0.0591434 0.0119737,-0.0184163 0.0295199,-0.032358 0.0525144,-0.0419079 0.0230981,-0.00944638 0.0486198,-0.0142317 0.0767933,-0.0142317 0.0310736,0 0.0583562,0.00497178 0.0821379,0.0150189 0.0236781,0.00994356 0.0418872,0.0246517 0.0546688,0.0440417 0.0126573,0.0193899 0.0195764,0.0414108 0.02055,0.0659589l-0.0530944 0.00399814c-0.00294164,-0.0264126 -0.0125745,-0.0464861 -0.0290435,-0.0599306 -0.016469,-0.0135481 -0.0407271,-0.02026 -0.072878,-0.02026 -0.0335388,0 -0.0578798,0.00613186 -0.0732923,0.0184163 -0.0152882,0.0122844 -0.0229945,0.0270962 -0.0229945,0.0443317 0,0.0151018 0.00546896,0.0274898 0.0162826,0.0371226 0.01071,0.00975711 0.0384898,0.01968 0.0835052,0.0298307 0.0450153,0.0102129 0.0759025,0.0190792 0.0926615,0.0266819 0.0243617,0.0113108 0.0423844,0.0255425 0.0539852,0.0426951 0.0116008,0.0172355 0.0173391,0.0371226 0.0173391,0.0595163 0,0.0223316 -0.00633902,0.0432752 -0.0190999,0.0629551 -0.0127609,0.01968 -0.0310736,0.0349889 -0.0549589,0.0459889 -0.0238645,0.0109172 -0.0507536,0.0163654 -0.0805842,0.0163654 -0.0378891,0 -0.069667,-0.00544824 -0.0951888,-0.0165519 -0.0256254,-0.0110208 -0.0456989,-0.0275727 -0.0603242,-0.0498006 -0.014501,-0.0221244 -0.0222073,-0.0472526 -0.0228909,-0.0752189zm0.588348 0.134466l0 -0.369092 -0.137884 0 0 -0.049407 0.33168 0 0 0.049407 -0.138443 0 0 0.369092 -0.0553525 0zm0.304894 -0.134466l0.0522244 -0.00457818c0.00244446,0.0209436 0.00818272,0.0380962 0.0172562,0.0515408 0.00905278,0.0134445 0.0230773,0.0242581 0.0420944,0.0325444 0.0189963,0.0082863 0.0404371,0.0123673 0.0641981,0.0123673 0.0211508,0 0.0397742,-0.00310736 0.0559325,-0.0093428 0.016179,-0.00633902 0.0282563,-0.0149153 0.036149,-0.0258325 0.0078927,-0.0110001 0.0118908,-0.0228909 0.0118908,-0.0358382 0,-0.0131545 -0.00379098,-0.0245689 -0.0114972,-0.0344088 -0.00760268,-0.00983998 -0.0201564,-0.0180227 -0.0375991,-0.0246517 -0.0113108,-0.00439174 -0.0360661,-0.0112072 -0.074556,-0.0204672 -0.0383863,-0.00925994 -0.0653789,-0.0179191 -0.0807707,-0.0261018 -0.01997,-0.0104407 -0.0348853,-0.0234917 -0.0447253,-0.038987 -0.0097364,-0.0154954 -0.0146253,-0.0328344 -0.0146253,-0.0521208 0,-0.0210472 0.00594542,-0.0408307 0.0179398,-0.0591434 0.0119737,-0.0184163 0.0295199,-0.032358 0.0525144,-0.0419079 0.0230981,-0.00944638 0.0486198,-0.0142317 0.0767933,-0.0142317 0.0310736,0 0.0583562,0.00497178 0.0821379,0.0150189 0.0236781,0.00994356 0.0418872,0.0246517 0.0546688,0.0440417 0.0126573,0.0193899 0.0195764,0.0414108 0.02055,0.0659589l-0.0530944 0.00399814c-0.00294164,-0.0264126 -0.0125745,-0.0464861 -0.0290435,-0.0599306 -0.016469,-0.0135481 -0.0407271,-0.02026 -0.072878,-0.02026 -0.0335388,0 -0.0578798,0.00613186 -0.0732923,0.0184163 -0.0152882,0.0122844 -0.0229945,0.0270962 -0.0229945,0.0443317 0,0.0151018 0.00546896,0.0274898 0.0162826,0.0371226 0.01071,0.00975711 0.0384898,0.01968 0.0835052,0.0298307 0.0450153,0.0102129 0.0759025,0.0190792 0.0926615,0.0266819 0.0243617,0.0113108 0.0423844,0.0255425 0.0539852,0.0426951 0.0116008,0.0172355 0.0173391,0.0371226 0.0173391,0.0595163 0,0.0223316 -0.00633902,0.0432752 -0.0190999,0.0629551 -0.0127609,0.01968 -0.0310736,0.0349889 -0.0549589,0.0459889 -0.0238645,0.0109172 -0.0507536,0.0163654 -0.0805842,0.0163654 -0.0378891,0 -0.069667,-0.00544824 -0.0951888,-0.0165519 -0.0256254,-0.0110208 -0.0456989,-0.0275727 -0.0603242,-0.0498006 -0.014501,-0.0221244 -0.0222073,-0.0472526 -0.0228909,-0.0752189z"/>
 <path class="fil1 str0" d="M31.971 -16.0775c-0.124087,0.000435031 -0.223709,0.100782 -0.223419,0.225014 0.000310736,0.122409 0.10159,0.223046 0.223792,0.222383 0.124729,-0.000662904 0.223834,-0.100927 0.223461,-0.226112 -0.000352168,-0.121394 -0.101859,-0.221721 -0.223834,-0.221286zm0.414149 -0.0637216c-0.000227873,0.0131545 -0.00505464,0.0230773 -0.0122016,0.032068 -0.0116215,0.0146875 -0.0231809,0.0295199 -0.0350096,0.0440624 -0.00242374,0.00300378 -0.00248589,0.00505464 -0.000662904,0.00834844 0.0151225,0.0277591 0.0274898,0.0566368 0.0353825,0.0872547 0.00138795,0.00555182 0.00517894,0.00497178 0.00882491,0.00540681 0.0187892,0.00225802 0.0375784,0.00468176 0.0564297,0.00656689 0.0272619,0.00271376 0.0428194,0.0279248 0.0421565,0.049117 -0.00101507,0.0348646 -0.00029002,0.0697913 -0.000207157,0.104656 0,0.0272619 -0.0174634,0.0463204 -0.0446631,0.0490963 -0.0195764,0.00205086 -0.0391735,0.00439174 -0.058667,0.00687763 -0.00161583,0.000227873 -0.00387384,0.00219587 -0.00432959,0.00372883 -0.00890777,0.0317158 -0.0218344,0.0617536 -0.0380755,0.0904035 -0.00167798,0.00300378 -0.000787198,0.00459889 0.000952924,0.00685691 0.0120566,0.0150603 0.0239681,0.0302657 0.0359625,0.0454711 0.00147082,0.00188513 0.00306593,0.00379098 0.00445388,0.00575898 0.0146253,0.0203221 0.0130095,0.0434823 -0.00503393,0.0618365 -0.025729,0.0262261 -0.0517479,0.052183 -0.0779119,0.0780569 -0.0157025,0.0154954 -0.0427573,0.0164276 -0.0604278,0.0026309 -0.0171112,-0.0134445 -0.0341395,-0.0269719 -0.051085,-0.0405614 -0.00277591,-0.00219587 -0.00476462,-0.00256875 -0.0078927,-0.000807914 -0.0283598,0.0155575 -0.0580248,0.0279248 -0.0893056,0.0361697 -0.00424673,0.00109793 -0.0059247,0.00285877 -0.00635973,0.00745767 -0.00225802,0.0225802 -0.00497178,0.0450982 -0.00774769,0.0675955 -0.00205086,0.0167383 -0.0197421,0.0345746 -0.0364597,0.0369155 -0.00519965,0.000725051 -0.0104614,0.00109793 -0.0156404,0.00116008 -0.0332695,8.2863e-005 -0.0664354,0.000227873 -0.099622,-0.00014501 -0.0073748,-6.21472e-005 -0.0152054,-0.00109793 -0.0218551,-0.00387384 -0.0178155,-0.00745767 -0.0269512,-0.0216272 -0.0289399,-0.0408514 -0.00217515,-0.0216272 -0.00503393,-0.0431923 -0.0073748,-0.0648196 -0.000352168,-0.00314879 -0.00138795,-0.00482677 -0.00459889,-0.00584184 -0.0296649,-0.00942566 -0.0588949,-0.0199493 -0.0858667,-0.0359625 -0.00124294,-0.000725051 -0.00424673,8.2863e-005 -0.00563468,0.0011808 -0.0174634,0.0135895 -0.0347817,0.0272412 -0.0521001,0.0410586 -0.0200321,0.0159304 -0.0460511,0.0143974 -0.0641774,-0.00372883 -0.0244653,-0.0245482 -0.0490342,-0.0490963 -0.0735823,-0.0736652 -0.0210472,-0.0210472 -0.0224351,-0.0446424 -0.00401885,-0.0678233 0.0132166,-0.0165726 0.026309,-0.0333109 0.0395256,-0.0497592 0.00234088,-0.00292092 0.00279663,-0.00503393 0.000890777,-0.00841059 -0.0140453,-0.0255011 -0.0255839,-0.0521001 -0.0337045,-0.0800871 -0.00101507,-0.00350096 -0.00283806,-0.00459889 -0.00619401,-0.00497178 -0.0209022,-0.00234088 -0.0416594,-0.00511679 -0.0625615,-0.00716765 -0.027842,-0.00277591 -0.0454503,-0.0217722 -0.0454503,-0.0496142 0,-0.0337667 0.000932208,-0.0675955 -0.000310736,-0.1013 -0.000870061,-0.024776 0.0144803,-0.0509193 0.0490549,-0.053053 0.0186235,-0.00116008 0.0371848,-0.00416386 0.0558289,-0.00613186 0.00321094,-0.000372883 0.00482677,-0.00124294 0.00569683,-0.0047439 0.00774769,-0.0308457 0.0195764,-0.0600756 0.0347196,-0.0880626 0.00203014,-0.0038117 0.00167798,-0.00606971 -0.000952924,-0.00928065 -0.0126366,-0.0155782 -0.0250039,-0.0313636 -0.0374126,-0.047149 -0.0173184,-0.0221451 -0.0159304,-0.0457404 0.00393599,-0.0657725 0.0252111,-0.0254182 0.0505671,-0.050795 0.0759232,-0.0760682 0.0161583,-0.0160754 0.0432752,-0.0176084 0.0612564,-0.00343881 0.0157854,0.0123466 0.0315708,0.0248382 0.0471283,0.0374126 0.00277591,0.00219587 0.00468176,0.0026309 0.0078927,0.000725051 0.0298928,-0.0174634 0.0614636,-0.03097 0.0949402,-0.0401057 0.00350096,-0.000952924 0.00503393,-0.00242374 0.00546896,-0.00629759 0.0018437,-0.0184784 0.00439174,-0.0368326 0.00621472,-0.055311 0.001968,-0.0200943 0.0124916,-0.0338495 0.0307007,-0.0414315 0.00517894,-0.00213372 0.0113937,-0.0026309 0.0170905,-0.0026309 0.0358175,-0.000227873 0.0716972,0 0.107515,-0.000165726 0.0276969,-0.00014501 0.0438345,0.0201771 0.0469833,0.0374333 0.00240303,0.0132166 0.00321094,0.026744 0.0047439,0.0401057 0.000890777,0.00768554 0.00153296,0.0153504 0.00277591,0.022953 0.000310736,0.00182299 0.00234088,0.00430887 0.00401885,0.00482677 0.0332695,0.00928065 0.0646953,0.022663 0.0946502,0.0396085 0.0014501,0.000807914 0.00468176,8.2863e-005 0.00613186,-0.00101507 0.0148325,-0.0114765 0.0295199,-0.0231809 0.0441452,-0.0348646 0.0200321,-0.0159304 0.0462582,-0.0144803 0.0642395,0.00350096 0.024776,0.0248589 0.0496142,0.0495521 0.0743281,0.0744731 0.00971568,0.00971568 0.0157854,0.0213372 0.0160754,0.0341395z"/>
</symbol>
<symbol id="Fm21-53727-0" viewBox="1.6028 0.134859 6.42983 1.4858">
 <polygon class="fil2" points="1.65761,0.189653 7.97776,0.189653 7.97776,1.56592 1.65761,1.56592 "/>
 <path class="fil3" d="M8.03263 0.134859l-6.42983 0 0 1.4858 6.42983 0 0 -1.4858zm-0.109607 1.37617l-6.21062 0 0 -1.26656 6.21062 0 0 1.26656z"/>
</symbol>
<symbol id="Fm2-53725-0" viewBox="-25.5 -23.0375 73.0805 43.8483">
 <polygon id="123456789101112131415161718192021222324252627" style="fill:url(#id1);fill-rule:nonzero" points="47.5805,20.8109 -25.5,20.8109 -25.5,-23.0375 47.5805,-23.0375 "/>
</symbol>
<symbol id="Fm1-53715-0" viewBox="-25.5 -23.0367 73.1024 43.8254">
 <polygon class="fil7" points="-25.5,20.7887 47.6024,20.7887 47.6024,-23.0367 -25.5,-23.0367 "/>
</symbol>
<symbol id="Fm4-53740-0" viewBox="-25.5002 -20.6506 12.4431 41.4615">
 <polygon class="fil3" points="-13.0572,-20.6506 -25.5002,-20.6506 -25.5002,20.8109 -13.0572,20.8109 "/>
</symbol>
<symbol id="Fm11-53716-0" viewBox="43.9054 -21.7115 1.91014 0.425315">
 <path class="fil0" d="M43.9054 -21.293l0.160775 -0.418499 0.0596199 0 0.171298 0.418499 -0.0631416 0 -0.0488063 -0.12676 -0.175007 0 -0.0458854 0.12676 -0.0588534 0zm0.120731 -0.171879l0.141965 0 -0.0437516 -0.115863c-0.0132581,-0.0351753 -0.0232016,-0.0641152 -0.0296235,-0.0868197 -0.00536538,0.026889 -0.0128645,0.053488 -0.0226009,0.0800042l-0.0459889 0.122679zm0.578404 0.171879l0 -0.0383034c-0.0192035,0.0301207 -0.0474598,0.0451189 -0.0847895,0.0451189 -0.0241546,0 -0.0463618,-0.00662904 -0.0666425,-0.01997 -0.02026,-0.0132581 -0.0359418,-0.0318608 -0.047149,-0.0558289 -0.0111244,-0.0238852 -0.0166762,-0.0512507 -0.0166762,-0.0823451 0,-0.0302036 0.00507536,-0.0576726 0.0151018,-0.0823244 0.0101507,-0.0246517 0.0252525,-0.0435652 0.0454089,-0.0566161 0.0201771,-0.0131545 0.042778,-0.0197835 0.0677198,-0.0197835 0.0182299,0 0.0344917,0.00389456 0.0487234,0.0116008 0.0143353,0.00768554 0.0259154,0.0177327 0.0348853,0.0301l0 -0.150148 0.0510643 0 0 0.418499 -0.0476462 0zm-0.162432 -0.151328c0,0.0388834 0.00818272,0.0679269 0.0245482,0.0871097 0.0163654,0.0192035 0.0356725,0.028857 0.0579834,0.028857 0.0223937,0 0.0414936,-0.00925994 0.0571962,-0.0275934 0.0156818,-0.0183127 0.0235745,-0.0463825 0.0235745,-0.0840852 0,-0.0415143 -0.00799628,-0.0719043 -0.0239681,-0.0912943 -0.0159926,-0.0194935 -0.0356725,-0.029147 -0.0591434,-0.029147 -0.022808,0 -0.0419079,0.00936351 -0.0571962,0.0279663 -0.0153089,0.0186235 -0.0229945,0.0480398 -0.0229945,0.0881869zm0.364038 0.151328l0 -0.303133 0.0458854 0 0 0.042488c0.00954996,-0.0148118 0.022228,-0.0268062 0.0380134,-0.0357761 0.0157854,-0.00905278 0.0338081,-0.013631 0.0539645,-0.013631 0.0224144,0 0.0408307,0.00468176 0.055166,0.0140246 0.0144182,0.00936351 0.0245482,0.0223109 0.03039,0.0390699 0.0240717,-0.0353618 0.0552489,-0.0530944 0.0936351,-0.0530944 0.0301207,0 0.0532187,0.00836916 0.069377,0.0250453 0.016179,0.0166555 0.0242788,0.0422808 0.0242788,0.0768761l0 0.208131 -0.0510643 0 0 -0.190978c0,-0.0205707 -0.00165726,-0.0353825 -0.00497178,-0.0444353 -0.0034181,-0.00896992 -0.00944638,-0.0162826 -0.0181263,-0.0218344 -0.00876276,-0.00544824 -0.0190999,-0.00826558 -0.0308872,-0.00826558 -0.0213372,0 -0.0389663,0.0071055 -0.0530944,0.0213372 -0.0140453,0.0141281 -0.0211508,0.0368326 -0.0211508,0.0680098l0 0.176167 -0.0513543 0 0 -0.196924c0,-0.0228909 -0.00418458,-0.0400435 -0.0125745,-0.0514579 -0.00836916,-0.0113937 -0.0220208,-0.0171319 -0.0411207,-0.0171319 -0.0144182,0 -0.0277591,0.00379098 -0.0400435,0.0114972 -0.0122844,0.00758196 -0.0212336,0.0187063 -0.0267026,0.0333109 -0.00555182,0.0147082 -0.0082863,0.0358589 -0.0082863,0.0634316l0 0.157274 -0.0513336 0zm0.560278 -0.359356l0 -0.0591434 0.0514579 0 0 0.0591434 -0.0514579 0zm0 0.359356l0 -0.303133 0.0514579 0 0 0.303133 -0.0514579 0zm0.202786 0l0 -0.303133 0.0461754 0 0 0.043068c0.0223109,-0.0333316 0.0544824,-0.0499871 0.0964732,-0.0499871 0.0183127,0 0.0350717,0.00331452 0.0503807,0.00983998 0.0153918,0.00662904 0.0267855,0.0152054 0.0343881,0.0259154 0.00770626,0.0106272 0.0129681,0.0232845 0.0160754,0.0379098 0.0018437,0.00954996 0.00283806,0.0262054 0.00283806,0.0499871l0 0.1864 -0.0514579 0 0 -0.184453c0,-0.0208608 -0.00194728,-0.0365426 -0.00594542,-0.0469626 -0.00399814,-0.0103372 -0.0111036,-0.0186235 -0.0212336,-0.0247553 -0.0102336,-0.00623544 -0.0221244,-0.0093428 -0.0358589,-0.0093428 -0.021938,0 -0.0407271,0.00700192 -0.0567197,0.02084 -0.015889,0.0139417 -0.0237817,0.0402507 -0.0237817,0.0791134l0 0.16556 -0.0513336 0z"/>
</symbol>
<symbol id="Fm6-53742-0" viewBox="-6.19206 -5.04207 0.685401 27.0476">
 <path class="fil0" d="M-5.7841 -4.56927l-0.0577762 0 0 -0.368326c-0.013921,0.0132581 -0.0321094,0.0265369 -0.0546896,0.0397949 -0.0227045,0.0132581 -0.0429852,0.0232431 -0.0609664,0.02981l0 -0.0557875c0.032358,-0.0152468 0.060635,-0.0336631 0.0848517,-0.0552489 0.0241131,-0.0217101 0.0413279,-0.0426537 0.0514165,-0.063038l0.037164 0 0 0.472795z"/>
 <path class="fil0" d="M-5.69795 -3.14892l0 0.0555803 -0.311213 0c-0.000435031,-0.013921 0.00176084,-0.0273033 0.00669118,-0.0401264 0.0078927,-0.0212544 0.0206122,-0.0420944 0.0380341,-0.0627065 0.0175462,-0.0204879 0.0427573,-0.0442695 0.0756332,-0.0712414 0.0512093,-0.0419908 0.085846,-0.0751981 0.103827,-0.099767 0.0179605,-0.0244446 0.0269512,-0.0476669 0.0269512,-0.0695013 0,-0.0228909 -0.00822415,-0.042198 -0.0245482,-0.0579834 -0.0164483,-0.0156818 -0.0378269,-0.0235745 -0.0641359,-0.0235745 -0.027842,0 -0.0500907,0.00834844 -0.0667461,0.0251075 -0.0167798,0.0166762 -0.0252111,0.0397949 -0.0254389,0.0692942l-0.0594127 -0.00602828c0.00406029,-0.0444145 0.0194106,-0.0781605 0.0459268,-0.101404 0.0265369,-0.0232431 0.0622715,-0.0348646 0.106997,-0.0348646 0.0451603,0 0.080895,0.0126159 0.107204,0.0375991 0.0264126,0.0251075 0.0395671,0.0561189 0.0395671,0.0931794 0,0.0188513 -0.00383241,0.0373712 -0.0116215,0.0555803 -0.00766482,0.0181884 -0.0204879,0.0373712 -0.0383656,0.0574447 -0.017857,0.0201564 -0.0475633,0.0477912 -0.0891191,0.082863 -0.0346367,0.0291678 -0.0568854,0.0488891 -0.0667461,0.0593092 -0.00988141,0.0102957 -0.0179813,0.0207157 -0.0244446,0.0312393l0.23096 0z"/>
 <path class="fil0" d="M-6.00147 -1.74172l0.0577555 -0.00766482c0.00669118,0.0327723 0.0179813,0.0563468 0.0338702,0.0708064 0.0160133,0.0144803 0.0354239,0.0217101 0.0583355,0.0217101 0.0271791,0 0.0501942,-0.00942566 0.068942,-0.028277 0.0186442,-0.0188513 0.0280698,-0.0422187 0.0280698,-0.0700606 0,-0.0265161 -0.00865918,-0.0484541 -0.0259775,-0.0656482 -0.0174427,-0.0172148 -0.0394635,-0.025874 -0.0662282,-0.025874 -0.0109586,0 -0.0245482,0.00219587 -0.0407686,0.00646331l0.00646331 -0.0507536c0.00383241,0.000435031 0.00689834,0.000662904 0.00932208,0.000662904 0.0245482,0 0.0466933,-0.00646331 0.0664354,-0.0193071 0.0197214,-0.012823 0.0295821,-0.0326687 0.0295821,-0.0594127 0,-0.0211508 -0.00722979,-0.0388006 -0.0215858,-0.052618 -0.014356,-0.013921 -0.0328966,-0.0209229 -0.0555803,-0.0209229 -0.0224766,0 -0.0412243,0.00712621 -0.0561189,0.0211508 -0.0150189,0.0141489 -0.0246724,0.0354032 -0.0289399,0.0636802l-0.0577762 -0.0102957c0.00702264,-0.0388006 0.0231395,-0.0688384 0.0481227,-0.0901135 0.0251075,-0.0212544 0.0562432,-0.0320058 0.0935109,-0.0320058 0.0256461,0 0.0493242,0.00559325 0.0709307,0.0165519 0.0215858,0.0110829 0.0381377,0.0260811 0.0496556,0.0451603 0.0113937,0.0190792 0.0171941,0.0392563 0.0171941,0.0607386 0,0.0202807 -0.00546896,0.0388006 -0.0164276,0.0555803 -0.0109586,0.0166555 -0.0270755,0.0299135 -0.0484541,0.0397949 0.027842,0.00633902 0.0494278,0.0197214 0.0648817,0.0400021 0.0153504,0.0201771 0.0230359,0.0454918 0.0230359,0.075861 0,0.0411 -0.0149153,0.0759646 -0.0449532,0.104573 -0.0299342,0.0286084 -0.0678441,0.0428609 -0.113667,0.0428609 -0.0413279,0 -0.0756539,-0.0122844 -0.102937,-0.0369362 -0.0273033,-0.0245482 -0.0428609,-0.0564504 -0.0466933,-0.0957067z"/>
 <path class="fil0" d="M-5.81655 -0.141468l0 -0.112694 -0.204236 0 0 -0.053053 0.214864 -0.305081 0.0472526 0 0 0.305081 0.0635766 0 0 0.053053 -0.0635766 0 0 0.112694 -0.0578798 0zm0 -0.165747l0 -0.212233 -0.14733 0.212233 0.14733 0z"/>
 <path class="fil0" d="M-6.00181 1.21115l0.0607178 -0.00515822c0.00449532,0.0296028 0.0149153,0.0517479 0.0312393,0.0666425 0.0164483,0.0149153 0.0361904,0.022373 0.0593092,0.022373 0.027842,0 0.0514165,-0.0105236 0.0705992,-0.0314672 0.0192864,-0.0210472 0.0289399,-0.0488891 0.0289399,-0.0835259 0,-0.0330002 -0.0092185,-0.0589777 -0.0277384,-0.0780569 -0.0185199,-0.0190585 -0.0427573,-0.0286084 -0.0727744,-0.0286084 -0.0186442,0 -0.0354239,0.00428816 -0.0504428,0.0127195 -0.0150189,0.00845202 -0.026744,0.0194106 -0.0352996,0.0328966l-0.0542545 -0.00702264 0.0455953 -0.241836 0.23415 0 0 0.0552489 -0.187892 0 -0.0254182 0.126511c0.028277,-0.0197214 0.0579834,-0.0296028 0.0890155,-0.0296028 0.0411,0 0.0757367,0.0142524 0.104014,0.0427573 0.0282977,0.0285049 0.0424258,0.0651096 0.0424258,0.109835 0,0.0426537 -0.0124916,0.0794863 -0.0372676,0.110498 -0.030245,0.0380548 -0.0714693,0.0571133 -0.123652,0.0571133 -0.0428609,0 -0.077829,-0.011953 -0.104905,-0.0359418 -0.0270755,-0.0240095 -0.0425294,-0.0558082 -0.0463618,-0.0953753z"/>
 <path class="fil0" d="M-5.70188 2.4549l-0.0574447 0.00449532c-0.00515822,-0.0226837 -0.012388,-0.0392356 -0.0218137,-0.0494278 -0.0156818,-0.0165726 -0.0349682,-0.024776 -0.0578798,-0.024776 -0.0184163,0 -0.0345331,0.0051375 -0.0484541,0.0154539 -0.0182091,0.0132581 -0.0325651,0.0326687 -0.0430887,0.0580869 -0.0103993,0.0254389 -0.015889,0.0617329 -0.016324,0.108861 0.013921,-0.0211508 0.0309079,-0.0369362 0.051085,-0.0472526 0.0200528,-0.0101921 0.0412036,-0.0153504 0.0632452,-0.0153504 0.0385934,0 0.0713657,0.0141489 0.0984412,0.0425501 0.0270755,0.0283806 0.040665,0.065006 0.040665,0.109938 0,0.0296028 -0.00646331,0.0570097 -0.0191828,0.0824279 -0.0127195,0.0253354 -0.030245,0.0448496 -0.0525144,0.0583355 -0.0222487,0.0134859 -0.0474598,0.0201564 -0.0757367,0.0201564 -0.048247,0 -0.0874826,-0.0176498 -0.117852,-0.0531566 -0.0304729,-0.0354032 -0.0455953,-0.0938423 -0.0455953,-0.175172 0,-0.0909835 0.0167798,-0.157087 0.0504221,-0.198415 0.0292713,-0.0359625 0.0687348,-0.0540474 0.118494,-0.0540474 0.0369569,0 0.0673054,0.01042 0.0909835,0.0312393 0.0236781,0.0207157 0.0378269,0.0494485 0.0425501,0.0860532zm-0.236014 0.202911c0,0.0199493 0.00426744,0.0390285 0.0127195,0.0572169 0.00843131,0.0182091 0.02026,0.0320058 0.0354032,0.0415558 0.0152261,0.00952924 0.0312393,0.014356 0.0478948,0.014356 0.0244446,0 0.0453882,-0.00986069 0.0629344,-0.0296028 0.0175255,-0.0197214 0.026309,-0.0464654 0.026309,-0.0802321 0,-0.0325651 -0.00865918,-0.0582112 -0.0259983,-0.076959 -0.0173184,-0.0187477 -0.039132,-0.0280698 -0.065441,-0.0280698 -0.0261847,0 -0.0483298,0.00932208 -0.066539,0.0280698 -0.0181884,0.0187477 -0.0272826,0.0432959 -0.0272826,0.0736652z"/>
 <path class="fil0" d="M-5.99797 3.87722l0 -0.0555596 0.304749 0 0 0.0449324c-0.0299342,0.0319022 -0.0596406,0.0743281 -0.0891191,0.127174 -0.0293956,0.0528251 -0.052183,0.107308 -0.0681962,0.163116 -0.0116215,0.0394635 -0.0189549,0.0825315 -0.0221451,0.129453l-0.0594127 0c0.000662904,-0.0370605 0.0078927,-0.0817857 0.0218137,-0.134279 0.013921,-0.0524108 0.0338702,-0.10304 0.0598478,-0.151722 0.0261018,-0.0486613 0.0537159,-0.089782 0.0831116,-0.123114l-0.230649 0z"/>
 <path class="fil0" d="M-5.91281 5.50697c-0.0239888,-0.00878347 -0.0417629,-0.0212751 -0.0533845,-0.0375991 -0.0114972,-0.0162411 -0.0173184,-0.0357347 -0.0173184,-0.0584391 0,-0.0343053 0.0122844,-0.063038 0.0369569,-0.0863846 0.0246517,-0.0233466 0.0573205,-0.0350717 0.0982133,-0.0350717 0.0411,0 0.0742038,0.011953 0.0993113,0.0358382 0.0250039,0.023906 0.0374955,0.0529494 0.0374955,0.0872754 0,0.0218137 -0.00569683,0.0407686 -0.0171112,0.056989 -0.0114972,0.0161168 -0.0288156,0.0286084 -0.0521622,0.0373919 0.0288156,0.00942566 0.0508571,0.0245482 0.0659796,0.0455953 0.0150189,0.0209436 0.0225802,0.0460511 0.0225802,0.0750946 0,0.0403335 -0.0142524,0.0741002 -0.042633,0.101507 -0.0285049,0.0274069 -0.0660004,0.0411 -0.112466,0.0411 -0.0464861,0 -0.083878,-0.0136931 -0.112362,-0.0412036 -0.0285049,-0.0275312 -0.0427573,-0.0618365 -0.0427573,-0.102937 0,-0.0305971 0.00778912,-0.0562432 0.0233466,-0.076959 0.0154539,-0.0206122 0.0375991,-0.0347403 0.0663111,-0.042198zm-0.0116008 -0.0980062c0,0.0222487 0.00722979,0.0404578 0.0214822,0.054586 0.014356,0.0141489 0.0330002,0.0212751 0.0558911,0.0212751 0.0222694,0 0.0405614,-0.00702264 0.0548139,-0.0210472 0.0142524,-0.0140453 0.0212751,-0.0312393 0.0212751,-0.05152 0,-0.0212751 -0.00722979,-0.0390285 -0.0219173,-0.0535088 -0.0147082,-0.0144596 -0.0328966,-0.0216894 -0.0548139,-0.0216894 -0.0220415,0 -0.0403543,0.00712621 -0.0549174,0.0211508 -0.0145839,0.0141489 -0.0218137,0.0311358 -0.0218137,0.0507536zm-0.0186442 0.217495c0,0.0164276 0.00393599,0.0324409 0.0117251,0.0477912 0.00778912,0.0154539 0.0194106,0.0274069 0.0348646,0.0358382 0.0154539,0.00845202 0.0320058,0.0127195 0.0497592,0.0127195 0.0276348,0 0.0504428,-0.00888705 0.0684034,-0.026744 0.0179813,-0.0177534 0.0269719,-0.0403543 0.0269719,-0.0677405 0,-0.0278627 -0.00919779,-0.0508779 -0.0277384,-0.0690663 -0.0185199,-0.0182091 -0.0417629,-0.0273033 -0.0696049,-0.0273033 -0.0271791,0 -0.0496556,0.00899063 -0.0675333,0.0269719 -0.017857,0.0180848 -0.0268476,0.0405614 -0.0268476,0.0675333z"/>
 <path class="fil0" d="M-5.99315 7.12934l0.0555803 -0.0051375c0.00470247,0.0260811 0.0136931,0.0450567 0.0269512,0.0568854 0.0132788,0.0117251 0.0302657,0.0176498 0.051085,0.0176498 0.0177534,0 0.0333316,-0.00406029 0.0466933,-0.0122844 0.0133824,-0.00809985 0.024341,-0.0189549 0.0328966,-0.0325444 0.00865918,-0.0135895 0.0157854,-0.0320058 0.0215858,-0.0550417 0.00571754,-0.0231188 0.00865918,-0.0466933 0.00865918,-0.0707028 0,-0.00252732 -0.000103579,-0.00646331 -0.000310736,-0.0114972 -0.0116215,0.018292 -0.0274069,0.0333109 -0.0473562,0.0447253 -0.0200736,0.0114972 -0.0417836,0.0171941 -0.065006,0.0171941 -0.0390285,0 -0.0720286,-0.0141281 -0.0990005,-0.0424258 -0.0269512,-0.028277 -0.0404371,-0.065441 -0.0404371,-0.111699 0,-0.0477912 0.0140246,-0.0861568 0.042198,-0.115325 0.0281734,-0.029147 0.063473,-0.0437309 0.105899,-0.0437309 0.0305764,0 0.058522,0.00832773 0.0839609,0.024776 0.0253146,0.0164483 0.0446217,0.0400021 0.0577762,0.070475 0.0131545,0.0304936 0.0197214,0.0746595 0.0197214,0.132539 0,0.0600756 -0.00646331,0.10797 -0.0195142,0.143705 -0.0131545,0.0356311 -0.0325444,0.0627065 -0.0583148,0.0813507 -0.025874,0.0186235 -0.0560154,0.0279455 -0.0907557,0.0279455 -0.0368326,0 -0.0668704,-0.0101921 -0.0902171,-0.03068 -0.0233466,-0.020405 -0.0373919,-0.049117 -0.0420944,-0.0861775zm0.236657 -0.207841c0,-0.0331038 -0.00876276,-0.0595163 -0.0264126,-0.078927 -0.0177534,-0.0195142 -0.0389042,-0.0292713 -0.0638045,-0.0292713 -0.0256461,0 -0.0479984,0.0105236 -0.0670776,0.0314672 -0.0190792,0.0210472 -0.0286084,0.048247 -0.0286084,0.0815579 0,0.0300378 0.00909421,0.0543788 0.0271791,0.0731266 0.0180848,0.0187477 0.0403335,0.0280491 0.0668704,0.0280491 0.0268476,0 0.0487856,-0.00930137 0.0660004,-0.0280491 0.0173184,-0.0187477 0.0258532,-0.0447253 0.0258532,-0.0779533z"/>
 <path class="fil0" d="M-5.96694 8.71414l-0.0577762 0 0 -0.368326c-0.013921,0.0132581 -0.0321094,0.0265369 -0.0546896,0.0397949 -0.0227045,0.0132581 -0.0429852,0.0232431 -0.0609664,0.02981l0 -0.0557875c0.032358,-0.0152468 0.060635,-0.0336631 0.0848517,-0.0552489 0.0241131,-0.0217101 0.0413279,-0.0426537 0.0514165,-0.063038l0.037164 0 0 0.472795zm0.148097 -0.232182c0,-0.0556839 0.00569683,-0.100513 0.0171941,-0.134383 0.0114144,-0.0339945 0.0285049,-0.0601792 0.051085,-0.0785955 0.0225802,-0.0184163 0.0509814,-0.0276348 0.0851831,-0.0276348 0.0253146,0 0.0474598,0.00515822 0.066539,0.0153504 0.0190792,0.0100886 0.0347403,0.024776 0.0472526,0.0439588 0.012388,0.0191828 0.0221451,0.0425294 0.029147,0.0700399 0.00712621,0.0275105 0.0106479,0.064571 0.0106479,0.111264 0,0.0552489 -0.00571754,0.099767 -0.0170076,0.133741 -0.0113937,0.0339738 -0.0283806,0.0601792 -0.0509607,0.0786991 -0.0225802,0.0185406 -0.051085,0.0277384 -0.0856182,0.0277384 -0.0453882,0 -0.0810193,-0.0162204 -0.106873,-0.0487856 -0.0310322,-0.039132 -0.0465897,-0.10304 -0.0465897,-0.191393zm0.0594127 0c0,0.0772904 0.00909421,0.128707 0.0271791,0.154353 0.0180848,0.0255425 0.0403335,0.0383656 0.0668704,0.0383656 0.0266404,0 0.0488891,-0.0129266 0.066974,-0.0385934 0.0180848,-0.0256461 0.0271998,-0.0770626 0.0271998,-0.154125 0,-0.0774976 -0.00911493,-0.129018 -0.0271998,-0.154457 -0.0180848,-0.0255425 -0.0405614,-0.038262 -0.0675126,-0.038262 -0.0266404,0 -0.0478119,0.0113108 -0.0637009,0.0337667 -0.0198457,0.0286084 -0.02981,0.0816822 -0.02981,0.158952z"/>
 <path class="fil0" d="M-5.96694 10.1901l-0.0577762 0 0 -0.368326c-0.013921,0.0132581 -0.0321094,0.0265369 -0.0546896,0.0397949 -0.0227045,0.0132581 -0.0429852,0.0232431 -0.0609664,0.02981l0 -0.0557875c0.032358,-0.0152468 0.060635,-0.0336631 0.0848517,-0.0552489 0.0241131,-0.0217101 0.0413279,-0.0426537 0.0514165,-0.063038l0.037164 0 0 0.472795zm0.365799 0l-0.0577762 0 0 -0.368326c-0.013921,0.0132581 -0.0321094,0.0265369 -0.0546896,0.0397949 -0.0227045,0.0132581 -0.0429852,0.0232431 -0.0609664,0.02981l0 -0.0557875c0.032358,-0.0152468 0.060635,-0.0336631 0.0848517,-0.0552489 0.0241131,-0.0217101 0.0413279,-0.0426537 0.0514165,-0.063038l0.037164 0 0 0.472795z"/>
 <path class="fil0" d="M-5.96694 11.666l-0.0577762 0 0 -0.368326c-0.013921,0.0132581 -0.0321094,0.0265369 -0.0546896,0.0397949 -0.0227045,0.0132581 -0.0429852,0.0232431 -0.0609664,0.02981l0 -0.0557875c0.032358,-0.0152468 0.060635,-0.0336631 0.0848517,-0.0552489 0.0241131,-0.0217101 0.0413279,-0.0426537 0.0514165,-0.063038l0.037164 0 0 0.472795zm0.148428 -0.124315l0.0577555 -0.00766482c0.00669118,0.0327723 0.0179813,0.0563468 0.0338702,0.0708064 0.0160133,0.0144803 0.0354239,0.0217101 0.0583355,0.0217101 0.0271791,0 0.0501942,-0.00942566 0.068942,-0.028277 0.0186442,-0.0188513 0.0280698,-0.0422187 0.0280698,-0.0700606 0,-0.0265161 -0.00865918,-0.0484541 -0.0259775,-0.0656482 -0.0174427,-0.0172148 -0.0394635,-0.025874 -0.0662282,-0.025874 -0.0109586,0 -0.0245482,0.00219587 -0.0407686,0.00646331l0.00646331 -0.0507536c0.00383241,0.000435031 0.00689834,0.000662904 0.00932208,0.000662904 0.0245482,0 0.0466933,-0.00646331 0.0664354,-0.0193071 0.0197214,-0.012823 0.0295821,-0.0326687 0.0295821,-0.0594127 0,-0.0211508 -0.00722979,-0.0388006 -0.0215858,-0.052618 -0.014356,-0.013921 -0.0328966,-0.0209229 -0.0555803,-0.0209229 -0.0224766,0 -0.0412243,0.00712621 -0.0561189,0.0211508 -0.0150189,0.0141489 -0.0246724,0.0354032 -0.0289399,0.0636802l-0.0577762 -0.0102957c0.00702264,-0.0388006 0.0231395,-0.0688384 0.0481227,-0.0901135 0.0251075,-0.0212544 0.0562432,-0.0320058 0.0935109,-0.0320058 0.0256461,0 0.0493242,0.00559325 0.0709307,0.0165519 0.0215858,0.0110829 0.0381377,0.0260811 0.0496556,0.0451603 0.0113937,0.0190792 0.0171941,0.0392563 0.0171941,0.0607386 0,0.0202807 -0.00546896,0.0388006 -0.0164276,0.0555803 -0.0109586,0.0166555 -0.0270755,0.0299135 -0.0484541,0.0397949 0.027842,0.00633902 0.0494278,0.0197214 0.0648817,0.0400021 0.0153504,0.0201771 0.0230359,0.0454918 0.0230359,0.075861 0,0.0411 -0.0149153,0.0759646 -0.0449532,0.104573 -0.0299342,0.0286084 -0.0678441,0.0428609 -0.113667,0.0428609 -0.0413279,0 -0.0756539,-0.0122844 -0.102937,-0.0369362 -0.0273033,-0.0245482 -0.0428609,-0.0564504 -0.0466933,-0.0957067z"/>
 <path class="fil0" d="M-5.96694 13.1419l-0.0577762 0 0 -0.368326c-0.013921,0.0132581 -0.0321094,0.0265369 -0.0546896,0.0397949 -0.0227045,0.0132581 -0.0429852,0.0232431 -0.0609664,0.02981l0 -0.0557875c0.032358,-0.0152468 0.060635,-0.0336631 0.0848517,-0.0552489 0.0241131,-0.0217101 0.0413279,-0.0426537 0.0514165,-0.063038l0.037164 0 0 0.472795zm0.333358 0l0 -0.112694 -0.204236 0 0 -0.053053 0.214864 -0.305081 0.0472526 0 0 0.305081 0.0635766 0 0 0.053053 -0.0635766 0 0 0.112694 -0.0578798 0zm0 -0.165747l0 -0.212233 -0.14733 0.212233 0.14733 0z"/>
 <path class="fil0" d="M-5.96694 14.6179l-0.0577762 0 0 -0.368326c-0.013921,0.0132581 -0.0321094,0.0265369 -0.0546896,0.0397949 -0.0227045,0.0132581 -0.0429852,0.0232431 -0.0609664,0.02981l0 -0.0557875c0.032358,-0.0152468 0.060635,-0.0336631 0.0848517,-0.0552489 0.0241131,-0.0217101 0.0413279,-0.0426537 0.0514165,-0.063038l0.037164 0 0 0.472795zm0.148097 -0.123321l0.0607178 -0.00515822c0.00449532,0.0296028 0.0149153,0.0517479 0.0312393,0.0666425 0.0164483,0.0149153 0.0361904,0.022373 0.0593092,0.022373 0.027842,0 0.0514165,-0.0105236 0.0705992,-0.0314672 0.0192864,-0.0210472 0.0289399,-0.0488891 0.0289399,-0.0835259 0,-0.0330002 -0.0092185,-0.0589777 -0.0277384,-0.0780569 -0.0185199,-0.0190585 -0.0427573,-0.0286084 -0.0727744,-0.0286084 -0.0186442,0 -0.0354239,0.00428816 -0.0504428,0.0127195 -0.0150189,0.00845202 -0.026744,0.0194106 -0.0352996,0.0328966l-0.0542545 -0.00702264 0.0455953 -0.241836 0.23415 0 0 0.0552489 -0.187892 0 -0.0254182 0.126511c0.028277,-0.0197214 0.0579834,-0.0296028 0.0890155,-0.0296028 0.0411,0 0.0757367,0.0142524 0.104014,0.0427573 0.0282977,0.0285049 0.0424258,0.0651096 0.0424258,0.109835 0,0.0426537 -0.0124916,0.0794863 -0.0372676,0.110498 -0.030245,0.0380548 -0.0714693,0.0571133 -0.123652,0.0571133 -0.0428609,0 -0.077829,-0.011953 -0.104905,-0.0359418 -0.0270755,-0.0240095 -0.0425294,-0.0558082 -0.0463618,-0.0953753z"/>
 <path class="fil0" d="M-5.96694 16.0938l-0.0577762 0 0 -0.368326c-0.013921,0.0132581 -0.0321094,0.0265369 -0.0546896,0.0397949 -0.0227045,0.0132581 -0.0429852,0.0232431 -0.0609664,0.02981l0 -0.0557875c0.032358,-0.0152468 0.060635,-0.0336631 0.0848517,-0.0552489 0.0241131,-0.0217101 0.0413279,-0.0426537 0.0514165,-0.063038l0.037164 0 0 0.472795zm0.448019 -0.355503l-0.0574447 0.00449532c-0.00515822,-0.0226837 -0.012388,-0.0392356 -0.0218137,-0.0494278 -0.0156818,-0.0165726 -0.0349682,-0.024776 -0.0578798,-0.024776 -0.0184163,0 -0.0345331,0.0051375 -0.0484541,0.0154539 -0.0182091,0.0132581 -0.0325651,0.0326687 -0.0430887,0.0580869 -0.0103993,0.0254389 -0.015889,0.0617329 -0.016324,0.108861 0.013921,-0.0211508 0.0309079,-0.0369362 0.051085,-0.0472526 0.0200528,-0.0101921 0.0412036,-0.0153504 0.0632452,-0.0153504 0.0385934,0 0.0713657,0.0141489 0.0984412,0.0425501 0.0270755,0.0283806 0.040665,0.065006 0.040665,0.109938 0,0.0296028 -0.00646331,0.0570097 -0.0191828,0.0824279 -0.0127195,0.0253354 -0.030245,0.0448496 -0.0525144,0.0583355 -0.0222487,0.0134859 -0.0474598,0.0201564 -0.0757367,0.0201564 -0.048247,0 -0.0874826,-0.0176498 -0.117852,-0.0531566 -0.0304729,-0.0354032 -0.0455953,-0.0938423 -0.0455953,-0.175172 0,-0.0909835 0.0167798,-0.157087 0.0504221,-0.198415 0.0292713,-0.0359625 0.0687348,-0.0540474 0.118494,-0.0540474 0.0369569,0 0.0673054,0.01042 0.0909835,0.0312393 0.0236781,0.0207157 0.0378269,0.0494485 0.0425501,0.0860532zm-0.236014 0.202911c0,0.0199493 0.00426744,0.0390285 0.0127195,0.0572169 0.00843131,0.0182091 0.02026,0.0320058 0.0354032,0.0415558 0.0152261,0.00952924 0.0312393,0.014356 0.0478948,0.014356 0.0244446,0 0.0453882,-0.00986069 0.0629344,-0.0296028 0.0175255,-0.0197214 0.026309,-0.0464654 0.026309,-0.0802321 0,-0.0325651 -0.00865918,-0.0582112 -0.0259983,-0.076959 -0.0173184,-0.0187477 -0.039132,-0.0280698 -0.065441,-0.0280698 -0.0261847,0 -0.0483298,0.00932208 -0.066539,0.0280698 -0.0181884,0.0187477 -0.0272826,0.0432959 -0.0272826,0.0736652z"/>
 <path class="fil0" d="M-5.96694 17.5697l-0.0577762 0 0 -0.368326c-0.013921,0.0132581 -0.0321094,0.0265369 -0.0546896,0.0397949 -0.0227045,0.0132581 -0.0429852,0.0232431 -0.0609664,0.02981l0 -0.0557875c0.032358,-0.0152468 0.060635,-0.0336631 0.0848517,-0.0552489 0.0241131,-0.0217101 0.0413279,-0.0426537 0.0514165,-0.063038l0.037164 0 0 0.472795zm0.151929 -0.409115l0 -0.0555596 0.304749 0 0 0.0449324c-0.0299342,0.0319022 -0.0596406,0.0743281 -0.0891191,0.127174 -0.0293956,0.0528251 -0.052183,0.107308 -0.0681962,0.163116 -0.0116215,0.0394635 -0.0189549,0.0825315 -0.0221451,0.129453l-0.0594127 0c0.000662904,-0.0370605 0.0078927,-0.0817857 0.0218137,-0.134279 0.013921,-0.0524108 0.0338702,-0.10304 0.0598478,-0.151722 0.0261018,-0.0486613 0.0537159,-0.089782 0.0831116,-0.123114l-0.230649 0z"/>
 <path class="fil0" d="M-5.96694 19.0457l-0.0577762 0 0 -0.368326c-0.013921,0.0132581 -0.0321094,0.0265369 -0.0546896,0.0397949 -0.0227045,0.0132581 -0.0429852,0.0232431 -0.0609664,0.02981l0 -0.0557875c0.032358,-0.0152468 0.060635,-0.0336631 0.0848517,-0.0552489 0.0241131,-0.0217101 0.0413279,-0.0426537 0.0514165,-0.063038l0.037164 0 0 0.472795zm0.237092 -0.255301c-0.0239888,-0.00878347 -0.0417629,-0.0212751 -0.0533845,-0.0375991 -0.0114972,-0.0162411 -0.0173184,-0.0357347 -0.0173184,-0.0584391 0,-0.0343053 0.0122844,-0.063038 0.0369569,-0.0863846 0.0246517,-0.0233466 0.0573205,-0.0350717 0.0982133,-0.0350717 0.0411,0 0.0742038,0.011953 0.0993113,0.0358382 0.0250039,0.023906 0.0374955,0.0529494 0.0374955,0.0872754 0,0.0218137 -0.00569683,0.0407686 -0.0171112,0.056989 -0.0114972,0.0161168 -0.0288156,0.0286084 -0.0521622,0.0373919 0.0288156,0.00942566 0.0508571,0.0245482 0.0659796,0.0455953 0.0150189,0.0209436 0.0225802,0.0460511 0.0225802,0.0750946 0,0.0403335 -0.0142524,0.0741002 -0.042633,0.101507 -0.0285049,0.0274069 -0.0660004,0.0411 -0.112466,0.0411 -0.0464861,0 -0.083878,-0.0136931 -0.112362,-0.0412036 -0.0285049,-0.0275312 -0.0427573,-0.0618365 -0.0427573,-0.102937 0,-0.0305971 0.00778912,-0.0562432 0.0233466,-0.076959 0.0154539,-0.0206122 0.0375991,-0.0347403 0.0663111,-0.042198zm-0.0116008 -0.0980062c0,0.0222487 0.00722979,0.0404578 0.0214822,0.054586 0.014356,0.0141489 0.0330002,0.0212751 0.0558911,0.0212751 0.0222694,0 0.0405614,-0.00702264 0.0548139,-0.0210472 0.0142524,-0.0140453 0.0212751,-0.0312393 0.0212751,-0.05152 0,-0.0212751 -0.00722979,-0.0390285 -0.0219173,-0.0535088 -0.0147082,-0.0144596 -0.0328966,-0.0216894 -0.0548139,-0.0216894 -0.0220415,0 -0.0403543,0.00712621 -0.0549174,0.0211508 -0.0145839,0.0141489 -0.0218137,0.0311358 -0.0218137,0.0507536zm-0.0186442 0.217495c0,0.0164276 0.00393599,0.0324409 0.0117251,0.0477912 0.00778912,0.0154539 0.0194106,0.0274069 0.0348646,0.0358382 0.0154539,0.00845202 0.0320058,0.0127195 0.0497592,0.0127195 0.0276348,0 0.0504428,-0.00888705 0.0684034,-0.026744 0.0179813,-0.0177534 0.0269719,-0.0403543 0.0269719,-0.0677405 0,-0.0278627 -0.00919779,-0.0508779 -0.0277384,-0.0690663 -0.0185199,-0.0182091 -0.0417629,-0.0273033 -0.0696049,-0.0273033 -0.0271791,0 -0.0496556,0.00899063 -0.0675333,0.0269719 -0.017857,0.0180848 -0.0268476,0.0405614 -0.0268476,0.0675333z"/>
 <path class="fil0" d="M-5.96694 20.5216l-0.0577762 0 0 -0.368326c-0.013921,0.0132581 -0.0321094,0.0265369 -0.0546896,0.0397949 -0.0227045,0.0132581 -0.0429852,0.0232431 -0.0609664,0.02981l0 -0.0557875c0.032358,-0.0152468 0.060635,-0.0336631 0.0848517,-0.0552489 0.0241131,-0.0217101 0.0413279,-0.0426537 0.0514165,-0.063038l0.037164 0 0 0.472795zm0.156756 -0.108861l0.0555803 -0.0051375c0.00470247,0.0260811 0.0136931,0.0450567 0.0269512,0.0568854 0.0132788,0.0117251 0.0302657,0.0176498 0.051085,0.0176498 0.0177534,0 0.0333316,-0.00406029 0.0466933,-0.0122844 0.0133824,-0.00809985 0.024341,-0.0189549 0.0328966,-0.0325444 0.00865918,-0.0135895 0.0157854,-0.0320058 0.0215858,-0.0550417 0.00571754,-0.0231188 0.00865918,-0.0466933 0.00865918,-0.0707028 0,-0.00252732 -0.000103579,-0.00646331 -0.000310736,-0.0114972 -0.0116215,0.018292 -0.0274069,0.0333109 -0.0473562,0.0447253 -0.0200736,0.0114972 -0.0417836,0.0171941 -0.065006,0.0171941 -0.0390285,0 -0.0720286,-0.0141281 -0.0990005,-0.0424258 -0.0269512,-0.028277 -0.0404371,-0.065441 -0.0404371,-0.111699 0,-0.0477912 0.0140246,-0.0861568 0.042198,-0.115325 0.0281734,-0.029147 0.063473,-0.0437309 0.105899,-0.0437309 0.0305764,0 0.058522,0.00832773 0.0839609,0.024776 0.0253146,0.0164483 0.0446217,0.0400021 0.0577762,0.070475 0.0131545,0.0304936 0.0197214,0.0746595 0.0197214,0.132539 0,0.0600756 -0.00646331,0.10797 -0.0195142,0.143705 -0.0131545,0.0356311 -0.0325444,0.0627065 -0.0583148,0.0813507 -0.025874,0.0186235 -0.0560154,0.0279455 -0.0907557,0.0279455 -0.0368326,0 -0.0668704,-0.0101921 -0.0902171,-0.03068 -0.0233466,-0.020405 -0.0373919,-0.049117 -0.0420944,-0.0861775zm0.236657 -0.207841c0,-0.0331038 -0.00876276,-0.0595163 -0.0264126,-0.078927 -0.0177534,-0.0195142 -0.0389042,-0.0292713 -0.0638045,-0.0292713 -0.0256461,0 -0.0479984,0.0105236 -0.0670776,0.0314672 -0.0190792,0.0210472 -0.0286084,0.048247 -0.0286084,0.0815579 0,0.0300378 0.00909421,0.0543788 0.0271791,0.0731266 0.0180848,0.0187477 0.0403335,0.0280491 0.0668704,0.0280491 0.0268476,0 0.0487856,-0.00930137 0.0660004,-0.0280491 0.0173184,-0.0187477 0.0258532,-0.0447253 0.0258532,-0.0779533z"/>
 <path class="fil0" d="M-5.88078 21.942l0 0.0555803 -0.311213 0c-0.000435031,-0.013921 0.00176084,-0.0273033 0.00669118,-0.0401264 0.0078927,-0.0212544 0.0206122,-0.0420944 0.0380341,-0.0627065 0.0175462,-0.0204879 0.0427573,-0.0442695 0.0756332,-0.0712414 0.0512093,-0.0419908 0.085846,-0.0751981 0.103827,-0.099767 0.0179605,-0.0244446 0.0269512,-0.0476669 0.0269512,-0.0695013 0,-0.0228909 -0.00822415,-0.042198 -0.0245482,-0.0579834 -0.0164483,-0.0156818 -0.0378269,-0.0235745 -0.0641359,-0.0235745 -0.027842,0 -0.0500907,0.00834844 -0.0667461,0.0251075 -0.0167798,0.0166762 -0.0252111,0.0397949 -0.0254389,0.0692942l-0.0594127 -0.00602828c0.00406029,-0.0444145 0.0194106,-0.0781605 0.0459268,-0.101404 0.0265369,-0.0232431 0.0622715,-0.0348646 0.106997,-0.0348646 0.0451603,0 0.080895,0.0126159 0.107204,0.0375991 0.0264126,0.0251075 0.0395671,0.0561189 0.0395671,0.0931794 0,0.0188513 -0.00383241,0.0373712 -0.0116215,0.0555803 -0.00766482,0.0181884 -0.0204879,0.0373712 -0.0383656,0.0574447 -0.017857,0.0201564 -0.0475633,0.0477912 -0.0891191,0.082863 -0.0346367,0.0291678 -0.0568854,0.0488891 -0.0667461,0.0593092 -0.00988141,0.0102957 -0.0179813,0.0207157 -0.0244446,0.0312393l0.23096 0zm0.0619401 -0.176602c0,-0.0556839 0.00569683,-0.100513 0.0171941,-0.134383 0.0114144,-0.0339945 0.0285049,-0.0601792 0.051085,-0.0785955 0.0225802,-0.0184163 0.0509814,-0.0276348 0.0851831,-0.0276348 0.0253146,0 0.0474598,0.00515822 0.066539,0.0153504 0.0190792,0.0100886 0.0347403,0.024776 0.0472526,0.0439588 0.012388,0.0191828 0.0221451,0.0425294 0.029147,0.0700399 0.00712621,0.0275105 0.0106479,0.064571 0.0106479,0.111264 0,0.0552489 -0.00571754,0.099767 -0.0170076,0.133741 -0.0113937,0.0339738 -0.0283806,0.0601792 -0.0509607,0.0786991 -0.0225802,0.0185406 -0.051085,0.0277384 -0.0856182,0.0277384 -0.0453882,0 -0.0810193,-0.0162204 -0.106873,-0.0487856 -0.0310322,-0.039132 -0.0465897,-0.10304 -0.0465897,-0.191393zm0.0594127 0c0,0.0772904 0.00909421,0.128707 0.0271791,0.154353 0.0180848,0.0255425 0.0403335,0.0383656 0.0668704,0.0383656 0.0266404,0 0.0488891,-0.0129266 0.066974,-0.0385934 0.0180848,-0.0256461 0.0271998,-0.0770626 0.0271998,-0.154125 0,-0.0774976 -0.00911493,-0.129018 -0.0271998,-0.154457 -0.0180848,-0.0255425 -0.0405614,-0.038262 -0.0675126,-0.038262 -0.0266404,0 -0.0478119,0.0113108 -0.0637009,0.0337667 -0.0198457,0.0286084 -0.02981,0.0816822 -0.02981,0.158952z"/>
</symbol>
<symbol id="Fm3-53736-0" viewBox="-9.58731 -17.3815 53.4486 41.7554">
 <path class="fil3" d="M43.8613 -16.7968c0,-0.32155 -0.26309,-0.58464 -0.58464,-0.58464l-52.2793 0c-0.32155,0 -0.58464,0.26309 -0.58464,0.58464l0 40.5861c0,0.32155 0.26309,0.58464 0.58464,0.58464l52.2793 0c0.32155,0 0.58464,-0.26309 0.58464,-0.58464l0 -40.5861z"/>
</symbol>
<symbol id="Fm25-53731-0" viewBox="14.4599 1.62065 6.42986 1.4858">
 <polygon class="fil2" points="14.5147,1.67547 20.835,1.67547 20.835,3.05172 14.5147,3.05172 "/>
 <path class="fil3" d="M20.8898 1.62065l-6.42986 0 0 1.4858 6.42986 0 0 -1.4858zm-0.109628 1.37617l-6.2106 0 0 -1.26654 6.2106 0 0 1.26654z"/>
</symbol>
<symbol id="Fm20-53726-0" viewBox="-4.82706 -4.3137 6.42986 1.4858">
 <polygon class="fil2" points="-4.77216,-4.25889 1.54798,-4.25889 1.54798,-2.88264 -4.77216,-2.88264 "/>
 <path class="fil3" d="M1.6028 -4.3137l-6.42986 0 0 1.4858 6.42986 0 0 -1.4858zm-0.109628 1.37625l-6.2106 0 0 -1.26656 6.2106 0 0 1.26656z"/>
</symbol>
<symbol id="Fm32-53739-0" viewBox="33.7712 -4.3137 6.42983 1.4858">
 <polygon class="fil5" points="33.826,-4.25889 40.1463,-4.25889 40.1463,-2.88264 33.826,-2.88264 "/>
 <path class="fil3" d="M40.2011 -4.3137l-6.42983 0 0 1.4858 6.42983 0 0 -1.4858zm-0.109607 1.37625l-6.2106 0 0 -1.26656 6.2106 0 0 1.26656z"/>
</symbol>
<symbol id="Fm19-53724-0" viewBox="1.6028 -2.82784 6.42983 1.48582">
 <polygon class="fil2" points="1.65761,-2.77303 7.97776,-2.77303 7.97776,-1.39684 1.65761,-1.39684 "/>
 <path class="fil3" d="M8.03263 -2.82784l-6.42983 0 0 1.48582 6.42983 0 0 -1.48582zm-0.109607 1.37619l-6.21062 0 0 -1.26656 6.21062 0 0 1.26656z"/>
</symbol>
<symbol id="Fm16-53721-0" viewBox="-4.85745 -5.82676 45.0454 35.6964">
 <polygon class="fil1 str0" points="-4.83918,-5.80849 40.1696,-5.80849 40.1696,29.8514 -4.83918,29.8514 "/>
 <line class="fil1 str0" x1="-4.83918" y1="19.4506" x2="40.1696" y2= "19.4506" />
 <line class="fil1 str0" x1="-4.83918" y1="17.9648" x2="40.1696" y2= "17.9648" />
 <line class="fil1 str0" x1="-4.83918" y1="16.4789" x2="40.1696" y2= "16.4789" />
 <line class="fil1 str0" x1="-4.83918" y1="14.9931" x2="40.1696" y2= "14.9931" />
 <line class="fil1 str0" x1="-4.83918" y1="13.5073" x2="40.1696" y2= "13.5073" />
 <line class="fil1 str0" x1="-4.83918" y1="12.0214" x2="40.1696" y2= "12.0214" />
 <line class="fil1 str0" x1="-4.83918" y1="10.5356" x2="40.1696" y2= "10.5356" />
 <line class="fil1 str0" x1="-4.83918" y1="9.0498" x2="40.1696" y2= "9.0498" />
 <line class="fil1 str0" x1="-4.83918" y1="7.56396" x2="40.1696" y2= "7.56396" />
 <line class="fil1 str0" x1="-4.83918" y1="6.07812" x2="40.1696" y2= "6.07812" />
 <line class="fil1 str0" x1="-4.83918" y1="4.59231" x2="40.1696" y2= "4.59231" />
 <line class="fil1 str0" x1="-4.83918" y1="3.10647" x2="40.1696" y2= "3.10647" />
 <line class="fil1 str0" x1="-4.83918" y1="1.62063" x2="40.1696" y2= "1.62063" />
 <line class="fil1 str0" x1="-4.83918" y1="0.134818" x2="40.1696" y2= "0.134818" />
 <line class="fil1 str0" x1="-4.83918" y1="-1.35102" x2="40.1696" y2= "-1.35102" />
 <line class="fil1 str0" x1="-4.83918" y1="-2.83686" x2="40.1696" y2= "-2.83686" />
 <line class="fil1 str0" x1="-4.83918" y1="-4.32267" x2="40.1696" y2= "-4.32267" />
 <line class="fil1 str0" x1="33.7398" y1="-5.80851" x2="33.7398" y2= "29.8514" />
 <line class="fil1 str0" x1="27.31" y1="-5.80851" x2="27.31" y2= "29.8514" />
 <line class="fil1 str0" x1="20.8801" y1="-5.80851" x2="20.8801" y2= "29.8514" />
 <line class="fil1 str0" x1="14.4503" y1="-5.80851" x2="14.4503" y2= "29.8514" />
 <line class="fil1 str0" x1="8.02047" y1="-5.80851" x2="8.02047" y2= "29.8514" />
 <line class="fil1 str0" x1="1.59064" y1="-5.80851" x2="1.59064" y2= "29.8514" />
</symbol>
<symbol id="Fm29-53735-0" viewBox="14.4522 -4.3137 6.42986 1.4858">
 <polygon class="fil5" points="14.5071,-4.25889 20.8272,-4.25889 20.8272,-2.88264 14.5071,-2.88264 "/>
 <path class="fil3" d="M20.882 -4.3137l-6.42986 0 0 1.4858 6.42986 0 0 -1.4858zm-0.109628 1.37625l-6.2106 0 0 -1.26656 6.2106 0 0 1.26656z"/>
</symbol>
<symbol id="Fm24-53730-0" viewBox="27.3196 -4.3137 6.42986 1.4858">
 <polygon class="fil2" points="27.3744,-4.25889 33.6946,-4.25889 33.6946,-2.88264 27.3744,-2.88264 "/>
 <path class="fil3" d="M33.7495 -4.3137l-6.42986 0 0 1.4858 6.42986 0 0 -1.4858zm-0.109628 1.37625l-6.2106 0 0 -1.26656 6.2106 0 0 1.26656z"/>
</symbol>
 <g id="Layer_x0020_1">
  <metadata id="CorelCorpID_0Corel-Layer"/>
  <path class="fil1 str3" d="M0.51866 0.125558c0.0690663,0.0189963 0.127609,0.0529701 0.173059,0.107411 0.0486613,0.0585427 0.0753432,0.125703 0.0761511,0.201999 0.000870061,0.0866747 -0.000372883,0.173349 0.00116008,0.260024 0.000227873,0.0131545 0.00754053,0.0283598 0.0163033,0.0387384 0.0181263,0.0214822 0.0379305,0.0422394 0.0597856,0.0599306 0.0248382,0.0200114 0.028712,0.0437724 0.0220001,0.0735202l-0.845989 0c-0.0052618,-0.0279248 -0.00577969,-0.0534259 0.0208193,-0.0722151 0.0640945,-0.0451603 0.0863225,-0.105298 0.0783469,-0.184018 -0.0067119,-0.0661246 -0.0047439,-0.134093 0.00205086,-0.200301 0.0142524,-0.137843 0.0915014,-0.229696 0.221141,-0.276327 0.0209643,-0.00751981 0.0268269,-0.0160754 0.026744,-0.0371226 -0.00029002,-0.0473562 0.0304729,-0.078782 0.0735202,-0.078927 0.0442903,-0.000227873 0.0741002,0.0320058 0.0749081,0.08104 0.00014501,0.00841059 0,0.0168212 0,0.0262468z"/>
  <path class="fil1 str3" d="M0.344316 0.9204l0.198187 0c-0.00190585,0.0562018 -0.0428194,0.0973433 -0.0965354,0.0986691 -0.0540059,0.00130509 -0.0969082,-0.0392563 -0.101652,-0.0986691z"/>
 </g>
</svg>
