<?xml version="1.0" encoding="UTF-8"?>
<!DOCTYPE svg PUBLIC "-//W3C//DTD SVG 1.1//EN" "http://www.w3.org/Graphics/SVG/1.1/DTD/svg11.dtd">
<!-- Creator: CorelDRAW -->
<svg xmlns="http://www.w3.org/2000/svg" xml:space="preserve" width="64px" height="71px" style="shape-rendering:geometricPrecision; text-rendering:geometricPrecision; image-rendering:optimizeQuality; fill-rule:evenodd; clip-rule:evenodd"
viewBox="0 0 7.61875 8.442"
 xmlns:xlink="http://www.w3.org/1999/xlink">
 <defs>
  <style type="text/css">
   <![CDATA[
    .str2 {stroke:white;stroke-width:0.246641}
    .str0 {stroke:#231F20;stroke-width:0.246641}
    .str1 {stroke:#686868;stroke-width:0.246641}
    .fil2 {fill:none;fill-rule:nonzero}
    .fil6 {fill:#686868;fill-rule:nonzero}
    .fil5 {fill:lightgrey;fill-rule:nonzero}
    .fil3 {fill:#F9F9F9;fill-rule:nonzero}
    .fil0 {fill:#FF7676;fill-rule:nonzero}
    .fil4 {fill:#FFD550;fill-rule:nonzero}
    .fil1 {fill:white;fill-rule:nonzero}
    .fil7 {fill:url(#id2)}
   ]]>
  </style>
  <clipPath id="id0" style="clip-rule:nonzero">
   <rect x="48.7733" y="-247.455" width="49.0476" height="40.6186"/>
  </clipPath>
  <pattern id="id1" patternUnits="userSpaceOnUse" patternTransform="matrix(1 0 0 1 -389.607 200.872)" x="0" y="0" width="14.4524" height="14.4521" viewBox="32 -10.0461 14.2058 14.2055">
   <polygon id="1" class="fil1" points="-3.51408,-45.5602 81.7198,-45.5602 81.7198,39.6734 -3.51408,39.6734 "/>
   <path id="12" class="fil1" d="M46.2055 4.51434c0.195327,0 0.355141,-0.159394 0.355141,-0.355141 0,-0.196306 -0.159813,-0.354721 -0.355141,-0.354721 -0.196306,0 -0.355141,0.158415 -0.355141,0.354721 0,0.195747 0.158835,0.355141 0.355141,0.355141z"/>
   <path id="123" class="fil2 str2" d="M46.2055 4.51434c0.195327,0 0.355141,-0.159394 0.355141,-0.355141 0,-0.196306 -0.159813,-0.354721 -0.355141,-0.354721 -0.196306,0 -0.355141,0.158415 -0.355141,0.354721 0,0.195747 0.158835,0.355141 0.355141,0.355141z"/>
   <path id="1234" class="fil1" d="M39.1025 4.51434c0.195747,0 0.355141,-0.159394 0.355141,-0.355141 0,-0.196306 -0.159394,-0.354721 -0.355141,-0.354721 -0.195887,0 -0.355141,0.158415 -0.355141,0.354721 0,0.195747 0.159254,0.355141 0.355141,0.355141z"/>
   <path id="12345" class="fil2 str2" d="M39.1025 4.51434c0.195747,0 0.355141,-0.159394 0.355141,-0.355141 0,-0.196306 -0.159394,-0.354721 -0.355141,-0.354721 -0.195887,0 -0.355141,0.158415 -0.355141,0.354721 0,0.195747 0.159254,0.355141 0.355141,0.355141z"/>
   <path id="123456" class="fil1" d="M46.2055 -2.58819c0.195327,0 0.355141,-0.159394 0.355141,-0.3557 0,-0.196306 -0.159813,-0.354581 -0.355141,-0.354581 -0.196306,0 -0.355141,0.158275 -0.355141,0.354581 0,0.196306 0.158835,0.3557 0.355141,0.3557z"/>
   <path id="1234567" class="fil2 str2" d="M46.2055 -2.58819c0.195327,0 0.355141,-0.159394 0.355141,-0.3557 0,-0.196306 -0.159813,-0.354581 -0.355141,-0.354581 -0.196306,0 -0.355141,0.158275 -0.355141,0.354581 0,0.196306 0.158835,0.3557 0.355141,0.3557z"/>
   <path id="12345678" class="fil1" d="M39.1025 -2.58819c0.195747,0 0.355141,-0.159394 0.355141,-0.3557 0,-0.196306 -0.159394,-0.354581 -0.355141,-0.354581 -0.195887,0 -0.355141,0.158275 -0.355141,0.354581 0,0.196306 0.159254,0.3557 0.355141,0.3557z"/>
   <path id="123456789" class="fil2 str2" d="M39.1025 -2.58819c0.195747,0 0.355141,-0.159394 0.355141,-0.3557 0,-0.196306 -0.159394,-0.354581 -0.355141,-0.354581 -0.195887,0 -0.355141,0.158275 -0.355141,0.354581 0,0.196306 0.159254,0.3557 0.355141,0.3557z"/>
   <path id="12345678910" class="fil1" d="M35.5513 0.962795c0.195747,0 0.355141,-0.158835 0.355141,-0.355141 0,-0.196306 -0.159394,-0.354721 -0.355141,-0.354721 -0.196306,0 -0.355141,0.158415 -0.355141,0.354721 0,0.196306 0.158835,0.355141 0.355141,0.355141z"/>
   <path id="1234567891011" class="fil2 str2" d="M35.5513 0.962795c0.195747,0 0.355141,-0.158835 0.355141,-0.355141 0,-0.196306 -0.159394,-0.354721 -0.355141,-0.354721 -0.196306,0 -0.355141,0.158415 -0.355141,0.354721 0,0.196306 0.158835,0.355141 0.355141,0.355141z"/>
   <path id="123456789101112" class="fil1" d="M42.6541 0.962795c0.195747,0 0.355141,-0.158835 0.355141,-0.355141 0,-0.196306 -0.159394,-0.354721 -0.355141,-0.354721 -0.196306,0 -0.355141,0.158415 -0.355141,0.354721 0,0.196306 0.158835,0.355141 0.355141,0.355141z"/>
   <path id="12345678910111213" class="fil2 str2" d="M42.6541 0.962795c0.195747,0 0.355141,-0.158835 0.355141,-0.355141 0,-0.196306 -0.159394,-0.354721 -0.355141,-0.354721 -0.196306,0 -0.355141,0.158415 -0.355141,0.354721 0,0.196306 0.158835,0.355141 0.355141,0.355141z"/>
   <path id="1234567891011121314" class="fil1" d="M35.5513 -6.1403c0.195747,0 0.355141,-0.158695 0.355141,-0.354581 0,-0.196306 -0.159394,-0.355141 -0.355141,-0.355141 -0.196306,0 -0.355141,0.158835 -0.355141,0.355141 0,0.195887 0.158835,0.354581 0.355141,0.354581z"/>
   <path id="123456789101112131415" class="fil2 str2" d="M35.5513 -6.1403c0.195747,0 0.355141,-0.158695 0.355141,-0.354581 0,-0.196306 -0.159394,-0.355141 -0.355141,-0.355141 -0.196306,0 -0.355141,0.158835 -0.355141,0.355141 0,0.195887 0.158835,0.354581 0.355141,0.354581z"/>
   <path id="12345678910111213141516" class="fil1" d="M42.6541 -6.1403c0.195747,0 0.355141,-0.158695 0.355141,-0.354581 0,-0.196306 -0.159394,-0.355141 -0.355141,-0.355141 -0.196306,0 -0.355141,0.158835 -0.355141,0.355141 0,0.195887 0.158835,0.354581 0.355141,0.354581z"/>
   <path id="1234567891011121314151617" class="fil2 str2" d="M42.6541 -6.1403c0.195747,0 0.355141,-0.158695 0.355141,-0.354581 0,-0.196306 -0.159394,-0.355141 -0.355141,-0.355141 -0.196306,0 -0.355141,0.158835 -0.355141,0.355141 0,0.195887 0.158835,0.354581 0.355141,0.354581z"/>
   <path id="123456789101112131415161718" class="fil1" d="M31.9997 4.51434c0.195327,0 0.355141,-0.159394 0.355141,-0.355141 0,-0.196306 -0.159813,-0.354721 -0.355141,-0.354721 -0.196306,0 -0.355141,0.158415 -0.355141,0.354721 0,0.195747 0.158835,0.355141 0.355141,0.355141z"/>
   <path id="12345678910111213141516171819" class="fil2 str2" d="M31.9997 4.51434c0.195327,0 0.355141,-0.159394 0.355141,-0.355141 0,-0.196306 -0.159813,-0.354721 -0.355141,-0.354721 -0.196306,0 -0.355141,0.158415 -0.355141,0.354721 0,0.195747 0.158835,0.355141 0.355141,0.355141z"/>
   <path id="1234567891011121314151617181920" class="fil1" d="M31.9997 -2.58819c0.195327,0 0.355141,-0.159394 0.355141,-0.3557 0,-0.196306 -0.159813,-0.354581 -0.355141,-0.354581 -0.196306,0 -0.355141,0.158275 -0.355141,0.354581 0,0.196306 0.158835,0.3557 0.355141,0.3557z"/>
   <path id="123456789101112131415161718192021" class="fil2 str2" d="M31.9997 -2.58819c0.195327,0 0.355141,-0.159394 0.355141,-0.3557 0,-0.196306 -0.159813,-0.354581 -0.355141,-0.354581 -0.196306,0 -0.355141,0.158275 -0.355141,0.354581 0,0.196306 0.158835,0.3557 0.355141,0.3557z"/>
   <path id="12345678910111213141516171819202122" class="fil1" d="M46.2055 -9.69129c0.195327,0 0.355141,-0.159254 0.355141,-0.355141 0,-0.196306 -0.159813,-0.354581 -0.355141,-0.354581 -0.196306,0 -0.355141,0.158275 -0.355141,0.354581 0,0.195887 0.158835,0.355141 0.355141,0.355141z"/>
   <path id="1234567891011121314151617181920212223" class="fil2 str2" d="M46.2055 -9.69129c0.195327,0 0.355141,-0.159254 0.355141,-0.355141 0,-0.196306 -0.159813,-0.354581 -0.355141,-0.354581 -0.196306,0 -0.355141,0.158275 -0.355141,0.354581 0,0.195887 0.158835,0.355141 0.355141,0.355141z"/>
   <path id="123456789101112131415161718192021222324" class="fil1" d="M39.1025 -9.69129c0.195747,0 0.355141,-0.159254 0.355141,-0.355141 0,-0.196306 -0.159394,-0.354581 -0.355141,-0.354581 -0.195887,0 -0.355141,0.158275 -0.355141,0.354581 0,0.195887 0.159254,0.355141 0.355141,0.355141z"/>
   <path id="12345678910111213141516171819202122232425" class="fil2 str2" d="M39.1025 -9.69129c0.195747,0 0.355141,-0.159254 0.355141,-0.355141 0,-0.196306 -0.159394,-0.354581 -0.355141,-0.354581 -0.195887,0 -0.355141,0.158275 -0.355141,0.354581 0,0.195887 0.159254,0.355141 0.355141,0.355141z"/>
   <path id="1234567891011121314151617181920212223242526" class="fil1" d="M31.9997 -9.69129c0.195327,0 0.355141,-0.159254 0.355141,-0.355141 0,-0.196306 -0.159813,-0.354581 -0.355141,-0.354581 -0.196306,0 -0.355141,0.158275 -0.355141,0.354581 0,0.195887 0.158835,0.355141 0.355141,0.355141z"/>
   <path id="123456789101112131415161718192021222324252627" class="fil2 str2" d="M31.9997 -9.69129c0.195327,0 0.355141,-0.159254 0.355141,-0.355141 0,-0.196306 -0.159813,-0.354581 -0.355141,-0.354581 -0.196306,0 -0.355141,0.158275 -0.355141,0.354581 0,0.195887 0.158835,0.355141 0.355141,0.355141z"/>
  </pattern>
  <linearGradient id="id2" gradientUnits="userSpaceOnUse" x1="278.699" y1="4.00987" x2="278.699" y2="-291.786">
   <stop offset="0" style="stop-color:#EF5053"/>
   <stop offset="0.0117647" style="stop-color:#EF5053"/>
   <stop offset="1" style="stop-color:#F8D322"/>
  </linearGradient>
 </defs>
<symbol id="Fm7-53743-0" viewBox="-0 0 63.8767 8.442">
</symbol>
<symbol id="Fm18-53723-0" viewBox="171.53 -125.363 43.3978 10.0283">
 <polygon class="fil0" points="171.901,-124.993 214.558,-124.993 214.558,-115.705 171.901,-115.705 "/>
 <path class="fil1" d="M214.928 -125.363l-43.3978 0 0 10.0283 43.3978 0 0 -10.0283zm-0.739923 9.28833l-41.9179 0 0 -8.54841 41.9179 0 0 8.54841z"/>
</symbol>
<symbol id="Fm14-53719-0" viewBox="32.0948 -68.9826 83.982 0.246641">
 <line class="fil2 str0" x1="116.077" y1="-68.8593" x2="32.0948" y2= "-68.8593" />
</symbol>
<symbol id="Fm0-54062-0" viewBox="52.5737 -246.904 37.9 37.8994">
 <path class="fil3" d="M90.4736 -227.954c0,10.4659 -8.48437,18.9497 -18.9497,18.9497 -10.4663,0 -18.9503,-8.48381 -18.9503,-18.9497 0,-10.4657 8.48395,-18.9497 18.9503,-18.9497 10.4653,0 18.9497,8.48395 18.9497,18.9497z"/>
</symbol>
<symbol id="Fm31-53738-0" viewBox="345.063 -165.417 43.3976 10.0283">
 <polygon class="fil4" points="345.433,-165.047 388.091,-165.047 388.091,-155.758 345.433,-155.758 "/>
 <path class="fil1" d="M388.461 -165.417l-43.3976 0 0 10.0283 43.3976 0 0 -10.0283zm-0.739783 9.28889l-41.9179 0 0 -8.54855 41.9179 0 0 8.54855z"/>
</symbol>
<symbol id="Fm0-53714-0" viewBox="32 -292.147 493.399 296.157">
 <polygon class="fil5" points="32,-292.147 525.399,-292.147 525.399,4.01001 32,4.01001 "/>
</symbol>
<symbol id="Fm28-53734-0" viewBox="344.916 -125.363 43.3976 10.0283">
 <polygon class="fil0" points="345.286,-124.993 387.943,-124.993 387.943,-115.705 345.286,-115.705 "/>
 <path class="fil1" d="M388.314 -125.363l-43.3976 0 0 10.0283 43.3976 0 0 -10.0283zm-0.739923 9.28833l-41.9179 0 0 -8.54841 41.9179 0 0 8.54841z"/>
</symbol>
<symbol id="Fm10-49378-0" viewBox="48.7733 -247.455 49.0476 40.6186">
 <g style="clip-path:url(#id0)">
  <image transform="matrix(1 0 0 1 16.7733 -210.996)" x="32" y="-36.4707" width="49.0613" height="40.6301" xlink:href="org_Images\org_ImgID1.png"/>
 </g>
</symbol>
<symbol id="Fm5-53741-0" viewBox="31.8737 -275.805 84.2316 280.088">
 <polygon class="fil2 str0" points="115.982,4.15934 31.9971,4.15934 31.9971,-275.682 115.982,-275.682 "/>
</symbol>
<symbol id="Fm23-53729-0" viewBox="258.299 -145.42 43.3976 10.0283">
 <polygon class="fil0" points="258.669,-145.051 301.326,-145.051 301.326,-135.762 258.669,-135.762 "/>
 <path class="fil1" d="M301.697 -145.42l-43.3976 0 0 10.0283 43.3976 0 0 -10.0283zm-0.739783 9.28889l-41.9181 0 0 -8.54855 41.9181 0 0 8.54855z"/>
</symbol>
<symbol id="Fm12-53717-0" viewBox="31.8765 -169.547 84.1054 81.3042">
 <polyline class="fil2 str0" points="115.982,-88.3666 31.9999,-88.3666 31.9999,-169.424 115.982,-169.424 "/>
 <line class="fil2 str0" x1="32" y1="-108.631" x2="115.982" y2= "-108.631" />
 <line class="fil2 str0" x1="32" y1="-128.895" x2="115.982" y2= "-128.895" />
 <line class="fil2 str0" x1="32" y1="-149.16" x2="115.982" y2= "-149.16" />
</symbol>
<symbol id="Fm30-53737-0" viewBox="258.299 -165.417 43.3976 10.0283">
 <polygon class="fil4" points="258.669,-165.047 301.326,-165.047 301.326,-155.758 258.669,-155.758 "/>
 <path class="fil1" d="M301.697 -165.417l-43.3976 0 0 10.0283 43.3976 0 0 -10.0283zm-0.739783 9.28889l-41.9181 0 0 -8.54855 41.9181 0 0 8.54855z"/>
</symbol>
<symbol id="Fm9-53745-0" viewBox="259.527 -253.617 240.621 20.7458">
 <line class="fil2 str0" x1="500.148" y1="-232.994" x2="259.651" y2= "-232.994" />
 <line class="fil2 str0" x1="379.9" y1="-253.617" x2="379.9" y2= "-232.994" />
 <line class="fil2 str0" x1="259.651" y1="-253.617" x2="259.651" y2= "-232.994" />
</symbol>
<symbol id="Fm27-53733-0" viewBox="344.916 -145.42 43.3976 10.0283">
 <polygon class="fil0" points="345.286,-145.051 387.943,-145.051 387.943,-135.762 345.286,-135.762 "/>
 <path class="fil1" d="M388.314 -145.42l-43.3976 0 0 10.0283 43.3976 0 0 -10.0283zm-0.739923 9.28889l-41.9179 0 0 -8.54855 41.9179 0 0 8.54855z"/>
</symbol>
<symbol id="Fm22-53728-0" viewBox="258.299 -125.363 43.3976 10.0283">
 <polygon class="fil0" points="258.669,-124.993 301.326,-124.993 301.326,-115.705 258.669,-115.705 "/>
 <path class="fil1" d="M301.697 -125.363l-43.3976 0 0 10.0283 43.3976 0 0 -10.0283zm-0.739783 9.28833l-41.9181 0 0 -8.54841 41.9181 0 0 8.54841z"/>
</symbol>
<symbol id="Fm17-53722-0" viewBox="214.863 -95.3156 43.3978 10.0283">
 <polygon class="fil6" points="258.261,-85.2873 214.863,-85.2873 214.863,-95.3156 258.261,-95.3156 "/>
</symbol>
<symbol id="Fm13-53718-0" viewBox="31.8524 -49.0379 83.982 0.246641">
 <line class="fil2 str0" x1="115.834" y1="-48.9146" x2="31.8524" y2= "-48.9146" />
</symbol>
<symbol id="Fm26-53732-0" viewBox="388.502 -145.42 43.3978 10.0283">
 <polygon class="fil0" points="388.872,-145.051 431.529,-145.051 431.529,-135.762 388.872,-135.762 "/>
 <path class="fil1" d="M431.899 -145.42l-43.3978 0 0 10.0283 43.3978 0 0 -10.0283zm-0.739923 9.28889l-41.9179 0 0 -8.54855 41.9179 0 0 8.54855z"/>
</symbol>
<symbol id="Fm15-53720-0" viewBox="265.527 -215.553 5.5827 5.8292">
 <line class="fil2 str1" x1="265.527" y1="-209.847" x2="271.11" y2= "-209.847" />
 <line class="fil2 str1" x1="265.527" y1="-211.767" x2="271.11" y2= "-211.767" />
 <line class="fil2 str1" x1="265.527" y1="-213.687" x2="271.11" y2= "-213.687" />
 <line class="fil2 str1" x1="265.527" y1="-215.429" x2="271.11" y2= "-215.429" />
</symbol>
<symbol id="Fm8-53744-0" viewBox="416.337 -246.862 56.2634 7.11344">
 <path class="fil6" d="M429.631 -242.104l0 -2.82463 0.562912 0 0.668196 1.99997c0.0619399,0.186099 0.107241,0.325499 0.134926,0.418199 0.0321584,-0.102627 0.0822137,-0.253772 0.150585,-0.453154l0.676026 -1.96502 0.503069 0 0 2.82463 -0.360314 0 0 -2.36434 -0.820739 2.36434 -0.337384 0 -0.816824 -2.40447 0 2.40447 -0.360454 0zm3.48178 0l1.08514 -2.82463 0.4024 0 1.15616 2.82463 -0.426169 0 -0.329414 -0.855554 -1.18119 0 -0.3097 0.855554 -0.397226 0zm0.814866 -1.16008l0.958181 0 -0.295298 -0.782009c-0.0894843,-0.237413 -0.156597,-0.43274 -0.199941,-0.585982 -0.0362132,0.181485 -0.0868277,0.361013 -0.152543,0.539982l-0.310399 0.828009zm2.61686 1.16008l0 -2.82463 0.383384 0 1.48362 2.21767 0 -2.21767 0.358496 0 0 2.82463 -0.383384 0 -1.48376 -2.21963 0 2.21963 -0.358357 0zm3.03645 0l1.08514 -2.82463 0.4024 0 1.15616 2.82463 -0.426169 0 -0.329414 -0.855554 -1.18119 0 -0.3097 0.855554 -0.397226 0zm0.814866 -1.16008l0.958181 0 -0.295298 -0.782009c-0.0894843,-0.237413 -0.156597,-0.43274 -0.199941,-0.585982 -0.0362132,0.181485 -0.0868277,0.361013 -0.152543,0.539982l-0.310399 0.828009zm3.94262 0.0518729l0 -0.330812 1.19629 -0.00195747 0 1.04767c-0.183443,0.14667 -0.372898,0.256568 -0.568225,0.330812 -0.195327,0.0736847 -0.395828,0.110457 -0.601083,0.110457 -0.277541,0 -0.530055,-0.0591435 -0.756282,-0.17813 -0.226927,-0.118427 -0.397925,-0.290684 -0.513696,-0.514954 -0.11577,-0.224969 -0.173655,-0.476224 -0.173655,-0.753765 0,-0.274885 0.0578851,-0.531313 0.173096,-0.769425 0.114372,-0.238671 0.280058,-0.415682 0.495799,-0.531453 0.215741,-0.115071 0.46434,-0.172956 0.745796,-0.172956 0.203856,0 0.388697,0.0329973 0.553824,0.0994114 0.164987,0.065715 0.294599,0.157856 0.387998,0.276143 0.0939585,0.118427 0.164987,0.272228 0.214343,0.462382l-0.337384 0.0927001c-0.0427847,-0.144014 -0.0953567,-0.257128 -0.157856,-0.339341 -0.0630585,-0.0822137 -0.153242,-0.147929 -0.270271,-0.197285 -0.116469,-0.0493562 -0.246641,-0.0743838 -0.388697,-0.0743838 -0.170999,0 -0.318928,0.0264258 -0.443227,0.0782987 -0.124998,0.0520127 -0.224969,0.120384 -0.30187,0.205255 -0.0763413,0.0847304 -0.135485,0.17757 -0.178269,0.279499 -0.0715874,0.174215 -0.107801,0.36367 -0.107801,0.568225 0,0.251814 0.043344,0.462242 0.130172,0.631983 0.0868277,0.169601 0.213084,0.295298 0.37877,0.377512 0.165826,0.0822137 0.341438,0.1236 0.527538,0.1236 0.16247,0 0.320186,-0.0315991 0.474127,-0.0940983 0.15464,-0.0618001 0.27097,-0.128214 0.350527,-0.199242l0 -0.52614 -0.829967 0zm2.24857 1.10821l0 -2.82463 2.04206 0 0 0.333469 -1.66846 0 0 0.864782 1.56262 0 0 0.331371 -1.56262 0 0 0.961537 1.73418 0 0 0.333469 -2.10777 0zm4.71289 0l0 -2.82463 1.25222 0c0.251814,0 0.443227,0.0255869 0.574098,0.0762015 0.130871,0.0507544 0.235456,0.140099 0.314453,0.268313 0.0781589,0.128913 0.117029,0.27097 0.117029,0.426169 0,0.200641 -0.0644566,0.368983 -0.194628,0.506425 -0.129612,0.137442 -0.330253,0.224969 -0.601223,0.262441 0.0994114,0.0473987 0.174355,0.0940983 0.225668,0.140798 0.109199,0.0999707 0.212385,0.225528 0.310399,0.375415l0.491325 0.768866 -0.470352 0 -0.373457 -0.58794c-0.109199,-0.169041 -0.199382,-0.299213 -0.27041,-0.388697 -0.0703291,-0.0900436 -0.133388,-0.153242 -0.189315,-0.188756 -0.0559277,-0.0362132 -0.112415,-0.061101 -0.1703,-0.0756422 -0.0427847,-0.00852897 -0.111855,-0.013143 -0.20847,-0.013143l-0.43344 0 0 1.25418 -0.373597 0zm0.373597 -1.57772l0.803681 0c0.1703,0 0.304386,-0.017757 0.400442,-0.0532711 0.0967549,-0.0355141 0.169741,-0.0921409 0.219656,-0.169741 0.0500553,-0.0775997 0.0749431,-0.161771 0.0749431,-0.253213 0,-0.133388 -0.047958,-0.243285 -0.145272,-0.329414 -0.0966151,-0.0861286 -0.249857,-0.128913 -0.459726,-0.128913l-0.893724 0 0 0.934552zm2.9713 1.57772l0 -2.82463 2.04206 0 0 0.333469 -1.66846 0 0 0.864782 1.56262 0 0 0.331371 -1.56262 0 0 0.961537 1.73418 0 0 0.333469 -2.10777 0zm3.11741 0l0 -2.82463 1.06542 0c0.187358,0 0.330812,0.00922807 0.429385,0.0269851 0.13884,0.0229303 0.25517,0.0669734 0.349268,0.132129 0.0933992,0.0644566 0.169041,0.155898 0.226227,0.272228 0.0571861,0.117168 0.0854295,0.245383 0.0854295,0.385482 0,0.24007 -0.0762015,0.443926 -0.228744,0.610311 -0.153242,0.165686 -0.429525,0.249158 -0.828708,0.249158l-0.724823 0 0 1.14834 -0.373457 0zm0.373457 -1.48166l0.730695 0c0.241328,0 0.413026,-0.0447421 0.514395,-0.134926 0.101229,-0.0900436 0.151844,-0.2163 0.151844,-0.379469 0,-0.118287 -0.0296417,-0.219656 -0.0894843,-0.303827 -0.0598426,-0.0841712 -0.138002,-0.1394 -0.236015,-0.166385 -0.0631983,-0.0163588 -0.178969,-0.0248878 -0.348569,-0.0248878l-0.722865 0 0 1.00949zm2.63797 0.105843c0,-0.468954 0.125558,-0.835839 0.377512,-1.10094 0.251814,-0.265097 0.576754,-0.397925 0.975379,-0.397925 0.260343,0 0.495799,0.0624992 0.704968,0.186798 0.20917,0.124998 0.368983,0.298654 0.478741,0.521526 0.109898,0.222313 0.164427,0.475525 0.164427,0.75768 0,0.286769 -0.0571861,0.543198 -0.172956,0.768726 -0.11577,0.226227 -0.279499,0.397226 -0.491325,0.513696 -0.212385,0.11633 -0.44057,0.174215 -0.685953,0.174215 -0.266356,0 -0.503769,-0.0637576 -0.712798,-0.192671 -0.209869,-0.128214 -0.368284,-0.303827 -0.476224,-0.52614 -0.107801,-0.221613 -0.161771,-0.457069 -0.161771,-0.704968zm0.385342 0.00587241c0,0.340739 0.0914418,0.608353 0.274325,0.80438 0.183443,0.196027 0.413026,0.2939 0.689169,0.2939 0.281456,0 0.512997,-0.0985725 0.694482,-0.296557 0.181625,-0.197984 0.272927,-0.478741 0.272927,-0.842411 0,-0.229583 -0.039429,-0.430224 -0.117029,-0.601782 -0.0775997,-0.171698 -0.191412,-0.304526 -0.3406,-0.399184 -0.150026,-0.0940983 -0.317669,-0.141497 -0.503769,-0.141497 -0.265097,0 -0.492583,0.0907427 -0.683296,0.272927 -0.190853,0.181625 -0.28621,0.485452 -0.28621,0.910223zm3.16411 0.462382l0.352484 -0.0309c0.0164987,0.141357 0.0552286,0.257128 0.116469,0.34787 0.061101,0.0907427 0.155759,0.163728 0.284113,0.219656 0.128214,0.0559277 0.272927,0.0834721 0.4333,0.0834721 0.142755,0 0.268453,-0.0209729 0.377512,-0.0630585 0.109199,-0.0427847 0.190713,-0.10067 0.243984,-0.174355 0.0532711,-0.074244 0.0802562,-0.1545 0.0802562,-0.241887 0,-0.0887852 -0.0255869,-0.165826 -0.0775997,-0.23224 -0.0513136,-0.0664141 -0.136044,-0.121643 -0.253772,-0.166385 -0.0763413,-0.0296417 -0.243425,-0.0756422 -0.503209,-0.138141 -0.259085,-0.0624992 -0.441269,-0.120944 -0.545155,-0.176172 -0.134786,-0.0704689 -0.235456,-0.158555 -0.30187,-0.26314 -0.065715,-0.104585 -0.0987124,-0.221613 -0.0987124,-0.351785 0,-0.142056 0.0401281,-0.275584 0.121083,-0.399184 0.0808155,-0.124299 0.199242,-0.218398 0.354442,-0.282854 0.155898,-0.0637576 0.328156,-0.0960558 0.51831,-0.0960558 0.209729,0 0.393871,0.0335566 0.554383,0.101369 0.159813,0.0671132 0.282714,0.166385 0.368983,0.297256 0.0854295,0.130871 0.132129,0.279499 0.138701,0.445184l-0.358357 0.0269851c-0.0198543,-0.178269 -0.0848703,-0.313754 -0.196027,-0.404497 -0.111156,-0.0914418 -0.274885,-0.136743 -0.491884,-0.136743 -0.226367,0 -0.390655,0.0413865 -0.49468,0.124299 -0.103187,0.0829128 -0.155199,0.182884 -0.155199,0.299213 0,0.101928 0.0369123,0.18554 0.109898,0.250556 0.0722865,0.0658548 0.259784,0.132828 0.563611,0.20134 0.303827,0.0689309 0.512298,0.128773 0.625411,0.180087 0.164427,0.0763413 0.28607,0.172397 0.364369,0.288167 0.0782987,0.11633 0.117029,0.250556 0.117029,0.401701 0,0.150725 -0.0427847,0.292082 -0.128913,0.424911 -0.0861286,0.132828 -0.209729,0.236155 -0.37094,0.310399 -0.161072,0.0736847 -0.342557,0.110457 -0.543897,0.110457 -0.255729,0 -0.470212,-0.0367724 -0.642469,-0.111716 -0.172956,-0.0743838 -0.308441,-0.186099 -0.407153,-0.336125 -0.0978734,-0.149327 -0.149886,-0.318928 -0.1545,-0.507684zm3.971 0.907566l0 -2.49116 -0.930637 0 0 -0.333469 2.23865 0 0 0.333469 -0.934412 0 0 2.49116 -0.373597 0zm2.05786 -0.907566l0.352484 -0.0309c0.0164987,0.141357 0.0552286,0.257128 0.116469,0.34787 0.061101,0.0907427 0.155759,0.163728 0.284113,0.219656 0.128214,0.0559277 0.272927,0.0834721 0.4333,0.0834721 0.142755,0 0.268453,-0.0209729 0.377512,-0.0630585 0.109199,-0.0427847 0.190713,-0.10067 0.243984,-0.174355 0.0532711,-0.074244 0.0802562,-0.1545 0.0802562,-0.241887 0,-0.0887852 -0.0255869,-0.165826 -0.0775997,-0.23224 -0.0513136,-0.0664141 -0.136044,-0.121643 -0.253772,-0.166385 -0.0763413,-0.0296417 -0.243425,-0.0756422 -0.503209,-0.138141 -0.259085,-0.0624992 -0.441269,-0.120944 -0.545155,-0.176172 -0.134786,-0.0704689 -0.235456,-0.158555 -0.30187,-0.26314 -0.065715,-0.104585 -0.0987124,-0.221613 -0.0987124,-0.351785 0,-0.142056 0.0401281,-0.275584 0.121083,-0.399184 0.0808155,-0.124299 0.199242,-0.218398 0.354442,-0.282854 0.155898,-0.0637576 0.328156,-0.0960558 0.51831,-0.0960558 0.209729,0 0.393871,0.0335566 0.554383,0.101369 0.159813,0.0671132 0.282714,0.166385 0.368983,0.297256 0.0854295,0.130871 0.132129,0.279499 0.138701,0.445184l-0.358357 0.0269851c-0.0198543,-0.178269 -0.0848703,-0.313754 -0.196027,-0.404497 -0.111156,-0.0914418 -0.274885,-0.136743 -0.491884,-0.136743 -0.226367,0 -0.390655,0.0413865 -0.49468,0.124299 -0.103187,0.0829128 -0.155199,0.182884 -0.155199,0.299213 0,0.101928 0.0369123,0.18554 0.109898,0.250556 0.0722865,0.0658548 0.259784,0.132828 0.563611,0.20134 0.303827,0.0689309 0.512298,0.128773 0.625411,0.180087 0.164427,0.0763413 0.28607,0.172397 0.364369,0.288167 0.0782987,0.11633 0.117029,0.250556 0.117029,0.401701 0,0.150725 -0.0427847,0.292082 -0.128913,0.424911 -0.0861286,0.132828 -0.209729,0.236155 -0.37094,0.310399 -0.161072,0.0736847 -0.342557,0.110457 -0.543897,0.110457 -0.255729,0 -0.470212,-0.0367724 -0.642469,-0.111716 -0.172956,-0.0743838 -0.308441,-0.186099 -0.407153,-0.336125 -0.0978734,-0.149327 -0.149886,-0.318928 -0.1545,-0.507684z"/>
 <path class="fil2 str1" d="M419.896 -244.816c-0.837517,0.0029362 -1.50991,0.68022 -1.50795,1.51872 0.00209729,0.826192 0.685673,1.50543 1.51047,1.50096 0.841851,-0.00447421 1.51075,-0.681199 1.50823,-1.52613 -0.00237693,-0.81934 -0.687491,-1.49648 -1.51075,-1.49355zm2.79527 -0.430084c-0.00153801,0.0887852 -0.0341159,0.155759 -0.0823535,0.21644 -0.0784386,0.0991318 -0.156458,0.199242 -0.236294,0.297395 -0.0163588,0.0202738 -0.0167783,0.0341159 -0.00447421,0.0563471 0.102068,0.187358 0.18554,0.382266 0.238811,0.588918 0.00936789,0.0374715 0.0349548,0.0335566 0.059563,0.0364928 0.126816,0.0152403 0.253632,0.0315991 0.380867,0.0443227 0.184002,0.0183163 0.289006,0.188476 0.284532,0.331511 -0.00685114,0.235316 -0.00195747,0.471051 -0.00139819,0.706367 0,0.184002 -0.117868,0.312636 -0.30145,0.331371 -0.132129,0.0138421 -0.264398,0.0296417 -0.395968,0.04642 -0.0109059,0.00153801 -0.0261462,0.0148208 -0.0292222,0.0251675 -0.0601223,0.214063 -0.147369,0.416801 -0.256988,0.610171 -0.0113254,0.0202738 -0.00531313,0.0310399 0.00643168,0.0462802 0.0813748,0.101649 0.161771,0.204276 0.242726,0.306903 0.00992716,0.0127235 0.0206932,0.0255869 0.0300611,0.0388697 0.0987124,0.137163 0.0878065,0.29348 -0.0339761,0.41736 -0.173655,0.177011 -0.349268,0.352205 -0.52586,0.526839 -0.105983,0.104585 -0.288587,0.110877 -0.407853,0.017757 -0.115491,-0.0907427 -0.230422,-0.182045 -0.344794,-0.273766 -0.0187358,-0.0148208 -0.0321584,-0.0173376 -0.0532711,-0.00545295 -0.191412,0.105004 -0.391634,0.188476 -0.602761,0.244124 -0.0286629,0.00741042 -0.0399883,0.019295 -0.0429245,0.0503349 -0.0152403,0.152403 -0.0335566,0.304386 -0.0522924,0.45623 -0.0138421,0.112974 -0.133248,0.233358 -0.246082,0.249158 -0.0350946,0.00489367 -0.0706087,0.00741042 -0.105563,0.00782987 -0.22455,0.000559277 -0.4484,0.00153801 -0.672391,-0.000978734 -0.0497756,-0.000419458 -0.102627,-0.00741042 -0.147509,-0.0261462 -0.120245,-0.0503349 -0.181905,-0.145971 -0.195327,-0.275723 -0.014681,-0.145971 -0.0339761,-0.291523 -0.0497756,-0.437494 -0.00237693,-0.0212525 -0.00936789,-0.0325779 -0.0310399,-0.039429 -0.200221,-0.0636177 -0.397506,-0.134646 -0.579551,-0.242726 -0.00838915,-0.00489367 -0.0286629,0.000559277 -0.0380308,0.00796969 -0.117868,0.0917214 -0.234756,0.183862 -0.351645,0.277122 -0.135205,0.107521 -0.310818,0.0971743 -0.43316,-0.0251675 -0.165126,-0.165686 -0.330952,-0.331371 -0.496638,-0.497197 -0.142056,-0.142056 -0.151424,-0.30131 -0.0271249,-0.457768 0.0892046,-0.111855 0.17757,-0.224829 0.266775,-0.335846 0.0157996,-0.0197145 0.0188756,-0.0339761 0.00601223,-0.0567666 -0.0947974,-0.172117 -0.172677,-0.351645 -0.227486,-0.540541 -0.00685114,-0.0236294 -0.0191552,-0.0310399 -0.0418059,-0.0335566 -0.141078,-0.0157996 -0.281176,-0.0345353 -0.422254,-0.0483774 -0.187917,-0.0187358 -0.306763,-0.14695 -0.306763,-0.334867 0,-0.227905 0.00629186,-0.45623 -0.00209729,-0.683716 -0.00587241,-0.167224 0.0977336,-0.343676 0.331092,-0.358077 0.125697,-0.00782987 0.250975,-0.0281037 0.376813,-0.0413865 0.021672,-0.00251675 0.0325779,-0.00838915 0.0384503,-0.0320186 0.0522924,-0.208191 0.132129,-0.405476 0.234337,-0.594371 0.0137023,-0.0257267 0.0113254,-0.040967 -0.00643168,-0.062639 -0.0852897,-0.105144 -0.168762,-0.211686 -0.252513,-0.318228 -0.116889,-0.149467 -0.107521,-0.308721 0.0265656,-0.443926 0.17016,-0.171558 0.341299,-0.342837 0.512437,-0.513416 0.109059,-0.1085 0.292082,-0.118846 0.413445,-0.02321 0.106542,0.0833322 0.213084,0.167643 0.318089,0.252513 0.0187358,0.0148208 0.0315991,0.017757 0.0532711,0.00489367 0.201759,-0.117868 0.414844,-0.20903 0.640791,-0.27069 0.0236294,-0.00643168 0.0339761,-0.0163588 0.0369123,-0.042505 0.0124439,-0.124719 0.0296417,-0.248599 0.0419458,-0.373317 0.0132828,-0.135625 0.084311,-0.228465 0.207212,-0.279638 0.0349548,-0.0144014 0.0769006,-0.017757 0.115351,-0.017757 0.241747,-0.00153801 0.483914,0 0.725662,-0.00111855 0.186938,-0.000978734 0.295857,0.136184 0.31711,0.252653 0.016219,0.0892046 0.021672,0.180507 0.0320186,0.27069 0.00601223,0.0518729 0.0103466,0.103606 0.0187358,0.15492 0.00209729,0.0123041 0.0157996,0.0290824 0.0271249,0.0325779 0.22455,0.062639 0.436655,0.152962 0.638834,0.267334 0.00978734,0.00545295 0.0315991,0.000559277 0.0413865,-0.00685114 0.100111,-0.0774598 0.199242,-0.156458 0.297955,-0.235316 0.135205,-0.107521 0.312216,-0.0977336 0.433579,0.0236294 0.167224,0.167783 0.334867,0.334448 0.501671,0.50265 0.0655752,0.0655752 0.106542,0.144014 0.1085,0.230422z"/>
</symbol>
<symbol id="Fm21-53727-0" viewBox="214.928 -135.392 43.3976 10.0283">
 <polygon class="fil0" points="215.298,-135.022 257.955,-135.022 257.955,-125.733 215.298,-125.733 "/>
 <path class="fil1" d="M258.326 -135.392l-43.3976 0 0 10.0283 43.3976 0 0 -10.0283zm-0.739783 9.28833l-41.9181 0 0 -8.54855 41.9181 0 0 8.54855z"/>
</symbol>
<symbol id="Fm2-53725-0" viewBox="32 -291.791 493.251 295.951">
 <polygon id="123456789101112131415161718192021222324252627" style="fill:url(#id1);fill-rule:nonzero" points="525.251,4.15934 32,4.15934 32,-291.791 525.251,-291.791 "/>
</symbol>
<symbol id="Fm1-53715-0" viewBox="32 -291.786 493.399 295.796">
 <polygon class="fil7" points="32,4.00987 525.399,4.00987 525.399,-291.786 32,-291.786 "/>
</symbol>
<symbol id="Fm4-53740-0" viewBox="31.9985 -275.682 83.9835 279.841">
 <polygon class="fil1" points="115.982,-275.682 31.9985,-275.682 31.9985,4.15934 115.982,4.15934 "/>
</symbol>
<symbol id="Fm11-53716-0" viewBox="500.446 -282.842 12.8923 2.87063">
 <path class="fil6" d="M500.446 -280.017l1.08514 -2.82463 0.4024 0 1.15616 2.82463 -0.426169 0 -0.329414 -0.855554 -1.18119 0 -0.3097 0.855554 -0.397226 0zm0.814866 -1.16008l0.958181 0 -0.295298 -0.782009c-0.0894843,-0.237413 -0.156597,-0.43274 -0.199941,-0.585982 -0.0362132,0.181485 -0.0868277,0.361013 -0.152543,0.539982l-0.310399 0.828009zm3.90389 1.16008l0 -0.258526c-0.129612,0.203297 -0.320326,0.304526 -0.57228,0.304526 -0.163029,0 -0.312915,-0.0447421 -0.449798,-0.134786 -0.136743,-0.0894843 -0.242586,-0.215042 -0.318228,-0.376813 -0.0750829,-0.161212 -0.112554,-0.345913 -0.112554,-0.555781 0,-0.203856 0.0342557,-0.389257 0.101928,-0.555641 0.0685114,-0.166385 0.17044,-0.29404 0.306484,-0.382126 0.136184,-0.0887852 0.288727,-0.133527 0.457069,-0.133527 0.123041,0 0.232799,0.026286 0.328855,0.0782987 0.0967549,0.0518729 0.174914,0.119685 0.235456,0.203157l0 -1.01341 0.344654 0 0 2.82463 -0.321584 0zm-1.09632 -1.02138c0,0.262441 0.0552286,0.458467 0.165686,0.58794 0.110457,0.129612 0.240769,0.194768 0.391354,0.194768 0.151145,0 0.280058,-0.0624992 0.386041,-0.186239 0.105843,-0.1236 0.159114,-0.313055 0.159114,-0.567526 0,-0.280198 -0.0539702,-0.485312 -0.161771,-0.616183 -0.10794,-0.13157 -0.240769,-0.196726 -0.399184,-0.196726 -0.153941,0 -0.282854,0.0631983 -0.386041,0.188756 -0.103326,0.125697 -0.155199,0.324241 -0.155199,0.59521zm2.45704 1.02138l0 -2.04597 0.3097 0 0 0.286769c0.0644566,-0.0999707 0.150026,-0.180926 0.256568,-0.241468 0.106542,-0.061101 0.228185,-0.092001 0.364229,-0.092001 0.151284,0 0.275584,0.0315991 0.372339,0.0946576 0.0973142,0.0631983 0.165686,0.150585 0.205115,0.263699 0.16247,-0.238671 0.372898,-0.358357 0.631983,-0.358357 0.203297,0 0.359196,0.056487 0.468254,0.169041 0.109199,0.112415 0.163868,0.285371 0.163868,0.518869l0 1.40476 -0.344654 0 0 -1.28899c0,-0.13884 -0.0111855,-0.238811 -0.0335566,-0.299912 -0.0230702,-0.0605417 -0.0637576,-0.109898 -0.122342,-0.147369 -0.0591435,-0.0367724 -0.128913,-0.0557879 -0.20847,-0.0557879 -0.144014,0 -0.263,0.047958 -0.358357,0.144014 -0.0947974,0.0953567 -0.142755,0.248599 -0.142755,0.459026l0 1.18902 -0.346612 0 0 -1.32912c0,-0.1545 -0.0282435,-0.270271 -0.0848703,-0.347311 -0.056487,-0.0769006 -0.148628,-0.11563 -0.277541,-0.11563 -0.0973142,0 -0.187358,0.0255869 -0.270271,0.0775997 -0.0829128,0.0511738 -0.143315,0.126257 -0.180227,0.224829 -0.0374715,0.0992716 -0.0559277,0.242027 -0.0559277,0.428126l0 1.06151 -0.346472 0zm3.78155 -2.42544l0 -0.399184 0.347311 0 0 0.399184 -0.347311 0zm0 2.42544l0 -2.04597 0.347311 0 0 2.04597 -0.347311 0zm1.36869 0l0 -2.04597 0.311657 0 0 0.290684c0.150585,-0.224969 0.367724,-0.337384 0.651138,-0.337384 0.1236,0 0.236714,0.0223711 0.34004,0.0664141 0.103886,0.0447421 0.180786,0.102627 0.2321,0.174914 0.0520127,0.0717272 0.0875268,0.157157 0.1085,0.255869 0.0124439,0.0644566 0.0191552,0.176871 0.0191552,0.337384l0 1.25809 -0.347311 0 0 -1.24495c0,-0.140798 -0.013143,-0.246641 -0.0401281,-0.31697 -0.0269851,-0.0697698 -0.0749431,-0.125697 -0.143315,-0.167084 -0.0690707,-0.0420856 -0.149327,-0.0630585 -0.242027,-0.0630585 -0.148069,0 -0.274885,0.0472589 -0.382825,0.140658 -0.107241,0.0940983 -0.160512,0.271669 -0.160512,0.53397l0 1.11744 -0.346472 0z"/>
</symbol>
<symbol id="Fm6-53742-0" viewBox="162.317 -170.333 4.62606 182.556">
 <path class="fil6" d="M165.071 -167.142l-0.389956 0 0 -2.48599c-0.0939585,0.0894843 -0.21672,0.179108 -0.369123,0.268593 -0.153242,0.0894843 -0.290125,0.156877 -0.411488,0.2012l0 -0.376533c0.218398,-0.102907 0.409251,-0.227206 0.572699,-0.372898 0.16275,-0.146531 0.278939,-0.287888 0.347031,-0.42547l0.250836 0 0 3.19109z"/>
 <path class="fil6" d="M165.652 -157.555l0 0.375135 -2.1005 0c-0.0029362,-0.0939585 0.0118846,-0.184282 0.0451616,-0.27083 0.0532711,-0.143454 0.13912,-0.284113 0.256708,-0.423233 0.118427,-0.138281 0.288587,-0.298794 0.51048,-0.480838 0.345633,-0.283414 0.579411,-0.507544 0.700774,-0.673369 0.121223,-0.164987 0.181905,-0.321724 0.181905,-0.469093 0,-0.1545 -0.0555082,-0.284812 -0.165686,-0.391354 -0.111016,-0.105843 -0.25531,-0.159114 -0.43288,-0.159114 -0.187917,0 -0.338083,0.0563471 -0.450497,0.169461 -0.113254,0.112554 -0.17016,0.268593 -0.171698,0.467695l-0.401001 -0.0406874c0.0274046,-0.299772 0.131011,-0.527538 0.309979,-0.684415 0.179108,-0.156877 0.420297,-0.235316 0.722166,-0.235316 0.304806,0 0.545994,0.0851499 0.723564,0.253772 0.178269,0.169461 0.267055,0.37877 0.267055,0.628907 0,0.127235 -0.0258666,0.252234 -0.0784386,0.375135 -0.0517331,0.122761 -0.138281,0.252234 -0.258945,0.387719 -0.120524,0.136044 -0.321025,0.322563 -0.601502,0.559277 -0.233778,0.196865 -0.383944,0.329973 -0.450497,0.400302 -0.0666938,0.0694901 -0.121363,0.139819 -0.164987,0.210847l1.55884 0z"/>
 <path class="fil6" d="M163.604 -148.057l0.389816 -0.0517331c0.0451616,0.221194 0.121363,0.380308 0.228604,0.477902 0.10808,0.0977336 0.239091,0.146531 0.393731,0.146531 0.183443,0 0.338782,-0.0636177 0.465318,-0.190853 0.125837,-0.127235 0.189455,-0.284952 0.189455,-0.472869 0,-0.178969 -0.0584444,-0.327037 -0.175333,-0.443087 -0.117728,-0.11619 -0.266356,-0.174634 -0.447002,-0.174634 -0.0739644,0 -0.165686,0.0148208 -0.275164,0.0436236l0.0436236 -0.342557c0.0258666,0.0029362 0.0465598,0.00447421 0.0629186,0.00447421 0.165686,0 0.315152,-0.0436236 0.4484,-0.130311 0.133108,-0.0865481 0.199662,-0.220495 0.199662,-0.401001 0,-0.142755 -0.0487969,-0.261881 -0.145692,-0.355141 -0.0968947,-0.0939585 -0.222033,-0.141217 -0.375135,-0.141217 -0.151704,0 -0.27824,0.0480978 -0.37877,0.142755 -0.101369,0.0954965 -0.166525,0.238951 -0.195327,0.429804l-0.389956 -0.0694901c0.0473987,-0.261881 0.156178,-0.464619 0.3248,-0.608214 0.169461,-0.143454 0.379609,-0.216021 0.631144,-0.216021 0.173096,0 0.33291,0.0377512 0.478741,0.111716 0.145692,0.0748033 0.257407,0.176032 0.335147,0.304806 0.0769006,0.128773 0.11605,0.264957 0.11605,0.40995 0,0.136883 -0.0369123,0.261881 -0.110877,0.375135 -0.0739644,0.112415 -0.182744,0.201899 -0.327037,0.268593 0.187917,0.0427847 0.333609,0.133108 0.437914,0.269991 0.103606,0.136184 0.155479,0.307043 0.155479,0.512018 0,0.277401 -0.10067,0.512717 -0.303408,0.705807 -0.202039,0.19309 -0.457908,0.289286 -0.767188,0.289286 -0.278939,0 -0.51062,-0.0829128 -0.694762,-0.249298 -0.184282,-0.165686 -0.289286,-0.381007 -0.315152,-0.645965z"/>
 <path class="fil6" d="M164.852 -137.257l0 -0.760616 -1.37848 0 0 -0.358077 1.4502 -2.05912 0.318928 0 0 2.05912 0.429105 0 0 0.358077 -0.429105 0 0 0.760616 -0.390655 0zm0 -1.11869l0 -1.43245 -0.994394 1.43245 0.994394 0z"/>
 <path class="fil6" d="M163.601 -128.127l0.40981 -0.034815c0.0303408,0.199802 0.10067,0.349268 0.210847,0.449798 0.111016,0.10067 0.244264,0.151005 0.400302,0.151005 0.187917,0 0.347031,-0.0710282 0.476504,-0.212385 0.130172,-0.142056 0.195327,-0.329973 0.195327,-0.563751 0,-0.222732 -0.0622195,-0.398065 -0.187218,-0.526839 -0.124998,-0.128634 -0.288587,-0.19309 -0.491185,-0.19309 -0.125837,0 -0.239091,0.0289426 -0.34046,0.085849 -0.101369,0.0570462 -0.180507,0.131011 -0.238252,0.222033l-0.366186 -0.0473987 0.307742 -1.63225 1.58038 0 0 0.372898 -1.26816 0 -0.171558 0.853876c0.190853,-0.133108 0.391354,-0.199802 0.600803,-0.199802 0.277401,0 0.511179,0.0961956 0.702032,0.288587 0.190993,0.192391 0.28635,0.439452 0.28635,0.741321 0,0.287888 -0.084311,0.536486 -0.251535,0.745796 -0.204136,0.256848 -0.482376,0.385482 -0.834581,0.385482 -0.289286,0 -0.525301,-0.0806757 -0.708044,-0.242586 -0.182744,-0.16205 -0.287049,-0.376673 -0.312915,-0.643728z"/>
 <path class="fil6" d="M165.626 -119.733l-0.387719 0.0303408c-0.034815,-0.153102 -0.0836119,-0.264818 -0.14723,-0.333609 -0.105843,-0.111855 -0.236015,-0.167224 -0.390655,-0.167224 -0.124299,0 -0.233079,0.0346752 -0.327037,0.104305 -0.122901,0.0894843 -0.219796,0.220495 -0.290824,0.392053 -0.0701892,0.171698 -0.107241,0.416661 -0.110178,0.73475 0.0939585,-0.142755 0.20861,-0.249298 0.344794,-0.318928 0.135345,-0.068791 0.2781,-0.103606 0.426868,-0.103606 0.260483,0 0.481677,0.0954965 0.664421,0.287189 0.182744,0.191552 0.274465,0.438753 0.274465,0.74202 0,0.199802 -0.0436236,0.384782 -0.129473,0.556341 -0.085849,0.170999 -0.204136,0.302709 -0.354442,0.393731 -0.150166,0.0910223 -0.320326,0.136044 -0.511179,0.136044 -0.325639,0 -0.590456,-0.119126 -0.795431,-0.358776 -0.205674,-0.238951 -0.307742,-0.633381 -0.307742,-1.18231 0,-0.614086 0.113254,-1.06025 0.34032,-1.33919 0.197565,-0.242726 0.46392,-0.364788 0.799766,-0.364788 0.249437,0 0.454273,0.0703291 0.614086,0.210847 0.159813,0.139819 0.25531,0.333748 0.287189,0.580809zm-1.59296 1.36953c0,0.134646 0.0288028,0.263419 0.085849,0.386181 0.0569064,0.122901 0.136743,0.216021 0.238951,0.280477 0.102767,0.0643168 0.210847,0.0968947 0.323262,0.0968947 0.164987,0 0.306344,-0.0665539 0.424771,-0.199802 0.118287,-0.133108 0.17757,-0.313614 0.17757,-0.54152 0,-0.219796 -0.0584444,-0.392892 -0.175473,-0.519428 -0.116889,-0.126536 -0.264118,-0.189455 -0.441689,-0.189455 -0.176731,0 -0.326198,0.0629186 -0.449099,0.189455 -0.122761,0.126536 -0.184142,0.292222 -0.184142,0.497197z"/>
 <path class="fil6" d="M163.627 -110.133l0 -0.374995 2.05688 0 0 0.303268c-0.202039,0.215322 -0.402539,0.501671 -0.601502,0.85835 -0.198403,0.356539 -0.352205,0.724263 -0.460285,1.10094 -0.0784386,0.266356 -0.127935,0.55704 -0.149467,0.87373l-0.401001 0c0.00447421,-0.250137 0.0532711,-0.552006 0.14723,-0.906308 0.0939585,-0.353743 0.228604,-0.695461 0.403938,-1.02404 0.176172,-0.328435 0.362551,-0.605976 0.560955,-0.830945l-1.55675 0z"/>
 <path class="fil6" d="M164.202 -99.1331c-0.161911,-0.0592833 -0.281875,-0.143594 -0.360314,-0.253772 -0.0775997,-0.109618 -0.116889,-0.241188 -0.116889,-0.39443 0,-0.231541 0.0829128,-0.42547 0.249437,-0.583046 0.166385,-0.157576 0.38688,-0.236714 0.662883,-0.236714 0.277401,0 0.500832,0.0806757 0.670293,0.241887 0.168762,0.161351 0.253073,0.357378 0.253073,0.589058 0,0.14723 -0.0384503,0.275164 -0.115491,0.384643 -0.0775997,0.108779 -0.194489,0.19309 -0.352065,0.252374 0.194489,0.0636177 0.343256,0.165686 0.445324,0.307742 0.101369,0.141357 0.152403,0.310818 0.152403,0.506845 0,0.272228 -0.0961956,0.500133 -0.287748,0.685114 -0.192391,0.184981 -0.445464,0.277401 -0.759078,0.277401 -0.313754,0 -0.566128,-0.0924205 -0.758379,-0.2781 -0.192391,-0.18582 -0.288587,-0.41736 -0.288587,-0.694762 0,-0.206513 0.052572,-0.379609 0.157576,-0.519428 0.104305,-0.13912 0.253772,-0.234477 0.447561,-0.284812zm-0.0782987 -0.661485c0,0.150166 0.0487969,0.273067 0.144993,0.368424 0.0968947,0.0954965 0.222732,0.143594 0.377232,0.143594 0.150306,0 0.273766,-0.0473987 0.369962,-0.142056 0.0961956,-0.0947974 0.143594,-0.210847 0.143594,-0.34773 0,-0.143594 -0.0487969,-0.263419 -0.147929,-0.361153 -0.0992716,-0.0975938 -0.222033,-0.146391 -0.369962,-0.146391 -0.148768,0 -0.272368,0.0480978 -0.370661,0.142755 -0.0984327,0.0954965 -0.14723,0.210148 -0.14723,0.342557zm-0.125837 1.46796c0,0.110877 0.0265656,0.218957 0.0791377,0.322563 0.052572,0.104305 0.131011,0.184981 0.235316,0.241887 0.104305,0.0570462 0.216021,0.085849 0.335846,0.085849 0.186519,0 0.34046,-0.0599824 0.461683,-0.180507 0.121363,-0.119825 0.182045,-0.272368 0.182045,-0.457209 0,-0.188057 -0.0620797,-0.343396 -0.187218,-0.466157 -0.124998,-0.122901 -0.281875,-0.184282 -0.469792,-0.184282 -0.183443,0 -0.335147,0.0606815 -0.455811,0.182045 -0.120524,0.122062 -0.181206,0.273766 -0.181206,0.455811z"/>
 <path class="fil6" d="M163.66 -88.183l0.375135 -0.0346752c0.031739,0.176032 0.0924205,0.304107 0.181905,0.383944 0.0896241,0.0791377 0.204276,0.119126 0.344794,0.119126 0.119825,0 0.224969,-0.0274046 0.315152,-0.0829128 0.0903232,-0.0546693 0.164288,-0.127935 0.222033,-0.219656 0.0584444,-0.0917214 0.106542,-0.216021 0.145692,-0.3715 0.0385901,-0.156038 0.0584444,-0.315152 0.0584444,-0.477203 0,-0.0170579 -0.000699096,-0.0436236 -0.00209729,-0.0775997 -0.0784386,0.12346 -0.184981,0.224829 -0.319627,0.30187 -0.135485,0.0775997 -0.282015,0.11605 -0.438753,0.11605 -0.263419,0 -0.486151,-0.0953567 -0.668196,-0.28635 -0.181905,-0.190853 -0.272927,-0.441689 -0.272927,-0.753905 0,-0.322563 0.0946576,-0.581508 0.284812,-0.778373 0.190154,-0.196726 0.428406,-0.295158 0.714756,-0.295158 0.206373,0 0.394989,0.0562073 0.566687,0.167224 0.170859,0.111016 0.301171,0.269991 0.389956,0.475665 0.0887852,0.205814 0.133108,0.503908 0.133108,0.894563 0,0.405476 -0.0436236,0.728738 -0.13171,0.969926 -0.0887852,0.240489 -0.219656,0.423233 -0.393591,0.54907 -0.174634,0.125697 -0.378071,0.188616 -0.612548,0.188616 -0.248599,0 -0.451336,-0.068791 -0.608913,-0.207072 -0.157576,-0.137722 -0.252374,-0.331511 -0.284113,-0.581648zm1.59729 -1.40281c0,-0.223431 -0.0591435,-0.401701 -0.178269,-0.532711 -0.119825,-0.13171 -0.26258,-0.197565 -0.430643,-0.197565 -0.173096,0 -0.323961,0.0710282 -0.452735,0.212385 -0.128773,0.142056 -0.19309,0.325639 -0.19309,0.550468 0,0.202738 0.0613806,0.367025 0.183443,0.493562 0.122062,0.126536 0.272228,0.189315 0.451336,0.189315 0.181206,0 0.329274,-0.0627788 0.445464,-0.189315 0.116889,-0.126536 0.174494,-0.30187 0.174494,-0.52614z"/>
 <path class="fil6" d="M163.837 -77.4865l-0.389956 0 0 -2.48599c-0.0939585,0.0894843 -0.21672,0.179108 -0.369123,0.268593 -0.153242,0.0894843 -0.290125,0.156877 -0.411488,0.2012l0 -0.376533c0.218398,-0.102907 0.409251,-0.227206 0.572699,-0.372898 0.16275,-0.146531 0.278939,-0.287888 0.347031,-0.42547l0.250836 0 0 3.19109zm0.999567 -1.56709c0,-0.375834 0.0384503,-0.678403 0.11605,-0.907007 0.0770404,-0.229443 0.192391,-0.406175 0.344794,-0.530474 0.152403,-0.124299 0.344095,-0.186519 0.574937,-0.186519 0.170859,0 0.320326,0.034815 0.449099,0.103606 0.128773,0.0680919 0.234477,0.167224 0.318928,0.296696 0.0836119,0.129473 0.149467,0.287049 0.196726,0.472729 0.0480978,0.18568 0.0718671,0.435816 0.0718671,0.750969 0,0.372898 -0.0385901,0.673369 -0.114792,0.902673 -0.0769006,0.229303 -0.191552,0.406175 -0.343955,0.531173 -0.152403,0.125138 -0.344794,0.187218 -0.577873,0.187218 -0.306344,0 -0.546833,-0.109478 -0.721327,-0.329274 -0.209449,-0.264118 -0.314453,-0.695461 -0.314453,-1.29179zm0.401001 0c0,0.521665 0.0613806,0.868697 0.183443,1.04179 0.122062,0.172397 0.272228,0.258945 0.451336,0.258945 0.179807,0 0.329973,-0.0872472 0.452035,-0.260483 0.122062,-0.173096 0.183583,-0.520127 0.183583,-1.04025 0,-0.523064 -0.0615204,-0.870794 -0.183583,-1.04249 -0.122062,-0.172397 -0.273766,-0.258246 -0.455671,-0.258246 -0.179807,0 -0.322703,0.0763413 -0.429944,0.227905 -0.133947,0.19309 -0.2012,0.551307 -0.2012,1.07283z"/>
 <path class="fil6" d="M163.837 -67.5248l-0.389956 0 0 -2.48599c-0.0939585,0.0894843 -0.21672,0.179108 -0.369123,0.268593 -0.153242,0.0894843 -0.290125,0.156877 -0.411488,0.2012l0 -0.376533c0.218398,-0.102907 0.409251,-0.227206 0.572699,-0.372898 0.16275,-0.146531 0.278939,-0.287888 0.347031,-0.42547l0.250836 0 0 3.19109zm2.46893 0l-0.389956 0 0 -2.48599c-0.0939585,0.0894843 -0.21672,0.179108 -0.369123,0.268593 -0.153242,0.0894843 -0.290125,0.156877 -0.411488,0.2012l0 -0.376533c0.218398,-0.102907 0.409251,-0.227206 0.572699,-0.372898 0.16275,-0.146531 0.278939,-0.287888 0.347031,-0.42547l0.250836 0 0 3.19109z"/>
 <path class="fil6" d="M163.837 -57.5631l-0.389956 0 0 -2.48599c-0.0939585,0.0894843 -0.21672,0.179108 -0.369123,0.268593 -0.153242,0.0894843 -0.290125,0.156877 -0.411488,0.2012l0 -0.376533c0.218398,-0.102907 0.409251,-0.227206 0.572699,-0.372898 0.16275,-0.146531 0.278939,-0.287888 0.347031,-0.42547l0.250836 0 0 3.19109zm1.0018 -0.839055l0.389816 -0.0517331c0.0451616,0.221194 0.121363,0.380308 0.228604,0.477902 0.10808,0.0977336 0.239091,0.146531 0.393731,0.146531 0.183443,0 0.338782,-0.0636177 0.465318,-0.190853 0.125837,-0.127235 0.189455,-0.284952 0.189455,-0.472869 0,-0.178969 -0.0584444,-0.327037 -0.175333,-0.443087 -0.117728,-0.11619 -0.266356,-0.174634 -0.447002,-0.174634 -0.0739644,0 -0.165686,0.0148208 -0.275164,0.0436236l0.0436236 -0.342557c0.0258666,0.0029362 0.0465598,0.00447421 0.0629186,0.00447421 0.165686,0 0.315152,-0.0436236 0.4484,-0.130311 0.133108,-0.0865481 0.199662,-0.220495 0.199662,-0.401001 0,-0.142755 -0.0487969,-0.261881 -0.145692,-0.355141 -0.0968947,-0.0939585 -0.222033,-0.141217 -0.375135,-0.141217 -0.151704,0 -0.27824,0.0480978 -0.37877,0.142755 -0.101369,0.0954965 -0.166525,0.238951 -0.195327,0.429804l-0.389956 -0.0694901c0.0473987,-0.261881 0.156178,-0.464619 0.3248,-0.608214 0.169461,-0.143454 0.379609,-0.216021 0.631144,-0.216021 0.173096,0 0.33291,0.0377512 0.478741,0.111716 0.145692,0.0748033 0.257407,0.176032 0.335147,0.304806 0.0769006,0.128773 0.11605,0.264957 0.11605,0.40995 0,0.136883 -0.0369123,0.261881 -0.110877,0.375135 -0.0739644,0.112415 -0.182744,0.201899 -0.327037,0.268593 0.187917,0.0427847 0.333609,0.133108 0.437914,0.269991 0.103606,0.136184 0.155479,0.307043 0.155479,0.512018 0,0.277401 -0.10067,0.512717 -0.303408,0.705807 -0.202039,0.19309 -0.457908,0.289286 -0.767188,0.289286 -0.278939,0 -0.51062,-0.0829128 -0.694762,-0.249298 -0.184282,-0.165686 -0.289286,-0.381007 -0.315152,-0.645965z"/>
 <path class="fil6" d="M163.837 -47.6014l-0.389956 0 0 -2.48599c-0.0939585,0.0894843 -0.21672,0.179108 -0.369123,0.268593 -0.153242,0.0894843 -0.290125,0.156877 -0.411488,0.2012l0 -0.376533c0.218398,-0.102907 0.409251,-0.227206 0.572699,-0.372898 0.16275,-0.146531 0.278939,-0.287888 0.347031,-0.42547l0.250836 0 0 3.19109zm2.24997 0l0 -0.760616 -1.37848 0 0 -0.358077 1.4502 -2.05912 0.318928 0 0 2.05912 0.429105 0 0 0.358077 -0.429105 0 0 0.760616 -0.390655 0zm0 -1.11869l0 -1.43245 -0.994394 1.43245 0.994394 0z"/>
 <path class="fil6" d="M163.837 -37.6397l-0.389956 0 0 -2.48599c-0.0939585,0.0894843 -0.21672,0.179108 -0.369123,0.268593 -0.153242,0.0894843 -0.290125,0.156877 -0.411488,0.2012l0 -0.376533c0.218398,-0.102907 0.409251,-0.227206 0.572699,-0.372898 0.16275,-0.146531 0.278939,-0.287888 0.347031,-0.42547l0.250836 0 0 3.19109zm0.999567 -0.832344l0.40981 -0.034815c0.0303408,0.199802 0.10067,0.349268 0.210847,0.449798 0.111016,0.10067 0.244264,0.151005 0.400302,0.151005 0.187917,0 0.347031,-0.0710282 0.476504,-0.212385 0.130172,-0.142056 0.195327,-0.329973 0.195327,-0.563751 0,-0.222732 -0.0622195,-0.398065 -0.187218,-0.526839 -0.124998,-0.128634 -0.288587,-0.19309 -0.491185,-0.19309 -0.125837,0 -0.239091,0.0289426 -0.34046,0.085849 -0.101369,0.0570462 -0.180507,0.131011 -0.238252,0.222033l-0.366186 -0.0473987 0.307742 -1.63225 1.58038 0 0 0.372898 -1.26816 0 -0.171558 0.853876c0.190853,-0.133108 0.391354,-0.199802 0.600803,-0.199802 0.277401,0 0.511179,0.0961956 0.702032,0.288587 0.190993,0.192391 0.28635,0.439452 0.28635,0.741321 0,0.287888 -0.084311,0.536486 -0.251535,0.745796 -0.204136,0.256848 -0.482376,0.385482 -0.834581,0.385482 -0.289286,0 -0.525301,-0.0806757 -0.708044,-0.242586 -0.182744,-0.16205 -0.287049,-0.376673 -0.312915,-0.643728z"/>
 <path class="fil6" d="M163.837 -27.678l-0.389956 0 0 -2.48599c-0.0939585,0.0894843 -0.21672,0.179108 -0.369123,0.268593 -0.153242,0.0894843 -0.290125,0.156877 -0.411488,0.2012l0 -0.376533c0.218398,-0.102907 0.409251,-0.227206 0.572699,-0.372898 0.16275,-0.146531 0.278939,-0.287888 0.347031,-0.42547l0.250836 0 0 3.19109zm3.02387 -2.39944l-0.387719 0.0303408c-0.034815,-0.153102 -0.0836119,-0.264818 -0.14723,-0.333609 -0.105843,-0.111855 -0.236015,-0.167224 -0.390655,-0.167224 -0.124299,0 -0.233079,0.0346752 -0.327037,0.104305 -0.122901,0.0894843 -0.219796,0.220495 -0.290824,0.392053 -0.0701892,0.171698 -0.107241,0.416661 -0.110178,0.73475 0.0939585,-0.142755 0.20861,-0.249298 0.344794,-0.318928 0.135345,-0.068791 0.2781,-0.103606 0.426868,-0.103606 0.260483,0 0.481677,0.0954965 0.664421,0.287189 0.182744,0.191552 0.274465,0.438753 0.274465,0.74202 0,0.199802 -0.0436236,0.384782 -0.129473,0.556341 -0.085849,0.170999 -0.204136,0.302709 -0.354442,0.393731 -0.150166,0.0910223 -0.320326,0.136044 -0.511179,0.136044 -0.325639,0 -0.590456,-0.119126 -0.795431,-0.358776 -0.205674,-0.238951 -0.307742,-0.633381 -0.307742,-1.18231 0,-0.614086 0.113254,-1.06025 0.34032,-1.33919 0.197565,-0.242726 0.46392,-0.364788 0.799766,-0.364788 0.249437,0 0.454273,0.0703291 0.614086,0.210847 0.159813,0.139819 0.25531,0.333748 0.287189,0.580809zm-1.59296 1.36953c0,0.134646 0.0288028,0.263419 0.085849,0.386181 0.0569064,0.122901 0.136743,0.216021 0.238951,0.280477 0.102767,0.0643168 0.210847,0.0968947 0.323262,0.0968947 0.164987,0 0.306344,-0.0665539 0.424771,-0.199802 0.118287,-0.133108 0.17757,-0.313614 0.17757,-0.54152 0,-0.219796 -0.0584444,-0.392892 -0.175473,-0.519428 -0.116889,-0.126536 -0.264118,-0.189455 -0.441689,-0.189455 -0.176731,0 -0.326198,0.0629186 -0.449099,0.189455 -0.122761,0.126536 -0.184142,0.292222 -0.184142,0.497197z"/>
 <path class="fil6" d="M163.837 -17.7164l-0.389956 0 0 -2.48599c-0.0939585,0.0894843 -0.21672,0.179108 -0.369123,0.268593 -0.153242,0.0894843 -0.290125,0.156877 -0.411488,0.2012l0 -0.376533c0.218398,-0.102907 0.409251,-0.227206 0.572699,-0.372898 0.16275,-0.146531 0.278939,-0.287888 0.347031,-0.42547l0.250836 0 0 3.19109zm1.02543 -2.76129l0 -0.374995 2.05688 0 0 0.303268c-0.202039,0.215322 -0.402539,0.501671 -0.601502,0.85835 -0.198403,0.356539 -0.352205,0.724263 -0.460285,1.10094 -0.0784386,0.266356 -0.127935,0.55704 -0.149467,0.87373l-0.401001 0c0.00447421,-0.250137 0.0532711,-0.552006 0.14723,-0.906308 0.0939585,-0.353743 0.228604,-0.695461 0.403938,-1.02404 0.176172,-0.328435 0.362551,-0.605976 0.560955,-0.830945l-1.55675 0z"/>
 <path class="fil6" d="M163.837 -7.75465l-0.389956 0 0 -2.48599c-0.0939585,0.0894843 -0.21672,0.179108 -0.369123,0.268593 -0.153242,0.0894843 -0.290125,0.156877 -0.411488,0.2012l0 -0.376533c0.218398,-0.102907 0.409251,-0.227206 0.572699,-0.372898 0.16275,-0.146531 0.278939,-0.287888 0.347031,-0.42547l0.250836 0 0 3.19109zm1.60023 -1.72313c-0.161911,-0.0592833 -0.281875,-0.143594 -0.360314,-0.253772 -0.0775997,-0.109618 -0.116889,-0.241188 -0.116889,-0.39443 0,-0.231541 0.0829128,-0.42547 0.249437,-0.583046 0.166385,-0.157576 0.38688,-0.236714 0.662883,-0.236714 0.277401,0 0.500832,0.0806757 0.670293,0.241887 0.168762,0.161351 0.253073,0.357378 0.253073,0.589058 0,0.14723 -0.0384503,0.275164 -0.115491,0.384643 -0.0775997,0.108779 -0.194489,0.19309 -0.352065,0.252374 0.194489,0.0636177 0.343256,0.165686 0.445324,0.307742 0.101369,0.141357 0.152403,0.310818 0.152403,0.506845 0,0.272228 -0.0961956,0.500133 -0.287748,0.685114 -0.192391,0.184981 -0.445464,0.277401 -0.759078,0.277401 -0.313754,0 -0.566128,-0.0924205 -0.758379,-0.2781 -0.192391,-0.18582 -0.288587,-0.41736 -0.288587,-0.694762 0,-0.206513 0.052572,-0.379609 0.157576,-0.519428 0.104305,-0.13912 0.253772,-0.234477 0.447561,-0.284812zm-0.0782987 -0.661485c0,0.150166 0.0487969,0.273067 0.144993,0.368424 0.0968947,0.0954965 0.222732,0.143594 0.377232,0.143594 0.150306,0 0.273766,-0.0473987 0.369962,-0.142056 0.0961956,-0.0947974 0.143594,-0.210847 0.143594,-0.34773 0,-0.143594 -0.0487969,-0.263419 -0.147929,-0.361153 -0.0992716,-0.0975938 -0.222033,-0.146391 -0.369962,-0.146391 -0.148768,0 -0.272368,0.0480978 -0.370661,0.142755 -0.0984327,0.0954965 -0.14723,0.210148 -0.14723,0.342557zm-0.125837 1.46796c0,0.110877 0.0265656,0.218957 0.0791377,0.322563 0.052572,0.104305 0.131011,0.184981 0.235316,0.241887 0.104305,0.0570462 0.216021,0.085849 0.335846,0.085849 0.186519,0 0.34046,-0.0599824 0.461683,-0.180507 0.121363,-0.119825 0.182045,-0.272368 0.182045,-0.457209 0,-0.188057 -0.0620797,-0.343396 -0.187218,-0.466157 -0.124998,-0.122901 -0.281875,-0.184282 -0.469792,-0.184282 -0.183443,0 -0.335147,0.0606815 -0.455811,0.182045 -0.120524,0.122062 -0.181206,0.273766 -0.181206,0.455811z"/>
 <path class="fil6" d="M163.837 2.20705l-0.389956 0 0 -2.48599c-0.0939585,0.0894843 -0.21672,0.179108 -0.369123,0.268593 -0.153242,0.0894843 -0.290125,0.156877 -0.411488,0.2012l0 -0.376533c0.218398,-0.102907 0.409251,-0.227206 0.572699,-0.372898 0.16275,-0.146531 0.278939,-0.287888 0.347031,-0.42547l0.250836 0 0 3.19109zm1.05801 -0.73475l0.375135 -0.0346752c0.031739,0.176032 0.0924205,0.304107 0.181905,0.383944 0.0896241,0.0791377 0.204276,0.119126 0.344794,0.119126 0.119825,0 0.224969,-0.0274046 0.315152,-0.0829128 0.0903232,-0.0546693 0.164288,-0.127935 0.222033,-0.219656 0.0584444,-0.0917214 0.106542,-0.216021 0.145692,-0.3715 0.0385901,-0.156038 0.0584444,-0.315152 0.0584444,-0.477203 0,-0.0170579 -0.000699096,-0.0436236 -0.00209729,-0.0775997 -0.0784386,0.12346 -0.184981,0.224829 -0.319627,0.30187 -0.135485,0.0775997 -0.282015,0.11605 -0.438753,0.11605 -0.263419,0 -0.486151,-0.0953567 -0.668196,-0.28635 -0.181905,-0.190853 -0.272927,-0.441689 -0.272927,-0.753905 0,-0.322563 0.0946576,-0.581508 0.284812,-0.778373 0.190154,-0.196726 0.428406,-0.295158 0.714756,-0.295158 0.206373,0 0.394989,0.0562073 0.566687,0.167224 0.170859,0.111016 0.301171,0.269991 0.389956,0.475665 0.0887852,0.205814 0.133108,0.503908 0.133108,0.894563 0,0.405476 -0.0436236,0.728738 -0.13171,0.969926 -0.0887852,0.240489 -0.219656,0.423233 -0.393591,0.54907 -0.174634,0.125697 -0.378071,0.188616 -0.612548,0.188616 -0.248599,0 -0.451336,-0.068791 -0.608913,-0.207072 -0.157576,-0.137722 -0.252374,-0.331511 -0.284113,-0.581648zm1.59729 -1.40281c0,-0.223431 -0.0591435,-0.401701 -0.178269,-0.532711 -0.119825,-0.13171 -0.26258,-0.197565 -0.430643,-0.197565 -0.173096,0 -0.323961,0.0710282 -0.452735,0.212385 -0.128773,0.142056 -0.19309,0.325639 -0.19309,0.550468 0,0.202738 0.0613806,0.367025 0.183443,0.493562 0.122062,0.126536 0.272228,0.189315 0.451336,0.189315 0.181206,0 0.329274,-0.0627788 0.445464,-0.189315 0.116889,-0.126536 0.174494,-0.30187 0.174494,-0.52614z"/>
 <path class="fil6" d="M164.418 11.7936l0 0.375135 -2.1005 0c-0.0029362,-0.0939585 0.0118846,-0.184282 0.0451616,-0.27083 0.0532711,-0.143454 0.13912,-0.284113 0.256708,-0.423233 0.118427,-0.138281 0.288587,-0.298794 0.51048,-0.480838 0.345633,-0.283414 0.579411,-0.507544 0.700774,-0.673369 0.121223,-0.164987 0.181905,-0.321724 0.181905,-0.469093 0,-0.1545 -0.0555082,-0.284812 -0.165686,-0.391354 -0.111016,-0.105843 -0.25531,-0.159114 -0.43288,-0.159114 -0.187917,0 -0.338083,0.0563471 -0.450497,0.169461 -0.113254,0.112554 -0.17016,0.268593 -0.171698,0.467695l-0.401001 -0.0406874c0.0274046,-0.299772 0.131011,-0.527538 0.309979,-0.684415 0.179108,-0.156877 0.420297,-0.235316 0.722166,-0.235316 0.304806,0 0.545994,0.0851499 0.723564,0.253772 0.178269,0.169461 0.267055,0.37877 0.267055,0.628907 0,0.127235 -0.0258666,0.252234 -0.0784386,0.375135 -0.0517331,0.122761 -0.138281,0.252234 -0.258945,0.387719 -0.120524,0.136044 -0.321025,0.322563 -0.601502,0.559277 -0.233778,0.196865 -0.383944,0.329973 -0.450497,0.400302 -0.0666938,0.0694901 -0.121363,0.139819 -0.164987,0.210847l1.55884 0zm0.418059 -1.19196c0,-0.375834 0.0384503,-0.678403 0.11605,-0.907007 0.0770404,-0.229443 0.192391,-0.406175 0.344794,-0.530474 0.152403,-0.124299 0.344095,-0.186519 0.574937,-0.186519 0.170859,0 0.320326,0.034815 0.449099,0.103606 0.128773,0.0680919 0.234477,0.167224 0.318928,0.296696 0.0836119,0.129473 0.149467,0.287049 0.196726,0.472729 0.0480978,0.18568 0.0718671,0.435816 0.0718671,0.750969 0,0.372898 -0.0385901,0.673369 -0.114792,0.902673 -0.0769006,0.229303 -0.191552,0.406175 -0.343955,0.531173 -0.152403,0.125138 -0.344794,0.187218 -0.577873,0.187218 -0.306344,0 -0.546833,-0.109478 -0.721327,-0.329274 -0.209449,-0.264118 -0.314453,-0.695461 -0.314453,-1.29179zm0.401001 0c0,0.521665 0.0613806,0.868697 0.183443,1.04179 0.122062,0.172397 0.272228,0.258945 0.451336,0.258945 0.179807,0 0.329973,-0.0872472 0.452035,-0.260483 0.122062,-0.173096 0.183583,-0.520127 0.183583,-1.04025 0,-0.523064 -0.0615204,-0.870794 -0.183583,-1.04249 -0.122062,-0.172397 -0.273766,-0.258246 -0.455671,-0.258246 -0.179807,0 -0.322703,0.0763413 -0.429944,0.227905 -0.133947,0.19309 -0.2012,0.551307 -0.2012,1.07283z"/>
</symbol>
<symbol id="Fm3-53736-0" viewBox="139.401 -253.617 360.747 281.824">
 <path class="fil1" d="M500.148 -249.671c0,-2.17027 -1.7757,-3.94598 -3.94598,-3.94598l-352.855 0c-2.17027,0 -3.94598,1.7757 -3.94598,3.94598l0 273.932c0,2.17027 1.7757,3.94598 3.94598,3.94598l352.855 0c2.17027,0 3.94598,-1.7757 3.94598,-3.94598l0 -273.932z"/>
</symbol>
<symbol id="Fm25-53731-0" viewBox="301.706 -125.363 43.3978 10.0283">
 <polygon class="fil0" points="302.076,-124.993 344.734,-124.993 344.734,-115.705 302.076,-115.705 "/>
 <path class="fil1" d="M345.104 -125.363l-43.3978 0 0 10.0283 43.3978 0 0 -10.0283zm-0.739923 9.28833l-41.9179 0 0 -8.54841 41.9179 0 0 8.54841z"/>
</symbol>
<symbol id="Fm20-53726-0" viewBox="171.53 -165.417 43.3978 10.0283">
 <polygon class="fil0" points="171.901,-165.047 214.558,-165.047 214.558,-155.758 171.901,-155.758 "/>
 <path class="fil1" d="M214.928 -165.417l-43.3978 0 0 10.0283 43.3978 0 0 -10.0283zm-0.739923 9.28889l-41.9179 0 0 -8.54855 41.9179 0 0 8.54855z"/>
</symbol>
<symbol id="Fm32-53739-0" viewBox="432.046 -165.417 43.3976 10.0283">
 <polygon class="fil4" points="432.416,-165.047 475.074,-165.047 475.074,-155.758 432.416,-155.758 "/>
 <path class="fil1" d="M475.444 -165.417l-43.3976 0 0 10.0283 43.3976 0 0 -10.0283zm-0.739783 9.28889l-41.9179 0 0 -8.54855 41.9179 0 0 8.54855z"/>
</symbol>
<symbol id="Fm19-53724-0" viewBox="214.928 -155.388 43.3976 10.0284">
 <polygon class="fil0" points="215.298,-155.018 257.955,-155.018 257.955,-145.73 215.298,-145.73 "/>
 <path class="fil1" d="M258.326 -155.388l-43.3976 0 0 10.0284 43.3976 0 0 -10.0284zm-0.739783 9.28847l-41.9181 0 0 -8.54855 41.9181 0 0 8.54855z"/>
</symbol>
<symbol id="Fm16-53721-0" viewBox="171.325 -175.629 304.03 240.93">
 <polygon class="fil2 str1" points="171.449,-175.506 475.232,-175.506 475.232,65.1774 171.449,65.1774 "/>
 <line class="fil2 str1" x1="171.449" y1="-5.02175" x2="475.232" y2= "-5.02175" />
 <line class="fil2 str1" x1="171.449" y1="-15.0503" x2="475.232" y2= "-15.0503" />
 <line class="fil2 str1" x1="171.449" y1="-25.0787" x2="475.232" y2= "-25.0787" />
 <line class="fil2 str1" x1="171.449" y1="-35.1072" x2="475.232" y2= "-35.1072" />
 <line class="fil2 str1" x1="171.449" y1="-45.1357" x2="475.232" y2= "-45.1357" />
 <line class="fil2 str1" x1="171.449" y1="-55.1641" x2="475.232" y2= "-55.1641" />
 <line class="fil2 str1" x1="171.449" y1="-65.1927" x2="475.232" y2= "-65.1927" />
 <line class="fil2 str1" x1="171.449" y1="-75.221" x2="475.232" y2= "-75.221" />
 <line class="fil2 str1" x1="171.449" y1="-85.2496" x2="475.232" y2= "-85.2496" />
 <line class="fil2 str1" x1="171.449" y1="-95.2781" x2="475.232" y2= "-95.2781" />
 <line class="fil2 str1" x1="171.449" y1="-105.307" x2="475.232" y2= "-105.307" />
 <line class="fil2 str1" x1="171.449" y1="-115.335" x2="475.232" y2= "-115.335" />
 <line class="fil2 str1" x1="171.449" y1="-125.364" x2="475.232" y2= "-125.364" />
 <line class="fil2 str1" x1="171.449" y1="-135.392" x2="475.232" y2= "-135.392" />
 <line class="fil2 str1" x1="171.449" y1="-145.42" x2="475.232" y2= "-145.42" />
 <line class="fil2 str1" x1="171.449" y1="-155.449" x2="475.232" y2= "-155.449" />
 <line class="fil2 str1" x1="171.449" y1="-165.477" x2="475.232" y2= "-165.477" />
 <line class="fil2 str1" x1="431.834" y1="-175.506" x2="431.834" y2= "65.1774" />
 <line class="fil2 str1" x1="388.436" y1="-175.506" x2="388.436" y2= "65.1774" />
 <line class="fil2 str1" x1="345.039" y1="-175.506" x2="345.039" y2= "65.1774" />
 <line class="fil2 str1" x1="301.641" y1="-175.506" x2="301.641" y2= "65.1774" />
 <line class="fil2 str1" x1="258.244" y1="-175.506" x2="258.244" y2= "65.1774" />
 <line class="fil2 str1" x1="214.846" y1="-175.506" x2="214.846" y2= "65.1774" />
</symbol>
<symbol id="Fm29-53735-0" viewBox="301.654 -165.417 43.3978 10.0283">
 <polygon class="fil4" points="302.024,-165.047 344.682,-165.047 344.682,-155.758 302.024,-155.758 "/>
 <path class="fil1" d="M345.052 -165.417l-43.3978 0 0 10.0283 43.3978 0 0 -10.0283zm-0.739923 9.28889l-41.9179 0 0 -8.54855 41.9179 0 0 8.54855z"/>
</symbol>
<symbol id="Fm24-53730-0" viewBox="388.502 -165.417 43.3978 10.0283">
 <polygon class="fil0" points="388.872,-165.047 431.529,-165.047 431.529,-155.758 388.872,-155.758 "/>
 <path class="fil1" d="M431.899 -165.417l-43.3978 0 0 10.0283 43.3978 0 0 -10.0283zm-0.739923 9.28889l-41.9179 0 0 -8.54855 41.9179 0 0 8.54855z"/>
</symbol>
 <g id="Symbol_x0020_Contents">
  <metadata id="CorelCorpID_0Corel-Layer"/>
  <polygon class="fil2 str1" points="1.28983,7.15217 0.123321,7.15217 0.123321,0.946576 6.32892,0.946576 6.32892,2.11309 1.28983,2.11309 "/>
  <line class="fil2 str1" x1="1.328" y1="1.7929" x2="1.328" y2= "0" />
  <line class="fil2 str1" x1="5.16031" y1="1.7929" x2="5.16031" y2= "0" />
  <polygon class="fil2 str1" points="7.49543,8.31868 1.28983,8.31868 1.28983,2.11309 7.49543,2.11309 "/>
 </g>
</svg>
